<svg width="178" height="162" viewBox="0 0 178 162" fill="none" xmlns="http://www.w3.org/2000/svg">
<path d="M171.86 151.046L174.082 152.258C174.284 152.46 174.688 152.46 174.89 152.258L176.91 151.046C177.112 150.844 177.112 150.642 176.91 150.642L174.688 149.43C174.486 149.228 174.082 149.228 173.88 149.43L171.86 150.642C171.658 150.844 171.658 151.046 171.86 151.046Z" fill="#150035"/>
<path d="M168.628 146.4L166.608 147.612C166.406 147.814 166.406 148.016 166.608 148.016L168.83 149.228C169.032 149.43 169.436 149.43 169.638 149.228L171.658 148.016C171.86 148.016 168.83 146.4 168.628 146.4Z" fill="#150035"/>
<path d="M161.356 144.582C161.154 144.784 161.154 144.986 161.356 144.986L163.578 146.198C163.78 146.4 164.184 146.4 164.386 146.198L166.406 144.986C166.608 144.986 161.356 144.582 161.356 144.582Z" fill="#150035"/>
<path d="M156.103 141.551C155.901 141.753 155.901 141.955 156.103 141.955L158.325 143.168C158.527 143.37 158.931 143.37 159.133 143.168L156.103 141.551Z" fill="#150035"/>
<path d="M151.053 138.521C150.851 138.723 150.851 138.925 151.053 138.925L153.275 140.137C153.477 140.339 153.881 140.339 154.083 140.137L151.053 138.521Z" fill="#150035"/>
<path d="M147.821 134.481L145.801 135.693C145.599 135.895 145.599 136.097 145.801 136.097L148.023 137.309C148.225 137.511 148.629 137.511 148.831 137.309C148.629 137.309 148.023 134.279 147.821 134.481Z" fill="#150035"/>
<path d="M142.569 131.451L140.549 132.663C140.347 132.865 140.347 133.067 140.549 133.067L142.771 134.279C142.973 134.481 143.377 134.481 143.579 134.279L145.599 133.067C145.801 132.865 142.771 131.249 142.569 131.451Z" fill="#150035"/>
<path d="M137.316 128.421L135.296 129.633C135.094 129.835 135.094 130.037 135.296 130.037L137.518 131.249C137.72 131.451 138.124 131.451 138.326 131.249L140.347 130.037C140.549 129.835 137.518 128.219 137.316 128.421Z" fill="#150035"/>
<path d="M132.064 125.391L130.044 126.603C129.842 126.805 129.842 127.007 130.044 127.007L132.266 128.219C132.468 128.421 132.872 128.421 133.074 128.219L135.094 127.007C135.296 126.805 132.266 125.189 132.064 125.391Z" fill="#150035"/>
<path d="M126.812 122.361L124.792 123.573C124.59 123.775 124.59 123.977 124.792 123.977L127.014 125.189C127.216 125.391 127.62 125.391 127.822 125.189L129.842 123.977C130.044 123.775 127.014 122.159 126.812 122.361Z" fill="#150035"/>
<path d="M121.56 119.33L119.54 120.542C119.338 120.744 119.338 120.946 119.54 120.946L121.762 122.159C121.964 122.361 122.368 122.361 122.57 122.159L124.59 120.946C124.792 120.744 121.964 119.128 121.56 119.33Z" fill="#150035"/>
<path d="M116.307 116.3L114.287 117.512C114.085 117.714 114.085 117.916 114.287 117.916L116.509 119.128C116.711 119.33 117.115 119.33 117.317 119.128L119.338 117.916C119.54 117.916 116.711 116.098 116.307 116.3Z" fill="#150035"/>
<path d="M111.257 113.27L109.237 114.482C109.035 114.684 109.035 114.886 109.237 114.886L111.459 116.098C111.661 116.3 112.065 116.3 112.267 116.098L114.287 114.886C114.287 114.886 111.459 113.068 111.257 113.27Z" fill="#150035"/>
<path d="M166.81 154.076L169.032 155.288C169.234 155.49 169.638 155.49 169.84 155.288L171.86 154.076C172.062 153.874 172.062 153.672 171.86 153.672L169.638 152.46C169.436 152.258 169.032 152.258 168.83 152.46L166.81 153.672C166.608 153.672 166.608 153.874 166.81 154.076Z" fill="#150035"/>
<path d="M172.062 157.106L174.284 158.318C174.486 158.52 174.89 158.52 175.092 158.318L177.112 157.106C177.314 156.904 177.314 156.702 177.112 156.702L174.89 155.49C174.688 155.288 174.284 155.288 174.082 155.49L172.062 156.702C171.86 156.702 171.86 156.904 172.062 157.106Z" fill="#150035"/>
<path d="M115.701 97.3113L117.923 98.5234C118.126 98.7254 118.53 98.7254 118.732 98.5234L120.752 97.3113C120.954 97.1093 120.954 96.9073 120.752 96.9073L118.529 95.6953C118.327 95.4933 117.923 95.4933 117.721 95.6953L115.701 96.9073C115.499 97.1093 115.499 97.3113 115.701 97.3113Z" fill="#150035"/>
<path d="M110.853 100.139L113.075 101.351C113.277 101.553 113.681 101.553 113.883 101.351L115.903 100.139C116.105 99.9374 116.105 99.7354 115.903 99.7354L113.681 98.5233C113.479 98.3213 113.075 98.3213 112.873 98.5233L110.853 99.7354C110.651 99.9374 110.449 100.139 110.853 100.139Z" fill="#150035"/>
<path d="M115.903 103.17L118.126 104.382C118.328 104.584 118.732 104.584 118.934 104.382L120.954 103.17C121.156 102.968 121.156 102.766 120.954 102.766L118.732 101.553C118.53 101.351 118.126 101.351 117.923 101.553L115.903 102.766C115.701 102.968 115.701 103.17 115.903 103.17Z" fill="#150035"/>
<path d="M115.499 91.453L117.721 92.6651C117.923 92.8671 118.327 92.8671 118.529 92.6651L120.55 91.453C120.752 91.251 120.752 91.049 120.55 91.049L118.327 89.8369C118.125 89.6349 117.721 89.6349 117.519 89.8369L115.499 91.049C115.297 91.049 115.297 91.251 115.499 91.453Z" fill="#150035"/>
<path d="M161.558 151.046L163.78 152.258C163.982 152.46 164.386 152.46 164.588 152.258L166.608 151.046C166.81 150.844 166.81 150.642 166.608 150.642L164.386 149.43C164.184 149.228 163.78 149.228 163.578 149.43L161.558 150.642C161.356 150.642 161.356 150.844 161.558 151.046Z" fill="#150035"/>
<path d="M156.507 148.016L158.729 149.228C158.931 149.43 159.336 149.43 159.538 149.228L161.558 148.016C161.76 147.814 161.76 147.612 161.558 147.612L159.336 146.4C159.134 146.198 158.73 146.198 158.527 146.4L156.507 147.612C156.305 147.612 156.103 147.814 156.507 148.016Z" fill="#150035"/>
<path d="M151.255 144.986L153.477 146.198C153.679 146.4 154.083 146.4 154.285 146.198L156.305 144.986C156.507 144.784 156.507 144.582 156.305 144.582L154.083 143.37C153.881 143.168 153.477 143.168 153.275 143.37L151.255 144.582C151.053 144.582 151.053 144.784 151.255 144.986Z" fill="#150035"/>
<path d="M146.003 141.955L148.225 143.168C148.427 143.37 148.831 143.37 149.033 143.168L151.053 141.955C151.255 141.753 151.255 141.551 151.053 141.551L148.831 140.339C148.629 140.137 148.225 140.137 148.023 140.339L146.003 141.551C145.801 141.551 145.801 141.753 146.003 141.955Z" fill="#150035"/>
<path d="M140.751 138.925L142.973 140.137C143.175 140.339 143.579 140.339 143.781 140.137L145.801 138.925C146.003 138.723 146.003 138.521 145.801 138.521L143.579 137.309C143.377 137.107 142.973 137.107 142.771 137.309L140.751 138.521C140.549 138.521 140.549 138.723 140.751 138.925Z" fill="#150035"/>
<path d="M135.498 135.895L137.72 137.107C137.922 137.309 138.326 137.309 138.528 137.107L140.549 135.895C140.751 135.693 140.751 135.491 140.549 135.491L138.326 134.279C138.124 134.077 137.72 134.077 137.518 134.279L135.498 135.491C135.296 135.491 135.296 135.693 135.498 135.895Z" fill="#150035"/>
<path d="M130.246 132.865L132.468 134.077C132.67 134.279 133.074 134.279 133.276 134.077L135.296 132.865C135.498 132.663 135.498 132.461 135.296 132.461L133.074 131.249C132.872 131.047 132.468 131.047 132.266 131.249L130.246 132.461C130.044 132.461 130.044 132.663 130.246 132.865Z" fill="#150035"/>
<path d="M124.994 129.835L127.216 131.047C127.418 131.249 127.822 131.249 128.024 131.047L130.044 129.835C130.246 129.633 130.246 129.431 130.044 129.431L127.822 128.219C127.62 128.017 127.216 128.017 127.014 128.219L124.994 129.431C124.792 129.431 124.792 129.633 124.994 129.835Z" fill="#150035"/>
<path d="M119.742 126.805L121.964 128.017C122.166 128.219 122.57 128.219 122.772 128.017L124.792 126.805C124.994 126.603 124.994 126.401 124.792 126.401L122.57 125.189C122.368 124.987 121.964 124.987 121.762 125.189L119.742 126.401C119.54 126.401 119.54 126.805 119.742 126.805Z" fill="#150035"/>
<path d="M114.489 123.775L116.711 124.987C116.914 125.189 117.318 125.189 117.52 124.987L119.54 123.775C119.742 123.573 119.742 123.371 119.54 123.371L117.318 122.159C117.115 121.957 116.711 121.957 116.509 122.159L114.489 123.371C114.489 123.371 114.287 123.775 114.489 123.775Z" fill="#150035"/>
<path d="M109.439 120.744L111.661 121.957C111.863 122.159 112.267 122.159 112.469 121.957L114.489 120.744C114.691 120.542 114.691 120.34 114.489 120.34L112.267 119.128C112.065 118.926 111.661 118.926 111.459 119.128L109.439 120.34C109.237 120.542 109.237 120.744 109.439 120.744Z" fill="#150035"/>
<path d="M104.187 117.714L106.409 118.926C106.611 119.128 107.015 119.128 107.217 118.926L109.237 117.714C109.439 117.512 109.439 117.31 109.237 117.31L107.015 116.098C106.813 115.896 106.409 115.896 106.207 116.098L104.187 117.31C103.985 117.512 103.985 117.714 104.187 117.714Z" fill="#150035"/>
<path d="M98.9346 114.684L101.157 115.896C101.359 116.098 101.763 116.098 101.965 115.896L103.985 114.684C104.187 114.482 104.187 114.28 103.985 114.28L101.763 113.068C101.561 112.866 101.157 112.866 100.955 113.068L98.9346 114.28C98.7326 114.482 98.7326 114.684 98.9346 114.684Z" fill="#150035"/>
<path d="M93.6823 111.654L95.9045 112.866C96.1065 113.068 96.5105 113.068 96.7125 112.866L98.7326 111.654C98.9346 111.452 98.9346 111.25 98.7326 111.25L96.5105 110.038C96.3084 109.836 95.9044 109.836 95.7024 110.038L93.6823 111.25C93.4803 111.452 93.4803 111.654 93.6823 111.654Z" fill="#150035"/>
<path d="M88.4301 108.624L90.6522 109.836C90.8542 110.038 91.2582 110.038 91.4602 109.836L93.4803 108.624C93.6823 108.422 93.6823 108.22 93.4803 108.22L91.2582 107.008C91.0562 106.806 90.6522 106.806 90.4502 107.008L88.4301 108.22C88.2281 108.422 88.2281 108.624 88.4301 108.624Z" fill="#150035"/>
<path d="M161.558 157.106L163.78 158.318C163.982 158.52 164.386 158.52 164.588 158.318L166.608 157.106C166.81 156.904 166.81 156.702 166.608 156.702L164.386 155.49C164.184 155.288 163.78 155.288 163.578 155.49L161.558 156.702C161.356 156.702 161.356 156.904 161.558 157.106Z" fill="#150035"/>
<path d="M166.81 160.136L169.032 161.348C169.234 161.55 169.638 161.55 169.84 161.348L171.86 160.136C172.062 159.934 172.062 159.732 171.86 159.732L169.638 158.52C169.436 158.318 169.032 158.318 168.83 158.52L166.81 159.732C166.608 159.732 166.608 159.934 166.81 160.136Z" fill="#150035"/>
<path d="M156.305 154.076L158.527 155.288C158.73 155.49 159.134 155.49 159.336 155.288L161.356 154.076C161.558 153.874 161.558 153.672 161.356 153.672L159.134 152.46C158.931 152.258 158.527 152.258 158.325 152.46L156.305 153.672C156.103 153.672 156.103 153.874 156.305 154.076Z" fill="#150035"/>
<path d="M151.255 151.046L153.477 152.258C153.679 152.46 154.083 152.46 154.285 152.258L156.305 151.046C156.507 150.844 156.507 150.642 156.305 150.642L154.083 149.43C153.881 149.228 153.477 149.228 153.275 149.43L151.255 150.642C151.053 150.642 150.851 150.844 151.255 151.046Z" fill="#150035"/>
<path d="M146.003 148.016L148.225 149.228C148.427 149.43 148.831 149.43 149.033 149.228L151.053 148.016C151.255 147.814 151.255 147.612 151.053 147.612L148.831 146.4C148.629 146.198 148.225 146.198 148.023 146.4L146.003 147.612C145.801 147.612 145.801 147.814 146.003 148.016Z" fill="#150035"/>
<path d="M140.751 144.986L142.973 146.198C143.175 146.4 143.579 146.4 143.781 146.198L145.801 144.986C146.003 144.784 146.003 144.582 145.801 144.582L143.579 143.37C143.377 143.168 142.973 143.168 142.771 143.37L140.751 144.582C140.549 144.582 140.549 144.784 140.751 144.986Z" fill="#150035"/>
<path d="M135.498 141.955L137.72 143.168C137.922 143.37 138.326 143.37 138.528 143.168L140.549 141.955C140.751 141.753 140.751 141.551 140.549 141.551L138.326 140.339C138.124 140.137 137.72 140.137 137.518 140.339L135.498 141.551C135.296 141.551 135.296 141.753 135.498 141.955Z" fill="#150035"/>
<path d="M130.246 138.925L132.468 140.137C132.67 140.339 133.074 140.339 133.276 140.137L135.296 138.925C135.498 138.723 135.498 138.521 135.296 138.521L133.074 137.309C132.872 137.107 132.468 137.107 132.266 137.309L130.246 138.521C130.044 138.521 130.044 138.723 130.246 138.925Z" fill="#150035"/>
<path d="M124.994 135.895L127.216 137.107C127.418 137.309 127.822 137.309 128.024 137.107L130.044 135.895C130.246 135.693 130.246 135.491 130.044 135.491L127.822 134.279C127.62 134.077 127.216 134.077 127.014 134.279L124.994 135.491C124.792 135.491 124.792 135.693 124.994 135.895Z" fill="#150035"/>
<path d="M119.742 132.865L121.964 134.077C122.166 134.279 122.57 134.279 122.772 134.077L124.792 132.865C124.994 132.663 124.994 132.461 124.792 132.461L122.57 131.249C122.368 131.047 121.964 131.047 121.762 131.249L119.742 132.461C119.54 132.461 119.54 132.663 119.742 132.865Z" fill="#150035"/>
<path d="M114.489 129.835L116.711 131.047C116.913 131.249 117.317 131.249 117.519 131.047L119.54 129.835C119.742 129.633 119.742 129.431 119.54 129.431L117.317 128.219C117.115 128.017 116.711 128.017 116.509 128.219L114.489 129.431C114.287 129.431 114.287 129.835 114.489 129.835Z" fill="#150035"/>
<path d="M109.237 126.805L111.459 128.017C111.661 128.219 112.065 128.219 112.267 128.017L114.287 126.805C114.489 126.603 114.489 126.401 114.287 126.401L112.065 125.189C111.863 124.987 111.459 124.987 111.257 125.189L109.237 126.401C109.237 126.401 109.035 126.805 109.237 126.805Z" fill="#150035"/>
<path d="M104.187 123.775L106.409 124.987C106.611 125.189 107.015 125.189 107.217 124.987L109.237 123.775C109.439 123.573 109.439 123.371 109.237 123.371L107.015 122.159C106.813 121.957 106.409 121.957 106.207 122.159L104.187 123.371C103.985 123.573 103.985 123.775 104.187 123.775Z" fill="#150035"/>
<path d="M98.9346 120.744L101.157 121.957C101.359 122.159 101.763 122.159 101.965 121.957L103.985 120.744C104.187 120.542 104.187 120.34 103.985 120.34L101.763 119.128C101.561 118.926 101.157 118.926 100.955 119.128L98.9346 120.34C98.7326 120.542 98.7326 120.744 98.9346 120.744Z" fill="#150035"/>
<path d="M93.6823 117.714L95.9045 118.926C96.1065 119.128 96.5105 119.128 96.7125 118.926L98.7326 117.714C98.9346 117.512 98.9346 117.31 98.7326 117.31L96.5105 116.098C96.3084 115.896 95.9044 115.896 95.7024 116.098L93.6823 117.31C93.4803 117.512 93.4803 117.714 93.6823 117.714Z" fill="#150035"/>
<path d="M88.4301 114.684L90.6522 115.896C90.8542 116.098 91.2582 116.098 91.4602 115.896L93.4803 114.684C93.6823 114.482 93.6823 114.28 93.4803 114.28L91.2582 113.068C91.0562 112.866 90.6522 112.866 90.4502 113.068L88.4301 114.28C88.2281 114.482 88.2281 114.684 88.4301 114.684Z" fill="#150035"/>
<path d="M83.1778 111.654L85.3999 112.866C85.6019 113.068 86.006 113.068 86.208 112.866L88.2281 111.654C88.4301 111.452 88.4301 111.25 88.2281 111.25L86.006 110.038C85.804 109.836 85.3999 109.836 85.1979 110.038L83.1778 111.25C82.9758 111.452 82.9758 111.654 83.1778 111.654Z" fill="#150035"/>
<path d="M156.709 159.934L158.931 161.146C159.133 161.348 159.538 161.348 159.74 161.146L161.76 159.934C161.962 159.732 161.962 159.53 161.76 159.53L159.538 158.318C159.336 158.116 158.931 158.116 158.729 158.318L156.709 159.53C156.507 159.53 156.507 159.732 156.709 159.934Z" fill="#150035"/>
<path d="M151.457 156.904L153.679 158.116C153.881 158.318 154.285 158.318 154.487 158.116L156.507 156.904C156.709 156.702 156.709 156.5 156.507 156.5L154.285 155.288C154.083 155.086 153.679 155.086 153.477 155.288L151.457 156.5C151.255 156.5 151.255 156.702 151.457 156.904Z" fill="#150035"/>
<path d="M146.205 153.874L148.427 155.086C148.629 155.288 149.033 155.288 149.235 155.086L151.255 153.874C151.457 153.672 151.457 153.47 151.255 153.47L149.033 152.258C148.831 152.056 148.427 152.056 148.225 152.258L146.205 153.47C146.003 153.47 146.003 153.672 146.205 153.874Z" fill="#150035"/>
<path d="M140.953 150.844L143.175 152.056C143.377 152.258 143.781 152.258 143.983 152.056L146.003 150.844C146.205 150.642 146.205 150.44 146.003 150.44L143.781 149.228C143.579 149.026 143.175 149.026 142.973 149.228L140.953 150.44C140.751 150.44 140.751 150.642 140.953 150.844Z" fill="#150035"/>
<path d="M135.7 147.814L137.922 149.026C138.124 149.228 138.528 149.228 138.73 149.026L140.751 147.814C140.953 147.612 140.953 147.41 140.751 147.41L138.528 146.198C138.326 145.996 137.922 145.996 137.72 146.198L135.7 147.41C135.498 147.41 135.498 147.612 135.7 147.814Z" fill="#150035"/>
<path d="M130.448 144.784L132.67 145.996C132.872 146.198 133.276 146.198 133.478 145.996L135.498 144.784C135.7 144.582 135.7 144.38 135.498 144.38L133.276 143.168C133.074 142.966 132.67 142.966 132.468 143.168L130.448 144.38C130.246 144.38 130.246 144.582 130.448 144.784Z" fill="#150035"/>
<path d="M125.196 141.754L127.418 142.966C127.62 143.168 128.024 143.168 128.226 142.966L130.246 141.754C130.448 141.551 130.448 141.349 130.246 141.349L128.024 140.137C127.822 139.935 127.418 139.935 127.216 140.137L125.196 141.349C124.994 141.349 124.994 141.754 125.196 141.754Z" fill="#150035"/>
<path d="M120.146 138.723L122.368 139.935C122.57 140.137 122.974 140.137 123.176 139.935L125.196 138.723C125.398 138.521 125.398 138.319 125.196 138.319L122.974 137.107C122.772 136.905 122.368 136.905 122.166 137.107L120.146 138.319C119.944 138.319 119.742 138.723 120.146 138.723Z" fill="#150035"/>
<path d="M114.893 135.693L117.115 136.905C117.317 137.107 117.721 137.107 117.924 136.905L119.944 135.693C120.146 135.491 120.146 135.289 119.944 135.289L117.721 134.077C117.519 133.875 117.115 133.875 116.913 134.077L114.893 135.289C114.691 135.491 114.691 135.693 114.893 135.693Z" fill="#150035"/>
<path d="M109.641 132.663L111.863 133.875C112.065 134.077 112.469 134.077 112.671 133.875L114.691 132.663C114.893 132.461 114.893 132.259 114.691 132.259L112.469 131.047C112.267 130.845 111.863 130.845 111.661 131.047L109.641 132.259C109.439 132.461 109.439 132.663 109.641 132.663Z" fill="#150035"/>
<path d="M104.389 129.633L106.611 130.845C106.813 131.047 107.217 131.047 107.419 130.845L109.439 129.633C109.641 129.431 109.641 129.229 109.439 129.229L107.217 128.017C107.015 127.815 106.611 127.815 106.409 128.017L104.389 129.229C104.187 129.431 104.187 129.633 104.389 129.633Z" fill="#150035"/>
<path d="M99.1366 126.603L101.359 127.815C101.561 128.017 101.965 128.017 102.167 127.815L104.187 126.603C104.389 126.401 104.389 126.199 104.187 126.199L101.965 124.987C101.763 124.785 101.359 124.785 101.157 124.987L99.1366 126.199C98.9345 126.401 98.9345 126.603 99.1366 126.603Z" fill="#150035"/>
<path d="M93.8844 123.573L96.1064 124.785C96.3084 124.987 96.7125 124.987 96.9145 124.785L98.9346 123.573C99.1366 123.371 99.1366 123.169 98.9346 123.169L96.7125 121.957C96.5105 121.755 96.1065 121.755 95.9045 121.957L93.8844 123.169C93.6823 123.371 93.6823 123.573 93.8844 123.573Z" fill="#150035"/>
<path d="M88.6321 120.744L90.8542 121.957C91.0562 122.159 91.4602 122.159 91.6622 121.957L93.6823 120.744C93.8843 120.542 93.8843 120.34 93.6823 120.34L91.4602 119.128C91.2582 118.926 90.8542 118.926 90.6522 119.128L88.6321 120.34C88.4301 120.34 88.4301 120.542 88.6321 120.744Z" fill="#150035"/>
<path d="M83.3798 117.714L85.602 118.926C85.804 119.128 86.208 119.128 86.41 118.926L88.4301 117.714C88.6321 117.512 88.6321 117.31 88.4301 117.31L86.208 116.098C86.006 115.896 85.6019 115.896 85.3999 116.098L83.3798 117.31C83.1778 117.31 83.1778 117.512 83.3798 117.714Z" fill="#150035"/>
<path d="M78.3296 114.684L80.5517 115.896C80.7537 116.098 81.1577 116.098 81.3597 115.896L83.3798 114.684C83.5818 114.482 83.5818 114.28 83.3798 114.28L81.1577 113.068C80.9557 112.866 80.5517 112.866 80.3497 113.068L78.3296 114.28C78.1276 114.28 77.9256 114.482 78.3296 114.684Z" fill="#150035"/>
<path d="M83.7839 123.573L86.006 124.785C86.208 124.987 86.612 124.987 86.814 124.785L88.8341 123.573C89.0361 123.371 89.0361 123.169 88.8341 123.169L86.612 121.957C86.41 121.755 86.006 121.755 85.804 121.957L83.7839 123.169C83.5819 123.169 83.5819 123.371 83.7839 123.573Z" fill="#150035"/>
<path d="M78.5316 120.542L80.7537 121.755C80.9557 121.957 81.3598 121.957 81.5618 121.755L83.5819 120.542C83.7839 120.34 83.7839 120.138 83.5819 120.138L81.3598 118.926C81.1578 118.724 80.7537 118.724 80.5517 118.926L78.5316 120.138C78.3296 120.138 78.3296 120.34 78.5316 120.542Z" fill="#150035"/>
<path d="M73.2794 117.512L75.5015 118.724C75.7035 118.926 76.1075 118.926 76.3095 118.724L78.3296 117.512C78.5316 117.31 78.5316 117.108 78.3296 117.108L76.1075 115.896C75.9055 115.694 75.5015 115.694 75.2995 115.896L73.2794 117.108C73.0774 117.108 73.0774 117.31 73.2794 117.512Z" fill="#150035"/>
<path d="M78.5316 126.603L80.7537 127.815C80.9557 128.017 81.3598 128.017 81.5618 127.815L83.5819 126.603C83.7839 126.401 83.7839 126.199 83.5819 126.199L81.3598 124.987C81.1578 124.785 80.7537 124.785 80.5517 124.987L78.5316 126.199C78.3296 126.199 78.3296 126.401 78.5316 126.603Z" fill="#150035"/>
<path d="M73.2794 123.573L75.5015 124.785C75.7035 124.987 76.1075 124.987 76.3095 124.785L78.3296 123.573C78.5316 123.371 78.5316 123.169 78.3296 123.169L76.1075 121.957C75.9055 121.755 75.5015 121.755 75.2995 121.957L73.2794 123.169C73.0774 123.169 73.0774 123.371 73.2794 123.573Z" fill="#150035"/>
<path d="M68.0271 120.542L70.2492 121.755C70.4512 121.957 70.8552 121.957 71.0572 121.755L73.0773 120.542C73.2793 120.34 73.2793 120.138 73.0773 120.138L70.8552 118.926C70.6532 118.724 70.2492 118.724 70.0472 118.926L68.0271 120.138C67.825 120.138 67.825 120.34 68.0271 120.542Z" fill="#150035"/>
<path d="M68.2291 126.401L70.4512 127.613C70.6532 127.815 71.0572 127.815 71.2592 127.613L73.2793 126.401C73.4813 126.199 73.4813 125.997 73.2793 125.997L71.0572 124.785C70.8552 124.583 70.4512 124.583 70.2492 124.785L68.2291 125.997C68.0271 125.997 68.0271 126.199 68.2291 126.401Z" fill="#150035"/>
<path d="M62.9768 123.371L65.1989 124.583C65.401 124.785 65.805 124.785 66.007 124.583L68.0271 123.371C68.2291 123.169 68.2291 122.967 68.0271 122.967L65.805 121.754C65.603 121.552 65.1989 121.552 64.9969 121.754L62.9768 122.967C62.7748 122.967 62.7748 123.169 62.9768 123.371Z" fill="#150035"/>
<path d="M63.3809 129.229L65.603 130.441C65.805 130.643 66.209 130.643 66.411 130.441L68.4311 129.229C68.6331 129.027 68.6331 128.825 68.4311 128.825L66.209 127.613C66.007 127.411 65.603 127.411 65.401 127.613L63.3809 128.825C63.1789 128.825 63.1789 129.229 63.3809 129.229Z" fill="#150035"/>
<path d="M58.1286 126.199L60.3507 127.411C60.5527 127.613 60.9568 127.613 61.1588 127.411L63.1789 126.199C63.3809 125.997 63.3809 125.795 63.1789 125.795L60.9567 124.583C60.7547 124.381 60.3507 124.381 60.1487 124.583L58.1286 125.795C57.9266 125.997 57.9266 126.199 58.1286 126.199Z" fill="#150035"/>
<path d="M52.8764 129.229L55.0985 130.441C55.3005 130.643 55.7045 130.643 55.9065 130.441L57.9266 129.229C58.1286 129.027 58.1286 128.825 57.9266 128.825L55.7045 127.613C55.5025 127.411 55.0985 127.411 54.8965 127.613L52.8764 128.825C52.6744 129.027 52.6744 129.229 52.8764 129.229C52.8764 129.229 52.6744 129.229 52.8764 129.229Z" fill="#150035"/>
<path d="M85.3999 103.978L83.3798 105.19C83.1778 105.392 83.1778 105.594 83.3798 105.594L85.602 106.806C85.804 107.008 86.208 107.008 86.41 106.806L88.4301 105.594C88.6321 105.392 88.6321 105.19 88.4301 105.19L86.208 103.978C86.006 103.978 85.6019 103.978 85.3999 103.978Z" fill="#150035"/>
<path d="M72.6733 105.796L74.8954 107.008C75.0974 107.21 75.5014 107.21 75.7034 107.008L77.7235 105.796C77.9255 105.594 77.9255 105.392 77.7235 105.392C77.7235 105.19 72.4713 105.594 72.6733 105.796Z" fill="#150035"/>
<path d="M77.9256 108.826L80.1476 110.038C80.3497 110.24 80.7537 110.24 80.9557 110.038L82.9758 108.826C83.1778 108.624 83.1778 108.422 82.9758 108.422L80.7537 107.21C80.5517 107.008 80.1477 107.008 79.9457 107.21L77.9256 108.422C77.7235 108.422 77.7235 108.624 77.9256 108.826Z" fill="#150035"/>
<path d="M67.8251 108.018C67.6231 108.22 67.6231 108.422 67.8251 108.422L70.0472 109.634C70.2492 109.836 70.6532 109.836 70.8552 109.634L72.8753 108.422C73.0773 108.22 73.0773 108.018 72.8753 108.018L70.6532 106.806C70.4512 106.806 67.8251 108.018 67.8251 108.018Z" fill="#150035"/>
<path d="M73.0773 111.654L75.2995 112.866C75.5015 113.068 75.9055 113.068 76.1075 112.866L78.1276 111.654C78.3296 111.452 78.3296 111.25 78.1276 111.25L75.9055 110.038C75.7035 109.836 75.2995 109.836 75.0974 110.038L73.0773 111.25C72.8753 111.25 72.8753 111.452 73.0773 111.654Z" fill="#150035"/>
<path d="M62.7749 111.452L64.9969 112.664C65.199 112.866 65.603 112.866 65.805 112.664L67.8251 111.452C68.0271 111.25 68.0271 111.048 67.8251 111.048L65.603 109.836C65.401 109.634 64.997 109.634 64.795 109.836L62.7749 111.048C62.5728 111.048 62.5728 111.25 62.7749 111.452Z" fill="#150035"/>
<path d="M68.0271 114.482L70.2492 115.694C70.4512 115.896 70.8552 115.896 71.0572 115.694L73.0773 114.482C73.2793 114.28 73.2793 114.078 73.0773 114.078L70.8552 112.866C70.6532 112.664 70.2492 112.664 70.0472 112.866L68.0271 114.078C67.825 114.078 67.825 114.28 68.0271 114.482Z" fill="#150035"/>
<path d="M57.7246 108.018C57.5226 108.22 57.5226 108.422 57.7246 108.422L59.9467 109.634C60.1487 109.836 60.5528 109.836 60.7548 109.634L62.7749 108.422C62.9769 108.22 62.9769 108.018 62.7749 108.018H57.7246Z" fill="#150035"/>
<path d="M57.5226 114.482L59.7447 115.694C59.9467 115.896 60.3507 115.896 60.5527 115.694L62.5728 114.482C62.7749 114.28 62.7749 114.078 62.5728 114.078L60.3508 112.866C60.1487 112.664 59.7447 112.664 59.5427 112.866L57.5226 114.078C57.3206 114.078 57.3206 114.28 57.5226 114.482Z" fill="#150035"/>
<path d="M62.7749 117.512L64.9969 118.724C65.199 118.926 65.603 118.926 65.805 118.724L67.8251 117.512C68.0271 117.31 68.0271 117.108 67.8251 117.108L65.603 115.896C65.401 115.694 64.997 115.694 64.795 115.896L62.7749 117.108C62.5728 117.108 62.5728 117.31 62.7749 117.512Z" fill="#150035"/>
<path d="M52.2703 111.452L54.4924 112.664C54.6944 112.866 55.0985 112.866 55.3005 112.664L57.3206 111.452C57.5226 111.25 57.5226 111.048 57.3206 111.048L55.0985 109.836C54.8965 109.634 54.4925 109.634 54.2904 109.836L52.2703 111.048C52.0683 111.048 52.0683 111.25 52.2703 111.452Z" fill="#150035"/>
<path d="M49.2402 106.806L47.2201 108.018C47.0181 108.22 47.0181 108.422 47.2201 108.422L49.4422 109.634C49.6442 109.836 50.0482 109.836 50.2503 109.634L52.2704 108.422C52.4724 108.22 52.4724 108.018 52.2704 108.018L50.0482 106.806C49.8462 106.604 49.4422 106.604 49.2402 106.806Z" fill="#150035"/>
<path d="M43.9879 103.776L41.9678 104.988C41.7658 105.19 41.7658 105.392 41.9678 105.392L44.1899 106.604C44.3919 106.806 44.7959 106.806 44.9979 106.604L47.018 105.392C47.22 105.392 44.1899 103.574 43.9879 103.776Z" fill="#150035"/>
<path d="M36.7156 102.362L38.9377 103.574C39.1397 103.776 39.5437 103.776 39.7457 103.574C39.7457 103.574 36.5136 102.362 36.7156 102.362Z" fill="#150035"/>
<path d="M52.6743 117.31L54.8964 118.522C55.0984 118.724 55.5025 118.724 55.7045 118.522L57.7246 117.31C57.9266 117.108 57.9266 116.906 57.7246 116.906L55.5025 115.694C55.3005 115.492 54.8964 115.492 54.6944 115.694L52.6743 116.906C52.4723 117.108 52.4723 117.31 52.6743 117.31Z" fill="#150035"/>
<path d="M57.9266 120.34L60.1487 121.552C60.3507 121.754 60.7547 121.754 60.9567 121.552L62.9768 120.34C63.1788 120.138 63.1788 119.936 62.9768 119.936L60.7547 118.724C60.5527 118.522 60.1487 118.522 59.9467 118.724L57.9266 119.936C57.7246 119.936 57.7246 120.34 57.9266 120.34Z" fill="#150035"/>
<path d="M47.4221 114.28L49.6442 115.492C49.8462 115.694 50.2502 115.694 50.4522 115.492L52.4723 114.28C52.6743 114.078 52.6743 113.876 52.4723 113.876L50.2502 112.664C50.0482 112.462 49.6442 112.462 49.4422 112.664L47.4221 113.876C47.2201 114.078 47.2201 114.28 47.4221 114.28Z" fill="#150035"/>
<path d="M42.1698 111.25L44.3919 112.462C44.5939 112.664 44.998 112.664 45.2 112.462L47.2201 111.25C47.4221 111.048 47.4221 110.846 47.2201 110.846L44.9979 109.634C44.7959 109.432 44.3919 109.432 44.1899 109.634L42.1698 110.846C41.9678 111.048 41.9678 111.25 42.1698 111.25Z" fill="#150035"/>
<path d="M36.9176 108.22L39.1397 109.432C39.3417 109.634 39.7457 109.634 39.9477 109.432L41.9678 108.22C42.1698 108.018 42.1698 107.816 41.9678 107.816L39.7457 106.604C39.5437 106.402 39.1397 106.402 38.9377 106.604L36.9176 107.816C36.7155 108.018 36.7155 108.22 36.9176 108.22Z" fill="#150035"/>
<path d="M31.6653 105.19L33.8874 106.402C34.0894 106.604 34.4934 106.604 34.6954 106.402L36.7155 105.19C36.9176 104.988 36.9176 104.786 36.7155 104.786L34.4935 103.574C34.2914 103.372 33.8874 103.372 33.6854 103.574L31.6653 104.786C31.4633 104.988 31.4633 105.19 31.6653 105.19Z" fill="#150035"/>
<path d="M26.413 102.362L28.6351 103.574C28.8371 103.776 29.2412 103.776 29.4432 103.574L31.4633 102.362C31.6653 102.16 31.6653 101.958 31.4633 101.958L29.2412 100.746C29.0392 100.544 28.6352 100.544 28.4331 100.746L26.413 101.958C26.211 101.958 26.211 102.16 26.413 102.362Z" fill="#150035"/>
<path d="M24.1909 97.5133C23.9889 97.3113 23.5849 97.3113 23.3829 97.5133L21.3628 98.7254C21.1608 98.9274 21.1608 99.1294 21.3628 99.1294L23.5849 100.341C23.7869 100.543 24.1909 100.543 24.393 100.341L26.4131 99.1294C26.6151 98.9274 26.6151 98.7254 26.4131 98.7254L24.1909 97.5133C24.1909 97.5133 23.9889 97.5133 24.1909 97.5133Z" fill="#150035"/>
<path d="M18.1307 94.4832L16.1106 95.6952C15.9085 95.8973 15.9085 96.0993 16.1106 96.0993L18.3327 97.3113C18.5347 97.5133 18.9387 97.5133 19.1407 97.3113L21.1608 96.0993C21.3628 95.8973 21.3628 95.6952 21.1608 95.6952C21.1608 95.6952 18.3327 94.4832 18.1307 94.4832Z" fill="#150035"/>
<path d="M12.8784 91.655L10.8583 92.8671C10.6563 93.0691 10.6563 93.2711 10.8583 93.2711L13.0804 94.4832C13.2824 94.6852 13.6864 94.6852 13.8884 94.4832L15.9085 93.2711C16.1106 93.0691 13.0804 91.453 12.8784 91.655Z" fill="#150035"/>
<path d="M7.62613 88.6249L5.60604 89.8369C5.40403 90.0389 5.40403 90.2409 5.60604 90.2409L7.82816 91.453C8.03017 91.655 8.43417 91.655 8.63618 91.453L10.6563 90.2409C10.8583 90.0389 7.82814 88.4229 7.62613 88.6249Z" fill="#150035"/>
<path d="M47.6241 120.138L49.8462 121.351C50.0482 121.553 50.4522 121.553 50.6543 121.351L52.6743 120.138C52.8764 119.936 52.8764 119.734 52.6743 119.734L50.4522 118.522C50.2502 118.32 49.8462 118.32 49.6442 118.522L47.6241 119.734C47.4221 119.936 47.4221 120.138 47.6241 120.138Z" fill="#150035"/>
<path d="M52.8764 123.169L55.0985 124.381C55.3005 124.583 55.7045 124.583 55.9065 124.381L57.9266 123.169C58.1286 122.967 58.1286 122.765 57.9266 122.765L55.7045 121.553C55.5025 121.351 55.0985 121.351 54.8965 121.553L52.8764 122.765C52.6744 122.967 52.6744 123.169 52.8764 123.169Z" fill="#150035"/>
<path d="M42.3718 117.108L44.594 118.32C44.796 118.522 45.2 118.522 45.402 118.32L47.4221 117.108C47.6241 116.906 47.6241 116.704 47.4221 116.704L45.2 115.492C44.998 115.29 44.594 115.29 44.3919 115.492L42.3718 116.704C42.1698 116.906 42.1698 117.108 42.3718 117.108Z" fill="#150035"/>
<path d="M37.1196 114.28L39.3417 115.492C39.5437 115.694 39.9477 115.694 40.1497 115.492L42.1698 114.28C42.3718 114.078 42.3718 113.876 42.1698 113.876L39.9477 112.664C39.7457 112.462 39.3417 112.462 39.1397 112.664L37.1196 113.876C36.9176 113.876 36.9176 114.078 37.1196 114.28Z" fill="#150035"/>
<path d="M32.0694 111.25L34.2915 112.462C34.4935 112.664 34.8975 112.664 35.0995 112.462L37.1196 111.25C37.3216 111.048 37.3216 110.846 37.1196 110.846L34.8975 109.634C34.6955 109.432 34.2915 109.432 34.0895 109.634L32.0694 110.846C31.8674 110.846 31.6654 111.048 32.0694 111.25Z" fill="#150035"/>
<path d="M26.8171 108.22L29.0392 109.432C29.2412 109.634 29.6452 109.634 29.8472 109.432L31.8673 108.22C32.0694 108.018 32.0694 107.816 31.8673 107.816L29.6452 106.604C29.4432 106.402 29.0392 106.402 28.8372 106.604L26.8171 107.816C26.6151 107.816 26.6151 108.018 26.8171 108.22Z" fill="#150035"/>
<path d="M21.5648 105.19L23.787 106.402C23.989 106.604 24.393 106.604 24.595 106.402L26.6151 105.19C26.8171 104.988 26.8171 104.786 26.6151 104.786L24.393 103.574C24.191 103.372 23.7869 103.372 23.5849 103.574L21.5648 104.786C21.3628 104.786 21.3628 104.988 21.5648 105.19Z" fill="#150035"/>
<path d="M16.3126 102.16L18.5347 103.372C18.7367 103.574 19.1407 103.574 19.3427 103.372L21.3628 102.16C21.5648 101.958 21.5648 101.756 21.3628 101.756L19.1407 100.543C18.9387 100.341 18.5347 100.341 18.3327 100.543L16.3126 101.756C16.1106 101.756 16.1106 101.958 16.3126 102.16Z" fill="#150035"/>
<path d="M11.0603 99.1294L13.2824 100.341C13.4845 100.543 13.8885 100.543 14.0905 100.341L16.1106 99.1294C16.3126 98.9274 16.3126 98.7254 16.1106 98.7254L13.8885 97.5133C13.6865 97.3113 13.2824 97.3113 13.0804 97.5133L11.0603 98.7254C10.8583 98.7254 10.8583 98.9274 11.0603 99.1294Z" fill="#150035"/>
<path d="M5.80806 96.0992L8.03015 97.3113C8.23216 97.5133 8.6362 97.5133 8.83821 97.3113L10.8583 96.0992C11.0603 95.8972 11.0603 95.6952 10.8583 95.6952L8.63619 94.4831C8.43418 94.2811 8.03017 94.2811 7.82816 94.4831L5.80806 95.6952C5.60605 95.6952 5.60605 95.8972 5.80806 96.0992Z" fill="#150035"/>
<path d="M0.555804 93.0691L2.77793 94.2811C2.97993 94.4831 3.38394 94.4831 3.58595 94.2811L5.60605 93.0691C5.80806 92.8671 5.80806 92.6651 5.60605 92.6651L3.38393 91.453C3.18192 91.251 2.77791 91.251 2.5759 91.453L0.555804 92.6651C0.353794 92.6651 0.353794 92.8671 0.555804 93.0691Z" fill="#150035"/>
<path d="M42.3718 123.169L44.594 124.381C44.796 124.583 45.2 124.583 45.402 124.381L47.4221 123.169C47.6241 122.967 47.6241 122.765 47.4221 122.765L45.2 121.553C44.998 121.351 44.594 121.351 44.3919 121.553L42.3718 122.765C42.1698 122.967 42.1698 123.169 42.3718 123.169Z" fill="#150035"/>
<path d="M47.6241 126.199L49.8462 127.411C50.0482 127.613 50.4522 127.613 50.6543 127.411L52.6743 126.199C52.8764 125.997 52.8764 125.795 52.6743 125.795L50.4522 124.583C50.2502 124.381 49.8462 124.381 49.6442 124.583L47.6241 125.795C47.4221 125.997 47.4221 126.199 47.6241 126.199Z" fill="#150035"/>
<path d="M37.1196 120.138L39.3417 121.351C39.5437 121.553 39.9477 121.553 40.1497 121.351L42.1698 120.138C42.3718 119.936 42.3718 119.734 42.1698 119.734L39.9477 118.522C39.7457 118.32 39.3417 118.32 39.1397 118.522L37.1196 119.734C36.9176 119.936 36.9176 120.138 37.1196 120.138Z" fill="#150035"/>
<path d="M31.8673 117.31L34.0894 118.522C34.2915 118.724 34.6955 118.724 34.8975 118.522L36.9176 117.31C37.1196 117.108 37.1196 116.906 36.9176 116.906L34.6955 115.694C34.4934 115.492 34.0894 115.492 33.8874 115.694L31.8673 116.906C31.6653 116.906 31.6653 117.108 31.8673 117.31Z" fill="#150035"/>
<path d="M26.8171 114.28L29.0392 115.492C29.2413 115.694 29.6453 115.694 29.8473 115.492L31.8674 114.28C32.0694 114.078 32.0694 113.876 31.8674 113.876L29.6452 112.664C29.4432 112.462 29.0392 112.462 28.8372 112.664L26.8171 113.876C26.6151 113.876 26.4131 114.078 26.8171 114.28Z" fill="#150035"/>
<path d="M21.5648 111.25L23.787 112.462C23.989 112.664 24.393 112.664 24.595 112.462L26.6151 111.25C26.8171 111.048 26.8171 110.846 26.6151 110.846L24.393 109.634C24.191 109.432 23.7869 109.432 23.5849 109.634L21.5648 110.846C21.3628 110.846 21.3628 111.048 21.5648 111.25Z" fill="#150035"/>
<path d="M16.3126 108.22L18.5347 109.432C18.7367 109.634 19.1407 109.634 19.3427 109.432L21.3628 108.22C21.5648 108.018 21.5648 107.816 21.3628 107.816L19.1407 106.604C18.9387 106.402 18.5347 106.402 18.3327 106.604L16.3126 107.816C16.1106 107.816 16.1106 108.018 16.3126 108.22Z" fill="#150035"/>
<path d="M11.0603 105.19L13.2824 106.402C13.4845 106.604 13.8885 106.604 14.0905 106.402L16.1106 105.19C16.3126 104.988 16.3126 104.786 16.1106 104.786L13.8885 103.574C13.6865 103.372 13.2824 103.372 13.0804 103.574L11.0603 104.786C10.8583 104.786 10.8583 104.988 11.0603 105.19Z" fill="#150035"/>
<path d="M5.80806 102.16L8.03015 103.372C8.23216 103.574 8.6362 103.574 8.83821 103.372L10.8583 102.16C11.0603 101.958 11.0603 101.756 10.8583 101.756L8.63619 100.543C8.43418 100.341 8.03017 100.341 7.82816 100.543L5.80806 101.756C5.60605 101.756 5.60605 101.958 5.80806 102.16Z" fill="#150035"/>
<path d="M0.555804 99.1294L2.77793 100.341C2.97993 100.543 3.38394 100.543 3.58595 100.341L5.60605 99.1294C5.80806 98.9274 5.80806 98.7254 5.60605 98.7254L3.38393 97.5133C3.18192 97.3113 2.77791 97.3113 2.5759 97.5133L0.555804 98.7254C0.353794 98.7254 0.353794 98.9274 0.555804 99.1294Z" fill="#150035"/>
<path d="M37.5236 126.199L39.7457 127.411C39.9477 127.613 40.3518 127.613 40.5538 127.411L42.5739 126.199C42.7759 125.997 42.7759 125.795 42.5739 125.795L40.3518 124.583C40.1498 124.381 39.7457 124.381 39.5437 124.583L37.5236 125.795C37.3216 125.795 37.3216 125.997 37.5236 126.199Z" fill="#150035"/>
<path d="M42.7759 129.229L44.998 130.441C45.2 130.643 45.604 130.643 45.806 130.441L47.8261 129.229C48.0281 129.027 48.0281 128.825 47.8261 128.825L45.604 127.613C45.402 127.411 44.998 127.411 44.796 127.613L42.7759 128.825C42.5739 128.825 42.3718 129.027 42.7759 129.229Z" fill="#150035"/>
<path d="M32.2713 123.169L34.4934 124.381C34.6955 124.583 35.0995 124.583 35.3015 124.381L37.3216 123.169C37.5236 122.967 37.5236 122.765 37.3216 122.765L35.0995 121.553C34.8975 121.351 34.4934 121.351 34.2914 121.553L32.2713 122.765C32.0693 122.765 32.0693 122.967 32.2713 123.169Z" fill="#150035"/>
<path d="M27.0191 120.138L29.2412 121.351C29.4432 121.553 29.8473 121.553 30.0493 121.351L32.0694 120.138C32.2714 119.936 32.2714 119.734 32.0694 119.734L29.8472 118.522C29.6452 118.32 29.2412 118.32 29.0392 118.522L27.0191 119.734C26.8171 119.734 26.8171 119.936 27.0191 120.138Z" fill="#150035"/>
<path d="M21.7669 117.108L23.989 118.32C24.191 118.522 24.595 118.522 24.797 118.32L26.8171 117.108C27.0191 116.906 27.0191 116.704 26.8171 116.704L24.595 115.492C24.393 115.29 23.989 115.29 23.787 115.492L21.7669 116.704C21.5649 116.704 21.5649 116.906 21.7669 117.108Z" fill="#150035"/>
<path d="M16.5145 114.078L18.7367 115.29C18.9387 115.492 19.3427 115.492 19.5447 115.29L21.5648 114.078C21.7668 113.876 21.7668 113.674 21.5648 113.674L19.3427 112.462C19.1407 112.26 18.7367 112.26 18.5346 112.462L16.5145 113.674C16.3125 113.674 16.3125 113.876 16.5145 114.078Z" fill="#150035"/>
<path d="M11.2623 111.048L13.4844 112.26C13.6864 112.462 14.0905 112.462 14.2925 112.26L16.3126 111.048C16.5146 110.846 16.5146 110.644 16.3126 110.644L14.0905 109.432C13.8885 109.23 13.4845 109.23 13.2824 109.432L11.2623 110.644C11.0603 110.644 11.0603 110.846 11.2623 111.048Z" fill="#150035"/>
<path d="M6.01009 108.018L8.23221 109.23C8.43422 109.432 8.83823 109.432 9.04024 109.23L11.0603 108.018C11.2623 107.816 11.2623 107.614 11.0603 107.614L8.83825 106.402C8.63624 106.2 8.2322 106.2 8.03019 106.402L6.01009 107.614C5.80808 107.614 5.80808 107.816 6.01009 108.018Z" fill="#150035"/>
<path d="M0.757812 104.988L2.9799 106.2C3.18191 106.402 3.58595 106.402 3.78796 106.2L5.80806 104.988C6.01007 104.786 6.01007 104.584 5.80806 104.584L3.58594 103.372C3.38393 103.17 2.97992 103.17 2.77791 103.372L0.757812 104.584C0.757812 104.584 0.555802 104.786 0.757812 104.988Z" fill="#150035"/>
<path d="M27.2211 125.997L29.4432 127.209C29.6452 127.411 30.0492 127.411 30.2512 127.209L32.2713 125.997C32.4733 125.795 32.4733 125.593 32.2713 125.593L30.0492 124.381C29.8472 124.179 29.4432 124.179 29.2412 124.381L27.2211 125.593C27.0191 125.593 27.0191 125.795 27.2211 125.997Z" fill="#150035"/>
<path d="M21.9689 122.967L24.191 124.179C24.393 124.381 24.797 124.381 24.999 124.179L27.0191 122.967C27.2211 122.765 27.2211 122.562 27.0191 122.562L24.797 121.35C24.595 121.148 24.191 121.148 23.989 121.35L21.9689 122.562C21.7669 122.562 21.7669 122.765 21.9689 122.967Z" fill="#150035"/>
<path d="M16.7166 119.936L18.9387 121.148C19.1407 121.35 19.5447 121.35 19.7467 121.148L21.7668 119.936C21.9688 119.734 21.9688 119.532 21.7668 119.532L19.5447 118.32C19.3427 118.118 18.9387 118.118 18.7367 118.32L16.7166 119.532C16.5146 119.532 16.5146 119.734 16.7166 119.936Z" fill="#150035"/>
<path d="M11.6664 116.906L13.8885 118.118C14.0905 118.32 14.4945 118.32 14.6965 118.118L16.7166 116.906C16.9186 116.704 16.9186 116.502 16.7166 116.502L14.4945 115.29C14.2925 115.088 13.8885 115.088 13.6865 115.29L11.6664 116.502C11.4644 116.502 11.2623 116.704 11.6664 116.906Z" fill="#150035"/>
<path d="M6.41408 113.876L8.6362 115.088C8.83821 115.29 9.24222 115.29 9.44423 115.088L11.4643 113.876C11.6663 113.674 11.6663 113.472 11.4643 113.472L9.24224 112.26C9.04023 112.058 8.63619 112.058 8.43418 112.26L6.41408 113.472C6.21207 113.472 6.21207 113.674 6.41408 113.876Z" fill="#150035"/>
<path d="M1.16182 110.846L3.38391 112.058C3.58592 112.26 3.98996 112.26 4.19197 112.058L6.21207 110.846C6.41408 110.644 6.41408 110.442 6.21207 110.442L3.98995 109.23C3.78794 109.028 3.38393 109.028 3.18192 109.23L1.16182 110.442C0.959812 110.442 0.959812 110.644 1.16182 110.846Z" fill="#150035"/>
<path d="M112.671 85.5948V76.9083L110.449 77.3124C108.025 72.4641 103.379 67.8179 96.7125 63.9797C85.804 57.7174 72.6733 47.0109 58.1286 47.2129C44.5939 47.4149 29.8472 58.1214 19.5447 63.9797C12.8784 67.8179 8.23218 72.4641 5.80806 77.3124L3.58594 76.9083V86.2008C3.58594 94.2812 8.83818 102.362 19.5447 108.422C40.7557 120.744 75.2994 120.744 96.5105 108.422C107.621 101.958 112.873 93.6752 112.671 85.5948ZM86.814 102.564C78.9356 107.21 68.0271 101.352 57.5226 101.352C47.2201 101.352 37.5236 107.21 29.6452 102.564C13.8884 93.4731 13.8884 78.7264 29.6452 69.636C45.402 60.5455 71.0572 60.5455 86.814 69.636C102.571 78.7264 102.571 93.4731 86.814 102.564Z" fill="#150035"/>
<path d="M19.3427 109.23C8.63621 103.17 2.97992 94.8872 2.97992 86.2008V75.6963L5.60605 76.3023C8.23218 71.4541 13.0804 66.8079 19.3427 63.1717C21.1608 62.1616 22.9789 60.9496 24.999 59.7375C34.6955 53.8792 46.8161 46.4049 58.3306 46.2029C58.5326 46.2029 58.5326 46.2029 58.7346 46.2029C70.2492 46.2029 80.9557 52.8692 90.4502 58.9295C92.8743 60.5456 95.0964 61.9596 97.3185 63.1717C103.581 66.8079 108.429 71.4541 111.055 76.3023L113.681 75.6963V85.9988C113.883 94.8872 108.025 103.17 97.3185 109.432C86.612 115.694 72.4713 118.724 58.3306 118.724C44.1899 118.522 30.0493 115.29 19.3427 109.23ZM111.661 77.9184L109.843 78.3224L109.439 77.7164C107.015 72.8682 102.369 68.424 96.1064 64.7878C93.8843 63.5757 91.4602 61.9596 89.0361 60.5456C79.7436 54.6873 69.4412 48.223 58.3306 48.223C58.1286 48.223 58.1286 48.223 57.9266 48.223C47.0181 48.425 35.3015 55.6973 25.605 61.5556C23.5849 62.7677 21.5648 63.9797 19.7467 64.9898C13.4844 68.6259 8.8382 73.0702 6.41408 77.9184L6.01007 78.5245L4.19199 78.1204V86.2008C4.19199 94.2812 9.64624 101.756 19.5447 107.614C40.5537 119.734 74.4914 119.734 95.5004 107.614C105.601 101.756 111.055 94.0792 110.853 85.7968V84.9888V77.9184H111.661ZM69.0371 103.776C65.1989 102.968 61.3608 102.16 57.7246 102.16C53.8864 102.16 50.2502 102.968 46.6141 103.776C40.3518 105.19 34.4935 106.402 29.2412 103.372C21.3628 98.7254 16.9186 92.6651 16.9186 85.9988C16.9186 79.3325 21.3628 73.2722 29.2412 68.626C45.2 59.3335 71.4613 59.3335 87.42 68.626C95.2984 73.2722 99.7427 79.3325 99.7427 85.9988C99.7427 92.6651 95.2984 98.7254 87.42 103.372C84.9959 104.786 82.3698 105.19 79.7437 105.19C76.3095 105.19 72.6733 104.584 69.0371 103.776ZM69.4412 101.756C75.7035 102.968 81.7638 104.18 86.41 101.554C93.6823 97.3114 97.7226 91.8571 97.7226 85.9988C97.7226 80.1405 93.6823 74.6863 86.41 70.4441C70.8552 61.5556 45.806 61.5556 30.2512 70.4441C22.9789 74.6863 18.9387 80.1405 18.9387 85.9988C18.9387 91.8571 22.9789 97.3114 30.2512 101.554C34.8975 104.18 40.1497 102.968 46.21 101.756C49.8462 100.948 53.6844 100.14 57.7246 100.14C61.5628 100.14 65.603 100.948 69.4412 101.756Z" fill="#150035"/>
<path d="M96.7125 54.0813C75.5015 41.7587 40.9578 41.7587 19.7468 54.0813C-1.46426 66.4039 -1.46426 86.2009 19.7468 98.5235C40.9578 110.846 75.5015 110.846 96.7125 98.5235C118.126 86.2009 118.126 66.2019 96.7125 54.0813ZM86.814 92.6652C71.0573 101.756 45.402 101.756 29.6452 92.6652C13.8885 83.5747 13.8885 68.828 29.6452 59.7376C45.402 50.6471 71.0573 50.6471 86.814 59.7376C102.571 68.828 102.571 83.5747 86.814 92.6652Z" fill="#007AFF"/>
<path d="M19.3427 99.3314C8.63621 93.2711 2.97992 84.9887 2.97992 76.3023C2.97992 67.6159 8.83822 59.3335 19.3427 53.2732C40.7558 40.9506 75.9055 40.9506 97.3185 53.2732C108.025 59.3335 113.681 67.6159 113.681 76.3023C113.681 84.9887 107.823 93.2711 97.3185 99.3314C86.612 105.594 72.4713 108.624 58.3306 108.624C44.1899 108.624 30.0493 105.594 19.3427 99.3314ZM20.3528 54.8893C10.4543 60.5455 5.00002 68.2219 5.00002 76.3023C5.00002 84.3827 10.4543 91.8571 20.3528 97.7154C41.3618 109.836 75.2994 109.836 96.3085 97.7154C106.207 92.0591 111.661 84.3827 111.661 76.3023C111.661 68.2219 106.207 60.7475 96.3085 54.8893C85.8039 48.829 72.0673 45.7988 58.3306 45.7988C44.594 45.7988 30.8573 48.829 20.3528 54.8893ZM29.2412 93.6752C21.3628 89.0289 16.9186 82.9686 16.9186 76.3023C16.9186 69.636 21.3628 63.5757 29.2412 58.9295C45.2 49.637 71.4613 49.637 87.42 58.9295C95.2984 63.5757 99.7427 69.636 99.7427 76.3023C99.7427 82.9686 95.2984 89.0289 87.42 93.6752C79.3396 98.3214 68.8351 100.543 58.3306 100.543C47.8261 100.543 37.3216 98.3214 29.2412 93.6752ZM86.41 60.5455C70.8552 51.6571 45.806 51.6571 30.2512 60.5455C22.9789 64.7877 18.9387 70.242 18.9387 76.1003C18.9387 81.9586 22.9789 87.4129 30.2512 91.6551C45.806 100.544 70.8552 100.544 86.41 91.6551C93.6823 87.4129 97.7226 81.9586 97.7226 76.1003C97.7226 70.444 93.6823 64.7877 86.41 60.5455Z" fill="#150035"/>
<path d="M81.3597 104.988H79.7437V114.684H81.3597V104.988Z" fill="#007AFF"/>
<path d="M14.4945 94.6852H12.8784V104.382H14.4945V94.6852Z" fill="#007AFF"/>
<path d="M27.8271 101.958H26.2111V111.654H27.8271V101.958Z" fill="#007AFF"/>
<path d="M81.3597 56.7074H79.7437V66.4039H81.3597V56.7074Z" fill="#007AFF"/>
<path d="M38.7357 55.8993H37.1196V65.5958H38.7357V55.8993Z" fill="#007AFF"/>
<path d="M171.254 138.925C171.456 138.723 171.254 138.319 171.052 138.117L99.5406 97.3114C99.5406 97.3114 99.1366 97.3114 98.9346 97.3114L92.6723 100.948C92.0663 101.352 91.6623 102.16 91.6623 102.968V109.836C91.6623 110.24 91.8643 110.442 91.8643 110.644L163.376 151.45C163.578 151.652 163.982 151.45 164.184 151.248L171.254 138.925Z" fill="white"/>
<path d="M162.77 152.258L91.4602 111.25L91.2582 111.048C91.0562 110.846 90.6522 110.24 90.6522 109.634V102.766C90.6522 101.554 91.2582 100.341 92.2683 99.9375L98.5306 96.3013C99.1366 95.8973 99.7427 96.0993 99.9447 96.0993H100.147L171.658 137.107C172.062 137.309 172.264 137.713 172.466 138.117C172.668 138.521 172.466 138.925 172.264 139.329L165.194 151.45C164.79 152.056 164.386 152.258 163.78 152.258C163.376 152.46 162.972 152.258 162.77 152.258ZM99.3386 98.3214L93.2783 101.756C93.0763 101.958 92.6723 102.362 92.6723 102.968V109.836L163.578 150.44L170.244 138.925L99.3386 98.3214Z" fill="#150035"/>
<path d="M170.85 148.016L164.588 151.652C163.982 152.056 163.578 151.652 163.578 150.844V143.976C163.578 143.168 163.982 142.36 164.588 141.956L170.85 138.319C171.456 137.915 171.86 138.319 171.86 139.127V145.996C171.86 146.804 171.456 147.814 170.85 148.016Z" fill="#007AFF"/>
<path d="M163.376 152.662C162.77 152.258 162.568 151.652 162.568 150.844V143.976C162.568 142.764 163.174 141.552 164.184 141.148L170.446 137.511C171.052 137.107 171.658 137.107 172.062 137.511C172.668 137.915 172.87 138.521 172.87 139.329V146.198C172.87 147.41 172.264 148.622 171.254 149.026L164.992 152.662C164.588 152.864 164.386 152.864 163.982 152.864C163.982 152.864 163.78 152.662 163.376 152.662ZM170.446 147.208C170.648 147.006 171.052 146.602 171.052 145.996V139.531L165.396 142.764C165.194 142.966 164.79 143.37 164.79 143.976V150.44L170.446 147.208Z" fill="#150035"/>
<path d="M91.6623 105.19V109.634L163.578 150.844V146.4L91.6623 105.19Z" fill="#150035"/>
<path d="M98.3248 103.371L97.5222 104.774L134.691 126.045L135.494 124.643L98.3248 103.371Z" fill="#150035"/>
<path d="M142.498 128.901L141.695 130.303L153.97 137.324L154.772 135.921L142.498 128.901Z" fill="#150035"/>
<path d="M59.1387 94.6852C79.1376 94.6852 88.6321 83.9787 88.8341 83.7767L87.6221 82.7666C87.42 82.9686 75.5015 96.3013 50.0482 92.2611L49.8462 93.8772C53.0783 94.2812 56.1085 94.6852 59.1387 94.6852Z" fill="white"/>
<path d="M74.8955 88.4229C85.198 84.1807 87.6221 76.9084 87.6221 76.5044L86.208 76.1003C86.208 76.1003 83.9859 83.1707 74.2894 87.0089L74.8955 88.4229Z" fill="white"/>
<path d="M23.5849 81.9586C25.201 78.7265 27.8271 76.1003 31.4633 73.8782L30.6552 72.4642C26.8171 74.6863 23.9889 77.7164 22.1708 81.1506L23.5849 81.9586Z" fill="#007AFF"/>
<path d="M92.4703 107.614H90.8542V110.442H92.4703V107.614Z" fill="#007AFF"/>
<path d="M55.8955 44.642L60.4973 41.5379C61.2778 44.0962 60.3438 46.9615 58.0109 48.5306C55.1534 50.4578 51.2724 49.7031 49.3447 46.8421C47.4169 43.9853 48.1761 40.1052 51.0336 38.178C53.1105 36.7794 55.7249 36.7922 57.7337 38.0032L60.6509 36.0375C57.4735 33.3769 52.7992 33.0102 49.1911 35.4406C44.8239 38.3912 43.6681 44.3222 46.6151 48.6883C49.5622 53.0588 55.4904 54.21 59.8576 51.268C63.7088 48.6713 65.065 43.7636 63.3122 39.6405C63.0776 39.0862 62.7876 38.5447 62.4379 38.0245C62.1649 37.6194 61.8706 37.2442 61.5465 36.8988L54.0744 41.9387C53.3281 42.4418 53.1319 43.4566 53.6351 44.2028C54.1384 44.9447 55.1492 45.1451 55.8955 44.642Z" fill="white"/>
<path d="M52.3983 42.4102L54.7955 45.9667C54.8253 46.0137 54.8893 46.0222 54.9319 45.9923L56.8599 44.6917C56.9068 44.6618 56.9153 44.5979 56.8855 44.5552L54.4883 40.9987C54.4585 40.9518 54.3945 40.9433 54.3519 40.9731L52.4239 42.2738C52.3812 42.3036 52.3684 42.3633 52.3983 42.4102Z" fill="white"/>
<path d="M51.3965 44.2643C51.4775 44.3838 51.6437 44.4179 51.763 44.3368L53.2077 43.36C53.3271 43.279 53.3612 43.1126 53.2802 42.9932C53.1992 42.8737 53.033 42.8396 52.9137 42.9207L51.4689 43.8975C51.3496 43.9785 51.3155 44.1406 51.3965 44.2643Z" fill="white"/>
<path d="M52.7634 44.7318C52.8444 44.8513 53.0105 44.8854 53.1297 44.8043L54.5737 43.8275C54.6929 43.7465 54.727 43.5801 54.6461 43.4607C54.5651 43.3412 54.399 43.3071 54.2797 43.3882L52.8358 44.365C52.7123 44.446 52.6825 44.6081 52.7634 44.7318Z" fill="white"/>
<path d="M52.6977 46.1998C52.779 46.3193 52.9457 46.3534 53.0654 46.2724L54.5147 45.2955C54.6344 45.2145 54.6686 45.0481 54.5873 44.9287C54.5061 44.8093 54.3394 44.7751 54.2197 44.8562L52.7704 45.833C52.6464 45.914 52.6165 46.0761 52.6977 46.1998Z" fill="white"/>
<path d="M55.4206 42.6501L54.3994 43.0892L54.6045 43.4132L53.6602 43.7968L55.1599 43.622L54.9463 43.2981L55.7709 43.1958L55.4206 42.6501Z" fill="#0245B8"/>
<path d="M71.724 15.7966C71.724 15.2759 71.5938 14.7552 71.5938 14.2346L76.41 9.67877C76.5401 9.5486 76.5401 9.28827 76.41 9.28827L64.9553 2.77997C64.695 2.6498 64.0442 2.2593 64.0442 2.2593C60.2694 0.306813 55.3231 0.436981 49.8561 2.77997C35.0172 9.5486 22.3911 30.245 22.3911 47.0364C22.3911 54.8464 25.1245 60.3133 29.42 62.9167H29.5502C29.6803 62.9167 40.0936 69.0345 41.916 70.0758C42.0461 70.206 42.1763 70.0758 42.3065 69.9456L44.7796 64.739L42.4366 63.4373C43.9986 62.9167 45.5606 62.1357 47.1226 61.2245C47.5131 60.9642 47.9036 60.7038 48.2941 60.5737C49.5958 63.0468 49.5957 67.4725 49.2052 71.6378C49.0751 72.549 49.4656 73.0696 49.8561 73.1998H50.3784C50.5085 73.3299 61.8313 79.8382 61.8313 79.7081L62.0455 79.1131L63.0029 76.4539L62.4822 62.6563H56.2342L67.819 36.3628C70.8128 29.464 72.3748 22.3049 71.724 15.7966Z" fill="#FFB000"/>
<path d="M61.571 80.6192C61.4409 80.6192 61.1805 80.6192 61.0504 80.4891L49.5958 73.8506C49.2053 73.7204 48.2941 73.1998 48.4243 71.6378C48.8148 67.2121 48.6846 63.6977 47.9036 61.615C47.7734 61.7452 47.5131 61.8753 47.3829 61.8753C46.2115 62.5262 45.1701 63.0468 43.9986 63.5675L45.6908 64.4787L42.9573 70.206C42.8271 70.4663 42.5668 70.5965 42.3065 70.7266C42.0461 70.8568 41.7858 70.7266 41.5255 70.5965C39.9635 69.6853 29.1597 63.5675 29.1597 63.4373C24.3436 60.5737 21.7402 54.7162 21.7402 46.9062C21.7402 29.7243 34.7568 8.7676 49.5958 1.99897C55.0627 -0.474187 60.2694 -0.604352 64.3045 1.4783C64.3045 1.4783 64.9554 1.8688 65.2157 1.99897L76.5401 8.50727C76.8005 8.63743 76.9306 8.89777 77.0608 9.28827C77.0608 9.5486 76.9306 9.9391 76.8005 10.0693L72.2446 14.3647C72.2446 14.7552 72.3748 15.1457 72.3748 15.5362C72.8955 21.7842 71.5938 28.8132 68.6 35.8421L68.3397 36.493L57.4057 62.0055H63.2632L63.7839 76.5841L62.4822 79.9684C62.352 80.2287 62.2219 80.4891 61.9615 80.4891C61.8314 80.6192 61.7012 80.6192 61.571 80.6192ZM48.5544 59.5323L48.9449 60.1832C50.1164 62.396 50.3768 66.301 49.8561 71.6378C49.8561 72.0283 49.8561 72.4188 50.1164 72.4188L50.2466 72.549L61.4409 79.0573L62.4822 76.4539L61.9615 63.4373H55.3231L67.2984 36.2326C70.2922 29.0735 71.724 22.0445 71.2033 15.9267C71.2033 15.4061 71.0732 14.8854 71.0732 14.4949V14.1044L75.7591 9.67876L64.8252 3.4308C64.5649 3.30063 63.914 2.91013 63.914 2.91013C60.1392 0.95764 55.4532 1.21797 50.3768 3.56096C35.9283 10.0693 23.3022 30.5053 23.3022 47.1666C23.3022 54.4559 25.6452 59.7927 29.9407 62.396C30.201 62.5262 39.4428 67.863 42.0461 69.2948L43.9986 65.1295L40.8746 63.4373L42.3065 62.9167C43.8685 62.396 45.3003 61.615 46.8623 60.834C47.2528 60.5737 47.6433 60.4435 48.0338 60.1832L48.5544 59.5323Z" fill="#150035"/>
<path d="M67.1682 38.0549L67.819 36.4929C70.8128 29.5941 72.2446 22.3048 71.724 15.9267C71.724 15.406 71.5938 14.8854 71.5938 14.3647L76.41 9.80889C76.5401 9.67872 76.5401 9.41839 76.41 9.41839L64.9553 2.91009C64.695 2.77992 64.0442 2.38942 64.0442 2.38942C60.2694 0.436932 55.3231 0.5671 49.8561 2.91009C43.3478 5.77374 37.3601 11.3709 32.544 18.1395L67.1682 38.0549Z" fill="white"/>
<path d="M67.4285 39.0963L31.6328 18.2697L32.0233 17.6189C37.0998 10.4597 43.3478 4.99278 49.5957 2.12913C55.0627 -0.344028 60.2693 -0.474196 64.3045 1.60846C64.3045 1.60846 64.9553 1.99896 65.2157 2.12913L76.5401 8.63743C76.8004 8.76759 76.9306 9.02792 77.0608 9.41842C77.0608 9.67875 76.9306 10.0692 76.8004 10.1994L72.2446 14.4949C72.2446 14.8854 72.3748 15.2759 72.3748 15.6664C72.8954 22.0445 71.5938 29.3338 68.3396 36.6231L67.4285 39.0963ZM33.7155 17.8792L66.9078 37.1438L67.2983 36.2326C70.2921 29.0735 71.724 22.0445 71.2033 15.9267C71.2033 15.4061 71.0731 14.8854 71.0731 14.4949V14.1044L75.7591 9.67875L64.8251 3.43079C64.5648 3.30062 63.914 2.91012 63.914 2.91012C60.1392 0.95763 55.4532 1.21796 50.3767 3.56095C44.3891 6.16427 38.5316 11.2407 33.7155 17.8792Z" fill="#150035"/>
<path d="M79.7943 43.2616C82.7881 36.3628 84.2199 29.0735 83.6992 22.6953C82.6579 9.93905 73.4161 4.47208 61.8314 9.67872C46.9924 16.4474 34.3663 37.1437 34.3663 53.9352C34.3663 69.6852 45.4304 76.0634 59.0979 68.2534C59.4884 67.9931 59.8789 67.7328 60.2694 67.6026C61.571 70.0757 61.571 74.5014 61.1805 78.6667C60.9202 81.0097 63.5235 80.6192 64.5648 78.146L79.7943 43.2616Z" fill="#150035"/>
<path d="M62.2219 80.8796C62.0917 80.8796 61.9615 80.8796 61.8314 80.8796C61.4409 80.7494 60.3995 80.3589 60.5297 78.6667C60.9202 74.2411 60.79 70.7266 60.009 68.644C59.8789 68.7741 59.6186 68.9043 59.4884 68.9043C52.7198 72.8093 46.2114 73.4601 41.2651 70.5964C36.3188 67.7328 33.7155 61.8753 33.7155 53.9352C33.7155 36.7533 46.7321 15.7965 61.571 9.02791C67.2983 6.42459 72.7653 6.42459 76.9306 8.76758C81.2261 11.2407 83.8294 16.187 84.3501 22.5652C84.8708 28.9433 83.5691 36.2326 80.315 43.5219L65.2157 78.2762C64.5649 79.8382 63.2632 80.8796 62.2219 80.8796ZM60.6599 66.4311L61.0504 67.082C62.2219 69.2948 62.4822 73.1998 61.9615 78.5366C61.9615 78.9271 61.9615 79.3176 62.2219 79.3176C62.6124 79.4477 63.5235 78.9271 64.0442 77.6254L79.2736 42.8711C82.2674 35.712 83.6993 28.683 83.1786 22.5652C82.6579 16.5775 80.315 12.0217 76.41 9.80891C72.6352 7.59609 67.5587 7.72625 62.352 10.0692C47.9036 16.5775 35.2775 37.0136 35.2775 53.6749C35.2775 61.0943 37.7507 66.5613 42.1763 69.0345C46.602 71.6378 52.5896 70.9869 58.9677 67.3423C59.3582 67.082 59.7487 66.9518 60.1392 66.6915L60.6599 66.4311Z" fill="#150035"/>
<path d="M63.6428 64.1739L61.2084 80.5914L44.4159 71.914L63.6428 64.1739Z" fill="#150035"/>
<path d="M22.7815 50.2905L34.7568 57.1893L22.7815 50.2905Z" fill="#FFB000"/>
<path d="M23.1947 49.6662L22.4808 50.9073L34.4405 57.7868L35.1544 56.5457L23.1947 49.6662Z" fill="#150035"/>
<path d="M50.8975 2.51971L62.8727 9.41851L50.8975 2.51971Z" fill="#FFB000"/>
<path d="M51.1542 1.91274L50.4403 3.15386L62.4001 10.0333L63.114 8.79222L51.1542 1.91274Z" fill="#150035"/>
<path d="M59.6186 59.7927C50.3768 65.1295 42.8271 60.834 42.8271 50.0302C42.8271 39.2265 50.3768 26.2099 59.6186 20.8731C68.8603 15.5363 76.41 19.8317 76.41 30.6355C76.41 41.4393 68.8603 54.4559 59.6186 59.7927ZM59.6186 22.9557C51.2879 27.7719 44.5193 39.4868 44.5193 49.1191C44.5193 58.7514 51.2879 62.6563 59.6186 57.8402C67.9492 53.0241 74.7178 41.3091 74.7178 31.6768C74.7178 22.0446 67.9492 18.1396 59.6186 22.9557Z" fill="#FFB000"/>
<path d="M79.2034 43.3549L78.366 45.2618L79.3194 45.6805L80.1568 43.7736L79.2034 43.3549Z" fill="#FFB000"/>
<path d="M71.724 15.7966C71.724 15.2759 71.5938 14.7552 71.5938 14.2346L76.41 9.67877C76.5401 9.5486 76.5401 9.28827 76.41 9.28827L64.9553 2.77997C64.695 2.6498 64.0442 2.2593 64.0442 2.2593C60.2694 0.306813 55.3231 0.436981 49.8561 2.77997C35.0172 9.5486 22.3911 30.245 22.3911 47.0364C22.3911 54.8464 25.1245 60.3133 29.42 62.9167H29.5502C29.6803 62.9167 40.0936 69.0345 41.916 70.0758C42.0461 70.206 42.1763 70.0758 42.3065 69.9456L44.7796 64.739L42.4366 63.4373C43.9986 62.9167 45.5606 62.1357 47.1226 61.2245C47.5131 60.9642 47.9036 60.7038 48.2941 60.5737C49.5958 63.0468 49.5957 67.4725 49.2052 71.6378C49.0751 72.549 49.4656 73.0696 49.8561 73.1998H50.3784C50.5085 73.3299 61.8313 79.8382 61.8313 79.7081L62.0455 79.1131L63.0029 76.4539L62.4822 62.6563H56.2342L67.819 36.3628C70.8128 29.464 72.3748 22.3049 71.724 15.7966Z" fill="#007AFF"/>
<path d="M61.571 80.6192C61.4409 80.6192 61.1805 80.6192 61.0504 80.4891L49.5958 73.8506C49.2053 73.7204 48.2941 73.1998 48.4243 71.6378C48.8148 67.2121 48.6846 63.6977 47.9036 61.615C47.7734 61.7452 47.5131 61.8753 47.3829 61.8753C46.2115 62.5262 45.1701 63.0468 43.9986 63.5675L45.6908 64.4787L42.9573 70.206C42.8271 70.4663 42.5668 70.5965 42.3065 70.7266C42.0461 70.8568 41.7858 70.7266 41.5255 70.5965C39.9635 69.6853 29.1597 63.5675 29.1597 63.4373C24.3436 60.5737 21.7402 54.7162 21.7402 46.9062C21.7402 29.7243 34.7568 8.7676 49.5958 1.99897C55.0627 -0.474187 60.2694 -0.604352 64.3045 1.4783C64.3045 1.4783 64.9554 1.8688 65.2157 1.99897L76.5401 8.50727C76.8005 8.63743 76.9306 8.89777 77.0608 9.28827C77.0608 9.5486 76.9306 9.9391 76.8005 10.0693L72.2446 14.3647C72.2446 14.7552 72.3748 15.1457 72.3748 15.5362C72.8955 21.7842 71.5938 28.8132 68.6 35.8421L68.3397 36.493L57.4057 62.0055H63.2632L63.7839 76.5841L62.4822 79.9684C62.352 80.2287 62.2219 80.4891 61.9615 80.4891C61.8314 80.6192 61.7012 80.6192 61.571 80.6192ZM48.5544 59.5323L48.9449 60.1832C50.1164 62.396 50.3768 66.301 49.8561 71.6378C49.8561 72.0283 49.8561 72.4188 50.1164 72.4188L50.2466 72.549L61.4409 79.0573L62.4822 76.4539L61.9615 63.4373H55.3231L67.2984 36.2326C70.2922 29.0735 71.724 22.0445 71.2033 15.9267C71.2033 15.4061 71.0732 14.8854 71.0732 14.4949V14.1044L75.7591 9.67876L64.8252 3.4308C64.5649 3.30063 63.914 2.91013 63.914 2.91013C60.1392 0.95764 55.4532 1.21797 50.3768 3.56096C35.9283 10.0693 23.3022 30.5053 23.3022 47.1666C23.3022 54.4559 25.6452 59.7927 29.9407 62.396C30.201 62.5262 39.4428 67.863 42.0461 69.2948L43.9986 65.1295L40.8746 63.4373L42.3065 62.9167C43.8685 62.396 45.3003 61.615 46.8623 60.834C47.2528 60.5737 47.6433 60.4435 48.0338 60.1832L48.5544 59.5323Z" fill="#150035"/>
<path d="M67.1682 38.0549L67.819 36.4929C70.8128 29.5941 72.2446 22.3048 71.724 15.9267C71.724 15.406 71.5938 14.8854 71.5938 14.3647L76.41 9.80889C76.5401 9.67872 76.5401 9.41839 76.41 9.41839L64.9553 2.91009C64.695 2.77992 64.0442 2.38942 64.0442 2.38942C60.2694 0.436932 55.3231 0.5671 49.8561 2.91009C43.3478 5.77374 37.3601 11.3709 32.544 18.1395L67.1682 38.0549Z" fill="white"/>
<path d="M67.4285 39.0963L31.6328 18.2697L32.0233 17.6189C37.0998 10.4597 43.3478 4.99278 49.5957 2.12913C55.0627 -0.344028 60.2693 -0.474196 64.3045 1.60846C64.3045 1.60846 64.9553 1.99896 65.2157 2.12913L76.5401 8.63743C76.8004 8.76759 76.9306 9.02792 77.0608 9.41842C77.0608 9.67875 76.9306 10.0692 76.8004 10.1994L72.2446 14.4949C72.2446 14.8854 72.3748 15.2759 72.3748 15.6664C72.8954 22.0445 71.5938 29.3338 68.3396 36.6231L67.4285 39.0963ZM33.7155 17.8792L66.9078 37.1438L67.2983 36.2326C70.2921 29.0735 71.724 22.0445 71.2033 15.9267C71.2033 15.4061 71.0731 14.8854 71.0731 14.4949V14.1044L75.7591 9.67875L64.8251 3.43079C64.5648 3.30062 63.914 2.91012 63.914 2.91012C60.1392 0.95763 55.4532 1.21796 50.3767 3.56095C44.3891 6.16427 38.5316 11.2407 33.7155 17.8792Z" fill="#150035"/>
<path d="M79.7943 43.2616C82.7881 36.3628 84.2199 29.0735 83.6992 22.6953C82.6579 9.93905 73.4161 4.47208 61.8314 9.67872C46.9924 16.4474 34.3663 37.1437 34.3663 53.9352C34.3663 69.6852 45.4304 76.0634 59.0979 68.2534C59.4884 67.9931 59.8789 67.7328 60.2694 67.6026C61.571 70.0757 61.571 74.5014 61.1805 78.6667C60.9202 81.0097 63.5235 80.6192 64.5648 78.146L79.7943 43.2616Z" fill="#150035"/>
<path d="M62.2219 80.8796C62.0917 80.8796 61.9615 80.8796 61.8314 80.8796C61.4409 80.7494 60.3995 80.3589 60.5297 78.6667C60.9202 74.2411 60.79 70.7266 60.009 68.644C59.8789 68.7741 59.6186 68.9043 59.4884 68.9043C52.7198 72.8093 46.2114 73.4601 41.2651 70.5964C36.3188 67.7328 33.7155 61.8753 33.7155 53.9352C33.7155 36.7533 46.7321 15.7965 61.571 9.02791C67.2983 6.42459 72.7653 6.42459 76.9306 8.76758C81.2261 11.2407 83.8294 16.187 84.3501 22.5652C84.8708 28.9433 83.5691 36.2326 80.315 43.5219L65.2157 78.2762C64.5649 79.8382 63.2632 80.8796 62.2219 80.8796ZM60.6599 66.4311L61.0504 67.082C62.2219 69.2948 62.4822 73.1998 61.9615 78.5366C61.9615 78.9271 61.9615 79.3176 62.2219 79.3176C62.6124 79.4477 63.5235 78.9271 64.0442 77.6254L79.2736 42.8711C82.2674 35.712 83.6993 28.683 83.1786 22.5652C82.6579 16.5775 80.315 12.0217 76.41 9.80891C72.6352 7.59609 67.5587 7.72625 62.352 10.0692C47.9036 16.5775 35.2775 37.0136 35.2775 53.6749C35.2775 61.0943 37.7507 66.5613 42.1763 69.0345C46.602 71.6378 52.5896 70.9869 58.9677 67.3423C59.3582 67.082 59.7487 66.9518 60.1392 66.6915L60.6599 66.4311Z" fill="#150035"/>
<path d="M63.6428 64.1739L61.2084 80.5914L44.4159 71.914L63.6428 64.1739Z" fill="#150035"/>
<path d="M22.7815 50.2905L34.7568 57.1893L22.7815 50.2905Z" fill="#007AFF"/>
<path d="M23.1947 49.6662L22.4808 50.9073L34.4405 57.7868L35.1544 56.5457L23.1947 49.6662Z" fill="#150035"/>
<path d="M50.8975 2.51971L62.8727 9.41851L50.8975 2.51971Z" fill="#007AFF"/>
<path d="M51.1542 1.91274L50.4403 3.15386L62.4001 10.0333L63.114 8.79222L51.1542 1.91274Z" fill="#150035"/>
<path d="M59.6186 59.7927C50.3768 65.1295 42.8271 60.834 42.8271 50.0302C42.8271 39.2265 50.3768 26.2099 59.6186 20.8731C68.8603 15.5363 76.41 19.8317 76.41 30.6355C76.41 41.4393 68.8603 54.4559 59.6186 59.7927ZM59.6186 22.9557C51.2879 27.7719 44.5193 39.4868 44.5193 49.1191C44.5193 58.7514 51.2879 62.6563 59.6186 57.8402C67.9492 53.0241 74.7178 41.3091 74.7178 31.6768C74.7178 22.0446 67.9492 18.1396 59.6186 22.9557Z" fill="#007AFF"/>
<path d="M59.8349 42.6427L65.8138 40.7218C64.6469 44.4165 61.853 47.7197 58.8251 48.6876C55.1127 49.8802 52.4548 47.1045 52.8924 42.4855C53.327 37.8721 56.6946 33.1655 60.407 31.973C63.1038 31.1092 65.2446 32.333 66.0403 34.8387L69.829 33.6238C69.0973 28.689 65.5127 26.0528 60.8273 27.5545C55.1498 29.3837 50.006 36.5802 49.3425 43.6315C48.6759 50.6885 52.7369 54.9261 58.4084 53.1081C63.4112 51.5019 67.9964 45.7316 69.4701 39.5484C69.6691 38.7177 69.8135 37.878 69.8937 37.0385C69.9556 36.3846 69.9789 35.7597 69.9565 35.1599L60.2487 38.2785C59.2792 38.5897 58.4004 39.8217 58.2867 41.0266C58.176 42.2259 58.8655 42.9538 59.8349 42.6427Z" fill="white"/>
<path d="M58.4085 38.2077L58.309 43.9701C58.3061 44.0454 58.3557 44.0822 58.4103 44.0585L60.848 43.0537C60.9062 43.0317 60.9522 42.9483 60.9525 42.8788L61.052 37.1164C61.0549 37.041 61.0052 37.0043 60.9507 37.028L58.513 38.0328C58.4584 38.0565 58.4113 38.1324 58.4085 38.2077Z" fill="white"/>
<path d="M56.5536 40.0797C56.518 40.2704 56.6188 40.4021 56.778 40.3668L58.7018 39.9446C58.861 39.9093 59.0244 39.723 59.0599 39.5323C59.0954 39.3416 58.9947 39.2099 58.8354 39.2452L56.9116 39.6673C56.7524 39.7027 56.5926 39.8837 56.5536 40.0797Z" fill="white"/>
<path d="M57.0291 41.3736C56.9935 41.5643 57.0942 41.6959 57.2533 41.6606L59.1765 41.238C59.3357 41.2027 59.499 41.0163 59.5346 40.8257C59.5701 40.635 59.4695 40.5033 59.3103 40.5387L57.3871 40.9613C57.2247 40.9943 57.0682 41.1777 57.0291 41.3736Z" fill="white"/>
<path d="M56.5962 42.981C56.5608 43.1719 56.662 43.3039 56.8215 43.2688L58.7488 42.8491C58.9083 42.814 59.0717 42.6277 59.107 42.4369C59.1424 42.246 59.0412 42.114 58.8818 42.1491L56.9544 42.5688C56.7916 42.6016 56.635 42.785 56.5962 42.981Z" fill="white"/>
<path d="M60.6817 39.5107L59.5951 39.9213L59.6707 40.4343L58.6738 40.7817L60.1069 40.8579L60.0234 40.343L60.8136 40.3759L60.6817 39.5107Z" fill="#150035"/>
<path d="M79.2034 43.3549L78.366 45.2618L79.3194 45.6805L80.1568 43.7736L79.2034 43.3549Z" fill="#007AFF"/>
</svg>
