<svg width="213" height="129" viewBox="0 0 213 129" fill="none" xmlns="http://www.w3.org/2000/svg">
<path d="M2.83198 49.356C3.75229 50.7387 5.19849 52.0556 7.17059 53.1749L130.821 124.681C137.526 128.566 147.649 128.961 153.434 125.603L207.601 94.2613C210.033 92.8128 211.348 90.9691 211.479 88.9938C212.071 85.7675 211.151 82.0144 211.151 82.0144L207.535 82.2119C207.075 81.8827 206.549 81.4877 205.958 81.1584L82.3073 9.78395C75.6022 5.89917 65.4788 5.50411 59.694 8.86214L5.52718 40.1379L1.38578 39.9403C1.38578 39.9403 -0.191893 44.4177 2.5033 48.9609C2.5033 48.9609 2.5033 49.0267 2.56904 49.0267C2.63477 49.1584 2.70051 49.2243 2.83198 49.356C2.76625 49.356 2.76625 49.356 2.83198 49.356Z" fill="#150035"/>
<path d="M143.639 128.5C139.104 128.5 134.305 127.381 130.558 125.208L6.84189 53.7675C4.80406 52.5823 3.29212 51.2654 2.30608 49.751L2.24034 49.6193C2.17461 49.5535 2.10887 49.4877 2.10887 49.356C-0.783534 44.4835 0.79414 39.8745 0.859877 39.677L0.991349 39.2819L5.39569 39.5453L59.3653 8.33539C65.3473 4.91152 75.7337 5.30659 82.5703 9.2572L206.221 80.7634C206.681 81.0268 207.141 81.356 207.667 81.6852L211.611 81.4877L211.742 82.0144C211.808 82.1461 212.728 85.8992 212.071 89.2572V89.323C211.874 91.5617 210.428 93.4712 207.864 94.9856L153.697 126.327C151.068 127.776 147.452 128.5 143.639 128.5ZM3.29212 49.0267C4.21243 50.4095 5.5929 51.6605 7.43352 52.714L131.149 124.154C137.657 127.907 147.518 128.302 153.105 125.076L207.272 93.7346C209.442 92.4836 210.691 90.8374 210.822 88.9938L210.888 88.6646C211.282 86.3601 210.822 83.7922 210.625 82.7387L207.995 82.8704L207.864 83.2654L207.141 82.7387C206.615 82.3436 206.089 82.0144 205.629 81.751L81.9786 10.3107C75.4707 6.55761 65.6103 6.09671 60.0227 9.38889L5.65864 40.7963L1.84592 40.5988C1.58298 41.784 0.99135 45.2078 3.02918 48.6975C3.09492 48.8292 3.16065 48.8951 3.22639 48.9609L2.76623 49.4218L3.29212 49.0267Z" fill="#150035"/>
<path d="M5.32993 34.7387L59.431 3.39712C65.2158 0.0390939 75.3392 0.434156 82.0444 4.31893L205.695 75.8251C212.4 79.7099 213.123 85.57 207.338 88.928L153.171 120.27C147.386 123.628 137.263 123.233 130.558 119.348L6.90761 47.7757C0.268228 43.8909 -0.520608 38.0309 5.32993 34.7387Z" fill="white"/>
<path d="M143.376 123.101C138.841 123.101 134.042 121.981 130.295 119.809L6.64467 48.3025C2.89769 46.1955 0.794128 43.2984 0.794128 40.4012C0.794128 37.965 2.30607 35.7263 5.00126 34.2119L59.1681 2.80453C65.1501 -0.619341 75.5365 -0.22428 82.373 3.72634L206.089 75.2984C209.836 77.4712 211.94 80.3683 211.94 83.2654C211.94 85.7016 210.428 87.9403 207.732 89.4547L153.5 120.73C150.805 122.311 147.189 123.101 143.376 123.101ZM69.2915 1.75103C65.7417 1.75103 62.3234 2.47531 59.7597 3.92387L5.59289 35.2654C3.29211 36.5823 1.97738 38.4259 1.97738 40.4012C1.97738 42.8374 3.88374 45.3395 7.17056 47.249L130.821 118.755C137.329 122.508 147.189 122.903 152.777 119.677L206.944 88.3354C209.244 87.0185 210.559 85.1749 210.559 83.1996C210.559 80.7634 208.653 78.2613 205.366 76.3519L81.7814 4.84568C78.1659 2.80453 73.6301 1.75103 69.2915 1.75103Z" fill="#150035"/>
<path d="M60.0227 7.61111L56.0127 9.91564C54.698 10.6399 54.698 11.8909 56.0127 12.6152C57.3275 13.3395 57.3275 14.5905 56.0127 15.3148L25.9054 32.8951C24.5907 33.6193 22.4872 33.6193 21.1724 32.8951C19.8577 32.1708 17.7541 32.1708 16.4394 32.8951L8.02514 37.7675C5.13273 39.4794 5.13273 42.2449 8.02514 43.891L133.187 115.99C138.578 119.084 147.321 119.084 152.645 115.924L204.643 85.7675C207.535 84.0556 207.535 81.2901 204.643 79.644L79.4806 7.54527C74.156 4.51646 65.3473 4.51646 60.0227 7.61111Z" fill="#007AFF"/>
<path d="M142.916 118.953C139.301 118.953 135.685 118.163 132.924 116.582L7.69647 44.4835C6.05306 43.5617 5.19849 42.2449 5.19849 40.8621C5.19849 39.4794 6.05306 38.1626 7.69647 37.2407L16.1107 32.3683C17.6227 31.5124 19.9892 31.5124 21.4354 32.3683C22.5529 33.0268 24.3935 33.0268 25.511 32.3683L55.6183 14.8539C56.0127 14.5905 56.2757 14.3272 56.2757 14.0638C56.2757 13.8004 56.0127 13.4712 55.6183 13.2737C54.8295 12.8128 54.3036 12.0885 54.3036 11.3642C54.3036 10.6399 54.7638 9.91564 55.6183 9.45473L59.6283 7.15021C65.1501 3.92387 74.156 3.92387 79.7436 7.08436L204.906 79.1831C206.549 80.1049 207.404 81.4218 207.404 82.8045C207.404 84.1872 206.549 85.5041 204.906 86.4259L152.908 116.582C150.213 118.163 146.532 118.953 142.916 118.953ZM18.8059 32.9609C18.0828 32.9609 17.294 33.0926 16.7681 33.4218L8.35384 38.2942C7.17058 39.0185 6.51321 39.8745 6.51321 40.7963C6.51321 41.7181 7.17058 42.6399 8.41957 43.2984L133.582 115.397C138.775 118.426 147.255 118.36 152.448 115.331L204.446 85.1749C205.629 84.4506 206.286 83.5947 206.286 82.6728C206.286 81.751 205.629 80.8292 204.38 80.1708L79.152 8.13786C73.9588 5.10906 65.5445 5.10906 60.3514 8.13786L56.3414 10.4424C55.947 10.7058 55.6841 10.9691 55.6841 11.2325C55.6841 11.4959 55.947 11.8251 56.3414 12.0226C57.1303 12.4835 57.6562 13.2078 57.6562 13.9321C57.6562 14.6564 57.196 15.3807 56.3414 15.8416L26.2341 33.4218C24.7222 34.2778 22.4214 34.2778 20.9095 33.4218C20.3179 33.0926 19.5948 32.9609 18.8059 32.9609Z" fill="#150035"/>
<path d="M45.6264 16.5C44.9033 16.1049 44.9033 15.3807 45.6264 14.9856C46.3495 14.5905 47.5328 14.5905 48.3216 14.9856C49.0447 15.3807 49.0447 16.1049 48.3216 16.5C47.5985 16.8951 46.4152 16.8951 45.6264 16.5Z" fill="#150035"/>
<path d="M25.9055 26.3765L41.6165 17.2901C42.2738 16.8951 43.3913 16.9609 44.1144 17.4218C44.8375 17.8169 44.9033 18.4753 44.3117 18.8704L28.6006 27.8909C27.9433 28.286 26.8258 28.2202 26.1027 27.7593C25.3796 27.3642 25.3138 26.7058 25.9055 26.3765Z" fill="#150035"/>
<path d="M141.239 122.915L141.191 127.59L141.914 127.597L141.962 122.923L141.239 122.915Z" fill="#007AFF"/>
<path d="M208.324 93.7346L207.601 93.537C208.324 91.1008 207.601 88.7305 207.601 88.7305L208.324 88.5329C208.39 88.6646 209.113 91.1008 208.324 93.7346Z" fill="#007AFF"/>
<path d="M206.155 95.0514L205.432 94.8539C206.155 92.4177 205.432 90.0473 205.432 90.0473L206.155 89.8498C206.22 89.9156 207.009 92.3519 206.155 95.0514Z" fill="#007AFF"/>
<path d="M7.10483 53.5041C6.64467 51.463 6.77614 48.4342 6.77614 48.3025H7.49924C7.49924 48.3025 7.36777 51.3313 7.82793 53.3066L7.10483 53.5041Z" fill="#007AFF"/>
<path d="M4.73834 52.1214C4.27818 50.0802 4.40966 47.0514 4.40966 46.9198H5.13276C5.13276 46.9198 5.00129 49.9486 5.46144 51.9239L4.73834 52.1214Z" fill="#007AFF"/>
<path d="M42.8655 72.7963C42.6025 72.7963 42.3396 72.7305 42.0766 72.5329L34.5169 68.1873C33.7281 67.7263 33.1365 66.7387 33.1365 65.9486V65.751C33.1365 65.2901 33.3337 64.9609 33.5966 64.8292C33.9253 64.6317 34.3855 64.6975 34.9114 64.9609L42.471 69.3724C43.2599 69.8333 43.8515 70.821 43.8515 71.6111V71.8087C43.8515 72.2696 43.6543 72.5988 43.3914 72.7305C43.1941 72.7305 43.0627 72.7963 42.8655 72.7963ZM34.0568 65.4218C33.991 65.4218 33.9253 65.4218 33.9253 65.4218C33.7938 65.4877 33.7938 65.6193 33.7938 65.751V65.9486C33.7938 66.4753 34.254 67.2654 34.8456 67.5288L42.4053 71.9403C42.6683 72.072 42.8655 72.072 42.9969 72.072C43.1284 72.0062 43.1284 71.8745 43.1284 71.7428V71.5453C43.1284 71.0185 42.6683 70.2284 42.0766 69.965L34.5169 65.5535C34.3197 65.4218 34.1883 65.4218 34.0568 65.4218Z" fill="#007AFF"/>
<path d="M55.0267 79.8416C54.7637 79.8416 54.5008 79.7757 54.2379 79.5782L46.6782 75.1667C45.8893 74.7058 45.2977 73.7181 45.2977 72.928V72.7305C45.2977 72.2696 45.4949 71.9403 45.7579 71.8087C46.0865 71.6111 46.5467 71.677 47.0726 71.9403L54.6323 76.3519C55.4211 76.8128 56.0127 77.8004 56.0127 78.5905V78.7881C56.0127 79.249 55.8155 79.5782 55.5526 79.7099C55.4211 79.7757 55.2239 79.8416 55.0267 79.8416ZM46.218 72.4671C46.1523 72.4671 46.0865 72.4671 46.0865 72.4671C45.9551 72.5329 45.9551 72.6646 45.9551 72.7963V72.9938C45.9551 73.5206 46.4152 74.3107 47.0068 74.5741L54.5665 78.9856C54.8295 79.1173 55.0267 79.1173 55.1582 79.1173C55.2896 79.0515 55.2896 78.9198 55.2896 78.7881V78.5905C55.2896 78.0638 54.8295 77.2737 54.2379 76.9445L46.6782 72.5329C46.481 72.4671 46.3495 72.4671 46.218 72.4671Z" fill="#007AFF"/>
<path d="M175.061 111.512C174.733 111.315 174.601 110.986 174.601 110.591V110.393C174.601 109.603 175.193 108.615 175.982 108.154L183.541 103.743C184.002 103.479 184.462 103.414 184.856 103.611C185.185 103.809 185.316 104.138 185.316 104.533V104.73C185.316 105.521 184.725 106.508 183.936 106.969L176.376 111.381C176.113 111.512 175.85 111.644 175.587 111.644C175.39 111.644 175.193 111.578 175.061 111.512ZM183.936 104.401L176.376 108.813C175.785 109.142 175.324 109.866 175.324 110.459V110.656C175.324 110.722 175.324 110.92 175.456 110.986C175.522 111.051 175.719 111.051 176.047 110.854L183.607 106.442C184.199 106.113 184.659 105.389 184.659 104.862V104.665C184.659 104.599 184.659 104.401 184.527 104.335C184.527 104.335 184.462 104.335 184.396 104.335C184.265 104.204 184.133 104.27 183.936 104.401Z" fill="#007AFF"/>
<path d="M28.5349 64.5C28.272 64.5 28.009 64.4342 27.7461 64.2366L23.4732 61.8004C22.6844 61.3395 22.027 60.3519 22.027 59.5617V59.3642C22.027 58.9033 22.2242 58.5741 22.4872 58.4424C22.8158 58.2449 23.276 58.3107 23.8019 58.5741L28.0748 61.0103C28.8636 61.4712 29.4552 62.4589 29.4552 63.249V63.4465C29.4552 63.9074 29.258 64.2366 28.9951 64.3683C28.8636 64.4342 28.6664 64.5 28.5349 64.5ZM23.0131 59.035C22.9473 59.035 22.8816 59.035 22.8816 59.035C22.7501 59.1008 22.7501 59.2325 22.7501 59.3642V59.5617C22.7501 60.0885 23.2103 60.8786 23.8019 61.142L28.0748 63.5782C28.3377 63.7099 28.5349 63.7099 28.6664 63.7099C28.7979 63.644 28.7979 63.5124 28.7979 63.3807V63.1831C28.7979 62.6564 28.3377 61.8663 27.7461 61.6029L23.4732 59.1667C23.276 59.035 23.1445 59.035 23.0131 59.035Z" fill="#007AFF"/>
<path d="M25.7083 61.4712V61.2737C25.7083 60.6152 26.2341 60.3519 26.9572 60.7469L27.8776 61.2737C28.5349 61.6687 29.1265 62.5247 29.1265 63.1831V63.3807C29.1265 64.0391 28.6007 64.3025 27.8776 63.9074L26.9572 63.3807C26.2999 62.9856 25.7083 62.1296 25.7083 61.4712Z" fill="#007AFF"/>
<path d="M28.5349 64.5C28.272 64.5 28.009 64.4342 27.7461 64.2366L26.76 63.7099C25.9712 63.249 25.3796 62.2613 25.3796 61.4712V61.2737C25.3796 60.8128 25.5768 60.4835 25.8397 60.3519C26.1684 60.1543 26.6286 60.2202 27.1545 60.4835L28.0748 61.0103C28.8636 61.4712 29.4552 62.4589 29.4552 63.249V63.4465C29.4552 63.9074 29.258 64.2366 28.9951 64.3683C28.8636 64.4342 28.6664 64.5 28.5349 64.5ZM26.1027 61.4712C26.1027 61.9979 26.5628 62.7881 27.1545 63.0514L28.0748 63.5782C28.3377 63.7099 28.5349 63.7099 28.6664 63.7099C28.7979 63.644 28.7979 63.5124 28.7979 63.3807V63.1831C28.7979 62.6564 28.3377 61.8663 27.7461 61.6029L26.76 61.0761C26.4971 60.9445 26.2999 60.9445 26.1684 60.9445C26.0369 61.0103 26.0369 61.142 26.0369 61.2737V61.4712H26.1027Z" fill="#007AFF"/>
<path d="M144.526 122.896L143.803 122.906L143.866 127.778L144.589 127.768L144.526 122.896Z" fill="#007AFF"/>
<path d="M153.4 120.658L152.677 120.667L152.74 125.539L153.463 125.53L153.4 120.658Z" fill="#007AFF"/>
<path d="M134.415 121.599L134.366 126.274L135.09 126.281L135.138 121.607L134.415 121.599Z" fill="#007AFF"/>
<path d="M123.429 115.652L123.38 120.326L124.104 120.334L124.152 115.659L123.429 115.652Z" fill="#007AFF"/>
<path d="M157.295 90.8742L156.802 91.7295L158.054 92.4538L158.547 91.5985L157.295 90.8742Z" fill="white"/>
<path d="M171.38 100.187L169.145 98.8704L169.605 98.0144L171.84 99.3313L171.38 100.187ZM166.91 97.6193L164.675 96.3025L165.135 95.4465L167.37 96.7634L166.91 97.6193ZM162.506 95.0514L160.271 93.7346L160.731 92.8786L162.966 94.1955L162.506 95.0514Z" fill="white"/>
<path d="M174.138 100.613L173.644 101.468L174.896 102.193L175.39 101.338L174.138 100.613Z" fill="white"/>
<path d="M175.127 81.6193L138.183 102.821L124.773 94.9856L161.717 73.784L175.127 81.6193ZM138.183 101.899L173.55 81.6193L161.717 74.7058L126.351 94.9856L138.183 101.899Z" fill="white"/>
<path d="M174.338 78.7881L138.183 99.5288L125.496 92.1543L161.651 71.4136L174.338 78.7881Z" fill="#150035"/>
<path d="M147.649 88.6646C147.386 88.7963 147.058 88.928 146.729 88.9938C146.4 89.0597 146.072 89.0597 145.677 89.0597H145.611C145.874 89.1914 146.137 89.323 146.335 89.4547L148.044 90.4424L147.386 90.8374L141.273 87.3477L141.799 87.0185L142.456 87.2819C142.39 87.0844 142.39 86.821 142.522 86.6893C142.653 86.4918 142.851 86.3601 143.114 86.1625C143.639 85.8333 144.297 85.7016 144.954 85.7675C145.611 85.8333 146.335 86.0309 146.992 86.4259C147.715 86.821 148.044 87.216 148.109 87.6111C148.438 88.0062 148.175 88.3354 147.649 88.6646ZM143.705 86.4918C143.245 86.7551 143.114 87.0185 143.114 87.216C143.179 87.4794 143.442 87.7428 143.968 88.072L144.1 88.1379C144.691 88.4671 145.217 88.6646 145.677 88.7304C146.137 88.7963 146.598 88.6646 146.992 88.4012C147.386 88.2037 147.518 87.9403 147.386 87.6769C147.321 87.4136 146.992 87.0844 146.466 86.821C145.94 86.4918 145.414 86.3601 144.954 86.2942C144.56 86.1625 144.1 86.2942 143.705 86.4918Z" fill="#007AFF"/>
<path d="M152.974 85.4383L152.251 85.1749C152.317 85.4383 152.251 85.7016 152.185 85.8333C152.054 86.0309 151.856 86.1625 151.528 86.3601C151.133 86.6235 150.673 86.7551 150.213 86.7551C149.753 86.7551 149.358 86.6893 148.964 86.4259C148.109 85.965 148.372 85.3066 149.687 84.4506L150.41 84.0556L150.147 83.9239C149.819 83.7263 149.49 83.6605 149.227 83.5946C148.898 83.5946 148.635 83.6605 148.307 83.858C147.978 84.0556 147.649 84.3848 147.452 84.714L146.795 84.5165C146.86 84.3189 147.058 84.1214 147.189 83.9897C147.386 83.7922 147.584 83.6605 147.847 83.5288C148.372 83.2654 148.833 83.0679 149.293 83.0679C149.753 83.0679 150.213 83.1996 150.739 83.463L153.631 85.1091L152.974 85.4383ZM151.133 86.0309C151.528 85.8333 151.725 85.57 151.725 85.3066C151.725 85.0432 151.528 84.7798 151.133 84.5823L150.739 84.3848L150.147 84.7798C149.687 85.1091 149.358 85.3066 149.293 85.57C149.227 85.7675 149.293 85.965 149.621 86.1626C149.884 86.2942 150.082 86.3601 150.345 86.3601C150.607 86.3601 150.87 86.1625 151.133 86.0309Z" fill="#007AFF"/>
<path d="M149.884 82.4095L150.542 82.0144L153.829 82.8704C154.552 83.0679 155.078 83.1996 155.406 83.3313C155.34 83.2654 155.143 83.0679 154.946 82.8045C154.749 82.5411 154.091 81.8169 153.105 80.5L153.763 80.1049L156.721 83.9239C156.984 84.3189 157.115 84.6481 157.115 84.8457C157.05 85.1091 156.852 85.3066 156.524 85.5041C156.327 85.6358 156.129 85.7016 155.866 85.7675L155.34 85.5041C155.538 85.4383 155.669 85.3724 155.866 85.2407C156.327 84.9774 156.392 84.6481 156.064 84.2531L155.669 83.7922L149.884 82.4095Z" fill="#007AFF"/>
<path d="M47.9272 58.9033C47.2041 58.9033 46.4152 58.7058 45.8236 58.3765L29.3895 48.8951C28.7321 48.5 28.3377 47.9732 28.3377 47.3807C28.3377 46.8539 28.6007 46.393 29.1265 46.1296L79.8093 16.8292C80.7954 16.2366 82.5045 16.3025 83.622 16.9609L100.056 26.5082C100.714 26.9033 101.108 27.43 101.108 28.0226C101.108 28.5494 100.845 29.0103 100.253 29.2737L49.6363 58.5082C49.1762 58.7716 48.5845 58.9033 47.9272 58.9033ZM81.5185 17.2901C81.0583 17.2901 80.5982 17.356 80.3352 17.5535L29.5867 46.9198C29.4552 46.9856 29.258 47.1173 29.258 47.3148C29.258 47.5123 29.3895 47.7757 29.8496 47.9733L46.2838 57.4547C47.1383 57.9156 48.4531 57.9815 49.1762 57.5864L99.8589 28.286C99.9904 28.2202 100.188 28.0885 100.188 27.8909C100.188 27.6934 100.056 27.43 99.596 27.2325L83.1619 17.6852C82.7017 17.4877 82.1101 17.2901 81.5185 17.2901Z" fill="white"/>
<path d="M58.445 65.0267C57.7219 65.0267 56.933 64.8292 56.3414 64.5L52.7259 62.393C52.0686 61.9979 51.6741 61.4712 51.6741 60.8786C51.6741 60.3518 51.9371 59.8909 52.5287 59.6276L103.211 30.3272C104.198 29.7346 105.907 29.8004 107.024 30.4588L110.574 32.5C111.231 32.8951 111.626 33.4218 111.626 34.0144C111.626 34.5411 111.363 35.0021 110.771 35.2654L60.1541 64.6317C59.694 64.8951 59.1024 65.0267 58.445 65.0267ZM104.921 30.8539C104.46 30.8539 104 30.9197 103.737 31.1173L52.9889 60.4835C52.8574 60.5494 52.6602 60.6811 52.6602 60.8786C52.6602 61.0761 52.7917 61.3395 53.2518 61.537L56.8016 63.5782C57.6562 64.0391 58.9709 64.1049 59.694 63.7099L110.377 34.4095C110.508 34.3436 110.705 34.2119 110.705 34.0144C110.705 33.8169 110.574 33.5535 110.114 33.356L106.564 31.3148C106.104 30.9856 105.512 30.8539 104.921 30.8539Z" fill="white"/>
<path d="M92.1678 84.5165C91.4447 84.5165 90.6559 84.3189 90.0642 83.9897L86.5145 81.9486C85.8571 81.5535 85.4627 81.0267 85.4627 80.4342C85.4627 79.9074 85.7256 79.5123 86.2515 79.1831L136.934 49.8827C137.92 49.2901 139.63 49.356 140.747 50.0144L144.297 52.0556C144.954 52.4506 145.349 52.9774 145.349 53.57C145.349 54.0967 145.086 54.5576 144.56 54.821L93.8769 84.1214C93.4168 84.3848 92.8252 84.5165 92.1678 84.5165ZM138.643 50.3436C138.183 50.3436 137.723 50.4095 137.46 50.607L86.7774 79.9074C86.6459 79.9732 86.4487 80.1049 86.4487 80.3025C86.4487 80.5 86.5802 80.7634 87.0403 80.9609L90.5901 83.0021C91.4447 83.463 92.7594 83.5288 93.4825 83.1337L144.165 53.8333C144.297 53.7675 144.494 53.6358 144.494 53.4383C144.494 53.2407 144.363 52.9774 143.902 52.7798L140.353 50.7387C139.827 50.4753 139.235 50.3436 138.643 50.3436Z" fill="white"/>
<path d="M102.554 90.5082C101.831 90.5082 101.042 90.3107 100.451 89.9815L89.2096 83.5946C88.5523 83.1996 88.1579 82.6728 88.1579 82.0802C88.1579 81.5535 88.4208 81.0926 88.9467 80.8292L139.695 51.463C140.681 50.8704 142.39 50.9362 143.508 51.5946L154.749 57.9815C155.406 58.3765 155.801 58.9033 155.801 59.4959C155.801 60.0226 155.538 60.4177 155.012 60.7469L104.329 90.0473C103.803 90.3765 103.212 90.5082 102.554 90.5082ZM141.404 52.0556C140.944 52.0556 140.484 52.1214 140.221 52.3189L89.5383 81.6193C89.4069 81.6852 89.2096 81.8169 89.2096 82.0144C89.2096 82.2119 89.3411 82.4753 89.8013 82.6728L101.042 89.0597C101.897 89.5206 103.212 89.5864 103.935 89.1914L154.617 59.8909C154.749 59.8251 154.946 59.6934 154.946 59.4959C154.946 59.2983 154.815 59.035 154.354 58.8374L143.114 52.4506C142.588 52.1872 141.93 52.0556 141.404 52.0556Z" fill="white"/>
<path d="M81.5842 78.393C80.8611 78.393 80.0723 78.1955 79.4807 77.8663L63.7696 68.7798C63.1123 68.3848 62.7179 67.858 62.7179 67.2654C62.7179 66.7387 62.9808 66.2778 63.5067 66.0144L85.4627 53.3066C86.4487 52.714 88.1579 52.7798 89.2754 53.4383L104.986 62.5247C105.644 62.9197 106.038 63.4465 106.038 64.0391C106.038 64.5658 105.775 65.0267 105.184 65.2901L83.2276 77.9979C82.7675 78.2613 82.1758 78.393 81.5842 78.393ZM87.1061 53.8333C86.6459 53.8333 86.1858 53.8992 85.9228 54.0967L63.9669 66.8045C63.8354 66.8704 63.6382 67.0021 63.6382 67.1996C63.6382 67.3971 63.7696 67.6605 64.2298 67.858L79.9408 76.9444C80.7954 77.4053 82.1101 77.4712 82.8332 77.0761L104.789 64.3683C104.921 64.3025 105.118 64.1708 105.118 63.9732C105.118 63.7757 104.986 63.5123 104.526 63.3148L88.8152 54.2284C88.2893 53.965 87.6977 53.8333 87.1061 53.8333Z" fill="white"/>
<path d="M110.311 61.7346C109.588 61.7346 108.799 61.537 108.207 61.2078L92.4965 52.1214C91.8391 51.7263 91.4447 51.1996 91.4447 50.607C91.4447 50.0802 91.7076 49.6852 92.2335 49.356L114.19 36.6481C115.176 36.0556 116.885 36.1214 118.002 36.7798L133.713 45.8663C134.371 46.2613 134.765 46.7881 134.765 47.3807C134.765 47.9074 134.502 48.3025 133.976 48.6317L112.02 61.3395C111.56 61.6029 110.968 61.7346 110.311 61.7346ZM115.899 37.1749C115.438 37.1749 114.978 37.2407 114.715 37.4383L92.7594 50.1461C92.628 50.2119 92.4307 50.3436 92.4307 50.5412C92.4307 50.7387 92.5622 51.0021 93.0224 51.1996L108.733 60.286C109.588 60.7469 110.903 60.8128 111.626 60.4177L133.582 47.7099C133.713 47.644 133.91 47.5123 133.91 47.3148C133.91 47.1173 133.779 46.8539 133.319 46.6564L117.608 37.57C117.082 37.3066 116.425 37.1749 115.899 37.1749Z" fill="white"/>
<path d="M91.4442 55.2078L66.4018 69.705L66.8952 70.5601L91.9376 56.063L91.4442 55.2078Z" fill="white"/>
<path d="M120.301 38.3498L95.2555 52.844L95.7488 53.6992L120.794 39.205L120.301 38.3498Z" fill="white"/>
<path d="M179.006 92.6152C179.926 93.3395 179.137 94.393 179.006 94.5905C179.334 94.5247 181.175 94.0638 182.424 94.5905C182.424 94.5905 182.49 94.5905 182.424 94.5905C181.504 93.8663 182.292 92.7469 182.424 92.6152C182.161 92.6811 180.32 93.142 179.006 92.6152C179.006 92.6152 179.006 92.5494 179.006 92.6152Z" fill="#150035"/>
<path d="M183.936 89.7181C184.856 90.4424 184.067 91.4959 183.936 91.6934C184.265 91.6276 186.105 91.1667 187.354 91.6934C187.354 91.6934 187.42 91.6934 187.354 91.6934C186.434 90.9691 187.223 89.8498 187.354 89.7181C187.157 89.784 185.316 90.2449 183.936 89.7181C184.002 89.7181 183.936 89.7181 183.936 89.7181Z" fill="#150035"/>
<path d="M188.932 86.821C189.852 87.5453 189.063 88.5988 188.932 88.7963C189.261 88.7305 191.101 88.2696 192.35 88.7963C192.35 88.7963 192.416 88.7963 192.35 88.7963C191.43 88.072 192.219 86.9527 192.35 86.821C192.087 86.8868 190.247 87.3477 188.932 86.821Z" fill="#150035"/>
<path d="M193.928 83.9897C194.848 84.714 194.059 85.7675 193.928 85.965C194.256 85.8992 196.097 85.4383 197.346 85.965C197.346 85.965 197.412 85.965 197.346 85.965C196.426 85.2407 197.215 84.1214 197.346 83.9897C197.083 84.0556 195.243 84.4506 193.928 83.9897C193.928 83.9239 193.928 83.9239 193.928 83.9897Z" fill="#150035"/>
<path d="M198.924 81.0926C199.844 81.8169 199.055 82.8704 198.924 83.0679C199.252 83.0021 201.093 82.5412 202.342 83.0679C202.342 83.0679 202.408 83.0679 202.342 83.0679C201.422 82.3436 202.211 81.2243 202.342 81.0926C202.079 81.1584 200.238 81.6194 198.924 81.0926C198.924 81.0268 198.858 81.0926 198.924 81.0926Z" fill="#150035"/>
<path d="M178.94 86.821C179.86 87.5453 179.071 88.5988 178.94 88.7963C179.269 88.7305 181.109 88.2696 182.358 88.7963C182.358 88.7963 182.424 88.7963 182.358 88.7963C181.438 88.072 182.227 86.9527 182.358 86.821C182.161 86.8868 180.32 87.3477 178.94 86.821C179.006 86.821 178.94 86.821 178.94 86.821Z" fill="#150035"/>
<path d="M183.936 83.9239C184.856 84.6482 184.067 85.7017 183.936 85.8992C184.265 85.8333 186.105 85.3724 187.354 85.8992C187.354 85.8992 187.42 85.8992 187.354 85.8992C186.434 85.1749 187.223 84.0556 187.354 83.9239C187.091 83.9897 185.251 84.4506 183.936 83.9239Z" fill="#150035"/>
<path d="M188.932 81.0926C189.852 81.8169 189.063 82.8704 188.932 83.0679C189.261 83.0021 191.101 82.5412 192.35 83.0679C192.35 83.0679 192.416 83.0679 192.35 83.0679C191.43 82.3436 192.219 81.2243 192.35 81.0926C192.087 81.1584 190.247 81.5535 188.932 81.0926C188.932 81.0268 188.932 81.0268 188.932 81.0926Z" fill="#150035"/>
<path d="M193.928 78.1955C194.848 78.9198 194.059 79.9733 193.928 80.1708C194.256 80.1049 196.097 79.644 197.346 80.1708C197.346 80.1708 197.412 80.1708 197.346 80.1708C196.426 79.4465 197.215 78.3272 197.346 78.1955C197.083 78.2613 195.243 78.7222 193.928 78.1955C193.928 78.1955 193.862 78.1955 193.928 78.1955Z" fill="#150035"/>
</svg>
