<svg width="188" height="125" viewBox="0 0 188 125" fill="none" xmlns="http://www.w3.org/2000/svg">
<path d="M4.93285 78.8489L3.08459 79.9579C2.89977 80.1427 2.5301 80.1427 2.34528 79.9579L0.497018 78.8489C0.312192 78.6641 0.312192 78.4793 0.497018 78.4793L2.34528 77.3703C2.5301 77.1855 2.89977 77.1855 3.08459 77.3703L4.93285 78.4793C5.11768 78.4793 5.11768 78.6641 4.93285 78.8489Z" fill="#150035"/>
<path d="M9.55347 81.4365L7.70522 82.5455C7.52039 82.7303 7.15072 82.7303 6.9659 82.5455L5.11764 81.4365C4.93281 81.2517 4.93281 81.0669 5.11764 81.0669L6.9659 79.9579C7.15072 79.7731 7.52039 79.7731 7.70522 79.9579L9.55347 81.0669C9.7383 81.2517 9.7383 81.4365 9.55347 81.4365Z" fill="#150035"/>
<path d="M4.93285 84.2089L3.08459 85.3179C2.89977 85.5027 2.5301 85.5027 2.34528 85.3179L0.497018 84.2089C0.312192 84.0241 0.312192 83.8393 0.497018 83.8393L2.34528 82.7303C2.5301 82.5455 2.89977 82.5455 3.08459 82.7303L4.93285 83.8393C5.11768 83.8393 5.11768 84.0241 4.93285 84.2089Z" fill="#150035"/>
<path d="M13.9893 84.024L12.1411 85.133C11.9563 85.3178 11.5866 85.3178 11.4018 85.133L9.55354 84.024C9.36871 83.8392 9.36871 83.6543 9.55354 83.6543L11.4018 82.5454C11.5866 82.3606 11.9563 82.3606 12.1411 82.5454L13.9893 83.6543C14.1742 83.6543 14.1742 83.8392 13.9893 84.024Z" fill="#150035"/>
<path d="M9.36871 86.6116L7.52046 87.7206C7.33563 87.9054 6.96599 87.9054 6.78117 87.7206L4.93291 86.6116C4.74808 86.4268 4.74808 86.242 4.93291 86.242L6.78117 85.133C6.96599 84.9482 7.33563 84.9482 7.52046 85.133L9.36871 86.242C9.55354 86.4268 9.55354 86.6116 9.36871 86.6116Z" fill="#150035"/>
<path d="M18.4251 86.6116L16.5768 87.7206C16.392 87.9054 16.0224 87.9054 15.8376 87.7206L13.9893 86.6116C13.8045 86.4268 13.8045 86.242 13.9893 86.242L15.8376 85.133C16.0224 84.9482 16.392 84.9482 16.5768 85.133L18.4251 86.242C18.6099 86.242 18.6099 86.4268 18.4251 86.6116Z" fill="#150035"/>
<path d="M13.8044 89.1991L11.9562 90.3081C11.7713 90.4929 11.4017 90.4929 11.2169 90.3081L9.36861 89.1991C9.18378 89.0143 9.18378 88.8295 9.36861 88.8295L11.2169 87.7205C11.4017 87.5357 11.7713 87.5357 11.9562 87.7205L13.8044 88.8295C13.9892 88.8295 13.9892 89.0143 13.8044 89.1991Z" fill="#150035"/>
<path d="M23.0457 89.1991L21.1975 90.3081C21.0126 90.4929 20.643 90.4929 20.4582 90.3081L18.6099 89.1991C18.4251 89.0143 18.4251 88.8295 18.6099 88.8295L20.4582 87.7205C20.643 87.5357 21.0126 87.5357 21.1975 87.7205L23.0457 88.8295C23.2305 89.0143 23.2305 89.1991 23.0457 89.1991Z" fill="#150035"/>
<path d="M18.4251 91.9715L16.5768 93.0804C16.392 93.2653 16.0224 93.2653 15.8376 93.0804L13.9893 91.9715C13.8045 91.7866 13.8045 91.6018 13.9893 91.6018L15.8376 90.4929C16.0224 90.3081 16.392 90.3081 16.5768 90.4929L18.4251 91.6018C18.6099 91.6018 18.6099 91.7866 18.4251 91.9715Z" fill="#150035"/>
<path d="M27.2968 91.7868L25.4486 92.8957C25.2637 93.0805 24.8941 93.0805 24.7093 92.8957L22.861 91.7868C22.6762 91.6019 22.6762 91.4171 22.861 91.4171L24.7093 90.3081C24.8941 90.1233 25.2637 90.1233 25.4486 90.3081L27.2968 91.4171C27.4816 91.4171 27.4816 91.6019 27.2968 91.7868Z" fill="#150035"/>
<path d="M22.6761 94.3744L20.8279 95.4833C20.643 95.6681 20.2734 95.6681 20.0886 95.4833L18.2403 94.3744C18.0555 94.1895 18.0555 94.0047 18.2403 94.0047L20.0886 92.8957C20.2734 92.7109 20.643 92.7109 20.8279 92.8957L22.6761 94.0047C22.861 94.1895 22.861 94.3744 22.6761 94.3744Z" fill="#150035"/>
<path d="M31.7326 94.3744L29.8844 95.4833C29.6995 95.6681 29.3299 95.6681 29.1451 95.4833L27.2968 94.3744C27.112 94.1895 27.112 94.0047 27.2968 94.0047L29.1451 92.8957C29.3299 92.7109 29.6995 92.7109 29.8844 92.8957L31.7326 94.0047C31.9174 94.0047 31.9174 94.1895 31.7326 94.3744Z" fill="#150035"/>
<path d="M27.1119 96.9618L25.2637 98.0708C25.0788 98.2556 24.7092 98.2556 24.5243 98.0708L22.6761 96.9618C22.4913 96.777 22.4913 96.5922 22.6761 96.5922L24.5243 95.4832C24.7092 95.2984 25.0788 95.2984 25.2637 95.4832L27.1119 96.5922C27.2967 96.5922 27.2967 96.777 27.1119 96.9618Z" fill="#150035"/>
<path d="M36.3532 96.9618L34.5049 98.0708C34.3201 98.2556 33.9505 98.2556 33.7657 98.0708L31.9174 96.9618C31.7326 96.777 31.7326 96.5922 31.9174 96.5922L33.7657 95.4832C33.9505 95.2984 34.3201 95.2984 34.5049 95.4832L36.3532 96.5922C36.538 96.5922 36.538 96.777 36.3532 96.9618Z" fill="#150035"/>
<path d="M31.7326 99.5494L29.8844 100.658C29.6995 100.843 29.3299 100.843 29.1451 100.658L27.2968 99.5494C27.112 99.3646 27.112 99.1798 27.2968 99.1798L29.1451 98.0708C29.3299 97.886 29.6995 97.886 29.8844 98.0708L31.7326 99.1798C31.9174 99.3646 31.9174 99.5494 31.7326 99.5494Z" fill="#150035"/>
<path d="M40.789 99.5494L38.9407 100.658C38.7559 100.843 38.3862 100.843 38.2014 100.658L36.3532 99.5494C36.1683 99.3646 36.1683 99.1798 36.3532 99.1798L38.2014 98.0708C38.3862 97.886 38.7559 97.886 38.9407 98.0708L40.789 99.1798C40.9738 99.1798 40.9738 99.3646 40.789 99.5494Z" fill="#150035"/>
<path d="M36.1683 102.137L34.32 103.246C34.1352 103.431 33.7656 103.431 33.5807 103.246L31.7325 102.137C31.5477 101.952 31.5477 101.767 31.7325 101.767L33.5807 100.658C33.7656 100.473 34.1352 100.473 34.32 100.658L36.1683 101.767C36.3531 101.767 36.3531 101.952 36.1683 102.137Z" fill="#150035"/>
<path d="M45.04 101.952L43.1917 103.061C43.0069 103.246 42.6373 103.246 42.4525 103.061L40.6042 101.952C40.4194 101.767 40.4194 101.583 40.6042 101.583L42.4525 100.474C42.6373 100.289 43.0069 100.289 43.1917 100.474L45.04 101.583C45.2248 101.767 45.4097 101.952 45.04 101.952Z" fill="#150035"/>
<path d="M40.6042 104.725L38.7559 105.833C38.5711 106.018 38.2014 106.018 38.0166 105.833L36.1684 104.725C35.9835 104.54 35.9835 104.355 36.1684 104.355L38.0166 103.246C38.2014 103.061 38.5711 103.061 38.7559 103.246L40.6042 104.355C40.6042 104.355 40.789 104.54 40.6042 104.725Z" fill="#150035"/>
<path d="M49.8455 104.725L47.9972 105.833C47.8124 106.018 47.4428 106.018 47.2579 105.833L45.4097 104.725C45.2249 104.54 45.2249 104.355 45.4097 104.355L47.2579 103.246C47.4428 103.061 47.8124 103.061 47.9972 103.246L49.8455 104.355C49.8455 104.355 50.0303 104.54 49.8455 104.725Z" fill="#150035"/>
<path d="M45.2248 107.312L43.3765 108.421C43.1917 108.606 42.8221 108.606 42.6373 108.421L40.789 107.312C40.6042 107.127 40.6042 106.942 40.789 106.942L42.6373 105.834C42.8221 105.649 43.1917 105.649 43.3765 105.834L45.2248 106.942C45.2248 107.127 45.4096 107.312 45.2248 107.312Z" fill="#150035"/>
<path d="M54.0965 107.127L52.2483 108.236C52.0634 108.421 51.6937 108.421 51.5089 108.236L49.6606 107.127C49.4758 106.942 49.4758 106.758 49.6606 106.758L51.5089 105.649C51.6937 105.464 52.0634 105.464 52.2483 105.649L54.0965 106.758C54.2813 106.942 54.2813 107.127 54.0965 107.127Z" fill="#150035"/>
<path d="M49.4758 109.9L47.6276 111.009C47.4427 111.193 47.073 111.193 46.8882 111.009L45.04 109.9C44.8551 109.715 44.8551 109.53 45.04 109.53L46.8882 108.421C47.073 108.236 47.4427 108.236 47.6276 108.421L49.4758 109.53C49.6606 109.53 49.6606 109.715 49.4758 109.9Z" fill="#150035"/>
<path d="M58.5323 109.715L56.684 110.824C56.4992 111.009 56.1296 111.009 55.9447 110.824L54.0965 109.715C53.9116 109.53 53.9116 109.345 54.0965 109.345L55.9447 108.236C56.1296 108.051 56.4992 108.051 56.684 108.236L58.5323 109.345C58.7171 109.345 58.7171 109.715 58.5323 109.715Z" fill="#150035"/>
<path d="M53.9117 112.487L52.0634 113.596C51.8786 113.781 51.5089 113.781 51.3241 113.596L49.4758 112.487C49.291 112.302 49.291 112.118 49.4758 112.118L51.3241 111.009C51.5089 110.824 51.8786 110.824 52.0634 111.009L53.9117 112.118C54.0965 112.118 54.0965 112.302 53.9117 112.487Z" fill="#150035"/>
<path d="M63.1529 112.487L61.3046 113.596C61.1198 113.781 60.7502 113.781 60.5654 113.596L58.7171 112.487C58.5323 112.302 58.5323 112.118 58.7171 112.118L60.5654 111.009C60.7502 110.824 61.1198 110.824 61.3046 111.009L63.1529 112.118C63.3377 112.118 63.3377 112.302 63.1529 112.487Z" fill="#150035"/>
<path d="M58.5323 115.075L56.684 116.184C56.4992 116.368 56.1296 116.368 55.9447 116.184L54.0965 115.075C53.9116 114.89 53.9116 114.705 54.0965 114.705L55.9447 113.596C56.1296 113.411 56.4992 113.411 56.684 113.596L58.5323 114.705C58.7171 114.705 58.7171 114.89 58.5323 115.075Z" fill="#150035"/>
<path d="M67.5887 114.89L65.7404 115.999C65.5556 116.184 65.1859 116.184 65.0011 115.999L63.1529 114.89C62.968 114.705 62.968 114.52 63.1529 114.52L65.0011 113.411C65.1859 113.226 65.5556 113.226 65.7404 113.411L67.5887 114.52C67.7735 114.705 67.7735 114.89 67.5887 114.89Z" fill="#150035"/>
<path d="M62.968 117.662L61.1198 118.771C60.935 118.956 60.5653 118.956 60.3805 118.771L58.5322 117.662C58.3474 117.478 58.3474 117.293 58.5322 117.293L60.3805 116.184C60.5653 115.999 60.935 115.999 61.1198 116.184L62.968 117.293C63.1529 117.293 63.1529 117.478 62.968 117.662Z" fill="#150035"/>
<path d="M71.8398 117.478L69.9915 118.587C69.8067 118.771 69.437 118.771 69.2522 118.587L67.404 117.478C67.2191 117.293 67.2191 117.108 67.404 117.108L69.2522 115.999C69.437 115.814 69.8067 115.814 69.9915 115.999L71.8398 117.108C72.0246 117.108 72.0246 117.293 71.8398 117.478Z" fill="#150035"/>
<path d="M67.2191 120.065L65.3709 121.174C65.1861 121.359 64.8164 121.359 64.6316 121.174L62.7833 120.065C62.5985 119.88 62.5985 119.695 62.7833 119.695L64.6316 118.586C64.8164 118.402 65.1861 118.402 65.3709 118.586L67.2191 119.695C67.404 119.88 67.404 120.065 67.2191 120.065Z" fill="#150035"/>
<path d="M76.4604 120.065L74.6121 121.174C74.4273 121.359 74.0577 121.359 73.8728 121.174L72.0246 120.065C71.8397 119.88 71.8397 119.695 72.0246 119.695L73.8728 118.586C74.0577 118.402 74.4273 118.402 74.6121 118.586L76.4604 119.695C76.6452 119.88 76.6452 120.065 76.4604 120.065Z" fill="#150035"/>
<path d="M71.8398 122.837L69.9915 123.946C69.8067 124.131 69.437 124.131 69.2522 123.946L67.404 122.837C67.2191 122.653 67.2191 122.468 67.404 122.468L69.2522 121.359C69.437 121.174 69.8067 121.174 69.9915 121.359L71.8398 122.468C72.0246 122.468 72.0246 122.653 71.8398 122.837Z" fill="#150035"/>
<path d="M81.0811 117.478L79.2328 118.587C79.048 118.771 78.6784 118.771 78.4935 118.587L76.6453 117.478C76.4604 117.293 76.4604 117.108 76.6453 117.108L78.4935 115.999C78.6784 115.814 79.048 115.814 79.2328 115.999L81.0811 117.108C81.2659 117.108 81.2659 117.293 81.0811 117.478Z" fill="#150035"/>
<path d="M85.7017 114.89L83.8534 115.999C83.6686 116.184 83.299 116.184 83.1141 115.999L81.2659 114.89C81.0811 114.705 81.0811 114.52 81.2659 114.52L83.1141 113.411C83.299 113.226 83.6686 113.226 83.8534 113.411L85.7017 114.52C85.8865 114.52 85.8865 114.705 85.7017 114.89Z" fill="#150035"/>
<path d="M90.3223 112.118L88.4741 113.226C88.2892 113.411 87.9196 113.411 87.7348 113.226L85.8865 112.118C85.7017 111.933 85.7017 111.748 85.8865 111.748L87.7348 110.639C87.9196 110.454 88.2892 110.454 88.4741 110.639L90.3223 111.748C90.5071 111.933 90.5071 112.118 90.3223 112.118Z" fill="#150035"/>
<path d="M94.943 109.53L93.0947 110.639C92.9099 110.824 92.5403 110.824 92.3555 110.639L90.5072 109.53C90.3224 109.345 90.3224 109.16 90.5072 109.16L92.3555 108.051C92.5403 107.866 92.9099 107.866 93.0947 108.051L94.943 109.16C95.1278 109.16 95.1278 109.345 94.943 109.53Z" fill="#150035"/>
<path d="M99.5636 106.758L97.7154 107.867C97.5305 108.051 97.1609 108.051 96.9761 107.867L95.1278 106.758C94.943 106.573 94.943 106.388 95.1278 106.388L96.9761 105.279C97.1609 105.094 97.5305 105.094 97.7154 105.279L99.5636 106.388C99.7484 106.573 99.7484 106.758 99.5636 106.758Z" fill="#150035"/>
<path d="M104.184 104.17L102.336 105.279C102.151 105.464 101.782 105.464 101.597 105.279L99.7485 104.17C99.5636 103.985 99.5636 103.8 99.7485 103.8L101.597 102.691C101.782 102.507 102.151 102.507 102.336 102.691L104.184 103.8C104.369 103.8 104.369 103.985 104.184 104.17Z" fill="#150035"/>
<path d="M108.805 101.582L106.957 102.691C106.772 102.876 106.402 102.876 106.217 102.691L104.369 101.582C104.184 101.398 104.184 101.213 104.369 101.213L106.217 100.104C106.402 99.919 106.772 99.919 106.957 100.104L108.805 101.213C108.99 101.213 108.99 101.398 108.805 101.582Z" fill="#150035"/>
<path d="M113.426 98.8101L111.577 99.919C111.392 100.104 111.023 100.104 110.838 99.919L108.99 98.8101C108.805 98.6252 108.805 98.4404 108.99 98.4404L110.838 97.3314C111.023 97.1466 111.392 97.1466 111.577 97.3314L113.426 98.4404C113.61 98.6252 113.61 98.8101 113.426 98.8101Z" fill="#150035"/>
<path d="M118.046 96.2226L116.198 97.3315C116.013 97.5164 115.643 97.5164 115.459 97.3315L113.61 96.2226C113.426 96.0378 113.426 95.8529 113.61 95.8529L115.459 94.744C115.643 94.5591 116.013 94.5591 116.198 94.744L118.046 95.8529C118.231 95.8529 118.231 96.0378 118.046 96.2226Z" fill="#150035"/>
<path d="M122.667 93.4502L120.819 94.5591C120.634 94.744 120.264 94.744 120.079 94.5591L118.231 93.4502C118.046 93.2654 118.046 93.0805 118.231 93.0805L120.079 91.9716C120.264 91.7867 120.634 91.7867 120.819 91.9716L122.667 93.0805C122.852 93.2654 122.852 93.4502 122.667 93.4502Z" fill="#150035"/>
<path d="M127.287 90.8626L125.439 91.9715C125.254 92.1563 124.885 92.1563 124.7 91.9715L122.852 90.8626C122.667 90.6778 122.667 90.4929 122.852 90.4929L124.7 89.384C124.885 89.1991 125.254 89.1991 125.439 89.384L127.287 90.4929C127.472 90.4929 127.472 90.6778 127.287 90.8626Z" fill="#150035"/>
<path d="M131.908 88.2749L130.06 89.3839C129.875 89.5687 129.505 89.5687 129.321 89.3839L127.472 88.2749C127.287 88.0901 127.287 87.9053 127.472 87.9053L129.321 86.7964C129.505 86.6115 129.875 86.6115 130.06 86.7964L131.908 87.9053C132.093 87.9053 132.093 88.0901 131.908 88.2749Z" fill="#150035"/>
<path d="M136.529 85.5026L134.68 86.6116C134.496 86.7964 134.126 86.7964 133.941 86.6116L132.093 85.5026C131.908 85.3178 131.908 85.133 132.093 85.133L133.941 84.024C134.126 83.8392 134.496 83.8392 134.68 84.024L136.529 85.133C136.714 85.133 136.714 85.5026 136.529 85.5026Z" fill="#150035"/>
<path d="M141.149 82.9151L139.301 84.0241C139.116 84.2089 138.747 84.2089 138.562 84.0241L136.714 82.9151C136.529 82.7303 136.529 82.5455 136.714 82.5455L138.562 81.4365C138.747 81.2517 139.116 81.2517 139.301 81.4365L141.149 82.5455C141.334 82.5455 141.334 82.7303 141.149 82.9151Z" fill="#150035"/>
<path d="M145.77 80.1428L143.922 81.2517C143.737 81.4366 143.367 81.4366 143.183 81.2517L141.334 80.1428C141.149 79.9579 141.149 79.7731 141.334 79.7731L143.183 78.6641C143.367 78.4793 143.737 78.4793 143.922 78.6641L145.77 79.7731C145.955 79.9579 145.955 80.1428 145.77 80.1428Z" fill="#150035"/>
<path d="M80.8962 122.653L79.0479 123.762C78.8631 123.946 78.4934 123.946 78.3086 123.762L76.4603 122.653C76.2755 122.468 76.2755 122.283 76.4603 122.283L78.3086 121.174C78.4934 120.989 78.8631 120.989 79.0479 121.174L80.8962 122.283C81.081 122.283 81.081 122.468 80.8962 122.653Z" fill="#150035"/>
<path d="M85.5169 120.065L83.6686 121.174C83.4838 121.359 83.1141 121.359 82.9293 121.174L81.081 120.065C80.8962 119.88 80.8962 119.695 81.081 119.695L82.9293 118.586C83.1141 118.402 83.4838 118.402 83.6686 118.586L85.5169 119.695C85.7017 119.695 85.7017 119.88 85.5169 120.065Z" fill="#150035"/>
<path d="M90.1375 117.293L88.2893 118.402C88.1044 118.586 87.7347 118.586 87.5499 118.402L85.7017 117.293C85.5168 117.108 85.5168 116.923 85.7017 116.923L87.5499 115.814C87.7347 115.629 88.1044 115.629 88.2893 115.814L90.1375 116.923C90.3223 117.108 90.3223 117.293 90.1375 117.293Z" fill="#150035"/>
<path d="M94.7581 114.705L92.9099 115.814C92.7251 115.999 92.3554 115.999 92.1705 115.814L90.3223 114.705C90.1374 114.52 90.1374 114.335 90.3223 114.335L92.1705 113.227C92.3554 113.042 92.7251 113.042 92.9099 113.227L94.7581 114.335C94.943 114.335 94.943 114.52 94.7581 114.705Z" fill="#150035"/>
<path d="M99.3788 111.933L97.5305 113.042C97.3457 113.227 96.976 113.227 96.7912 113.042L94.9429 111.933C94.7581 111.748 94.7581 111.563 94.9429 111.563L96.7912 110.454C96.976 110.269 97.3457 110.269 97.5305 110.454L99.3788 111.563C99.5636 111.748 99.5636 111.933 99.3788 111.933Z" fill="#150035"/>
<path d="M103.999 109.345L102.151 110.454C101.966 110.639 101.597 110.639 101.412 110.454L99.5636 109.345C99.3788 109.16 99.3788 108.976 99.5636 108.976L101.412 107.867C101.597 107.682 101.966 107.682 102.151 107.867L103.999 108.976C104.184 108.976 104.184 109.16 103.999 109.345Z" fill="#150035"/>
<path d="M108.62 106.758L106.772 107.867C106.587 108.051 106.217 108.051 106.032 107.867L104.184 106.758C103.999 106.573 103.999 106.388 104.184 106.388L106.032 105.279C106.217 105.094 106.587 105.094 106.772 105.279L108.62 106.388C108.805 106.388 108.805 106.573 108.62 106.758Z" fill="#150035"/>
<path d="M113.241 103.985L111.392 105.094C111.208 105.279 110.838 105.279 110.653 105.094L108.805 103.985C108.62 103.8 108.62 103.616 108.805 103.616L110.653 102.507C110.838 102.322 111.208 102.322 111.392 102.507L113.241 103.616C113.426 103.8 113.426 103.985 113.241 103.985Z" fill="#150035"/>
<path d="M117.861 101.398L116.013 102.507C115.828 102.691 115.459 102.691 115.274 102.507L113.426 101.398C113.241 101.213 113.241 101.028 113.426 101.028L115.274 99.919C115.459 99.7342 115.828 99.7342 116.013 99.919L117.861 101.028C118.046 101.028 118.046 101.213 117.861 101.398Z" fill="#150035"/>
<path d="M122.482 98.6253L120.634 99.7343C120.449 99.9191 120.079 99.9191 119.894 99.7343L118.046 98.6253C117.861 98.4405 117.861 98.2557 118.046 98.2557L119.894 97.1467C120.079 96.9619 120.449 96.9619 120.634 97.1467L122.482 98.2557C122.667 98.4405 122.667 98.6253 122.482 98.6253Z" fill="#150035"/>
<path d="M127.103 96.0377L125.254 97.1467C125.07 97.3315 124.7 97.3315 124.515 97.1467L122.667 96.0377C122.482 95.8529 122.482 95.668 122.667 95.668L124.515 94.5591C124.7 94.3743 125.07 94.3743 125.254 94.5591L127.103 95.668C127.103 95.668 127.287 95.8529 127.103 96.0377Z" fill="#150035"/>
<path d="M131.723 93.4502L129.875 94.5591C129.69 94.744 129.32 94.744 129.136 94.5591L127.287 93.4502C127.103 93.2654 127.103 93.0805 127.287 93.0805L129.136 91.9716C129.32 91.7867 129.69 91.7867 129.875 91.9716L131.723 93.0805C131.723 93.0805 131.908 93.2654 131.723 93.4502Z" fill="#150035"/>
<path d="M136.159 90.6778L134.311 91.7868C134.126 91.9716 133.756 91.9716 133.572 91.7868L131.723 90.6778C131.538 90.493 131.538 90.3082 131.723 90.3082L133.572 89.1992C133.756 89.0144 134.126 89.0144 134.311 89.1992L136.159 90.3082C136.344 90.493 136.529 90.6778 136.159 90.6778Z" fill="#150035"/>
<path d="M140.78 88.0902L138.931 89.1992C138.747 89.384 138.377 89.384 138.192 89.1992L136.344 88.0902C136.159 87.9054 136.159 87.7206 136.344 87.7206L138.192 86.6116C138.377 86.4268 138.747 86.4268 138.931 86.6116L140.78 87.7206C140.965 87.7206 140.965 87.9054 140.78 88.0902Z" fill="#150035"/>
<path d="M145.4 85.3178L143.552 86.4268C143.367 86.6116 142.998 86.6116 142.813 86.4268L140.965 85.3178C140.78 85.133 140.78 84.9482 140.965 84.9482L142.813 83.8392C142.998 83.6544 143.367 83.6544 143.552 83.8392L145.4 84.9482C145.585 85.133 145.585 85.3178 145.4 85.3178Z" fill="#150035"/>
<path d="M150.021 82.7302L148.173 83.8392C147.988 84.024 147.618 84.024 147.433 83.8392L145.585 82.7302C145.4 82.5454 145.4 82.3606 145.585 82.3606L147.433 81.2516C147.618 81.0668 147.988 81.0668 148.173 81.2516L150.021 82.3606C150.206 82.3606 150.206 82.5454 150.021 82.7302Z" fill="#150035"/>
<path d="M154.826 74.9675L152.978 76.0764C152.793 76.2613 152.424 76.2613 152.239 76.0764L150.391 74.9675C150.206 74.7826 150.206 74.5978 150.391 74.5978L152.239 73.4889C152.424 73.304 152.793 73.304 152.978 73.4889L154.826 74.5978C155.011 74.5978 155.011 74.7826 154.826 74.9675Z" fill="#150035"/>
<path d="M150.206 77.5551L148.358 78.664C148.173 78.8488 147.803 78.8488 147.618 78.664L145.77 77.5551C145.585 77.3702 145.585 77.1854 145.77 77.1854L147.618 76.0765C147.803 75.8916 148.173 75.8916 148.358 76.0765L150.206 77.1854C150.391 77.1854 150.576 77.3702 150.206 77.5551Z" fill="#150035"/>
<path d="M159.447 72.1951L157.599 73.3041C157.414 73.4889 157.044 73.4889 156.859 73.3041L155.011 72.1951C154.826 72.0103 154.826 71.8255 155.011 71.8255L156.859 70.7165C157.044 70.5317 157.414 70.5317 157.599 70.7165L159.447 71.8255C159.632 72.0103 159.632 72.1951 159.447 72.1951Z" fill="#150035"/>
<path d="M164.068 69.6076L162.22 70.7165C162.035 70.9014 161.665 70.9014 161.48 70.7165L159.632 69.6076C159.447 69.4228 159.447 69.2379 159.632 69.2379L161.48 68.129C161.665 67.9442 162.035 67.9442 162.22 68.129L164.068 69.2379C164.253 69.2379 164.253 69.4228 164.068 69.6076Z" fill="#150035"/>
<path d="M168.688 66.8352L166.84 67.9442C166.655 68.129 166.286 68.129 166.101 67.9442L164.253 66.8352C164.068 66.6504 164.068 66.4656 164.253 66.4656L166.101 65.3566C166.286 65.1718 166.655 65.1718 166.84 65.3566L168.688 66.4656C168.873 66.6504 168.873 66.8352 168.688 66.8352Z" fill="#150035"/>
<path d="M173.309 64.2476L171.461 65.3566C171.276 65.5414 170.906 65.5414 170.721 65.3566L168.873 64.2476C168.688 64.0628 168.688 63.878 168.873 63.878L170.721 62.769C170.906 62.5842 171.276 62.5842 171.461 62.769L173.309 63.878C173.494 63.878 173.494 64.0628 173.309 64.2476Z" fill="#150035"/>
<path d="M159.262 77.3702L157.414 78.4792C157.229 78.664 156.86 78.664 156.675 78.4792L154.827 77.3702C154.642 77.1854 154.642 77.0006 154.827 77.0006L156.675 75.8916C156.86 75.7068 157.229 75.7068 157.414 75.8916L159.262 77.0006C159.447 77.1854 159.447 77.3702 159.262 77.3702Z" fill="#150035"/>
<path d="M154.642 80.1426L152.793 81.2516C152.609 81.4364 152.239 81.4364 152.054 81.2516L150.206 80.1426C150.021 79.9578 150.021 79.773 150.206 79.773L152.054 78.664C152.239 78.4792 152.609 78.4792 152.793 78.664L154.642 79.773C154.826 79.773 154.826 79.9578 154.642 80.1426Z" fill="#150035"/>
<path d="M163.883 74.7827L162.035 75.8917C161.85 76.0765 161.48 76.0765 161.295 75.8917L159.447 74.7827C159.262 74.5979 159.262 74.4131 159.447 74.4131L161.295 73.3041C161.48 73.1193 161.85 73.1193 162.035 73.3041L163.883 74.4131C164.068 74.4131 164.068 74.5979 163.883 74.7827Z" fill="#150035"/>
<path d="M168.504 72.0103L166.655 73.1193C166.47 73.3041 166.101 73.3041 165.916 73.1193L164.068 72.0103C163.883 71.8255 163.883 71.6407 164.068 71.6407L165.916 70.5317C166.101 70.3469 166.47 70.3469 166.655 70.5317L168.504 71.6407C168.688 71.8255 168.688 72.0103 168.504 72.0103Z" fill="#150035"/>
<path d="M173.124 69.4227L171.276 70.5317C171.091 70.7165 170.722 70.7165 170.537 70.5317L168.688 69.4227C168.504 69.2379 168.504 69.0531 168.688 69.0531L170.537 67.9441C170.722 67.7593 171.091 67.7593 171.276 67.9441L173.124 69.0531C173.309 69.0531 173.309 69.2379 173.124 69.4227Z" fill="#150035"/>
<path d="M177.93 61.66L176.081 62.769C175.897 62.9538 175.527 62.9538 175.342 62.769L173.494 61.66C173.309 61.4752 173.309 61.2904 173.494 61.2904L175.342 60.1814C175.527 59.9966 175.897 59.9966 176.081 60.1814L177.93 61.2904C178.115 61.2904 178.115 61.4752 177.93 61.66Z" fill="#150035"/>
<path d="M182.55 58.8876L180.702 59.9966C180.517 60.1814 180.148 60.1814 179.963 59.9966L178.114 58.8876C177.93 58.7028 177.93 58.518 178.114 58.518L179.963 57.409C180.148 57.2242 180.517 57.2242 180.702 57.409L182.55 58.518C182.735 58.7028 182.735 58.8876 182.55 58.8876Z" fill="#150035"/>
<path d="M187.171 56.3001L185.323 57.409C185.138 57.5939 184.768 57.5939 184.583 57.409L182.735 56.3001C182.55 56.1153 182.55 55.9304 182.735 55.9304L184.583 54.8215C184.768 54.6367 185.138 54.6367 185.323 54.8215L187.171 55.9304C187.356 55.9304 187.356 56.1153 187.171 56.3001Z" fill="#150035"/>
<path d="M177.745 66.8352L175.897 67.9442C175.712 68.129 175.342 68.129 175.157 67.9442L173.309 66.8352C173.124 66.6504 173.124 66.4656 173.309 66.4656L175.157 65.3566C175.342 65.1718 175.712 65.1718 175.897 65.3566L177.745 66.4656C177.93 66.4656 177.93 66.6504 177.745 66.8352Z" fill="#150035"/>
<path d="M182.366 64.0628L180.517 65.1718C180.332 65.3566 179.963 65.3566 179.778 65.1718L177.93 64.0628C177.745 63.878 177.745 63.6932 177.93 63.6932L179.778 62.5842C179.963 62.3994 180.332 62.3994 180.517 62.5842L182.366 63.6932C182.55 63.878 182.55 64.0628 182.366 64.0628Z" fill="#150035"/>
<path d="M186.986 61.4752L185.138 62.5842C184.953 62.769 184.583 62.769 184.399 62.5842L182.55 61.4752C182.366 61.2904 182.366 61.1056 182.55 61.1056L184.399 59.9966C184.583 59.8118 184.953 59.8118 185.138 59.9966L186.986 61.1056C187.171 61.1056 187.171 61.2904 186.986 61.4752Z" fill="#150035"/>
<path d="M183.105 51.6795L79.7872 111.378C76.83 113.042 71.6549 112.857 68.328 110.824L5.30246 74.2283C1.9756 72.1952 1.05148 64.6173 4.00869 62.9539L107.881 7.87582C110.838 6.21239 116.013 6.3972 119.34 8.43029L183.844 41.1445C187.171 42.9927 186.062 49.8313 183.105 51.6795Z" fill="#150035"/>
<path d="M74.797 113.411C72.3942 113.411 69.8067 112.857 67.7736 111.563L4.74801 74.9675C2.34527 73.4889 1.23633 69.9772 1.23633 67.2048C1.23633 64.6173 2.16045 62.769 3.45423 62.0297L107.326 6.95165C110.653 5.10339 116.013 5.28821 119.894 7.50612L184.214 40.2203C185.877 41.1444 186.801 43.1775 186.801 45.5802C186.801 48.5374 185.508 51.4946 183.475 52.6036L80.1569 112.302C78.8631 113.042 76.83 113.411 74.797 113.411ZM112.871 7.69095C111.208 7.69095 109.544 8.0606 108.435 8.61508L4.56317 63.6931C3.82387 64.0628 3.26939 65.5414 3.26939 67.2048C3.26939 69.7924 4.37837 72.38 5.85697 73.3041L68.8826 109.9C72.0246 111.748 76.83 111.933 79.4176 110.454L182.735 50.7553C184.029 50.016 184.953 47.7981 184.953 45.3954C184.953 43.732 184.399 42.2534 183.29 41.6989L118.97 8.98473C117.122 8.24542 114.904 7.69095 112.871 7.69095Z" fill="#150035"/>
<path d="M183.105 46.6893L79.7874 106.388C76.8301 108.051 71.655 107.867 68.3281 105.833L5.30258 69.238C1.97571 67.2049 1.42122 64.2477 4.56326 62.5843L107.881 2.88555C110.838 1.22212 116.013 1.40695 119.34 3.44003L182.366 40.0355C185.692 41.8838 186.062 45.0258 183.105 46.6893Z" fill="#007AFF"/>
<path d="M74.7969 108.421C72.3942 108.421 69.8067 107.867 67.7736 106.573L4.748 69.9772C2.71491 68.6835 1.42113 67.02 1.42113 65.3566C1.42113 63.878 2.34526 62.5842 3.82387 61.6601L107.141 1.96136C110.468 0.113103 115.828 0.297934 119.71 2.51584L182.735 39.1113C184.768 40.4051 186.062 42.0686 186.062 43.732C186.062 45.2106 185.138 46.5044 183.659 47.4285L80.3417 107.127C78.8631 108.051 76.83 108.421 74.7969 108.421ZM112.871 2.70067C111.208 2.70067 109.544 3.07032 108.435 3.62479L5.11764 63.3235C4.37834 63.6932 3.63903 64.4325 3.63903 65.3566C3.63903 66.2807 4.56316 67.3897 6.04177 68.3138L69.0673 104.909C72.2094 106.758 77.0149 106.942 79.6024 105.464L182.92 45.7651C183.659 45.3954 184.399 44.6561 184.399 43.732C184.399 42.8079 183.474 41.6989 181.996 40.7748L118.97 4.17928C117.122 3.25515 114.904 2.70067 112.871 2.70067Z" fill="#150035"/>
<path d="M182.366 40.0354L119.34 3.43993C119.34 3.43993 119.34 3.43993 119.155 3.43993L177.19 37.263C180.517 39.2961 181.072 42.2533 177.93 43.9168L74.6121 103.615C71.6549 105.279 66.6647 105.094 63.153 103.246L68.1432 106.203C71.4701 108.236 76.6453 108.421 79.6025 106.757L182.92 47.0588C186.247 45.0257 185.877 41.8837 182.366 40.0354Z" fill="#150035"/>
<path d="M74.7969 108.236C72.3942 108.236 69.9915 107.682 67.9584 106.573L68.6977 105.279C71.8397 107.127 76.83 107.312 79.4176 105.833L182.735 46.1347C184.214 45.2106 184.768 44.1016 184.029 42.8078L185.323 42.0685C186.247 44.1016 185.508 45.9499 183.29 47.2436L80.3417 106.942C78.8631 107.866 76.83 108.236 74.7969 108.236Z" fill="#007AFF"/>
<path d="M78.3086 85.2716C77.9389 85.4564 77.9389 85.6412 77.9389 86.0109C77.9389 86.1957 78.3086 86.5653 78.6783 86.7502C79.6024 87.3047 80.3417 87.3046 81.081 86.935C81.4506 86.7502 81.6354 86.5653 82.0051 86.1957L82.7444 86.5653C82.5596 86.7502 82.1899 87.1198 81.8203 87.3046C81.2658 87.6743 80.5265 87.8591 79.972 87.8591C79.2327 87.8591 78.6782 87.6743 77.9389 87.3046C77.5693 87.1198 77.1996 86.7502 77.0148 86.5653C76.83 86.3805 76.83 86.0109 77.0148 85.826C77.1996 85.6412 77.3845 85.2716 77.7541 85.0867C78.1238 84.9019 78.6782 84.7171 79.2327 84.5322L79.6024 85.0867C79.4176 85.0867 79.2327 85.2716 78.863 85.2716C78.6782 85.0867 78.4934 85.0867 78.3086 85.2716Z" fill="white"/>
<path d="M86.2561 84.7171L84.9623 84.3474L83.4837 85.2715L84.223 86.0108L83.2989 86.5653L80.5265 83.2384L81.6354 82.684L87.1802 84.1626L86.2561 84.7171ZM84.0382 83.9778C82.9292 83.6081 82.1899 83.4233 82.0051 83.4233C81.8203 83.4233 81.8203 83.4233 81.6354 83.2384C81.8203 83.4233 82.1899 83.7929 82.9292 84.5322L84.0382 83.9778Z" fill="white"/>
<path d="M86.9955 82.3144L88.6589 83.2385L87.7348 83.793L83.6686 81.3903L84.9624 80.651C85.5169 80.2813 86.0713 80.0965 86.441 80.0965C86.9954 80.0965 87.3651 80.0965 87.7348 80.4661C87.9196 80.651 88.1044 80.8358 88.1044 81.0206C88.1044 81.2054 88.1044 81.3903 87.9196 81.5751C89.3982 81.7599 90.5071 81.9447 90.8768 81.9447L89.9526 82.4992L87.3651 82.1296L86.9955 82.3144ZM86.2561 81.9447L86.6258 81.7599C86.9955 81.5751 86.9954 81.3903 87.1803 81.3903C87.1803 81.2054 87.1803 81.2054 86.9955 81.0206C86.8107 80.8358 86.6258 80.8358 86.441 80.8358C86.2561 80.8358 85.8865 81.0206 85.7017 81.2054L85.5168 81.3903L86.2561 81.9447Z" fill="white"/>
<path d="M92.9098 78.4331C93.6491 78.8028 93.8339 79.1724 93.8339 79.7269C93.8339 80.0965 93.4643 80.651 92.725 81.0206L91.6161 81.7599L87.5499 79.3572L88.8437 78.6179C89.583 78.2483 90.1374 78.0634 90.8767 78.0634C91.4312 77.8786 92.1705 78.0634 92.9098 78.4331ZM91.9857 78.9876C91.0616 78.4331 90.3223 78.4331 89.3981 78.9876L88.8437 79.1724L91.6161 80.651L91.9857 80.4662C92.9098 79.9117 92.9098 79.542 91.9857 78.9876Z" fill="white"/>
<path d="M100.673 76.2151L99.7484 76.7696L97.9002 75.6606L96.2367 76.5847L98.085 77.6937L97.1609 78.2482L93.0947 75.8454L94.0188 75.2909L95.6822 76.2151L97.3457 75.2909L95.6822 74.3668L96.6064 73.8124L100.673 76.2151Z" fill="white"/>
<path d="M103.445 72.3338C104.184 72.7035 104.554 73.0731 104.554 73.6276C104.554 73.9973 104.369 74.3669 103.63 74.7366C103.075 75.1062 102.336 75.291 101.597 75.291C100.857 75.291 100.118 75.1062 99.5636 74.7366C98.8243 74.3669 98.4547 73.9972 98.4547 73.4428C98.4547 73.0731 98.8243 72.7035 99.3788 72.3338C99.9333 71.9642 100.673 71.7793 101.412 71.7793C101.966 71.7793 102.706 71.9642 103.445 72.3338ZM100.303 73.9972C100.673 74.1821 101.227 74.3669 101.597 74.3669C101.966 74.3669 102.336 74.3669 102.706 74.1821C103.445 73.8124 103.26 73.2579 102.336 72.7035C101.412 72.149 100.673 72.149 99.9333 72.5186C99.5637 72.7035 99.3788 72.8883 99.5636 73.258C99.5636 73.6276 99.9333 73.8124 100.303 73.9972Z" fill="white"/>
<path d="M106.402 73.0731L102.336 70.6703L103.26 70.1159L106.587 72.1489L108.25 71.2248L108.99 71.5944L106.402 73.0731Z" fill="white"/>
<path d="M110.838 67.898C111.577 68.2676 111.762 68.6373 111.762 69.1918C111.762 69.5615 111.392 70.1159 110.653 70.4856L109.544 71.2249L105.478 68.8221L106.772 68.0828C107.511 67.7132 108.066 67.5284 108.805 67.5284C109.544 67.3435 110.283 67.5283 110.838 67.898ZM110.099 68.4525C109.175 67.898 108.435 67.898 107.511 68.4525L106.957 68.6373L109.729 70.1159L110.099 69.9311C111.023 69.5614 110.838 69.007 110.099 68.4525Z" fill="white"/>
<path d="M116.198 67.3435L113.795 68.6373L109.729 66.2346L112.132 64.9408L112.871 65.3104L111.392 66.2346L112.317 66.789L113.795 66.0497L114.534 66.4194L113.056 67.1587L114.165 67.7132L115.643 66.789L116.198 67.3435Z" fill="white"/>
<path d="M116.383 65.3104L118.046 66.2345L117.122 66.789L113.056 64.3863L114.35 63.647C114.904 63.2773 115.459 63.0925 115.828 63.0925C116.383 63.0925 116.752 63.0925 117.122 63.4621C117.307 63.647 117.492 63.8318 117.492 64.0166C117.492 64.2014 117.492 64.3863 117.307 64.5711C118.785 64.7559 119.894 64.9407 120.264 64.9407L119.34 65.4952L116.752 65.1255L116.383 65.3104ZM115.643 64.9407L116.013 64.7559C116.198 64.5711 116.383 64.3863 116.568 64.3863C116.568 64.2014 116.568 64.2014 116.383 64.0166C116.198 63.8318 116.013 63.8318 115.828 63.8318C115.643 63.8318 115.274 64.0166 115.089 64.2014L114.904 64.3863L115.643 64.9407Z" fill="white"/>
<path d="M7.15083 69.7924H5.67222V74.7827H7.15083V69.7924Z" fill="#007AFF"/>
<path d="M179.224 49.0919H177.745V54.0822H179.224V49.0919Z" fill="#007AFF"/>
<path d="M11.4018 72.3799H9.92319V77.3702H11.4018V72.3799Z" fill="#007AFF"/>
<path d="M69.0675 105.094H67.5889V110.824H69.0675V105.094Z" fill="#007AFF"/>
<path d="M129.875 61.2905C131.354 62.3995 130.06 64.0629 129.875 64.4325C130.43 64.2477 133.202 63.6932 135.235 64.4325C133.756 63.3236 135.05 61.6601 135.235 61.2905C134.681 61.4753 131.908 62.2146 129.875 61.2905C129.875 61.2905 129.69 61.2905 129.875 61.2905Z" fill="#150035"/>
<path d="M137.453 56.8547C138.931 57.9636 137.638 59.6271 137.453 59.9967C138.007 59.8119 140.78 59.2574 142.813 59.9967C141.334 58.8878 142.628 57.2243 142.813 56.8547C142.443 57.0395 139.486 57.7788 137.453 56.8547Z" fill="#150035"/>
<path d="M145.216 52.4188C146.694 53.5277 145.4 55.1912 145.216 55.5608C145.77 55.376 148.542 54.8215 150.576 55.5608C149.097 54.4519 150.391 52.7884 150.576 52.4188C150.021 52.6036 147.249 53.3429 145.216 52.4188Z" fill="#150035"/>
<path d="M152.978 47.983C154.457 49.092 153.163 50.7554 152.978 51.1251C153.533 50.9402 156.305 50.3858 158.338 51.1251C156.86 50.0161 158.153 48.3527 158.338 47.983C157.784 48.1678 155.011 48.7223 152.978 47.983C152.978 47.983 152.793 47.983 152.978 47.983Z" fill="#150035"/>
<path d="M160.556 43.5472C162.035 44.6561 160.741 46.3196 160.556 46.6892C161.111 46.5044 163.883 45.9499 165.916 46.6892C164.437 45.5803 165.731 43.9168 165.916 43.5472C165.546 43.732 162.589 44.2865 160.556 43.5472Z" fill="#150035"/>
<path d="M168.319 39.1114C169.797 40.2204 168.504 41.8838 168.319 42.2535C168.873 42.0686 171.646 41.5142 173.679 42.2535C172.2 41.1445 173.494 39.4811 173.679 39.1114C173.124 39.2963 170.352 39.8507 168.319 39.1114Z" fill="#150035"/>
<path d="M129.69 52.4188C131.169 53.5277 129.875 55.1912 129.69 55.5608C130.245 55.376 133.017 54.8215 135.05 55.5608C133.572 54.4519 134.865 52.7884 135.05 52.4188C134.681 52.6036 131.723 53.1581 129.69 52.4188Z" fill="#150035"/>
<path d="M137.453 47.983C138.931 49.092 137.638 50.7554 137.453 51.1251C138.007 50.9402 140.78 50.3858 142.813 51.1251C141.334 50.0161 142.628 48.3527 142.813 47.983C142.258 48.1678 139.486 48.7223 137.453 47.983Z" fill="#150035"/>
<path d="M145.216 43.5472C146.694 44.6561 145.4 46.3196 145.216 46.6892C145.77 46.5044 148.542 45.9499 150.576 46.6892C149.097 45.5803 150.391 43.9168 150.576 43.5472C150.021 43.732 147.249 44.2865 145.216 43.5472Z" fill="#150035"/>
<path d="M152.793 39.1114C154.272 40.2204 152.978 41.8838 152.793 42.2535C153.348 42.0686 156.12 41.5142 158.153 42.2535C156.675 41.1445 157.969 39.4811 158.153 39.1114C157.784 39.1114 154.827 39.8507 152.793 39.1114Z" fill="#150035"/>
<path d="M160.556 34.6755C162.035 35.7845 160.741 37.4479 160.556 37.8176C161.111 37.6327 163.883 37.0783 165.916 37.8176C164.437 36.7086 165.731 35.0452 165.916 34.6755C165.546 34.6755 162.589 35.4148 160.556 34.6755Z" fill="#150035"/>
</svg>
