<svg width="178" height="162" viewBox="0 0 178 162" fill="none" xmlns="http://www.w3.org/2000/svg">
<path d="M171.86 151.047L174.083 152.259C174.285 152.461 174.689 152.461 174.891 152.259L176.911 151.047C177.113 150.845 177.113 150.643 176.911 150.643L174.689 149.431C174.487 149.229 174.083 149.229 173.881 149.431L171.86 150.643C171.658 150.845 171.658 151.047 171.86 151.047Z" fill="#150035"/>
<path d="M168.628 146.4L166.608 147.612C166.406 147.814 166.406 148.016 166.608 148.016L168.83 149.229C169.032 149.431 169.436 149.431 169.638 149.229L171.658 148.016C171.86 148.016 168.83 146.4 168.628 146.4Z" fill="#150035"/>
<path d="M161.356 144.582C161.154 144.784 161.154 144.986 161.356 144.986L163.578 146.198C163.78 146.4 164.184 146.4 164.386 146.198L166.406 144.986C166.608 144.986 161.356 144.582 161.356 144.582Z" fill="#150035"/>
<path d="M156.104 141.551C155.902 141.753 155.902 141.955 156.104 141.955L158.326 143.167C158.528 143.369 158.932 143.369 159.134 143.167L156.104 141.551Z" fill="#150035"/>
<path d="M151.053 138.521C150.851 138.723 150.851 138.925 151.053 138.925L153.275 140.138C153.477 140.34 153.881 140.34 154.083 140.138L151.053 138.521Z" fill="#150035"/>
<path d="M147.821 134.48L145.801 135.692C145.599 135.894 145.599 136.096 145.801 136.096L148.023 137.308C148.225 137.511 148.629 137.511 148.831 137.308C148.629 137.308 148.023 134.278 147.821 134.48Z" fill="#150035"/>
<path d="M142.569 131.451L140.549 132.663C140.347 132.865 140.347 133.067 140.549 133.067L142.771 134.279C142.973 134.481 143.377 134.481 143.579 134.279L145.599 133.067C145.801 132.865 142.771 131.249 142.569 131.451Z" fill="#150035"/>
<path d="M137.316 128.422L135.296 129.634C135.094 129.836 135.094 130.038 135.296 130.038L137.518 131.25C137.72 131.452 138.124 131.452 138.326 131.25L140.346 130.038C140.548 129.836 137.518 128.22 137.316 128.422Z" fill="#150035"/>
<path d="M132.064 125.39L130.044 126.603C129.842 126.805 129.842 127.007 130.044 127.007L132.266 128.219C132.468 128.421 132.872 128.421 133.074 128.219L135.094 127.007C135.296 126.805 132.266 125.188 132.064 125.39Z" fill="#150035"/>
<path d="M126.812 122.361L124.792 123.573C124.59 123.775 124.59 123.977 124.792 123.977L127.014 125.189C127.216 125.391 127.62 125.391 127.822 125.189L129.842 123.977C130.044 123.775 127.014 122.159 126.812 122.361Z" fill="#150035"/>
<path d="M121.559 119.33L119.539 120.542C119.337 120.744 119.337 120.946 119.539 120.946L121.761 122.158C121.963 122.36 122.367 122.36 122.569 122.158L124.589 120.946C124.791 120.744 121.963 119.128 121.559 119.33Z" fill="#150035"/>
<path d="M116.307 116.301L114.287 117.513C114.085 117.715 114.085 117.917 114.287 117.917L116.509 119.129C116.711 119.331 117.115 119.331 117.317 119.129L119.337 117.917C119.54 117.917 116.711 116.099 116.307 116.301Z" fill="#150035"/>
<path d="M111.258 113.27L109.237 114.482C109.035 114.684 109.035 114.886 109.237 114.886L111.46 116.098C111.662 116.3 112.066 116.3 112.268 116.098L114.288 114.886C114.288 114.886 111.46 113.068 111.258 113.27Z" fill="#150035"/>
<path d="M166.81 154.076L169.032 155.288C169.234 155.49 169.638 155.49 169.84 155.288L171.86 154.076C172.062 153.874 172.062 153.672 171.86 153.672L169.638 152.46C169.436 152.258 169.032 152.258 168.83 152.46L166.81 153.672C166.608 153.672 166.608 153.874 166.81 154.076Z" fill="#150035"/>
<path d="M172.062 157.105L174.284 158.318C174.486 158.52 174.89 158.52 175.092 158.318L177.112 157.105C177.314 156.903 177.314 156.701 177.112 156.701L174.89 155.489C174.688 155.287 174.284 155.287 174.082 155.489L172.062 156.701C171.86 156.701 171.86 156.903 172.062 157.105Z" fill="#150035"/>
<path d="M115.701 97.3105L117.923 98.5226C118.125 98.7246 118.529 98.7246 118.731 98.5226L120.752 97.3105C120.954 97.1085 120.954 96.9065 120.752 96.9065L118.529 95.6945C118.327 95.4925 117.923 95.4925 117.721 95.6945L115.701 96.9065C115.499 97.1085 115.499 97.3105 115.701 97.3105Z" fill="#150035"/>
<path d="M110.853 100.139L113.075 101.351C113.278 101.553 113.682 101.553 113.884 101.351L115.904 100.139C116.106 99.9367 116.106 99.7347 115.904 99.7347L113.682 98.5226C113.479 98.3206 113.075 98.3206 112.873 98.5226L110.853 99.7347C110.651 99.9367 110.449 100.139 110.853 100.139Z" fill="#150035"/>
<path d="M115.903 103.17L118.126 104.382C118.328 104.584 118.732 104.584 118.934 104.382L120.954 103.17C121.156 102.968 121.156 102.766 120.954 102.766L118.732 101.554C118.53 101.352 118.126 101.352 117.924 101.554L115.903 102.766C115.701 102.968 115.701 103.17 115.903 103.17Z" fill="#150035"/>
<path d="M115.499 91.4531L117.721 92.6652C117.923 92.8672 118.327 92.8672 118.529 92.6652L120.549 91.4531C120.751 91.2511 120.751 91.0491 120.549 91.0491L118.327 89.8371C118.125 89.635 117.721 89.635 117.519 89.8371L115.499 91.0491C115.297 91.0491 115.297 91.2511 115.499 91.4531Z" fill="#150035"/>
<path d="M161.558 151.047L163.78 152.259C163.982 152.461 164.386 152.461 164.588 152.259L166.608 151.047C166.81 150.845 166.81 150.643 166.608 150.643L164.386 149.431C164.184 149.229 163.78 149.229 163.578 149.431L161.558 150.643C161.356 150.643 161.356 150.845 161.558 151.047Z" fill="#150035"/>
<path d="M156.508 148.016L158.73 149.228C158.932 149.43 159.336 149.43 159.538 149.228L161.558 148.016C161.76 147.814 161.76 147.612 161.558 147.612L159.336 146.4C159.134 146.198 158.73 146.198 158.528 146.4L156.508 147.612C156.306 147.612 156.104 147.814 156.508 148.016Z" fill="#150035"/>
<path d="M151.255 144.986L153.477 146.198C153.679 146.4 154.083 146.4 154.285 146.198L156.305 144.986C156.507 144.784 156.507 144.582 156.305 144.582L154.083 143.37C153.881 143.168 153.477 143.168 153.275 143.37L151.255 144.582C151.053 144.582 151.053 144.784 151.255 144.986Z" fill="#150035"/>
<path d="M146.003 141.955L148.225 143.167C148.427 143.369 148.831 143.369 149.033 143.167L151.053 141.955C151.255 141.753 151.255 141.551 151.053 141.551L148.831 140.339C148.629 140.137 148.225 140.137 148.023 140.339L146.003 141.551C145.801 141.551 145.801 141.753 146.003 141.955Z" fill="#150035"/>
<path d="M140.75 138.926L142.972 140.138C143.174 140.34 143.578 140.34 143.78 140.138L145.8 138.926C146.002 138.724 146.002 138.522 145.8 138.522L143.578 137.31C143.376 137.108 142.972 137.108 142.77 137.31L140.75 138.522C140.548 138.522 140.548 138.724 140.75 138.926Z" fill="#150035"/>
<path d="M135.498 135.895L137.72 137.107C137.922 137.309 138.326 137.309 138.528 137.107L140.548 135.895C140.75 135.693 140.75 135.491 140.548 135.491L138.326 134.278C138.124 134.076 137.72 134.076 137.518 134.278L135.498 135.491C135.296 135.491 135.296 135.693 135.498 135.895Z" fill="#150035"/>
<path d="M130.246 132.865L132.468 134.077C132.67 134.279 133.074 134.279 133.276 134.077L135.296 132.865C135.498 132.663 135.498 132.461 135.296 132.461L133.074 131.249C132.872 131.047 132.468 131.047 132.266 131.249L130.246 132.461C130.044 132.461 130.044 132.663 130.246 132.865Z" fill="#150035"/>
<path d="M124.994 129.834L127.216 131.046C127.418 131.248 127.822 131.248 128.024 131.046L130.045 129.834C130.247 129.632 130.247 129.43 130.045 129.43L127.822 128.218C127.62 128.016 127.216 128.016 127.014 128.218L124.994 129.43C124.792 129.43 124.792 129.632 124.994 129.834Z" fill="#150035"/>
<path d="M119.741 126.805L121.963 128.017C122.165 128.219 122.569 128.219 122.771 128.017L124.792 126.805C124.994 126.603 124.994 126.401 124.792 126.401L122.569 125.189C122.367 124.987 121.963 124.987 121.761 125.189L119.741 126.401C119.539 126.401 119.539 126.805 119.741 126.805Z" fill="#150035"/>
<path d="M114.489 123.775L116.711 124.987C116.913 125.189 117.317 125.189 117.519 124.987L119.539 123.775C119.741 123.573 119.741 123.371 119.539 123.371L117.317 122.159C117.115 121.957 116.711 121.957 116.509 122.159L114.489 123.371C114.489 123.371 114.287 123.775 114.489 123.775Z" fill="#150035"/>
<path d="M109.439 120.744L111.661 121.956C111.863 122.158 112.267 122.158 112.469 121.956L114.489 120.744C114.691 120.542 114.691 120.34 114.489 120.34L112.267 119.128C112.065 118.926 111.661 118.926 111.459 119.128L109.439 120.34C109.237 120.542 109.237 120.744 109.439 120.744Z" fill="#150035"/>
<path d="M104.187 117.715L106.409 118.927C106.611 119.129 107.015 119.129 107.217 118.927L109.237 117.715C109.439 117.513 109.439 117.311 109.237 117.311L107.015 116.099C106.813 115.897 106.409 115.897 106.207 116.099L104.187 117.311C103.985 117.513 103.985 117.715 104.187 117.715Z" fill="#150035"/>
<path d="M98.9347 114.684L101.157 115.896C101.359 116.098 101.763 116.098 101.965 115.896L103.985 114.684C104.187 114.482 104.187 114.28 103.985 114.28L101.763 113.068C101.561 112.866 101.157 112.866 100.955 113.068L98.9347 114.28C98.7327 114.482 98.7327 114.684 98.9347 114.684Z" fill="#150035"/>
<path d="M93.6828 111.654L95.9049 112.866C96.1069 113.068 96.5109 113.068 96.7129 112.866L98.733 111.654C98.935 111.452 98.935 111.25 98.733 111.25L96.5109 110.038C96.3089 109.836 95.9049 109.836 95.7029 110.038L93.6828 111.25C93.4807 111.452 93.4807 111.654 93.6828 111.654Z" fill="#150035"/>
<path d="M88.4308 108.623L90.6529 109.835C90.8549 110.037 91.2589 110.037 91.461 109.835L93.4811 108.623C93.6831 108.421 93.6831 108.219 93.4811 108.219L91.2589 107.007C91.0569 106.805 90.6529 106.805 90.4509 107.007L88.4308 108.219C88.2288 108.421 88.2288 108.623 88.4308 108.623Z" fill="#150035"/>
<path d="M161.558 157.105L163.78 158.318C163.982 158.52 164.386 158.52 164.588 158.318L166.608 157.105C166.81 156.903 166.81 156.701 166.608 156.701L164.386 155.489C164.184 155.287 163.78 155.287 163.578 155.489L161.558 156.701C161.356 156.701 161.356 156.903 161.558 157.105Z" fill="#150035"/>
<path d="M166.81 160.137L169.032 161.349C169.234 161.551 169.638 161.551 169.84 161.349L171.86 160.137C172.062 159.935 172.062 159.733 171.86 159.733L169.638 158.521C169.436 158.319 169.032 158.319 168.83 158.521L166.81 159.733C166.608 159.733 166.608 159.935 166.81 160.137Z" fill="#150035"/>
<path d="M156.306 154.076L158.528 155.288C158.73 155.49 159.134 155.49 159.336 155.288L161.356 154.076C161.558 153.874 161.558 153.672 161.356 153.672L159.134 152.46C158.932 152.258 158.528 152.258 158.326 152.46L156.306 153.672C156.104 153.672 156.104 153.874 156.306 154.076Z" fill="#150035"/>
<path d="M151.255 151.047L153.477 152.259C153.679 152.461 154.083 152.461 154.285 152.259L156.305 151.047C156.507 150.845 156.507 150.643 156.305 150.643L154.083 149.431C153.881 149.229 153.477 149.229 153.275 149.431L151.255 150.643C151.053 150.643 150.851 150.845 151.255 151.047Z" fill="#150035"/>
<path d="M146.003 148.016L148.225 149.228C148.427 149.43 148.831 149.43 149.033 149.228L151.053 148.016C151.255 147.814 151.255 147.612 151.053 147.612L148.831 146.4C148.629 146.198 148.225 146.198 148.023 146.4L146.003 147.612C145.801 147.612 145.801 147.814 146.003 148.016Z" fill="#150035"/>
<path d="M140.75 144.986L142.972 146.198C143.174 146.4 143.578 146.4 143.78 146.198L145.8 144.986C146.002 144.784 146.002 144.582 145.8 144.582L143.578 143.37C143.376 143.168 142.972 143.168 142.77 143.37L140.75 144.582C140.548 144.582 140.548 144.784 140.75 144.986Z" fill="#150035"/>
<path d="M135.498 141.955L137.72 143.167C137.922 143.369 138.326 143.369 138.528 143.167L140.548 141.955C140.75 141.753 140.75 141.551 140.548 141.551L138.326 140.339C138.124 140.137 137.72 140.137 137.518 140.339L135.498 141.551C135.296 141.551 135.296 141.753 135.498 141.955Z" fill="#150035"/>
<path d="M130.246 138.926L132.468 140.138C132.67 140.34 133.074 140.34 133.276 140.138L135.296 138.926C135.498 138.724 135.498 138.522 135.296 138.522L133.074 137.31C132.872 137.108 132.468 137.108 132.266 137.31L130.246 138.522C130.044 138.522 130.044 138.724 130.246 138.926Z" fill="#150035"/>
<path d="M124.994 135.895L127.216 137.107C127.418 137.309 127.822 137.309 128.024 137.107L130.045 135.895C130.247 135.693 130.247 135.491 130.045 135.491L127.822 134.278C127.62 134.076 127.216 134.076 127.014 134.278L124.994 135.491C124.792 135.491 124.792 135.693 124.994 135.895Z" fill="#150035"/>
<path d="M119.741 132.865L121.963 134.077C122.165 134.279 122.569 134.279 122.771 134.077L124.792 132.865C124.994 132.663 124.994 132.461 124.792 132.461L122.569 131.249C122.367 131.047 121.963 131.047 121.761 131.249L119.741 132.461C119.539 132.461 119.539 132.663 119.741 132.865Z" fill="#150035"/>
<path d="M114.489 129.834L116.712 131.046C116.914 131.248 117.318 131.248 117.52 131.046L119.54 129.834C119.742 129.632 119.742 129.43 119.54 129.43L117.318 128.218C117.116 128.016 116.712 128.016 116.509 128.218L114.489 129.43C114.287 129.43 114.287 129.834 114.489 129.834Z" fill="#150035"/>
<path d="M109.237 126.805L111.459 128.017C111.661 128.219 112.065 128.219 112.267 128.017L114.287 126.805C114.489 126.603 114.489 126.401 114.287 126.401L112.065 125.189C111.863 124.987 111.459 124.987 111.257 125.189L109.237 126.401C109.237 126.401 109.035 126.805 109.237 126.805Z" fill="#150035"/>
<path d="M104.187 123.775L106.409 124.987C106.611 125.189 107.015 125.189 107.217 124.987L109.237 123.775C109.439 123.573 109.439 123.371 109.237 123.371L107.015 122.159C106.813 121.957 106.409 121.957 106.207 122.159L104.187 123.371C103.985 123.573 103.985 123.775 104.187 123.775Z" fill="#150035"/>
<path d="M98.9347 120.744L101.157 121.956C101.359 122.158 101.763 122.158 101.965 121.956L103.985 120.744C104.187 120.542 104.187 120.34 103.985 120.34L101.763 119.128C101.561 118.926 101.157 118.926 100.955 119.128L98.9347 120.34C98.7327 120.542 98.7327 120.744 98.9347 120.744Z" fill="#150035"/>
<path d="M93.6828 117.715L95.9049 118.927C96.1069 119.129 96.5109 119.129 96.7129 118.927L98.733 117.715C98.935 117.513 98.935 117.311 98.733 117.311L96.5109 116.099C96.3089 115.897 95.9049 115.897 95.7029 116.099L93.6828 117.311C93.4807 117.513 93.4807 117.715 93.6828 117.715Z" fill="#150035"/>
<path d="M88.4308 114.684L90.6529 115.896C90.8549 116.098 91.2589 116.098 91.461 115.896L93.4811 114.684C93.6831 114.482 93.6831 114.28 93.4811 114.28L91.2589 113.068C91.0569 112.866 90.6529 112.866 90.4509 113.068L88.4308 114.28C88.2288 114.482 88.2288 114.684 88.4308 114.684Z" fill="#150035"/>
<path d="M83.1769 111.654L85.399 112.866C85.601 113.068 86.005 113.068 86.207 112.866L88.2271 111.654C88.4292 111.452 88.4292 111.25 88.2271 111.25L86.0051 110.038C85.803 109.836 85.399 109.836 85.197 110.038L83.1769 111.25C82.9749 111.452 82.9749 111.654 83.1769 111.654Z" fill="#150035"/>
<path d="M156.709 159.934L158.931 161.146C159.133 161.348 159.537 161.348 159.739 161.146L161.759 159.934C161.961 159.732 161.961 159.53 161.759 159.53L159.537 158.318C159.335 158.116 158.931 158.116 158.729 158.318L156.709 159.53C156.507 159.53 156.507 159.732 156.709 159.934Z" fill="#150035"/>
<path d="M151.457 156.904L153.679 158.116C153.881 158.318 154.285 158.318 154.487 158.116L156.507 156.904C156.709 156.702 156.709 156.5 156.507 156.5L154.285 155.288C154.083 155.086 153.679 155.086 153.477 155.288L151.457 156.5C151.255 156.5 151.255 156.702 151.457 156.904Z" fill="#150035"/>
<path d="M146.205 153.875L148.427 155.087C148.629 155.289 149.033 155.289 149.235 155.087L151.255 153.875C151.457 153.673 151.457 153.471 151.255 153.471L149.033 152.259C148.831 152.057 148.427 152.057 148.225 152.259L146.205 153.471C146.003 153.471 146.003 153.673 146.205 153.875Z" fill="#150035"/>
<path d="M140.952 150.844L143.174 152.056C143.376 152.258 143.78 152.258 143.982 152.056L146.003 150.844C146.205 150.642 146.205 150.44 146.003 150.44L143.78 149.228C143.578 149.026 143.174 149.026 142.972 149.228L140.952 150.44C140.75 150.44 140.75 150.642 140.952 150.844Z" fill="#150035"/>
<path d="M135.7 147.814L137.922 149.027C138.124 149.229 138.528 149.229 138.73 149.027L140.751 147.814C140.953 147.612 140.953 147.41 140.751 147.41L138.528 146.198C138.326 145.996 137.922 145.996 137.72 146.198L135.7 147.41C135.498 147.41 135.498 147.612 135.7 147.814Z" fill="#150035"/>
<path d="M130.448 144.783L132.671 145.995C132.873 146.197 133.277 146.197 133.479 145.995L135.499 144.783C135.701 144.581 135.701 144.379 135.499 144.379L133.277 143.167C133.075 142.965 132.67 142.965 132.468 143.167L130.448 144.379C130.246 144.379 130.246 144.581 130.448 144.783Z" fill="#150035"/>
<path d="M125.195 141.754L127.418 142.966C127.62 143.168 128.024 143.168 128.226 142.966L130.246 141.754C130.448 141.552 130.448 141.35 130.246 141.35L128.024 140.138C127.822 139.936 127.418 139.936 127.216 140.138L125.195 141.35C124.993 141.35 124.993 141.754 125.195 141.754Z" fill="#150035"/>
<path d="M120.145 138.723L122.367 139.935C122.569 140.137 122.974 140.137 123.176 139.935L125.196 138.723C125.398 138.521 125.398 138.319 125.196 138.319L122.973 137.107C122.771 136.905 122.367 136.905 122.165 137.107L120.145 138.319C119.943 138.319 119.741 138.723 120.145 138.723Z" fill="#150035"/>
<path d="M114.894 135.693L117.116 136.905C117.318 137.107 117.722 137.107 117.924 136.905L119.944 135.693C120.146 135.491 120.146 135.289 119.944 135.289L117.722 134.077C117.52 133.875 117.116 133.875 116.914 134.077L114.894 135.289C114.692 135.491 114.692 135.693 114.894 135.693Z" fill="#150035"/>
<path d="M109.641 132.662L111.863 133.874C112.065 134.076 112.469 134.076 112.671 133.874L114.691 132.662C114.893 132.46 114.893 132.258 114.691 132.258L112.469 131.046C112.267 130.844 111.863 130.844 111.661 131.046L109.641 132.258C109.439 132.46 109.439 132.662 109.641 132.662Z" fill="#150035"/>
<path d="M104.389 129.633L106.611 130.845C106.813 131.047 107.217 131.047 107.419 130.845L109.439 129.633C109.641 129.431 109.641 129.229 109.439 129.229L107.217 128.017C107.015 127.815 106.611 127.815 106.409 128.017L104.389 129.229C104.187 129.431 104.187 129.633 104.389 129.633Z" fill="#150035"/>
<path d="M99.1369 126.603L101.359 127.816C101.561 128.018 101.965 128.018 102.167 127.816L104.187 126.603C104.389 126.401 104.389 126.199 104.187 126.199L101.965 124.987C101.763 124.785 101.359 124.785 101.157 124.987L99.1369 126.199C98.9348 126.401 98.9348 126.603 99.1369 126.603Z" fill="#150035"/>
<path d="M93.8839 123.572L96.106 124.784C96.308 124.986 96.7121 124.986 96.9141 124.784L98.9342 123.572C99.1362 123.37 99.1362 123.168 98.9342 123.168L96.7121 121.956C96.51 121.754 96.106 121.754 95.904 121.956L93.8839 123.168C93.6819 123.37 93.6819 123.572 93.8839 123.572Z" fill="#150035"/>
<path d="M88.632 120.744L90.8541 121.956C91.0561 122.158 91.4601 122.158 91.6621 121.956L93.6822 120.744C93.8842 120.542 93.8842 120.34 93.6822 120.34L91.4601 119.128C91.2581 118.926 90.8541 118.926 90.6521 119.128L88.632 120.34C88.43 120.34 88.43 120.542 88.632 120.744Z" fill="#150035"/>
<path d="M83.38 117.715L85.6021 118.927C85.8042 119.129 86.2082 119.129 86.4102 118.927L88.4303 117.715C88.6323 117.513 88.6323 117.311 88.4303 117.311L86.2081 116.099C86.0061 115.897 85.6021 115.897 85.4001 116.099L83.38 117.311C83.178 117.311 83.178 117.513 83.38 117.715Z" fill="#150035"/>
<path d="M78.329 114.684L80.5511 115.896C80.7531 116.098 81.1571 116.098 81.3591 115.896L83.3792 114.684C83.5812 114.482 83.5812 114.28 83.3792 114.28L81.1571 113.068C80.9551 112.866 80.5511 112.866 80.3491 113.068L78.329 114.28C78.127 114.28 77.9249 114.482 78.329 114.684Z" fill="#150035"/>
<path d="M83.7843 123.572L86.0064 124.784C86.2085 124.986 86.6125 124.986 86.8145 124.784L88.8346 123.572C89.0366 123.37 89.0366 123.168 88.8346 123.168L86.6125 121.956C86.4105 121.754 86.0064 121.754 85.8044 121.956L83.7843 123.168C83.5823 123.168 83.5823 123.37 83.7843 123.572Z" fill="#150035"/>
<path d="M78.5324 120.543L80.7545 121.755C80.9565 121.957 81.3605 121.957 81.5625 121.755L83.5826 120.543C83.7846 120.341 83.7846 120.139 83.5826 120.139L81.3605 118.927C81.1585 118.725 80.7545 118.725 80.5525 118.927L78.5324 120.139C78.3304 120.139 78.3304 120.341 78.5324 120.543Z" fill="#150035"/>
<path d="M73.2785 117.512L75.5006 118.724C75.7026 118.926 76.1066 118.926 76.3086 118.724L78.3287 117.512C78.5307 117.31 78.5307 117.108 78.3287 117.108L76.1066 115.896C75.9046 115.694 75.5006 115.694 75.2986 115.896L73.2785 117.108C73.0765 117.108 73.0765 117.31 73.2785 117.512Z" fill="#150035"/>
<path d="M78.5324 126.603L80.7545 127.816C80.9565 128.018 81.3605 128.018 81.5625 127.816L83.5826 126.603C83.7846 126.401 83.7846 126.199 83.5826 126.199L81.3605 124.987C81.1585 124.785 80.7545 124.785 80.5525 124.987L78.5324 126.199C78.3304 126.199 78.3304 126.401 78.5324 126.603Z" fill="#150035"/>
<path d="M73.2785 123.572L75.5006 124.784C75.7026 124.986 76.1066 124.986 76.3086 124.784L78.3287 123.572C78.5307 123.37 78.5307 123.168 78.3287 123.168L76.1066 121.956C75.9046 121.754 75.5006 121.754 75.2986 121.956L73.2785 123.168C73.0765 123.168 73.0765 123.37 73.2785 123.572Z" fill="#150035"/>
<path d="M68.0265 120.543L70.2486 121.755C70.4506 121.957 70.8546 121.957 71.0567 121.755L73.0768 120.543C73.2788 120.341 73.2788 120.139 73.0768 120.139L70.8547 118.927C70.6527 118.725 70.2486 118.725 70.0466 118.927L68.0265 120.139C67.8245 120.139 67.8245 120.341 68.0265 120.543Z" fill="#150035"/>
<path d="M68.2296 126.4L70.4518 127.612C70.6538 127.814 71.0578 127.814 71.2598 127.612L73.2799 126.4C73.4819 126.198 73.4819 125.996 73.2799 125.996L71.0578 124.784C70.8557 124.582 70.4517 124.582 70.2497 124.784L68.2296 125.996C68.0276 125.996 68.0276 126.198 68.2296 126.4Z" fill="#150035"/>
<path d="M62.9777 123.371L65.1998 124.583C65.4018 124.785 65.8058 124.785 66.0078 124.583L68.0279 123.371C68.2299 123.169 68.2299 122.967 68.0279 122.967L65.8058 121.755C65.6038 121.553 65.1998 121.553 64.9978 121.755L62.9777 122.967C62.7757 122.967 62.7757 123.169 62.9777 123.371Z" fill="#150035"/>
<path d="M63.38 129.229L65.6021 130.441C65.8041 130.643 66.2082 130.643 66.4102 130.441L68.4303 129.229C68.6323 129.027 68.6323 128.825 68.4303 128.825L66.2081 127.612C66.0061 127.41 65.6021 127.41 65.4001 127.612L63.38 128.825C63.178 128.825 63.178 129.229 63.38 129.229Z" fill="#150035"/>
<path d="M58.1281 126.199L60.3502 127.411C60.5522 127.613 60.9562 127.613 61.1582 127.411L63.1783 126.199C63.3803 125.997 63.3803 125.795 63.1783 125.795L60.9562 124.583C60.7542 124.381 60.3502 124.381 60.1482 124.583L58.1281 125.795C57.9261 125.997 57.9261 126.199 58.1281 126.199Z" fill="#150035"/>
<path d="M52.8761 129.229L55.0982 130.441C55.3002 130.643 55.7043 130.643 55.9063 130.441L57.9264 129.229C58.1284 129.027 58.1284 128.825 57.9264 128.825L55.7043 127.612C55.5023 127.41 55.0982 127.41 54.8962 127.612L52.8761 128.825C52.6741 129.027 52.6741 129.229 52.8761 129.229C52.8761 129.229 52.6741 129.229 52.8761 129.229Z" fill="#150035"/>
<path d="M85.4001 103.979L83.38 105.191C83.178 105.393 83.178 105.595 83.38 105.595L85.6021 106.807C85.8042 107.009 86.2082 107.009 86.4102 106.807L88.4303 105.595C88.6323 105.393 88.6323 105.191 88.4303 105.191L86.2081 103.979C86.0061 103.979 85.6021 103.979 85.4001 103.979Z" fill="#150035"/>
<path d="M72.6737 105.795L74.8958 107.007C75.0978 107.209 75.5018 107.209 75.7038 107.007L77.7239 105.795C77.9259 105.593 77.9259 105.391 77.7239 105.391C77.7239 105.189 72.4716 105.593 72.6737 105.795Z" fill="#150035"/>
<path d="M77.9249 108.826L80.147 110.038C80.349 110.24 80.7531 110.24 80.9551 110.038L82.9752 108.826C83.1772 108.624 83.1772 108.422 82.9752 108.422L80.7531 107.21C80.5511 107.008 80.1471 107.008 79.945 107.21L77.9249 108.422C77.7229 108.422 77.7229 108.624 77.9249 108.826Z" fill="#150035"/>
<path d="M67.8253 108.019C67.6233 108.221 67.6233 108.423 67.8253 108.423L70.0474 109.635C70.2494 109.837 70.6535 109.837 70.8555 109.635L72.8756 108.423C73.0776 108.221 73.0776 108.019 72.8756 108.019L70.6535 106.807C70.4515 106.807 67.8253 108.019 67.8253 108.019Z" fill="#150035"/>
<path d="M73.0773 111.654L75.2994 112.866C75.5014 113.068 75.9054 113.068 76.1074 112.866L78.1275 111.654C78.3295 111.452 78.3295 111.25 78.1275 111.25L75.9054 110.038C75.7034 109.836 75.2994 109.836 75.0974 110.038L73.0773 111.25C72.8753 111.25 72.8753 111.452 73.0773 111.654Z" fill="#150035"/>
<path d="M62.7746 111.451L64.9966 112.663C65.1987 112.865 65.6027 112.865 65.8047 112.663L67.8248 111.451C68.0268 111.249 68.0268 111.047 67.8248 111.047L65.6027 109.835C65.4007 109.633 64.9967 109.633 64.7947 109.835L62.7746 111.047C62.5725 111.047 62.5725 111.249 62.7746 111.451Z" fill="#150035"/>
<path d="M68.0265 114.482L70.2486 115.694C70.4506 115.896 70.8546 115.896 71.0567 115.694L73.0768 114.482C73.2788 114.28 73.2788 114.078 73.0768 114.078L70.8547 112.866C70.6527 112.664 70.2486 112.664 70.0466 112.866L68.0265 114.078C67.8245 114.078 67.8245 114.28 68.0265 114.482Z" fill="#150035"/>
<path d="M57.7238 108.018C57.5218 108.22 57.5218 108.422 57.7238 108.422L59.9459 109.634C60.1479 109.836 60.5519 109.836 60.7539 109.634L62.774 108.422C62.976 108.22 62.976 108.018 62.774 108.018H57.7238Z" fill="#150035"/>
<path d="M57.5226 114.482L59.7447 115.694C59.9467 115.896 60.3507 115.896 60.5527 115.694L62.5728 114.482C62.7749 114.28 62.7749 114.078 62.5728 114.078L60.3508 112.866C60.1487 112.664 59.7447 112.664 59.5427 112.866L57.5226 114.078C57.3206 114.078 57.3206 114.28 57.5226 114.482Z" fill="#150035"/>
<path d="M62.7746 117.512L64.9966 118.724C65.1987 118.926 65.6027 118.926 65.8047 118.724L67.8248 117.512C68.0268 117.31 68.0268 117.108 67.8248 117.108L65.6027 115.896C65.4007 115.694 64.9967 115.694 64.7947 115.896L62.7746 117.108C62.5725 117.108 62.5725 117.31 62.7746 117.512Z" fill="#150035"/>
<path d="M52.2706 111.451L54.4927 112.663C54.6947 112.865 55.0988 112.865 55.3008 112.663L57.3209 111.451C57.5229 111.249 57.5229 111.047 57.3209 111.047L55.0988 109.835C54.8968 109.633 54.4928 109.633 54.2907 109.835L52.2706 111.047C52.0686 111.047 52.0686 111.249 52.2706 111.451Z" fill="#150035"/>
<path d="M49.24 106.806L47.2199 108.018C47.0179 108.22 47.0179 108.422 47.2199 108.422L49.442 109.634C49.644 109.836 50.048 109.836 50.25 109.634L52.2701 108.422C52.4721 108.22 52.4721 108.018 52.2701 108.018L50.048 106.806C49.846 106.604 49.442 106.604 49.24 106.806Z" fill="#150035"/>
<path d="M43.988 103.775L41.9679 104.987C41.7659 105.189 41.7659 105.391 41.9679 105.391L44.19 106.604C44.392 106.806 44.7961 106.806 44.9981 106.604L47.0182 105.391C47.2202 105.391 44.19 103.573 43.988 103.775Z" fill="#150035"/>
<path d="M36.7161 102.361L38.9382 103.573C39.1403 103.775 39.5443 103.775 39.7463 103.573C39.7463 103.573 36.5141 102.361 36.7161 102.361Z" fill="#150035"/>
<path d="M52.6749 117.311L54.897 118.523C55.099 118.725 55.5031 118.725 55.7051 118.523L57.7252 117.311C57.9272 117.109 57.9272 116.907 57.7252 116.907L55.5031 115.694C55.3011 115.492 54.8971 115.492 54.695 115.694L52.6749 116.907C52.4729 117.109 52.4729 117.311 52.6749 117.311Z" fill="#150035"/>
<path d="M57.9269 120.34L60.149 121.552C60.351 121.754 60.755 121.754 60.957 121.552L62.9771 120.34C63.1792 120.138 63.1792 119.936 62.9771 119.936L60.7551 118.724C60.553 118.522 60.149 118.522 59.947 118.724L57.9269 119.936C57.7249 119.936 57.7249 120.34 57.9269 120.34Z" fill="#150035"/>
<path d="M47.423 114.279L49.6451 115.491C49.8471 115.693 50.2511 115.693 50.4531 115.491L52.4732 114.279C52.6752 114.077 52.6752 113.875 52.4732 113.875L50.2511 112.663C50.0491 112.461 49.6451 112.461 49.4431 112.663L47.423 113.875C47.221 114.077 47.221 114.279 47.423 114.279Z" fill="#150035"/>
<path d="M42.1691 111.25L44.3912 112.462C44.5932 112.664 44.9972 112.664 45.1992 112.462L47.2193 111.25C47.4213 111.048 47.4213 110.846 47.2193 110.846L44.9972 109.634C44.7952 109.432 44.3912 109.432 44.1892 109.634L42.1691 110.846C41.9671 111.048 41.9671 111.25 42.1691 111.25Z" fill="#150035"/>
<path d="M36.9171 108.221L39.1393 109.433C39.3413 109.635 39.7453 109.635 39.9473 109.433L41.9674 108.221C42.1694 108.019 42.1694 107.817 41.9674 107.817L39.7453 106.605C39.5432 106.403 39.1392 106.403 38.9372 106.605L36.9171 107.817C36.7151 108.019 36.7151 108.221 36.9171 108.221Z" fill="#150035"/>
<path d="M31.6652 105.189L33.8873 106.402C34.0893 106.604 34.4933 106.604 34.6953 106.402L36.7154 105.189C36.9174 104.987 36.9174 104.785 36.7154 104.785L34.4933 103.573C34.2913 103.371 33.8873 103.371 33.6853 103.573L31.6652 104.785C31.4632 104.987 31.4632 105.189 31.6652 105.189Z" fill="#150035"/>
<path d="M26.4132 102.361L28.6353 103.573C28.8373 103.775 29.2414 103.775 29.4434 103.573L31.4635 102.361C31.6655 102.159 31.6655 101.957 31.4635 101.957L29.2414 100.745C29.0393 100.543 28.6353 100.543 28.4333 100.745L26.4132 101.957C26.2112 101.957 26.2112 102.159 26.4132 102.361Z" fill="#150035"/>
<path d="M24.1906 97.5128C23.9886 97.3108 23.5846 97.3108 23.3825 97.5128L21.3624 98.7249C21.1604 98.9269 21.1604 99.1289 21.3624 99.1289L23.5845 100.341C23.7865 100.543 24.1906 100.543 24.3926 100.341L26.4127 99.1289C26.6147 98.9269 26.6147 98.7249 26.4127 98.7249L24.1906 97.5128C24.1906 97.5128 23.9886 97.5128 24.1906 97.5128Z" fill="#150035"/>
<path d="M18.1306 94.4824L16.1105 95.6945C15.9085 95.8965 15.9085 96.0985 16.1105 96.0985L18.3326 97.3105C18.5346 97.5126 18.9386 97.5126 19.1406 97.3105L21.1607 96.0985C21.3627 95.8965 21.3627 95.6945 21.1607 95.6945C21.1607 95.6945 18.3326 94.4824 18.1306 94.4824Z" fill="#150035"/>
<path d="M12.8786 91.6542L10.8585 92.8662C10.6565 93.0682 10.6565 93.2702 10.8585 93.2702L13.0806 94.4823C13.2826 94.6843 13.6867 94.6843 13.8887 94.4823L15.9088 93.2702C16.1108 93.0682 13.0806 91.4521 12.8786 91.6542Z" fill="#150035"/>
<path d="M7.62668 88.6249L5.60659 89.8369C5.40458 90.0389 5.40458 90.2409 5.60659 90.2409L7.82871 91.453C8.03072 91.655 8.43472 91.655 8.63673 91.453L10.6568 90.2409C10.8588 90.0389 7.82869 88.4228 7.62668 88.6249Z" fill="#150035"/>
<path d="M47.6242 120.139L49.8463 121.351C50.0483 121.553 50.4523 121.553 50.6543 121.351L52.6744 120.139C52.8764 119.937 52.8764 119.735 52.6744 119.735L50.4523 118.523C50.2503 118.321 49.8463 118.321 49.6443 118.523L47.6242 119.735C47.4222 119.937 47.4222 120.139 47.6242 120.139Z" fill="#150035"/>
<path d="M52.8761 123.168L55.0982 124.38C55.3002 124.582 55.7043 124.582 55.9063 124.38L57.9264 123.168C58.1284 122.966 58.1284 122.764 57.9264 122.764L55.7043 121.552C55.5023 121.35 55.0982 121.35 54.8962 121.552L52.8761 122.764C52.6741 122.966 52.6741 123.168 52.8761 123.168Z" fill="#150035"/>
<path d="M42.3722 117.107L44.5943 118.32C44.7963 118.522 45.2003 118.522 45.4024 118.32L47.4225 117.107C47.6245 116.905 47.6245 116.703 47.4225 116.703L45.2004 115.491C44.9984 115.289 44.5943 115.289 44.3923 115.491L42.3722 116.703C42.1702 116.905 42.1702 117.107 42.3722 117.107Z" fill="#150035"/>
<path d="M37.1203 114.279L39.3423 115.491C39.5444 115.693 39.9484 115.693 40.1504 115.491L42.1705 114.279C42.3725 114.077 42.3725 113.875 42.1705 113.875L39.9484 112.663C39.7464 112.461 39.3424 112.461 39.1404 112.663L37.1203 113.875C36.9182 113.875 36.9182 114.077 37.1203 114.279Z" fill="#150035"/>
<path d="M32.0692 111.25L34.2913 112.462C34.4933 112.664 34.8973 112.664 35.0993 112.462L37.1194 111.25C37.3215 111.048 37.3215 110.846 37.1194 110.846L34.8973 109.634C34.6953 109.432 34.2913 109.432 34.0893 109.634L32.0692 110.846C31.8672 110.846 31.6652 111.048 32.0692 111.25Z" fill="#150035"/>
<path d="M26.8175 108.221L29.0396 109.433C29.2417 109.635 29.6457 109.635 29.8477 109.433L31.8678 108.221C32.0698 108.019 32.0698 107.817 31.8678 107.817L29.6456 106.605C29.4436 106.403 29.0396 106.403 28.8376 106.605L26.8175 107.817C26.6155 107.817 26.6155 108.019 26.8175 108.221Z" fill="#150035"/>
<path d="M21.5656 105.189L23.7877 106.402C23.9897 106.604 24.3937 106.604 24.5957 106.402L26.6158 105.189C26.8178 104.987 26.8178 104.785 26.6158 104.785L24.3937 103.573C24.1917 103.371 23.7877 103.371 23.5857 103.573L21.5656 104.785C21.3636 104.785 21.3636 104.987 21.5656 105.189Z" fill="#150035"/>
<path d="M16.3117 102.16L18.5338 103.372C18.7358 103.574 19.1398 103.574 19.3418 103.372L21.3619 102.16C21.5639 101.958 21.5639 101.756 21.3619 101.756L19.1398 100.544C18.9378 100.342 18.5338 100.342 18.3318 100.544L16.3117 101.756C16.1097 101.756 16.1097 101.958 16.3117 102.16Z" fill="#150035"/>
<path d="M11.0597 99.1289L13.2818 100.341C13.4838 100.543 13.8878 100.543 14.0899 100.341L16.11 99.1289C16.312 98.9269 16.312 98.7249 16.11 98.7249L13.8879 97.5128C13.6859 97.3108 13.2818 97.3108 13.0798 97.5128L11.0597 98.7249C10.8577 98.7249 10.8577 98.9269 11.0597 99.1289Z" fill="#150035"/>
<path d="M5.80776 96.0996L8.02985 97.3117C8.23186 97.5137 8.6359 97.5137 8.83791 97.3117L10.858 96.0996C11.06 95.8976 11.06 95.6956 10.858 95.6956L8.63588 94.4835C8.43387 94.2815 8.02987 94.2815 7.82786 94.4835L5.80776 95.6956C5.60575 95.6956 5.60575 95.8976 5.80776 96.0996Z" fill="#150035"/>
<path d="M0.555804 93.0684L2.77793 94.2804C2.97993 94.4824 3.38394 94.4824 3.58595 94.2804L5.60605 93.0684C5.80806 92.8664 5.80806 92.6644 5.60605 92.6644L3.38393 91.4523C3.18192 91.2503 2.77791 91.2503 2.5759 91.4523L0.555804 92.6644C0.353794 92.6644 0.353794 92.8664 0.555804 93.0684Z" fill="#150035"/>
<path d="M42.3722 123.168L44.5943 124.38C44.7963 124.582 45.2003 124.582 45.4024 124.38L47.4225 123.168C47.6245 122.966 47.6245 122.764 47.4225 122.764L45.2004 121.552C44.9984 121.35 44.5943 121.35 44.3923 121.552L42.3722 122.764C42.1702 122.966 42.1702 123.168 42.3722 123.168Z" fill="#150035"/>
<path d="M47.6242 126.199L49.8463 127.411C50.0483 127.613 50.4523 127.613 50.6543 127.411L52.6744 126.199C52.8764 125.997 52.8764 125.795 52.6744 125.795L50.4523 124.583C50.2503 124.381 49.8463 124.381 49.6443 124.583L47.6242 125.795C47.4222 125.997 47.4222 126.199 47.6242 126.199Z" fill="#150035"/>
<path d="M37.1203 120.139L39.3423 121.351C39.5444 121.553 39.9484 121.553 40.1504 121.351L42.1705 120.139C42.3725 119.937 42.3725 119.735 42.1705 119.735L39.9484 118.523C39.7464 118.321 39.3424 118.321 39.1404 118.523L37.1203 119.735C36.9182 119.937 36.9182 120.139 37.1203 120.139Z" fill="#150035"/>
<path d="M31.8683 117.311L34.0904 118.523C34.2924 118.725 34.6964 118.725 34.8985 118.523L36.9186 117.311C37.1206 117.109 37.1206 116.907 36.9186 116.907L34.6964 115.694C34.4944 115.492 34.0904 115.492 33.8884 115.694L31.8683 116.907C31.6663 116.907 31.6663 117.109 31.8683 117.311Z" fill="#150035"/>
<path d="M26.8172 114.279L29.0394 115.491C29.2414 115.693 29.6454 115.693 29.8474 115.491L31.8675 114.279C32.0695 114.077 32.0695 113.875 31.8675 113.875L29.6454 112.663C29.4434 112.461 29.0394 112.461 28.8373 112.663L26.8172 113.875C26.6152 113.875 26.4132 114.077 26.8172 114.279Z" fill="#150035"/>
<path d="M21.5656 111.25L23.7877 112.462C23.9897 112.664 24.3937 112.664 24.5957 112.462L26.6158 111.25C26.8178 111.048 26.8178 110.846 26.6158 110.846L24.3937 109.634C24.1917 109.432 23.7877 109.432 23.5857 109.634L21.5656 110.846C21.3636 110.846 21.3636 111.048 21.5656 111.25Z" fill="#150035"/>
<path d="M16.3117 108.221L18.5338 109.433C18.7358 109.635 19.1398 109.635 19.3418 109.433L21.3619 108.221C21.5639 108.019 21.5639 107.817 21.3619 107.817L19.1398 106.605C18.9378 106.403 18.5338 106.403 18.3318 106.605L16.3117 107.817C16.1097 107.817 16.1097 108.019 16.3117 108.221Z" fill="#150035"/>
<path d="M11.0597 105.189L13.2818 106.402C13.4838 106.604 13.8878 106.604 14.0899 106.402L16.11 105.189C16.312 104.987 16.312 104.785 16.11 104.785L13.8879 103.573C13.6859 103.371 13.2818 103.371 13.0798 103.573L11.0597 104.785C10.8577 104.785 10.8577 104.987 11.0597 105.189Z" fill="#150035"/>
<path d="M5.80776 102.16L8.02985 103.372C8.23186 103.574 8.6359 103.574 8.83791 103.372L10.858 102.16C11.06 101.958 11.06 101.756 10.858 101.756L8.63588 100.544C8.43387 100.342 8.02987 100.342 7.82786 100.544L5.80776 101.756C5.60575 101.756 5.60575 101.958 5.80776 102.16Z" fill="#150035"/>
<path d="M0.555804 99.1289L2.77793 100.341C2.97993 100.543 3.38394 100.543 3.58595 100.341L5.60605 99.1289C5.80806 98.9269 5.80806 98.7249 5.60605 98.7249L3.38393 97.5128C3.18192 97.3108 2.77791 97.3108 2.5759 97.5128L0.555804 98.7249C0.353794 98.7249 0.353794 98.9269 0.555804 99.1289Z" fill="#150035"/>
<path d="M37.5246 126.199L39.7466 127.411C39.9487 127.613 40.3527 127.613 40.5547 127.411L42.5748 126.199C42.7768 125.997 42.7768 125.795 42.5748 125.795L40.3527 124.583C40.1507 124.381 39.7467 124.381 39.5447 124.583L37.5246 125.795C37.3225 125.795 37.3225 125.997 37.5246 126.199Z" fill="#150035"/>
<path d="M42.7762 129.229L44.9984 130.441C45.2004 130.643 45.6044 130.643 45.8064 130.441L47.8265 129.229C48.0285 129.027 48.0285 128.825 47.8265 128.825L45.6044 127.612C45.4024 127.41 44.9983 127.41 44.7963 127.612L42.7762 128.825C42.5742 128.825 42.3722 129.027 42.7762 129.229Z" fill="#150035"/>
<path d="M32.2706 123.168L34.4928 124.38C34.6948 124.582 35.0988 124.582 35.3008 124.38L37.3209 123.168C37.5229 122.966 37.5229 122.764 37.3209 122.764L35.0988 121.552C34.8968 121.35 34.4928 121.35 34.2907 121.552L32.2706 122.764C32.0686 122.764 32.0686 122.966 32.2706 123.168Z" fill="#150035"/>
<path d="M27.0187 120.139L29.2408 121.351C29.4428 121.553 29.8468 121.553 30.0488 121.351L32.0689 120.139C32.271 119.937 32.271 119.735 32.0689 119.735L29.8468 118.523C29.6448 118.321 29.2408 118.321 29.0388 118.523L27.0187 119.735C26.8167 119.735 26.8167 119.937 27.0187 120.139Z" fill="#150035"/>
<path d="M21.7667 117.107L23.9889 118.32C24.1909 118.522 24.5949 118.522 24.7969 118.32L26.817 117.107C27.019 116.905 27.019 116.703 26.817 116.703L24.5949 115.491C24.3929 115.289 23.9889 115.289 23.7868 115.491L21.7667 116.703C21.5647 116.703 21.5647 116.905 21.7667 117.107Z" fill="#150035"/>
<path d="M16.5148 114.078L18.7369 115.29C18.9389 115.492 19.3429 115.492 19.5449 115.29L21.565 114.078C21.767 113.876 21.767 113.674 21.565 113.674L19.3429 112.462C19.1409 112.26 18.7369 112.26 18.5349 112.462L16.5148 113.674C16.3128 113.674 16.3128 113.876 16.5148 114.078Z" fill="#150035"/>
<path d="M11.2628 111.049L13.4849 112.261C13.6869 112.463 14.091 112.463 14.293 112.261L16.3131 111.049C16.5151 110.847 16.5151 110.645 16.3131 110.645L14.091 109.433C13.889 109.231 13.4849 109.231 13.2829 109.433L11.2628 110.645C11.0608 110.645 11.0608 110.847 11.2628 111.049Z" fill="#150035"/>
<path d="M6.01088 108.018L8.233 109.23C8.43501 109.432 8.83902 109.432 9.04103 109.23L11.0611 108.018C11.2631 107.816 11.2631 107.614 11.0611 107.614L8.83904 106.402C8.63703 106.199 8.23299 106.199 8.03098 106.402L6.01088 107.614C5.80887 107.614 5.80887 107.816 6.01088 108.018Z" fill="#150035"/>
<path d="M0.757751 104.988L2.97984 106.2C3.18185 106.402 3.58589 106.402 3.7879 106.2L5.808 104.988C6.01001 104.786 6.01001 104.584 5.808 104.584L3.58588 103.372C3.38387 103.17 2.97986 103.17 2.77785 103.372L0.757751 104.584C0.757751 104.584 0.555741 104.786 0.757751 104.988Z" fill="#150035"/>
<path d="M27.2218 125.996L29.4439 127.208C29.646 127.41 30.05 127.41 30.252 127.208L32.2721 125.996C32.4741 125.794 32.4741 125.592 32.2721 125.592L30.05 124.38C29.848 124.178 29.4439 124.178 29.2419 124.38L27.2218 125.592C27.0198 125.592 27.0198 125.794 27.2218 125.996Z" fill="#150035"/>
<path d="M21.9679 122.967L24.19 124.179C24.392 124.381 24.7961 124.381 24.9981 124.179L27.0182 122.967C27.2202 122.765 27.2202 122.563 27.0182 122.563L24.796 121.351C24.594 121.149 24.19 121.149 23.988 121.351L21.9679 122.563C21.7659 122.563 21.7659 122.765 21.9679 122.967Z" fill="#150035"/>
<path d="M16.716 119.936L18.9381 121.148C19.1401 121.35 19.5441 121.35 19.7461 121.148L21.7662 119.936C21.9682 119.734 21.9682 119.532 21.7662 119.532L19.5441 118.319C19.3421 118.117 18.9381 118.117 18.7361 118.319L16.716 119.532C16.514 119.532 16.514 119.734 16.716 119.936Z" fill="#150035"/>
<path d="M11.6669 116.906L13.889 118.118C14.091 118.32 14.495 118.32 14.697 118.118L16.7171 116.906C16.9191 116.704 16.9191 116.502 16.7171 116.502L14.495 115.29C14.293 115.088 13.889 115.088 13.687 115.29L11.6669 116.502C11.4648 116.502 11.2628 116.704 11.6669 116.906Z" fill="#150035"/>
<path d="M6.41323 113.877L8.63535 115.089C8.83736 115.291 9.24136 115.291 9.44337 115.089L11.4635 113.877C11.6655 113.675 11.6655 113.473 11.4635 113.473L9.24138 112.261C9.03937 112.059 8.63533 112.059 8.43332 112.261L6.41323 113.473C6.21122 113.473 6.21122 113.675 6.41323 113.877Z" fill="#150035"/>
<path d="M1.16127 110.846L3.38336 112.058C3.58537 112.26 3.98941 112.26 4.19142 112.058L6.21152 110.846C6.41353 110.644 6.41353 110.442 6.21152 110.442L3.9894 109.23C3.78739 109.028 3.38338 109.028 3.18137 109.23L1.16127 110.442C0.959263 110.442 0.959263 110.644 1.16127 110.846Z" fill="#150035"/>
<path d="M112.671 85.5956V76.9092L110.449 77.3132C108.025 72.465 103.379 67.8187 96.7125 63.9805C85.804 57.7182 72.6733 47.0117 58.1286 47.2138C44.5939 47.4158 29.8472 58.1223 19.5447 63.9805C12.8784 67.8187 8.23218 72.465 5.80806 77.3132L3.58594 76.9092V86.2016C3.58594 94.282 8.83818 102.362 19.5447 108.423C40.7557 120.745 75.2994 120.745 96.5105 108.423C107.621 101.958 112.873 93.676 112.671 85.5956ZM86.814 102.564C78.9356 107.211 68.0271 101.352 57.5226 101.352C47.2201 101.352 37.5236 107.211 29.6452 102.564C13.8884 93.474 13.8884 78.7273 29.6452 69.6368C45.402 60.5464 71.0572 60.5464 86.814 69.6368C102.571 78.7273 102.571 93.474 86.814 102.564Z" fill="#150035"/>
<path d="M19.3433 109.23C8.63676 103.17 2.98047 94.8875 2.98047 86.201V75.6965L5.6066 76.3026C8.23273 71.4543 13.081 66.8081 19.3433 63.1719C21.1614 62.1619 22.9795 60.9498 24.9996 59.7378C34.696 53.8795 46.8166 46.4051 58.3312 46.2031C58.5332 46.2031 58.5332 46.2031 58.7352 46.2031C70.2498 46.2031 80.9563 52.8694 90.4507 58.9297C92.8749 60.5458 95.097 61.9599 97.3191 63.1719C103.581 66.8081 108.43 71.4543 111.056 76.3026L113.682 75.6965V85.9991C113.884 94.8875 108.026 103.17 97.3191 109.432C86.6125 115.694 72.4719 118.725 58.3312 118.725C44.1905 118.523 30.0498 115.29 19.3433 109.23ZM111.662 77.9187L109.844 78.3227L109.44 77.7166C107.016 72.8684 102.369 68.4242 96.107 64.788C93.8849 63.576 91.4608 61.9599 89.0366 60.5458C79.7442 54.6875 69.4417 48.2232 58.3312 48.2232C58.1292 48.2232 58.1292 48.2232 57.9271 48.2232C47.0186 48.4252 35.302 55.6976 25.6056 61.5559C23.5855 62.7679 21.5654 63.98 19.7473 64.99C13.485 68.6262 8.83875 73.0704 6.41463 77.9187L6.01062 78.5247L4.19254 78.1207V86.201C4.19254 94.2814 9.64679 101.756 19.5453 107.614C40.5543 119.735 74.492 119.735 95.501 107.614C105.601 101.756 111.056 94.0794 110.854 85.797V84.989V77.9187H111.662ZM69.0377 103.776C65.1995 102.968 61.3613 102.16 57.7251 102.16C53.887 102.16 50.2508 102.968 46.6146 103.776C40.3523 105.19 34.494 106.402 29.2417 103.372C21.3634 98.7257 16.9192 92.6654 16.9192 85.9991C16.9192 79.3327 21.3634 73.2724 29.2417 68.6262C45.2005 59.3337 71.4618 59.3337 87.4206 68.6262C95.299 73.2724 99.7432 79.3327 99.7432 85.9991C99.7432 92.6654 95.299 98.7257 87.4206 103.372C84.9965 104.786 82.3703 105.19 79.7442 105.19C76.31 105.19 72.6739 104.584 69.0377 103.776ZM69.4417 101.756C75.704 102.968 81.7643 104.18 86.4105 101.554C93.6829 97.3116 97.7231 91.8573 97.7231 85.9991C97.7231 80.1408 93.6829 74.6865 86.4105 70.4443C70.8558 61.5559 45.8066 61.5559 30.2518 70.4443C22.9794 74.6865 18.9393 80.1408 18.9393 85.9991C18.9393 91.8573 22.9794 97.3116 30.2518 101.554C34.898 104.18 40.1503 102.968 46.2106 101.756C49.8468 100.948 53.685 100.14 57.7251 100.14C61.5633 100.14 65.6035 100.948 69.4417 101.756Z" fill="#150035"/>
<path d="M96.7139 54.0818C75.5028 41.7592 40.9592 41.7592 19.7481 54.0818C-1.46291 66.4044 -1.46291 86.2014 19.7481 98.524C40.9592 110.847 75.5028 110.847 96.7139 98.524C118.127 86.2014 118.127 66.2024 96.7139 54.0818ZM86.8154 92.6657C71.0586 101.756 45.4034 101.756 29.6466 92.6657C13.8898 83.5752 13.8898 68.8285 29.6466 59.7381C45.4034 50.6476 71.0586 50.6476 86.8154 59.7381C102.572 68.8285 102.572 83.5752 86.8154 92.6657Z" fill="#39A1FF"/>
<path d="M19.3433 99.3314C8.63676 93.2711 2.98047 84.9887 2.98047 76.3023C2.98047 67.6159 8.83877 59.3335 19.3433 53.2732C40.7563 40.9506 75.906 40.9506 97.3191 53.2732C108.026 59.3335 113.682 67.6159 113.682 76.3023C113.682 84.9887 107.824 93.2711 97.3191 99.3314C86.6125 105.594 72.4719 108.624 58.3312 108.624C44.1905 108.624 30.0498 105.594 19.3433 99.3314ZM20.3533 54.8893C10.4548 60.5455 5.00057 68.2219 5.00057 76.3023C5.00057 84.3827 10.4548 91.8571 20.3533 97.7154C41.3624 109.836 75.3 109.836 96.309 97.7154C106.207 92.0591 111.662 84.3827 111.662 76.3023C111.662 68.2219 106.207 60.7475 96.309 54.8893C85.8045 48.829 72.0679 45.7988 58.3312 45.7988C44.5945 45.7988 30.8578 48.829 20.3533 54.8893ZM29.2417 93.6752C21.3634 89.0289 16.9192 82.9686 16.9192 76.3023C16.9192 69.636 21.3634 63.5757 29.2417 58.9295C45.2005 49.637 71.4618 49.637 87.4206 58.9295C95.299 63.5757 99.7432 69.636 99.7432 76.3023C99.7432 82.9686 95.299 89.0289 87.4206 93.6752C79.3402 98.3214 68.8357 100.543 58.3312 100.543C47.8267 100.543 37.3221 98.3214 29.2417 93.6752ZM86.4105 60.5455C70.8558 51.6571 45.8066 51.6571 30.2518 60.5455C22.9794 64.7877 18.9393 70.242 18.9393 76.1003C18.9393 81.9586 22.9794 87.4129 30.2518 91.6551C45.8066 100.544 70.8558 100.544 86.4105 91.6551C93.6829 87.4129 97.7231 81.9586 97.7231 76.1003C97.7231 70.444 93.6829 64.7877 86.4105 60.5455Z" fill="#150035"/>
<path d="M81.3602 104.988H79.7441V114.685H81.3602V104.988Z" fill="#39A1FF"/>
<path d="M14.495 94.6855H12.8789V104.382H14.495V94.6855Z" fill="#39A1FF"/>
<path d="M27.827 101.957H26.2109V111.654H27.827V101.957Z" fill="#39A1FF"/>
<path d="M81.3602 56.707H79.7441V66.4035H81.3602V56.707Z" fill="#39A1FF"/>
<path d="M38.7371 55.8984H37.1211V65.5949H38.7371V55.8984Z" fill="#39A1FF"/>
<path d="M171.254 138.925C171.456 138.723 171.254 138.319 171.052 138.117L99.5405 97.3105C99.5405 97.3105 99.1365 97.3105 98.9345 97.3105L92.6722 100.947C92.0661 101.351 91.6621 102.159 91.6621 102.967V109.835C91.6621 110.239 91.8641 110.441 91.8641 110.643L163.376 151.449C163.578 151.651 163.982 151.449 164.184 151.247L171.254 138.925Z" fill="white"/>
<path d="M162.77 152.258L91.4604 111.25L91.2583 111.048C91.0563 110.846 90.6523 110.24 90.6523 109.634V102.766C90.6523 101.554 91.2583 100.342 92.2684 99.9375L98.5307 96.3013C99.1367 95.8973 99.7428 96.0993 99.9448 96.0993H100.147L171.658 137.107C172.062 137.309 172.264 137.713 172.466 138.117C172.668 138.521 172.466 138.925 172.264 139.329L165.194 151.45C164.79 152.056 164.386 152.258 163.78 152.258C163.376 152.46 162.972 152.258 162.77 152.258ZM99.3387 98.3214L93.2784 101.756C93.0764 101.958 92.6724 102.362 92.6724 102.968V109.836L163.578 150.44L170.244 138.925L99.3387 98.3214Z" fill="#150035"/>
<path d="M170.849 148.017L164.587 151.653C163.981 152.057 163.577 151.653 163.577 150.845V143.977C163.577 143.169 163.981 142.361 164.587 141.957L170.849 138.321C171.455 137.917 171.86 138.321 171.86 139.129V145.997C171.86 146.805 171.455 147.815 170.849 148.017Z" fill="#39A1FF"/>
<path d="M163.375 152.663C162.769 152.259 162.567 151.653 162.567 150.845V143.976C162.567 142.764 163.173 141.552 164.183 141.148L170.446 137.512C171.052 137.108 171.658 137.108 172.062 137.512C172.668 137.916 172.87 138.522 172.87 139.33V146.198C172.87 147.41 172.264 148.623 171.254 149.027L164.991 152.663C164.587 152.865 164.385 152.865 163.981 152.865C163.981 152.865 163.779 152.663 163.375 152.663ZM170.446 147.208C170.648 147.006 171.052 146.602 171.052 145.996V139.532L165.396 142.764C165.193 142.966 164.789 143.37 164.789 143.976V150.441L170.446 147.208Z" fill="#150035"/>
<path d="M91.6621 105.189V109.634L163.578 150.844V146.399L91.6621 105.189Z" fill="#150035"/>
<path d="M98.3252 103.371L97.5225 104.773L134.691 126.045L135.494 124.643L98.3252 103.371Z" fill="#150035"/>
<path d="M142.499 128.9L141.696 130.303L153.97 137.324L154.773 135.921L142.499 128.9Z" fill="#150035"/>
<path d="M59.1401 94.6862C79.1391 94.6862 88.6336 83.9796 88.8356 83.7776L87.6235 82.7676C87.4215 82.9696 75.5029 96.3022 50.0497 92.262L49.8477 93.8781C53.0798 94.2821 56.11 94.6862 59.1401 94.6862Z" fill="white"/>
<path d="M74.8951 88.4222C85.1976 84.18 87.6217 76.9077 87.6217 76.5037L86.2076 76.0996C86.2076 76.0996 83.9855 83.17 74.2891 87.0082L74.8951 88.4222Z" fill="white"/>
<path d="M23.5859 81.9593C25.202 78.7271 27.8282 76.101 31.4643 73.8789L30.6563 72.4648C26.8181 74.687 23.99 77.7171 22.1719 81.1512L23.5859 81.9593Z" fill="#39A1FF"/>
<path d="M92.4715 107.613H90.8555V110.441H92.4715V107.613Z" fill="#39A1FF"/>
<path d="M55.8963 44.6416L60.4981 41.5375C61.2786 44.0958 60.3446 46.9611 58.0117 48.5302C55.1542 50.4575 51.2732 49.7027 49.3454 46.8417C47.4177 43.9849 48.1769 40.1049 51.0343 38.1776C53.1113 36.7791 55.7257 36.7919 57.7345 38.0028L60.6517 36.0371C57.4743 33.3765 52.8 33.0098 49.1919 35.4402C44.8247 38.3908 43.6689 44.3218 46.6159 48.688C49.563 53.0584 55.4912 54.2096 59.8584 51.2676C63.7096 48.6709 65.0658 43.7632 63.3129 39.6401C63.0784 39.0858 62.7884 38.5443 62.4386 38.0241C62.1657 37.619 61.8714 37.2438 61.5473 36.8985L54.0752 41.9383C53.3289 42.4414 53.1327 43.4562 53.6359 44.2024C54.1392 44.9443 55.15 45.1447 55.8963 44.6416Z" fill="white"/>
<path d="M52.3991 42.4096L54.7963 45.9661C54.8261 46.013 54.8901 46.0216 54.9327 45.9917L56.8607 44.6911C56.9076 44.6612 56.9161 44.5972 56.8863 44.5546L54.4891 40.9981C54.4593 40.9512 54.3953 40.9426 54.3527 40.9725L52.4247 42.2731C52.382 42.303 52.3692 42.3627 52.3991 42.4096Z" fill="white"/>
<path d="M51.3977 44.2648C51.4786 44.3842 51.6448 44.4183 51.7641 44.3373L53.2089 43.3605C53.3282 43.2794 53.3623 43.1131 53.2813 42.9936C53.2004 42.8742 53.0342 42.8401 52.9148 42.9211L51.4701 43.898C51.3508 43.979 51.3167 44.1411 51.3977 44.2648Z" fill="white"/>
<path d="M52.764 44.7316C52.8449 44.851 53.011 44.8851 53.1303 44.8041L54.5742 43.8273C54.6935 43.7462 54.7275 43.5799 54.6466 43.4604C54.5657 43.341 54.3995 43.3069 54.2803 43.3879L52.8364 44.3647C52.7129 44.4458 52.6831 44.6079 52.764 44.7316Z" fill="white"/>
<path d="M52.6977 46.2003C52.779 46.3198 52.9457 46.3539 53.0654 46.2729L54.5147 45.296C54.6344 45.215 54.6686 45.0486 54.5873 44.9292C54.5061 44.8098 54.3394 44.7756 54.2197 44.8567L52.7704 45.8335C52.6464 45.9146 52.6165 46.0766 52.6977 46.2003Z" fill="white"/>
<path d="M55.4205 42.6504L54.3993 43.0894L54.6044 43.4134L53.6602 43.797L55.1599 43.6223L54.9462 43.2983L55.7709 43.196L55.4205 42.6504Z" fill="#0245B8"/>
<path d="M71.7235 15.7974C71.7235 15.2767 71.5934 14.7561 71.5934 14.2354L76.4095 9.67958C76.5397 9.54941 76.5397 9.28908 76.4095 9.28908L64.9549 2.78078C64.6946 2.65061 64.0438 2.26011 64.0438 2.26011C60.2689 0.307624 55.3226 0.437792 49.8557 2.78078C35.0167 9.54941 22.3906 30.2458 22.3906 47.0372C22.3906 54.8472 25.1241 60.3142 29.4196 62.9175H29.5498C29.6799 62.9175 40.0932 69.0353 41.9155 70.0766C42.0457 70.2068 42.1759 70.0766 42.306 69.9464L44.7792 64.7398L42.4362 63.4381C43.9982 62.9175 45.5602 62.1365 47.1222 61.2253C47.5127 60.965 47.9032 60.7047 48.2937 60.5745C49.5953 63.0476 49.5953 67.4733 49.2048 71.6386C49.0747 72.5498 49.4652 73.0704 49.8557 73.2006H50.3779C50.5081 73.3308 61.8309 79.8391 61.8309 79.7089L62.0451 79.1139L63.0024 76.4547L62.4818 62.6571H56.2338L67.8186 36.3636C70.8124 29.4648 72.3744 22.3057 71.7235 15.7974Z" fill="#FFB000"/>
<path d="M61.571 80.6192C61.4409 80.6192 61.1805 80.6192 61.0504 80.4891L49.5958 73.8506C49.2053 73.7204 48.2941 73.1998 48.4243 71.6378C48.8148 67.2121 48.6846 63.6977 47.9036 61.615C47.7734 61.7452 47.5131 61.8753 47.3829 61.8753C46.2115 62.5262 45.1701 63.0468 43.9986 63.5675L45.6908 64.4787L42.9573 70.206C42.8271 70.4663 42.5668 70.5965 42.3065 70.7266C42.0461 70.8568 41.7858 70.7266 41.5255 70.5965C39.9635 69.6853 29.1597 63.5675 29.1597 63.4373C24.3436 60.5737 21.7402 54.7162 21.7402 46.9062C21.7402 29.7243 34.7568 8.7676 49.5958 1.99897C55.0627 -0.474187 60.2694 -0.604352 64.3045 1.4783C64.3045 1.4783 64.9554 1.8688 65.2157 1.99897L76.5401 8.50727C76.8005 8.63743 76.9306 8.89777 77.0608 9.28827C77.0608 9.5486 76.9306 9.9391 76.8005 10.0693L72.2446 14.3647C72.2446 14.7552 72.3748 15.1457 72.3748 15.5362C72.8955 21.7842 71.5938 28.8132 68.6 35.8421L68.3397 36.493L57.4057 62.0055H63.2632L63.7839 76.5841L62.4822 79.9684C62.352 80.2287 62.2219 80.4891 61.9615 80.4891C61.8314 80.6192 61.7012 80.6192 61.571 80.6192ZM48.5544 59.5323L48.9449 60.1832C50.1164 62.396 50.3768 66.301 49.8561 71.6378C49.8561 72.0283 49.8561 72.4188 50.1164 72.4188L50.2466 72.549L61.4409 79.0573L62.4822 76.4539L61.9615 63.4373H55.3231L67.2984 36.2326C70.2922 29.0735 71.724 22.0445 71.2033 15.9267C71.2033 15.4061 71.0732 14.8854 71.0732 14.4949V14.1044L75.7591 9.67876L64.8252 3.4308C64.5649 3.30063 63.914 2.91013 63.914 2.91013C60.1392 0.95764 55.4532 1.21797 50.3768 3.56096C35.9283 10.0693 23.3022 30.5053 23.3022 47.1666C23.3022 54.4559 25.6452 59.7927 29.9407 62.396C30.201 62.5262 39.4428 67.863 42.0461 69.2948L43.9986 65.1295L40.8746 63.4373L42.3065 62.9167C43.8685 62.396 45.3003 61.615 46.8623 60.834C47.2528 60.5737 47.6433 60.4435 48.0338 60.1832L48.5544 59.5323Z" fill="#150035"/>
<path d="M67.1691 38.0565L67.8199 36.4945C70.8137 29.5957 72.2456 22.3064 71.7249 15.9282C71.7249 15.4076 71.5947 14.8869 71.5947 14.3662L76.4109 9.81044C76.541 9.68027 76.541 9.41994 76.4109 9.41994L64.9563 2.91164C64.6959 2.78147 64.0451 2.39097 64.0451 2.39097C60.2703 0.438483 55.324 0.568651 49.857 2.91164C43.3487 5.77529 37.3611 11.3724 32.5449 18.1411L67.1691 38.0565Z" fill="white"/>
<path d="M67.4285 39.097L31.6328 18.2704L32.0233 17.6196C37.0998 10.4605 43.3478 4.99348 49.5957 2.12983C55.0627 -0.343326 60.2693 -0.473494 64.3045 1.60916C64.3045 1.60916 64.9553 1.99966 65.2157 2.12983L76.5401 8.63813C76.8004 8.7683 76.9306 9.02863 77.0608 9.41912C77.0608 9.67945 76.9306 10.07 76.8004 10.2001L72.2446 14.4956C72.2446 14.8861 72.3748 15.2766 72.3748 15.6671C72.8954 22.0452 71.5938 29.3345 68.3396 36.6238L67.4285 39.097ZM33.7155 17.8799L66.9078 37.1445L67.2983 36.2333C70.2921 29.0742 71.724 22.0452 71.2033 15.9274C71.2033 15.4068 71.0731 14.8861 71.0731 14.4956V14.1051L75.7591 9.67946L64.8251 3.43149C64.5648 3.30132 63.914 2.91082 63.914 2.91082C60.1392 0.958332 55.4532 1.21866 50.3767 3.56165C44.3891 6.16497 38.5316 11.2414 33.7155 17.8799Z" fill="#150035"/>
<path d="M79.7932 43.2606C82.787 36.3618 84.2188 29.0725 83.6981 22.6944C82.6568 9.9381 73.415 4.47113 61.8303 9.67777C46.9913 16.4464 34.3652 37.1428 34.3652 53.9342C34.3652 69.6843 45.4293 76.0624 59.0968 68.2525C59.4873 67.9921 59.8778 67.7318 60.2683 67.6016C61.5699 70.0748 61.5699 74.5004 61.1794 78.6657C60.9191 81.0087 63.5224 80.6182 64.5637 78.1451L79.7932 43.2606Z" fill="#150035"/>
<path d="M62.2212 80.879C62.091 80.879 61.9609 80.879 61.8307 80.879C61.4402 80.7488 60.3989 80.3583 60.529 78.6662C60.9195 74.2405 60.7894 70.726 60.0084 68.6434C59.8782 68.7735 59.6179 68.9037 59.4877 68.9037C52.7191 72.8087 46.2108 73.4595 41.2645 70.5959C36.3182 67.7322 33.7148 61.8747 33.7148 53.9346C33.7148 36.7527 46.7314 15.796 61.5704 9.02733C67.2977 6.42401 72.7646 6.42401 76.93 8.767C81.2254 11.2402 83.8288 16.1865 84.3494 22.5646C84.8701 28.9427 83.5684 36.232 80.3143 43.5213L65.215 78.2757C64.5642 79.8377 63.2625 80.879 62.2212 80.879ZM60.6592 66.4306L61.0497 67.0814C62.2212 69.2942 62.4815 73.1992 61.9609 78.536C61.9609 78.9265 61.9609 79.317 62.2212 79.317C62.6117 79.4472 63.5229 78.9265 64.0435 77.6248L79.273 42.8705C82.2668 35.7114 83.6986 28.6824 83.1779 22.5646C82.6573 16.577 80.3143 12.0212 76.4093 9.80833C72.6345 7.5955 67.558 7.72567 62.3514 10.0687C47.9029 16.577 35.2768 37.013 35.2768 53.6743C35.2768 61.0937 37.75 66.5607 42.1756 69.0339C46.6013 71.6372 52.5889 70.9864 58.967 67.3417C59.3575 67.0814 59.7481 66.9512 60.1386 66.6909L60.6592 66.4306Z" fill="#150035"/>
<path d="M63.643 64.1732L61.2086 80.5907L44.4162 71.9133L63.643 64.1732Z" fill="#150035"/>
<path d="M22.7812 50.291L34.7565 57.1898L22.7812 50.291Z" fill="#FFB000"/>
<path d="M23.1944 49.6651L22.4805 50.9062L34.4402 57.7857L35.1541 56.5446L23.1944 49.6651Z" fill="#150035"/>
<path d="M50.8965 2.51953L62.8718 9.41833L50.8965 2.51953Z" fill="#FFB000"/>
<path d="M51.1534 1.91123L50.4395 3.15234L62.3992 10.0318L63.1131 8.79071L51.1534 1.91123Z" fill="#150035"/>
<path d="M59.6176 59.7926C50.3758 65.1294 42.8262 60.834 42.8262 50.0302C42.8262 39.2264 50.3758 26.2098 59.6176 20.873C68.8594 15.5362 76.409 19.8317 76.409 30.6354C76.409 41.4392 68.8594 54.4558 59.6176 59.7926ZM59.6176 22.9556C51.287 27.7718 44.5183 39.4867 44.5183 49.119C44.5183 58.7513 51.287 62.6563 59.6176 57.8401C67.9482 53.024 74.7168 41.309 74.7168 31.6768C74.7168 22.0445 67.9482 18.1395 59.6176 22.9556Z" fill="#FFB000"/>
<path d="M79.2027 43.3548L78.3652 45.2617L79.3187 45.6804L80.1561 43.7736L79.2027 43.3548Z" fill="#FFB000"/>
<path d="M71.7235 15.7974C71.7235 15.2767 71.5934 14.7561 71.5934 14.2354L76.4095 9.67958C76.5397 9.54941 76.5397 9.28908 76.4095 9.28908L64.9549 2.78078C64.6946 2.65061 64.0438 2.26011 64.0438 2.26011C60.2689 0.307624 55.3226 0.437792 49.8557 2.78078C35.0167 9.54941 22.3906 30.2458 22.3906 47.0372C22.3906 54.8472 25.1241 60.3142 29.4196 62.9175H29.5498C29.6799 62.9175 40.0932 69.0353 41.9155 70.0766C42.0457 70.2068 42.1759 70.0766 42.306 69.9464L44.7792 64.7398L42.4362 63.4381C43.9982 62.9175 45.5602 62.1365 47.1222 61.2253C47.5127 60.965 47.9032 60.7047 48.2937 60.5745C49.5953 63.0476 49.5953 67.4733 49.2048 71.6386C49.0747 72.5498 49.4652 73.0704 49.8557 73.2006H50.3779C50.5081 73.3308 61.8309 79.8391 61.8309 79.7089L62.0451 79.1139L63.0024 76.4547L62.4818 62.6571H56.2338L67.8186 36.3636C70.8124 29.4648 72.3744 22.3057 71.7235 15.7974Z" fill="#39A1FF"/>
<path d="M61.571 80.6192C61.4409 80.6192 61.1805 80.6192 61.0504 80.4891L49.5958 73.8506C49.2053 73.7204 48.2941 73.1998 48.4243 71.6378C48.8148 67.2121 48.6846 63.6977 47.9036 61.615C47.7734 61.7452 47.5131 61.8753 47.3829 61.8753C46.2115 62.5262 45.1701 63.0468 43.9986 63.5675L45.6908 64.4787L42.9573 70.206C42.8271 70.4663 42.5668 70.5965 42.3065 70.7266C42.0461 70.8568 41.7858 70.7266 41.5255 70.5965C39.9635 69.6853 29.1597 63.5675 29.1597 63.4373C24.3436 60.5737 21.7402 54.7162 21.7402 46.9062C21.7402 29.7243 34.7568 8.7676 49.5958 1.99897C55.0627 -0.474187 60.2694 -0.604352 64.3045 1.4783C64.3045 1.4783 64.9554 1.8688 65.2157 1.99897L76.5401 8.50727C76.8005 8.63743 76.9306 8.89777 77.0608 9.28827C77.0608 9.5486 76.9306 9.9391 76.8005 10.0693L72.2446 14.3647C72.2446 14.7552 72.3748 15.1457 72.3748 15.5362C72.8955 21.7842 71.5938 28.8132 68.6 35.8421L68.3397 36.493L57.4057 62.0055H63.2632L63.7839 76.5841L62.4822 79.9684C62.352 80.2287 62.2219 80.4891 61.9615 80.4891C61.8314 80.6192 61.7012 80.6192 61.571 80.6192ZM48.5544 59.5323L48.9449 60.1832C50.1164 62.396 50.3768 66.301 49.8561 71.6378C49.8561 72.0283 49.8561 72.4188 50.1164 72.4188L50.2466 72.549L61.4409 79.0573L62.4822 76.4539L61.9615 63.4373H55.3231L67.2984 36.2326C70.2922 29.0735 71.724 22.0445 71.2033 15.9267C71.2033 15.4061 71.0732 14.8854 71.0732 14.4949V14.1044L75.7591 9.67876L64.8252 3.4308C64.5649 3.30063 63.914 2.91013 63.914 2.91013C60.1392 0.95764 55.4532 1.21797 50.3768 3.56096C35.9283 10.0693 23.3022 30.5053 23.3022 47.1666C23.3022 54.4559 25.6452 59.7927 29.9407 62.396C30.201 62.5262 39.4428 67.863 42.0461 69.2948L43.9986 65.1295L40.8746 63.4373L42.3065 62.9167C43.8685 62.396 45.3003 61.615 46.8623 60.834C47.2528 60.5737 47.6433 60.4435 48.0338 60.1832L48.5544 59.5323Z" fill="#150035"/>
<path d="M67.1691 38.0565L67.8199 36.4945C70.8137 29.5957 72.2456 22.3064 71.7249 15.9282C71.7249 15.4076 71.5947 14.8869 71.5947 14.3662L76.4109 9.81044C76.541 9.68027 76.541 9.41994 76.4109 9.41994L64.9563 2.91164C64.6959 2.78147 64.0451 2.39097 64.0451 2.39097C60.2703 0.438483 55.324 0.568651 49.857 2.91164C43.3487 5.77529 37.3611 11.3724 32.5449 18.1411L67.1691 38.0565Z" fill="white"/>
<path d="M67.4285 39.097L31.6328 18.2704L32.0233 17.6196C37.0998 10.4605 43.3478 4.99348 49.5957 2.12983C55.0627 -0.343326 60.2693 -0.473494 64.3045 1.60916C64.3045 1.60916 64.9553 1.99966 65.2157 2.12983L76.5401 8.63813C76.8004 8.7683 76.9306 9.02863 77.0608 9.41912C77.0608 9.67945 76.9306 10.07 76.8004 10.2001L72.2446 14.4956C72.2446 14.8861 72.3748 15.2766 72.3748 15.6671C72.8954 22.0452 71.5938 29.3345 68.3396 36.6238L67.4285 39.097ZM33.7155 17.8799L66.9078 37.1445L67.2983 36.2333C70.2921 29.0742 71.724 22.0452 71.2033 15.9274C71.2033 15.4068 71.0731 14.8861 71.0731 14.4956V14.1051L75.7591 9.67946L64.8251 3.43149C64.5648 3.30132 63.914 2.91082 63.914 2.91082C60.1392 0.958332 55.4532 1.21866 50.3767 3.56165C44.3891 6.16497 38.5316 11.2414 33.7155 17.8799Z" fill="#150035"/>
<path d="M79.7932 43.2606C82.787 36.3618 84.2188 29.0725 83.6981 22.6944C82.6568 9.9381 73.415 4.47113 61.8303 9.67777C46.9913 16.4464 34.3652 37.1428 34.3652 53.9342C34.3652 69.6843 45.4293 76.0624 59.0968 68.2525C59.4873 67.9921 59.8778 67.7318 60.2683 67.6016C61.5699 70.0748 61.5699 74.5004 61.1794 78.6657C60.9191 81.0087 63.5224 80.6182 64.5637 78.1451L79.7932 43.2606Z" fill="#150035"/>
<path d="M62.2212 80.879C62.091 80.879 61.9609 80.879 61.8307 80.879C61.4402 80.7488 60.3989 80.3583 60.529 78.6662C60.9195 74.2405 60.7894 70.726 60.0084 68.6434C59.8782 68.7735 59.6179 68.9037 59.4877 68.9037C52.7191 72.8087 46.2108 73.4595 41.2645 70.5959C36.3182 67.7322 33.7148 61.8747 33.7148 53.9346C33.7148 36.7527 46.7314 15.796 61.5704 9.02733C67.2977 6.42401 72.7646 6.42401 76.93 8.767C81.2254 11.2402 83.8288 16.1865 84.3494 22.5646C84.8701 28.9427 83.5684 36.232 80.3143 43.5213L65.215 78.2757C64.5642 79.8377 63.2625 80.879 62.2212 80.879ZM60.6592 66.4306L61.0497 67.0814C62.2212 69.2942 62.4815 73.1992 61.9609 78.536C61.9609 78.9265 61.9609 79.317 62.2212 79.317C62.6117 79.4472 63.5229 78.9265 64.0435 77.6248L79.273 42.8705C82.2668 35.7114 83.6986 28.6824 83.1779 22.5646C82.6573 16.577 80.3143 12.0212 76.4093 9.80833C72.6345 7.5955 67.558 7.72567 62.3514 10.0687C47.9029 16.577 35.2768 37.013 35.2768 53.6743C35.2768 61.0937 37.75 66.5607 42.1756 69.0339C46.6013 71.6372 52.5889 70.9864 58.967 67.3417C59.3575 67.0814 59.7481 66.9512 60.1386 66.6909L60.6592 66.4306Z" fill="#150035"/>
<path d="M63.643 64.1732L61.2086 80.5907L44.4162 71.9133L63.643 64.1732Z" fill="#150035"/>
<path d="M22.7812 50.291L34.7565 57.1898L22.7812 50.291Z" fill="#39A1FF"/>
<path d="M23.1944 49.6651L22.4805 50.9062L34.4402 57.7857L35.1541 56.5446L23.1944 49.6651Z" fill="#150035"/>
<path d="M50.8965 2.51953L62.8718 9.41833L50.8965 2.51953Z" fill="#39A1FF"/>
<path d="M51.1534 1.91123L50.4395 3.15234L62.3992 10.0318L63.1131 8.79071L51.1534 1.91123Z" fill="#150035"/>
<path d="M59.6176 59.7926C50.3758 65.1294 42.8262 60.834 42.8262 50.0302C42.8262 39.2264 50.3758 26.2098 59.6176 20.873C68.8594 15.5362 76.409 19.8317 76.409 30.6354C76.409 41.4392 68.8594 54.4558 59.6176 59.7926ZM59.6176 22.9556C51.287 27.7718 44.5183 39.4867 44.5183 49.119C44.5183 58.7513 51.287 62.6563 59.6176 57.8401C67.9482 53.024 74.7168 41.309 74.7168 31.6768C74.7168 22.0445 67.9482 18.1395 59.6176 22.9556Z" fill="#39A1FF"/>
<path d="M59.8344 42.6426L65.8133 40.7217C64.6463 44.4164 61.8524 47.7196 58.8246 48.6875C55.1122 49.8801 52.4543 47.1044 52.8919 42.4854C53.3264 37.872 56.694 33.1654 60.4064 31.9729C63.1032 31.1091 65.2441 32.3329 66.0398 34.8386L69.8284 33.6237C69.0967 28.6889 65.5122 26.0527 60.8267 27.5544C55.1493 29.3836 50.0055 36.5801 49.3419 43.6315C48.6754 50.6884 52.7364 54.926 58.4078 53.108C63.4107 51.5018 67.9958 45.7315 69.4695 39.5483C69.6685 38.7176 69.8129 37.8779 69.8931 37.0384C69.955 36.3845 69.9783 35.7596 69.956 35.1598L60.2481 38.2784C59.2787 38.5896 58.3998 39.8216 58.2861 41.0265C58.1754 42.2258 58.8649 42.9537 59.8344 42.6426Z" fill="white"/>
<path d="M58.4073 38.2081L58.3077 43.9706C58.3049 44.0459 58.3545 44.0826 58.4091 44.0589L60.8468 43.0541C60.905 43.0321 60.951 42.9488 60.9513 42.8792L61.0508 37.1168C61.0536 37.0415 61.004 37.0048 60.9495 37.0285L58.5118 38.0332C58.4572 38.0569 58.4101 38.1328 58.4073 38.2081Z" fill="white"/>
<path d="M56.5522 40.0794C56.5166 40.2701 56.6174 40.4018 56.7766 40.3665L58.7004 39.9443C58.8596 39.909 59.023 39.7227 59.0585 39.532C59.094 39.3413 58.9933 39.2096 58.834 39.2449L56.9102 39.6671C56.751 39.7024 56.5912 39.8835 56.5522 40.0794Z" fill="white"/>
<path d="M57.0276 41.373C56.9921 41.5636 57.0927 41.6953 57.2519 41.66L59.1751 41.2374C59.3342 41.202 59.4975 41.0157 59.5331 40.825C59.5687 40.6343 59.468 40.5026 59.3088 40.538L57.3857 40.9606C57.2232 40.9937 57.0667 41.177 57.0276 41.373Z" fill="white"/>
<path d="M56.5961 42.9805C56.5608 43.1713 56.6619 43.3033 56.8214 43.2682L58.7487 42.8485C58.9082 42.8134 59.0717 42.6271 59.107 42.4363C59.1423 42.2455 59.0412 42.1134 58.8817 42.1486L56.9544 42.5683C56.7916 42.6011 56.635 42.7844 56.5961 42.9805Z" fill="white"/>
<path d="M60.6815 39.5108L59.595 39.9214L59.6706 40.4344L58.6736 40.7817L60.1067 40.8579L60.0233 40.343L60.8134 40.3759L60.6815 39.5108Z" fill="#150035"/>
<path d="M79.2027 43.3548L78.3652 45.2617L79.3187 45.6804L80.1561 43.7736L79.2027 43.3548Z" fill="#39A1FF"/>
</svg>
