<svg width="188" height="125" viewBox="0 0 188 125" fill="none" xmlns="http://www.w3.org/2000/svg">
<path d="M4.93285 78.8497L3.08459 79.9586C2.89977 80.1434 2.5301 80.1434 2.34528 79.9586L0.497018 78.8497C0.312192 78.6648 0.312192 78.48 0.497018 78.48L2.34528 77.371C2.5301 77.1862 2.89977 77.1862 3.08459 77.371L4.93285 78.48C5.11768 78.48 5.11768 78.6648 4.93285 78.8497Z" fill="#150035"/>
<path d="M9.55395 81.4375L7.70569 82.5465C7.52086 82.7313 7.15119 82.7313 6.96637 82.5465L5.11811 81.4375C4.93329 81.2527 4.93329 81.0679 5.11811 81.0679L6.96637 79.9589C7.15119 79.7741 7.52086 79.7741 7.70569 79.9589L9.55395 81.0679C9.73877 81.2527 9.73877 81.4375 9.55395 81.4375Z" fill="#150035"/>
<path d="M4.93285 84.209L3.08459 85.318C2.89977 85.5028 2.5301 85.5028 2.34528 85.318L0.497018 84.209C0.312192 84.0242 0.312192 83.8394 0.497018 83.8394L2.34528 82.7304C2.5301 82.5456 2.89977 82.5456 3.08459 82.7304L4.93285 83.8394C5.11768 83.8394 5.11768 84.0242 4.93285 84.209Z" fill="#150035"/>
<path d="M13.9895 84.0254L12.1412 85.1344C11.9564 85.3192 11.5867 85.3192 11.4019 85.1344L9.55366 84.0254C9.36883 83.8406 9.36883 83.6558 9.55366 83.6558L11.4019 82.5468C11.5867 82.362 11.9564 82.362 12.1412 82.5468L13.9895 83.6558C14.1743 83.6558 14.1743 83.8406 13.9895 84.0254Z" fill="#150035"/>
<path d="M9.36837 86.6114L7.52011 87.7203C7.33529 87.9052 6.96565 87.9052 6.78082 87.7203L4.93256 86.6114C4.74774 86.4265 4.74774 86.2417 4.93256 86.2417L6.78082 85.1328C6.96565 84.9479 7.33529 84.9479 7.52011 85.1328L9.36837 86.2417C9.5532 86.4266 9.5532 86.6114 9.36837 86.6114Z" fill="#150035"/>
<path d="M18.425 86.6114L16.5768 87.7203C16.3919 87.9052 16.0223 87.9052 15.8375 87.7203L13.9892 86.6114C13.8044 86.4265 13.8044 86.2417 13.9892 86.2417L15.8375 85.1328C16.0223 84.9479 16.3919 84.9479 16.5768 85.1328L18.425 86.2417C18.6098 86.2417 18.6098 86.4265 18.425 86.6114Z" fill="#150035"/>
<path d="M13.8049 89.1992L11.9566 90.3082C11.7718 90.493 11.4022 90.493 11.2173 90.3082L9.36909 89.1992C9.18426 89.0144 9.18426 88.8296 9.36909 88.8296L11.2173 87.7207C11.4022 87.5358 11.7718 87.5358 11.9566 87.7207L13.8049 88.8296C13.9897 88.8296 13.9897 89.0144 13.8049 89.1992Z" fill="#150035"/>
<path d="M23.0461 89.1992L21.1978 90.3082C21.013 90.493 20.6434 90.493 20.4586 90.3082L18.6103 89.1992C18.4255 89.0144 18.4255 88.8296 18.6103 88.8296L20.4586 87.7207C20.6434 87.5358 21.013 87.5358 21.1978 87.7207L23.0461 88.8296C23.2309 89.0144 23.2309 89.1992 23.0461 89.1992Z" fill="#150035"/>
<path d="M18.425 91.9727L16.5768 93.0816C16.3919 93.2665 16.0223 93.2665 15.8375 93.0816L13.9892 91.9727C13.8044 91.7878 13.8044 91.603 13.9892 91.603L15.8375 90.4941C16.0223 90.3093 16.3919 90.3093 16.5768 90.4941L18.425 91.603C18.6098 91.603 18.6098 91.7878 18.425 91.9727Z" fill="#150035"/>
<path d="M27.2971 91.7872L25.4488 92.8961C25.264 93.0809 24.8944 93.0809 24.7095 92.8961L22.8613 91.7872C22.6764 91.6023 22.6764 91.4175 22.8613 91.4175L24.7095 90.3085C24.8944 90.1237 25.264 90.1237 25.4488 90.3085L27.2971 91.4175C27.4819 91.4175 27.4819 91.6023 27.2971 91.7872Z" fill="#150035"/>
<path d="M22.676 94.375L20.8277 95.484C20.6429 95.6688 20.2733 95.6688 20.0884 95.484L18.2402 94.375C18.0554 94.1902 18.0554 94.0054 18.2402 94.0054L20.0884 92.8964C20.2733 92.7116 20.6429 92.7116 20.8277 92.8964L22.676 94.0054C22.8608 94.1902 22.8608 94.375 22.676 94.375Z" fill="#150035"/>
<path d="M31.7327 94.375L29.8844 95.484C29.6996 95.6688 29.3299 95.6688 29.1451 95.484L27.2968 94.375C27.112 94.1902 27.112 94.0054 27.2968 94.0054L29.1451 92.8964C29.3299 92.7116 29.6996 92.7116 29.8844 92.8964L31.7327 94.0054C31.9175 94.0054 31.9175 94.1902 31.7327 94.375Z" fill="#150035"/>
<path d="M27.1116 96.9629L25.2633 98.0719C25.0785 98.2567 24.7088 98.2567 24.524 98.0719L22.6757 96.9629C22.4909 96.7781 22.4909 96.5933 22.6757 96.5933L24.524 95.4843C24.7088 95.2995 25.0785 95.2995 25.2633 95.4843L27.1116 96.5933C27.2964 96.5933 27.2964 96.7781 27.1116 96.9629Z" fill="#150035"/>
<path d="M36.3527 96.9629L34.5045 98.0719C34.3197 98.2567 33.95 98.2567 33.7652 98.0719L31.9169 96.9629C31.7321 96.7781 31.7321 96.5933 31.9169 96.5933L33.7652 95.4843C33.95 95.2995 34.3197 95.2995 34.5045 95.4843L36.3527 96.5933C36.5376 96.5933 36.5376 96.7781 36.3527 96.9629Z" fill="#150035"/>
<path d="M31.7327 99.5508L29.8844 100.66C29.6996 100.845 29.3299 100.845 29.1451 100.66L27.2968 99.5508C27.112 99.366 27.112 99.1812 27.2968 99.1812L29.1451 98.0722C29.3299 97.8874 29.6996 97.8874 29.8844 98.0722L31.7327 99.1812C31.9175 99.366 31.9175 99.5508 31.7327 99.5508Z" fill="#150035"/>
<path d="M40.7893 99.5508L38.941 100.66C38.7562 100.845 38.3865 100.845 38.2017 100.66L36.3535 99.5508C36.1686 99.366 36.1686 99.1812 36.3535 99.1812L38.2017 98.0722C38.3865 97.8874 38.7562 97.8874 38.941 98.0722L40.7893 99.1812C40.9741 99.1812 40.9741 99.366 40.7893 99.5508Z" fill="#150035"/>
<path d="M36.1682 102.137L34.3199 103.246C34.1351 103.431 33.7655 103.431 33.5806 103.246L31.7324 102.137C31.5475 101.952 31.5475 101.767 31.7324 101.767L33.5806 100.658C33.7655 100.473 34.1351 100.473 34.3199 100.658L36.1682 101.767C36.353 101.767 36.353 101.952 36.1682 102.137Z" fill="#150035"/>
<path d="M45.0402 101.953L43.192 103.062C43.0072 103.247 42.6375 103.247 42.4527 103.062L40.6044 101.953C40.4196 101.768 40.4196 101.584 40.6044 101.584L42.4527 100.475C42.6375 100.29 43.0072 100.29 43.192 100.475L45.0402 101.584C45.2251 101.768 45.4099 101.953 45.0402 101.953Z" fill="#150035"/>
<path d="M40.6037 104.725L38.7555 105.834C38.5706 106.018 38.201 106.018 38.0162 105.834L36.1679 104.725C35.9831 104.54 35.9831 104.355 36.1679 104.355L38.0162 103.246C38.201 103.061 38.5706 103.061 38.7555 103.246L40.6037 104.355C40.6037 104.355 40.7885 104.54 40.6037 104.725Z" fill="#150035"/>
<path d="M49.8459 104.725L47.9977 105.834C47.8128 106.018 47.4432 106.018 47.2584 105.834L45.4101 104.725C45.2253 104.54 45.2253 104.355 45.4101 104.355L47.2584 103.246C47.4432 103.061 47.8128 103.061 47.9977 103.246L49.8459 104.355C49.8459 104.355 50.0307 104.54 49.8459 104.725Z" fill="#150035"/>
<path d="M45.2248 107.313L43.3766 108.422C43.1917 108.606 42.8221 108.606 42.6373 108.422L40.789 107.313C40.6042 107.128 40.6042 106.943 40.789 106.943L42.6373 105.834C42.8221 105.649 43.1917 105.649 43.3766 105.834L45.2248 106.943C45.2248 107.128 45.4096 107.313 45.2248 107.313Z" fill="#150035"/>
<path d="M54.0969 107.129L52.2487 108.238C52.0639 108.423 51.6942 108.423 51.5093 108.238L49.6611 107.129C49.4763 106.944 49.4763 106.759 49.6611 106.759L51.5093 105.65C51.6942 105.466 52.0639 105.466 52.2487 105.65L54.0969 106.759C54.2818 106.944 54.2818 107.129 54.0969 107.129Z" fill="#150035"/>
<path d="M49.4758 109.9L47.6276 111.009C47.4428 111.194 47.0731 111.194 46.8882 111.009L45.04 109.9C44.8552 109.716 44.8552 109.531 45.04 109.531L46.8882 108.422C47.0731 108.237 47.4428 108.237 47.6276 108.422L49.4758 109.531C49.6607 109.531 49.6607 109.716 49.4758 109.9Z" fill="#150035"/>
<path d="M58.5324 109.715L56.6842 110.824C56.4994 111.009 56.1297 111.009 55.9449 110.824L54.0966 109.715C53.9118 109.53 53.9118 109.345 54.0966 109.345L55.9449 108.236C56.1297 108.051 56.4994 108.051 56.6842 108.236L58.5324 109.345C58.7173 109.345 58.7173 109.715 58.5324 109.715Z" fill="#150035"/>
<path d="M53.9113 112.488L52.0631 113.597C51.8783 113.782 51.5086 113.782 51.3238 113.597L49.4755 112.488C49.2907 112.303 49.2907 112.119 49.4755 112.119L51.3238 111.01C51.5086 110.825 51.8783 110.825 52.0631 111.01L53.9113 112.119C54.0962 112.119 54.0962 112.303 53.9113 112.488Z" fill="#150035"/>
<path d="M63.1526 112.488L61.3043 113.597C61.1195 113.782 60.7498 113.782 60.565 113.597L58.7167 112.488C58.5319 112.303 58.5319 112.119 58.7167 112.119L60.565 111.01C60.7498 110.825 61.1195 110.825 61.3043 111.01L63.1526 112.119C63.3374 112.119 63.3374 112.303 63.1526 112.488Z" fill="#150035"/>
<path d="M58.5324 115.076L56.6842 116.185C56.4994 116.37 56.1297 116.37 55.9449 116.185L54.0966 115.076C53.9118 114.891 53.9118 114.707 54.0966 114.707L55.9449 113.598C56.1297 113.413 56.4994 113.413 56.6842 113.598L58.5324 114.707C58.7173 114.707 58.7173 114.891 58.5324 115.076Z" fill="#150035"/>
<path d="M67.5891 114.891L65.7408 116C65.556 116.184 65.1864 116.184 65.0015 116L63.1533 114.891C62.9684 114.706 62.9684 114.521 63.1533 114.521L65.0015 113.412C65.1864 113.227 65.556 113.227 65.7408 113.412L67.5891 114.521C67.7739 114.706 67.7739 114.891 67.5891 114.891Z" fill="#150035"/>
<path d="M62.968 117.662L61.1197 118.771C60.9349 118.956 60.5653 118.956 60.3804 118.771L58.5322 117.662C58.3473 117.477 58.3473 117.293 58.5322 117.293L60.3804 116.184C60.5653 115.999 60.9349 115.999 61.1197 116.184L62.968 117.293C63.1528 117.293 63.1528 117.477 62.968 117.662Z" fill="#150035"/>
<path d="M71.8401 117.479L69.9918 118.588C69.807 118.772 69.4373 118.772 69.2525 118.588L67.4042 117.479C67.2194 117.294 67.2194 117.109 67.4042 117.109L69.2525 116C69.4373 115.815 69.807 115.815 69.9918 116L71.8401 117.109C72.0249 117.109 72.0249 117.294 71.8401 117.479Z" fill="#150035"/>
<path d="M67.219 120.066L65.3707 121.175C65.1859 121.36 64.8162 121.36 64.6314 121.175L62.7832 120.066C62.5983 119.882 62.5983 119.697 62.7832 119.697L64.6314 118.588C64.8162 118.403 65.1859 118.403 65.3707 118.588L67.219 119.697C67.4038 119.882 67.4038 120.066 67.219 120.066Z" fill="#150035"/>
<path d="M76.4602 120.066L74.6119 121.175C74.4271 121.36 74.0574 121.36 73.8726 121.175L72.0244 120.066C71.8395 119.882 71.8395 119.697 72.0244 119.697L73.8726 118.588C74.0574 118.403 74.4271 118.403 74.6119 118.588L76.4602 119.697C76.645 119.882 76.645 120.066 76.4602 120.066Z" fill="#150035"/>
<path d="M71.8401 122.838L69.9918 123.947C69.807 124.132 69.4373 124.132 69.2525 123.947L67.4042 122.838C67.2194 122.653 67.2194 122.468 67.4042 122.468L69.2525 121.359C69.4373 121.174 69.807 121.174 69.9918 121.359L71.8401 122.468C72.0249 122.468 72.0249 122.653 71.8401 122.838Z" fill="#150035"/>
<path d="M81.0813 117.479L79.233 118.588C79.0482 118.772 78.6785 118.772 78.4937 118.588L76.6455 117.479C76.4606 117.294 76.4606 117.109 76.6455 117.109L78.4937 116C78.6785 115.815 79.0482 115.815 79.233 116L81.0813 117.109C81.2661 117.109 81.2661 117.294 81.0813 117.479Z" fill="#150035"/>
<path d="M85.7014 114.891L83.8531 116C83.6683 116.184 83.2987 116.184 83.1138 116L81.2656 114.891C81.0807 114.706 81.0807 114.521 81.2656 114.521L83.1138 113.412C83.2987 113.227 83.6683 113.227 83.8531 113.412L85.7014 114.521C85.8862 114.521 85.8862 114.706 85.7014 114.891Z" fill="#150035"/>
<path d="M90.3225 112.119L88.4742 113.228C88.2894 113.413 87.9197 113.413 87.7349 113.228L85.8867 112.119C85.7018 111.934 85.7018 111.75 85.8867 111.75L87.7349 110.641C87.9197 110.456 88.2894 110.456 88.4742 110.641L90.3225 111.75C90.5073 111.934 90.5073 112.119 90.3225 112.119Z" fill="#150035"/>
<path d="M94.9426 109.531L93.0943 110.64C92.9095 110.825 92.5399 110.825 92.355 110.64L90.5068 109.531C90.322 109.346 90.322 109.162 90.5068 109.162L92.355 108.053C92.5399 107.868 92.9095 107.868 93.0943 108.053L94.9426 109.162C95.1274 109.162 95.1274 109.346 94.9426 109.531Z" fill="#150035"/>
<path d="M99.5637 106.758L97.7154 107.867C97.5306 108.052 97.161 108.052 96.9761 107.867L95.1279 106.758C94.9431 106.573 94.9431 106.388 95.1279 106.388L96.9761 105.279C97.161 105.094 97.5306 105.094 97.7154 105.279L99.5637 106.388C99.7485 106.573 99.7485 106.758 99.5637 106.758Z" fill="#150035"/>
<path d="M104.184 104.17L102.336 105.279C102.151 105.464 101.781 105.464 101.596 105.279L99.748 104.17C99.5632 103.985 99.5632 103.8 99.748 103.8L101.596 102.691C101.781 102.507 102.151 102.507 102.336 102.691L104.184 103.8C104.369 103.8 104.369 103.985 104.184 104.17Z" fill="#150035"/>
<path d="M108.805 101.584L106.957 102.693C106.772 102.878 106.402 102.878 106.217 102.693L104.369 101.584C104.184 101.399 104.184 101.214 104.369 101.214L106.217 100.105C106.402 99.9206 106.772 99.9206 106.957 100.105L108.805 101.214C108.99 101.214 108.99 101.399 108.805 101.584Z" fill="#150035"/>
<path d="M113.426 98.8106L111.578 99.9195C111.393 100.104 111.023 100.104 110.838 99.9195L108.99 98.8106C108.805 98.6258 108.805 98.4409 108.99 98.4409L110.838 97.332C111.023 97.1472 111.393 97.1472 111.578 97.332L113.426 98.4409C113.611 98.6257 113.611 98.8106 113.426 98.8106Z" fill="#150035"/>
<path d="M118.046 96.2227L116.198 97.3317C116.013 97.5165 115.643 97.5165 115.459 97.3317L113.61 96.2227C113.425 96.0379 113.425 95.8531 113.61 95.8531L115.459 94.7441C115.643 94.5593 116.013 94.5593 116.198 94.7441L118.046 95.8531C118.231 95.8531 118.231 96.0379 118.046 96.2227Z" fill="#150035"/>
<path d="M122.667 93.4512L120.819 94.5602C120.634 94.745 120.264 94.745 120.08 94.5602L118.231 93.4512C118.047 93.2664 118.047 93.0816 118.231 93.0816L120.08 91.9726C120.264 91.7878 120.634 91.7878 120.819 91.9726L122.667 93.0816C122.852 93.2664 122.852 93.4512 122.667 93.4512Z" fill="#150035"/>
<path d="M127.287 90.8633L125.439 91.9723C125.254 92.1571 124.885 92.1571 124.7 91.9723L122.852 90.8633C122.667 90.6785 122.667 90.4937 122.852 90.4937L124.7 89.3847C124.885 89.1999 125.254 89.1999 125.439 89.3847L127.287 90.4937C127.472 90.4937 127.472 90.6785 127.287 90.8633Z" fill="#150035"/>
<path d="M131.908 88.2754L130.06 89.3844C129.875 89.5692 129.506 89.5692 129.321 89.3844L127.473 88.2754C127.288 88.0906 127.288 87.9058 127.473 87.9058L129.321 86.7968C129.506 86.612 129.875 86.612 130.06 86.7968L131.908 87.9058C132.093 87.9058 132.093 88.0906 131.908 88.2754Z" fill="#150035"/>
<path d="M136.529 85.5039L134.68 86.6129C134.495 86.7977 134.126 86.7977 133.941 86.6129L132.093 85.5039C131.908 85.3191 131.908 85.1343 132.093 85.1343L133.941 84.0253C134.126 83.8405 134.495 83.8405 134.68 84.0253L136.529 85.1343C136.713 85.1343 136.713 85.5039 136.529 85.5039Z" fill="#150035"/>
<path d="M141.15 82.9161L139.301 84.025C139.117 84.2099 138.747 84.2099 138.562 84.025L136.714 82.9161C136.529 82.7312 136.529 82.5464 136.714 82.5464L138.562 81.4374C138.747 81.2526 139.117 81.2526 139.301 81.4374L141.15 82.5464C141.334 82.5464 141.334 82.7312 141.15 82.9161Z" fill="#150035"/>
<path d="M145.77 80.1426L143.921 81.2516C143.737 81.4364 143.367 81.4364 143.182 81.2516L141.334 80.1426C141.149 79.9578 141.149 79.773 141.334 79.773L143.182 78.664C143.367 78.4792 143.737 78.4792 143.921 78.664L145.77 79.773C145.955 79.9578 145.955 80.1426 145.77 80.1426Z" fill="#150035"/>
<path d="M80.8958 122.654L79.0475 123.763C78.8627 123.948 78.493 123.948 78.3082 123.763L76.4599 122.654C76.2751 122.47 76.2751 122.285 76.4599 122.285L78.3082 121.176C78.493 120.991 78.8627 120.991 79.0475 121.176L80.8958 122.285C81.0806 122.285 81.0806 122.47 80.8958 122.654Z" fill="#150035"/>
<path d="M85.5169 120.066L83.6686 121.175C83.4838 121.36 83.1141 121.36 82.9293 121.175L81.081 120.066C80.8962 119.882 80.8962 119.697 81.081 119.697L82.9293 118.588C83.1141 118.403 83.4838 118.403 83.6686 118.588L85.5169 119.697C85.7017 119.697 85.7017 119.882 85.5169 120.066Z" fill="#150035"/>
<path d="M90.138 117.293L88.2897 118.402C88.1049 118.587 87.7352 118.587 87.5504 118.402L85.7021 117.293C85.5173 117.108 85.5173 116.923 85.7021 116.923L87.5504 115.814C87.7352 115.63 88.1049 115.63 88.2897 115.814L90.138 116.923C90.3228 117.108 90.3228 117.293 90.138 117.293Z" fill="#150035"/>
<path d="M94.7581 114.705L92.9098 115.814C92.725 115.999 92.3553 115.999 92.1705 115.814L90.3222 114.705C90.1374 114.52 90.1374 114.335 90.3222 114.335L92.1705 113.227C92.3553 113.042 92.725 113.042 92.9098 113.227L94.7581 114.335C94.9429 114.335 94.9429 114.52 94.7581 114.705Z" fill="#150035"/>
<path d="M99.3792 111.934L97.5309 113.043C97.3461 113.227 96.9764 113.227 96.7916 113.043L94.9433 111.934C94.7585 111.749 94.7585 111.564 94.9433 111.564L96.7916 110.455C96.9764 110.27 97.3461 110.27 97.5309 110.455L99.3792 111.564C99.564 111.749 99.564 111.934 99.3792 111.934Z" fill="#150035"/>
<path d="M103.999 109.346L102.151 110.455C101.966 110.64 101.597 110.64 101.412 110.455L99.5634 109.346C99.3786 109.161 99.3786 108.976 99.5634 108.976L101.412 107.867C101.597 107.682 101.966 107.682 102.151 107.867L103.999 108.976C104.184 108.976 104.184 109.161 103.999 109.346Z" fill="#150035"/>
<path d="M108.62 106.758L106.772 107.867C106.587 108.052 106.218 108.052 106.033 107.867L104.185 106.758C104 106.573 104 106.388 104.185 106.388L106.033 105.279C106.218 105.094 106.587 105.094 106.772 105.279L108.62 106.388C108.805 106.388 108.805 106.573 108.62 106.758Z" fill="#150035"/>
<path d="M113.24 103.986L111.392 105.095C111.207 105.28 110.838 105.28 110.653 105.095L108.805 103.986C108.62 103.802 108.62 103.617 108.805 103.617L110.653 102.508C110.838 102.323 111.207 102.323 111.392 102.508L113.24 103.617C113.425 103.802 113.425 103.986 113.24 103.986Z" fill="#150035"/>
<path d="M117.862 101.398L116.013 102.507C115.829 102.692 115.459 102.692 115.274 102.507L113.426 101.398C113.241 101.214 113.241 101.029 113.426 101.029L115.274 99.9199C115.459 99.735 115.829 99.735 116.013 99.9199L117.862 101.029C118.046 101.029 118.046 101.214 117.862 101.398Z" fill="#150035"/>
<path d="M122.482 98.627L120.633 99.736C120.449 99.9208 120.079 99.9208 119.894 99.736L118.046 98.627C117.861 98.4422 117.861 98.2574 118.046 98.2574L119.894 97.1484C120.079 96.9636 120.449 96.9636 120.633 97.1484L122.482 98.2574C122.667 98.4422 122.667 98.627 122.482 98.627Z" fill="#150035"/>
<path d="M127.103 96.0391L125.255 97.148C125.07 97.3329 124.7 97.3329 124.515 97.148L122.667 96.0391C122.482 95.8543 122.482 95.6694 122.667 95.6694L124.515 94.5605C124.7 94.3757 125.07 94.3757 125.255 94.5605L127.103 95.6694C127.103 95.6694 127.288 95.8543 127.103 96.0391Z" fill="#150035"/>
<path d="M131.723 93.4512L129.875 94.5602C129.69 94.745 129.32 94.745 129.135 94.5602L127.287 93.4512C127.102 93.2664 127.102 93.0816 127.287 93.0816L129.135 91.9726C129.32 91.7878 129.69 91.7878 129.875 91.9726L131.723 93.0816C131.723 93.0816 131.908 93.2664 131.723 93.4512Z" fill="#150035"/>
<path d="M136.159 90.6778L134.311 91.7867C134.126 91.9716 133.757 91.9716 133.572 91.7867L131.724 90.6778C131.539 90.493 131.539 90.3081 131.724 90.3081L133.572 89.1992C133.757 89.0143 134.126 89.0143 134.311 89.1992L136.159 90.3081C136.344 90.493 136.529 90.6778 136.159 90.6778Z" fill="#150035"/>
<path d="M140.78 88.0918L138.931 89.2008C138.746 89.3856 138.377 89.3856 138.192 89.2008L136.344 88.0918C136.159 87.907 136.159 87.7222 136.344 87.7222L138.192 86.6132C138.377 86.4284 138.746 86.4284 138.931 86.6132L140.78 87.7222C140.964 87.7222 140.964 87.907 140.78 88.0918Z" fill="#150035"/>
<path d="M145.401 85.3184L143.552 86.4273C143.368 86.6122 142.998 86.6122 142.813 86.4273L140.965 85.3184C140.78 85.1336 140.78 84.9488 140.965 84.9488L142.813 83.8398C142.998 83.655 143.368 83.655 143.552 83.8398L145.401 84.9488C145.585 85.1336 145.585 85.3184 145.401 85.3184Z" fill="#150035"/>
<path d="M150.021 82.7305L148.172 83.8394C147.988 84.0243 147.618 84.0243 147.433 83.8394L145.585 82.7305C145.4 82.5457 145.4 82.3608 145.585 82.3608L147.433 81.2519C147.618 81.0671 147.988 81.0671 148.172 81.2519L150.021 82.3608C150.206 82.3608 150.206 82.5457 150.021 82.7305Z" fill="#150035"/>
<path d="M154.827 74.9688L152.979 76.0778C152.794 76.2626 152.425 76.2626 152.24 76.0778L150.392 74.9688C150.207 74.784 150.207 74.5991 150.392 74.5991L152.24 73.4902C152.425 73.3054 152.794 73.3054 152.979 73.4902L154.827 74.5991C155.012 74.5991 155.012 74.784 154.827 74.9688Z" fill="#150035"/>
<path d="M150.206 77.5567L148.358 78.6656C148.173 78.8504 147.804 78.8504 147.619 78.6656L145.77 77.5567C145.586 77.3719 145.586 77.187 145.77 77.187L147.619 76.0781C147.804 75.8932 148.173 75.8932 148.358 76.0781L150.206 77.187C150.391 77.187 150.576 77.3719 150.206 77.5567Z" fill="#150035"/>
<path d="M159.448 72.1954L157.599 73.3043C157.414 73.4891 157.045 73.4891 156.86 73.3043L155.012 72.1954C154.827 72.0105 154.827 71.8257 155.012 71.8257L156.86 70.7167C157.045 70.5319 157.414 70.5319 157.599 70.7167L159.448 71.8257C159.632 72.0105 159.632 72.1954 159.448 72.1954Z" fill="#150035"/>
<path d="M164.069 69.6075L162.22 70.7164C162.036 70.9012 161.666 70.9012 161.481 70.7164L159.633 69.6075C159.448 69.4226 159.448 69.2378 159.633 69.2378L161.481 68.1289C161.666 67.944 162.036 67.944 162.22 68.1289L164.069 69.2378C164.253 69.2378 164.253 69.4226 164.069 69.6075Z" fill="#150035"/>
<path d="M168.689 66.836L166.84 67.9449C166.656 68.1298 166.286 68.1298 166.101 67.9449L164.253 66.836C164.068 66.6512 164.068 66.4663 164.253 66.4663L166.101 65.3574C166.286 65.1725 166.656 65.1725 166.84 65.3574L168.689 66.4663C168.874 66.6511 168.874 66.836 168.689 66.836Z" fill="#150035"/>
<path d="M173.31 64.2481L171.462 65.357C171.277 65.5419 170.907 65.5419 170.722 65.357L168.874 64.2481C168.689 64.0633 168.689 63.8784 168.874 63.8784L170.722 62.7695C170.907 62.5847 171.277 62.5847 171.462 62.7695L173.31 63.8784C173.495 63.8784 173.495 64.0633 173.31 64.2481Z" fill="#150035"/>
<path d="M159.263 77.3711L157.415 78.4801C157.23 78.6649 156.86 78.6649 156.675 78.4801L154.827 77.3711C154.642 77.1863 154.642 77.0015 154.827 77.0015L156.675 75.8925C156.86 75.7077 157.23 75.7077 157.415 75.8925L159.263 77.0015C159.448 77.1863 159.448 77.3711 159.263 77.3711Z" fill="#150035"/>
<path d="M154.642 80.1426L152.794 81.2516C152.609 81.4364 152.239 81.4364 152.054 81.2516L150.206 80.1426C150.021 79.9578 150.021 79.773 150.206 79.773L152.054 78.664C152.239 78.4792 152.609 78.4792 152.794 78.664L154.642 79.773C154.827 79.773 154.827 79.9578 154.642 80.1426Z" fill="#150035"/>
<path d="M163.883 74.7832L162.035 75.8922C161.85 76.077 161.48 76.077 161.295 75.8922L159.447 74.7832C159.262 74.5984 159.262 74.4136 159.447 74.4136L161.295 73.3046C161.48 73.1198 161.85 73.1198 162.035 73.3046L163.883 74.4136C164.068 74.4136 164.068 74.5984 163.883 74.7832Z" fill="#150035"/>
<path d="M168.504 72.0118L166.656 73.1207C166.471 73.3055 166.101 73.3055 165.917 73.1207L164.068 72.0118C163.883 71.8269 163.883 71.6421 164.068 71.6421L165.917 70.5332C166.101 70.3483 166.471 70.3483 166.656 70.5332L168.504 71.6421C168.689 71.8269 168.689 72.0118 168.504 72.0118Z" fill="#150035"/>
<path d="M173.124 69.4239L171.276 70.5328C171.091 70.7176 170.722 70.7176 170.537 70.5328L168.688 69.4239C168.504 69.239 168.504 69.0542 168.688 69.0542L170.537 67.9453C170.722 67.7604 171.091 67.7604 171.276 67.9453L173.124 69.0542C173.309 69.0542 173.309 69.239 173.124 69.4239Z" fill="#150035"/>
<path d="M177.93 61.6602L176.082 62.7692C175.897 62.954 175.527 62.954 175.342 62.7692L173.494 61.6602C173.309 61.4754 173.309 61.2906 173.494 61.2906L175.342 60.1816C175.527 59.9968 175.897 59.9968 176.082 60.1816L177.93 61.2906C178.115 61.2906 178.115 61.4754 177.93 61.6602Z" fill="#150035"/>
<path d="M182.551 58.8887L180.703 59.9977C180.518 60.1825 180.148 60.1825 179.963 59.9977L178.115 58.8887C177.93 58.7039 177.93 58.5191 178.115 58.5191L179.963 57.4101C180.148 57.2253 180.518 57.2253 180.703 57.4101L182.551 58.5191C182.736 58.7039 182.736 58.8887 182.551 58.8887Z" fill="#150035"/>
<path d="M187.171 56.3008L185.323 57.4098C185.138 57.5946 184.768 57.5946 184.584 57.4098L182.735 56.3008C182.55 56.116 182.55 55.9312 182.735 55.9312L184.584 54.8222C184.768 54.6374 185.138 54.6374 185.323 54.8222L187.171 55.9312C187.356 55.9312 187.356 56.116 187.171 56.3008Z" fill="#150035"/>
<path d="M177.745 66.836L175.897 67.9449C175.712 68.1298 175.343 68.1298 175.158 67.9449L173.31 66.836C173.125 66.6512 173.125 66.4663 173.31 66.4663L175.158 65.3574C175.343 65.1725 175.712 65.1725 175.897 65.3574L177.745 66.4663C177.93 66.4663 177.93 66.6512 177.745 66.836Z" fill="#150035"/>
<path d="M182.366 64.0645L180.518 65.1734C180.333 65.3583 179.964 65.3583 179.779 65.1734L177.931 64.0645C177.746 63.8797 177.746 63.6948 177.931 63.6948L179.779 62.5859C179.964 62.4011 180.333 62.4011 180.518 62.5859L182.366 63.6948C182.551 63.8797 182.551 64.0645 182.366 64.0645Z" fill="#150035"/>
<path d="M186.987 61.4766L185.138 62.5856C184.953 62.7704 184.584 62.7704 184.399 62.5856L182.551 61.4766C182.366 61.2918 182.366 61.1069 182.551 61.1069L184.399 59.998C184.584 59.8132 184.953 59.8132 185.138 59.998L186.987 61.1069C187.171 61.1069 187.171 61.2918 186.987 61.4766Z" fill="#150035"/>
<path d="M183.105 51.6804L79.7871 111.379C76.8299 113.043 71.6548 112.858 68.3279 110.825L5.30238 74.2292C1.97552 72.1961 1.05139 64.6182 4.0086 62.9548L107.881 7.87673C110.838 6.21329 116.013 6.39811 119.34 8.43119L183.844 41.1454C187.171 42.9936 186.062 49.8322 183.105 51.6804Z" fill="#150035"/>
<path d="M74.797 113.411C72.3942 113.411 69.8067 112.857 67.7736 111.563L4.74801 74.9675C2.34527 73.4888 1.23633 69.9772 1.23633 67.2048C1.23633 64.6172 2.16045 62.769 3.45423 62.0296L107.326 6.95159C110.653 5.10333 116.013 5.28815 119.894 7.50605L184.214 40.2202C185.877 41.1443 186.801 43.1774 186.801 45.5802C186.801 48.5374 185.508 51.4946 183.475 52.6035L80.1569 112.302C78.8631 113.042 76.83 113.411 74.797 113.411ZM112.871 7.69089C111.208 7.69089 109.544 8.06054 108.435 8.61502L4.56317 63.6931C3.82387 64.0627 3.26939 65.5413 3.26939 67.2048C3.26939 69.7923 4.37837 72.3799 5.85697 73.304L68.8826 109.9C72.0246 111.748 76.83 111.933 79.4176 110.454L182.735 50.7553C184.029 50.016 184.953 47.7981 184.953 45.3953C184.953 43.7319 184.399 42.2533 183.29 41.6988L118.97 8.98467C117.122 8.24536 114.904 7.69089 112.871 7.69089Z" fill="#150035"/>
<path d="M183.104 46.6902L79.7868 106.389C76.8296 108.052 71.6545 107.867 68.3276 105.834L5.30206 69.2389C1.9752 67.2058 1.42071 64.2486 4.56275 62.5852L107.88 2.88649C110.838 1.22305 116.013 1.40789 119.34 3.44097L182.365 40.0365C185.692 41.8847 186.062 45.0268 183.104 46.6902Z" fill="#39A1FF"/>
<path d="M74.7967 108.421C72.394 108.421 69.8064 107.867 67.7733 106.573L4.74777 69.9772C2.71468 68.6834 1.4209 67.02 1.4209 65.3566C1.4209 63.878 2.34503 62.5842 3.82364 61.6601L107.141 1.96134C110.468 0.113088 115.828 0.297919 119.709 2.51583L182.735 39.1113C184.768 40.4051 186.062 42.0685 186.062 43.732C186.062 45.2106 185.138 46.5044 183.659 47.4285L80.3415 107.127C78.8629 108.051 76.8298 108.421 74.7967 108.421ZM112.871 2.70065C111.207 2.70065 109.544 3.0703 108.435 3.62478L5.11741 63.3235C4.37811 63.6931 3.6388 64.4324 3.6388 65.3566C3.6388 66.2807 4.56294 67.3897 6.04154 68.3138L69.0671 104.909C72.2091 106.758 77.0146 106.942 79.6022 105.464L182.92 45.7651C183.659 45.3954 184.398 44.6561 184.398 43.732C184.398 42.8078 183.474 41.6989 181.996 40.7747L118.97 4.17926C117.122 3.25513 114.904 2.70065 112.871 2.70065Z" fill="#150035"/>
<path d="M182.366 40.035L119.34 3.43945C119.34 3.43945 119.34 3.43945 119.155 3.43945L177.191 37.2626C180.518 39.2957 181.072 42.2529 177.93 43.9163L74.6125 103.615C71.6553 105.278 66.665 105.094 63.1533 103.245L68.1436 106.203C71.4704 108.236 76.6456 108.42 79.6028 106.757L182.92 47.0583C186.247 45.0252 185.878 41.8832 182.366 40.035Z" fill="#150035"/>
<path d="M74.7965 108.236C72.3938 108.236 69.9911 107.681 67.958 106.573L68.6973 105.279C71.8393 107.127 76.8296 107.312 79.4172 105.833L182.735 46.1345C184.213 45.2104 184.768 44.1014 184.029 42.8077L185.322 42.0684C186.246 44.1014 185.507 45.9497 183.289 47.2435L80.3413 106.942C78.8627 107.866 76.8296 108.236 74.7965 108.236Z" fill="#39A1FF"/>
<path d="M78.3084 85.2706C77.9387 85.4554 77.9387 85.6402 77.9387 86.0099C77.9387 86.1947 78.3084 86.5644 78.6781 86.7492C79.6022 87.3037 80.3415 87.3036 81.0808 86.934C81.4504 86.7492 81.6353 86.5643 82.0049 86.1947L82.7442 86.5643C82.5594 86.7492 82.1897 87.1188 81.8201 87.3036C81.2656 87.6733 80.5263 87.8581 79.9718 87.8581C79.2325 87.8581 78.678 87.6733 77.9387 87.3036C77.5691 87.1188 77.1994 86.7492 77.0146 86.5643C76.8298 86.3795 76.8298 86.0099 77.0146 85.8251C77.1994 85.6402 77.3843 85.2706 77.7539 85.0857C78.1236 84.9009 78.6781 84.7161 79.2325 84.5312L79.6022 85.0857C79.4174 85.0857 79.2325 85.2706 78.8629 85.2706C78.678 85.0857 78.4932 85.0857 78.3084 85.2706Z" fill="white"/>
<path d="M86.2559 84.7167L84.9622 84.347L83.4835 85.2712L84.2229 86.0105L83.2988 86.5649L80.5264 83.2381L81.6353 82.6836L87.18 84.1622L86.2559 84.7167ZM84.038 83.9774C82.9291 83.6077 82.1898 83.4229 82.005 83.4229C81.8201 83.4229 81.8201 83.4229 81.6353 83.2381C81.8201 83.4229 82.1898 83.7925 82.9291 84.5319L84.038 83.9774Z" fill="white"/>
<path d="M86.9949 82.3136L88.6583 83.2377L87.7342 83.7922L83.668 81.3895L84.9618 80.6502C85.5162 80.2805 86.0707 80.0957 86.4404 80.0957C86.9948 80.0957 87.3645 80.0957 87.7342 80.4653C87.919 80.6502 88.1038 80.835 88.1038 81.0198C88.1038 81.2047 88.1038 81.3895 87.919 81.5743C89.3976 81.7591 90.5065 81.944 90.8762 81.944L89.952 82.4984L87.3645 82.1288L86.9949 82.3136ZM86.2555 81.944L86.6252 81.7591C86.9948 81.5743 86.9948 81.3895 87.1796 81.3895C87.1796 81.2047 87.1797 81.2047 86.9949 81.0198C86.81 80.835 86.6252 80.835 86.4404 80.835C86.2555 80.835 85.8859 81.0198 85.7011 81.2047L85.5162 81.3895L86.2555 81.944Z" fill="white"/>
<path d="M92.9097 78.4324C93.649 78.8021 93.8339 79.1717 93.8339 79.7262C93.8339 80.0958 93.4642 80.6503 92.7249 81.02L91.616 81.7593L87.5498 79.3565L88.8436 78.6172C89.5829 78.2476 90.1373 78.0627 90.8766 78.0627C91.4311 77.8779 92.1704 78.0628 92.9097 78.4324ZM91.9856 78.9869C91.0615 78.4324 90.3222 78.4324 89.3981 78.9869L88.8436 79.1717L91.616 80.6503L91.9856 80.4655C92.9097 79.911 92.9097 79.5413 91.9856 78.9869Z" fill="white"/>
<path d="M100.673 76.2152L99.7485 76.7697L97.9002 75.6608L96.2368 76.5849L98.085 77.6938L97.1609 78.2483L93.0947 75.8456L94.0189 75.2911L95.6823 76.2152L97.3457 75.2911L95.6823 74.367L96.6064 73.8125L100.673 76.2152Z" fill="white"/>
<path d="M103.444 72.3338C104.184 72.7034 104.553 73.0731 104.553 73.6276C104.553 73.9972 104.369 74.3669 103.629 74.7365C103.075 75.1062 102.335 75.291 101.596 75.291C100.857 75.291 100.118 75.1062 99.5631 74.7365C98.8238 74.3669 98.4541 73.9972 98.4541 73.4427C98.4541 73.0731 98.8238 72.7034 99.3782 72.3338C99.9327 71.9641 100.672 71.7793 101.411 71.7793C101.966 71.7793 102.705 71.9641 103.444 72.3338ZM100.302 73.9972C100.672 74.182 101.227 74.3668 101.596 74.3668C101.966 74.3668 102.335 74.3669 102.705 74.182C103.444 73.8124 103.26 73.2579 102.335 72.7034C101.411 72.1489 100.672 72.1489 99.9327 72.5186C99.5631 72.7034 99.3782 72.8883 99.5631 73.2579C99.5631 73.6276 99.9327 73.8124 100.302 73.9972Z" fill="white"/>
<path d="M106.402 73.0724L102.336 70.6697L103.26 70.1152L106.587 72.1483L108.25 71.2242L108.99 71.5938L106.402 73.0724Z" fill="white"/>
<path d="M110.837 67.8972C111.577 68.2669 111.762 68.6366 111.762 69.191C111.762 69.5607 111.392 70.1152 110.653 70.4848L109.544 71.2241L105.478 68.8214L106.771 68.0821C107.511 67.7124 108.065 67.5276 108.804 67.5276C109.544 67.3428 110.283 67.5276 110.837 67.8972ZM110.098 68.4517C109.174 67.8972 108.435 67.8972 107.511 68.4517L106.956 68.6366L109.729 70.1152L110.098 69.9303C111.022 69.5607 110.837 69.0062 110.098 68.4517Z" fill="white"/>
<path d="M116.197 67.3422L113.795 68.636L109.729 66.2332L112.131 64.9395L112.871 65.3091L111.392 66.2332L112.316 66.7877L113.795 66.0484L114.534 66.4181L113.055 67.1574L114.164 67.7118L115.643 66.7877L116.197 67.3422Z" fill="white"/>
<path d="M116.383 65.3097L118.046 66.2338L117.122 66.7883L113.056 64.3856L114.349 63.6463C114.904 63.2766 115.458 63.0918 115.828 63.0918C116.383 63.0918 116.752 63.0918 117.122 63.4614C117.307 63.6463 117.492 63.8311 117.492 64.0159C117.492 64.2008 117.492 64.3856 117.307 64.5704C118.785 64.7552 119.894 64.9401 120.264 64.9401L119.34 65.4945L116.752 65.1249L116.383 65.3097ZM115.643 64.9401L116.013 64.7552C116.198 64.5704 116.383 64.3856 116.567 64.3856C116.567 64.2007 116.567 64.2008 116.383 64.0159C116.198 63.8311 116.013 63.8311 115.828 63.8311C115.643 63.8311 115.274 64.0159 115.089 64.2007L114.904 64.3856L115.643 64.9401Z" fill="white"/>
<path d="M7.15049 69.793H5.67188V74.7833H7.15049V69.793Z" fill="#39A1FF"/>
<path d="M179.224 49.0918H177.745V54.0821H179.224V49.0918Z" fill="#39A1FF"/>
<path d="M11.4015 72.3809H9.92285V77.3711H11.4015V72.3809Z" fill="#39A1FF"/>
<path d="M69.0675 105.094H67.5889V110.823H69.0675V105.094Z" fill="#39A1FF"/>
<path d="M129.875 61.291C131.354 62.4 130.06 64.0634 129.875 64.433C130.43 64.2482 133.202 63.6937 135.235 64.433C133.756 63.3241 135.05 61.6607 135.235 61.291C134.681 61.4758 131.908 62.2151 129.875 61.291C129.875 61.291 129.69 61.291 129.875 61.291Z" fill="#150035"/>
<path d="M137.453 56.8555C138.932 57.9644 137.638 59.6278 137.453 59.9975C138.008 59.8127 140.78 59.2582 142.813 59.9975C141.335 58.8885 142.628 57.2251 142.813 56.8555C142.443 57.0403 139.486 57.7796 137.453 56.8555Z" fill="#150035"/>
<path d="M145.216 52.4199C146.694 53.5289 145.401 55.1923 145.216 55.562C145.77 55.3771 148.543 54.8227 150.576 55.562C149.097 54.453 150.391 52.7896 150.576 52.4199C150.021 52.6047 147.249 53.3441 145.216 52.4199Z" fill="#150035"/>
<path d="M152.979 47.9824C154.457 49.0914 153.163 50.7548 152.979 51.1245C153.533 50.9396 156.305 50.3852 158.339 51.1245C156.86 50.0155 158.154 48.3521 158.339 47.9824C157.784 48.1672 155.012 48.7217 152.979 47.9824C152.979 47.9824 152.794 47.9824 152.979 47.9824Z" fill="#150035"/>
<path d="M160.557 43.5469C162.035 44.6558 160.741 46.3193 160.557 46.6889C161.111 46.5041 163.884 45.9496 165.917 46.6889C164.438 45.58 165.732 43.9165 165.917 43.5469C165.547 43.7317 162.59 44.2862 160.557 43.5469Z" fill="#150035"/>
<path d="M168.319 39.1113C169.798 40.2203 168.504 41.8837 168.319 42.2534C168.874 42.0685 171.646 41.5141 173.679 42.2534C172.201 41.1444 173.494 39.481 173.679 39.1113C173.125 39.2962 170.352 39.8506 168.319 39.1113Z" fill="#150035"/>
<path d="M129.69 52.4199C131.169 53.5289 129.875 55.1923 129.69 55.562C130.245 55.3771 133.017 54.8227 135.05 55.562C133.572 54.453 134.866 52.7896 135.05 52.4199C134.681 52.6047 131.724 53.1592 129.69 52.4199Z" fill="#150035"/>
<path d="M137.453 47.9824C138.932 49.0914 137.638 50.7548 137.453 51.1245C138.008 50.9396 140.78 50.3852 142.813 51.1245C141.335 50.0155 142.628 48.3521 142.813 47.9824C142.259 48.1672 139.486 48.7217 137.453 47.9824Z" fill="#150035"/>
<path d="M145.216 43.5469C146.694 44.6558 145.401 46.3193 145.216 46.6889C145.77 46.5041 148.543 45.9496 150.576 46.6889C149.097 45.58 150.391 43.9165 150.576 43.5469C150.021 43.7317 147.249 44.2862 145.216 43.5469Z" fill="#150035"/>
<path d="M152.794 39.1113C154.273 40.2203 152.979 41.8837 152.794 42.2534C153.348 42.0685 156.121 41.5141 158.154 42.2534C156.675 41.1444 157.969 39.481 158.154 39.1113C157.784 39.1113 154.827 39.8506 152.794 39.1113Z" fill="#150035"/>
<path d="M160.557 34.6758C162.035 35.7847 160.741 37.4482 160.557 37.8178C161.111 37.633 163.884 37.0785 165.917 37.8178C164.438 36.7089 165.732 35.0454 165.917 34.6758C165.547 34.6758 162.59 35.4151 160.557 34.6758Z" fill="#150035"/>
<path d="M113.723 21.5788L115.17 17.2822C118.394 18.2734 120.26 20.3918 119.522 22.5675C118.623 25.2354 114.146 26.9786 109.521 26.4582C104.9 25.9402 101.885 23.3534 102.784 20.6855C103.439 18.7477 105.977 17.2971 109.086 16.8522L110.005 14.1297C104.367 14.4178 99.498 16.8196 98.3605 20.1865C96.9922 24.2668 101.604 28.2182 108.668 29.0095C115.735 29.8032 122.573 27.1396 123.949 23.0642C125.161 19.4689 121.731 15.9763 116.056 14.6547C115.294 14.4764 114.491 14.3362 113.65 14.2412C112.996 14.1675 112.349 14.1224 111.702 14.1105L109.353 21.0869C109.118 21.7836 109.909 22.4588 111.116 22.5943C112.318 22.7273 113.488 22.2755 113.723 21.5788Z" fill="white"/>
<path d="M108.19 22.2844L113.94 22.9308C114.015 22.9403 114.085 22.9094 114.097 22.869L114.703 21.0688C114.719 21.0259 114.666 20.9855 114.596 20.9784L108.845 20.332C108.771 20.3224 108.701 20.3534 108.689 20.3938L108.083 22.194C108.071 22.2344 108.116 22.2749 108.19 22.2844Z" fill="white"/>
<path d="M109.013 23.8762C109.206 23.8976 109.4 23.824 109.437 23.7123L109.889 22.362C109.926 22.2503 109.798 22.1385 109.605 22.1171C109.411 22.0956 109.218 22.1693 109.181 22.281L108.729 23.6312C108.692 23.743 108.815 23.8524 109.013 23.8762Z" fill="white"/>
<path d="M110.784 23.3756C110.978 23.397 111.171 23.3234 111.208 23.2118L111.659 21.862C111.696 21.7503 111.569 21.6386 111.375 21.6171C111.182 21.5956 110.988 21.6692 110.951 21.7809L110.5 23.1306C110.459 23.2447 110.587 23.3517 110.784 23.3756Z" fill="white"/>
<path d="M112.139 24.2309C112.333 24.2523 112.527 24.1783 112.564 24.0664L113.021 22.7136C113.058 22.6017 112.93 22.4899 112.736 22.4686C112.543 22.4473 112.349 22.5212 112.311 22.6331L111.855 23.9859C111.814 24.1002 111.941 24.2073 112.139 24.2309Z" fill="white"/>
<path d="M111.341 20.7333L110.779 21.5475L111.29 21.6138L110.748 22.3542L112.028 21.4205L111.509 21.359L112.206 20.8422L111.341 20.7333Z" fill="#150035"/>
<path d="M51.0225 71.8789L54.2832 69.9965C56.457 68.7415 58.0108 67.9414 58.9445 67.5961C59.8856 67.2465 60.9433 67.1328 62.1177 67.255C63.2922 67.3687 64.6344 67.8614 66.1444 68.7331C67.5231 69.529 68.2782 70.1628 68.4095 70.6345C68.5408 71.1061 68.1505 71.6599 67.2387 72.2958C68.3766 71.9 69.2921 71.721 69.9851 71.7589C70.6781 71.7968 71.2216 71.8873 71.6155 72.0305C72.0094 72.1653 72.9212 72.6454 74.351 73.4708L79.0233 76.1681L74.7449 78.638L68.8581 75.2395C67.9098 74.692 67.2459 74.3972 66.8666 74.3551C66.4946 74.3088 65.9913 74.4688 65.3566 74.8352L73.3443 79.4465L68.7377 82.1059L51.0225 71.8789ZM58.66 70.9693L62.5992 73.2434C63.1171 72.9444 63.4089 72.6959 63.4746 72.498C63.5402 72.2916 63.1828 71.9631 62.4022 71.5125L61.4284 70.9503C60.8667 70.6261 60.3962 70.4723 60.0169 70.4892C59.6448 70.5018 59.1926 70.6619 58.66 70.9693Z" fill="#333333"/>
<path d="M64.223 64.2582L72.0247 59.7543L75.57 61.801L72.3749 63.6455L75.7341 65.5848L78.579 63.9424L81.9492 65.888L79.1043 67.5304L86.5449 71.8258L81.9383 74.4852L64.223 64.2582Z" fill="#333333"/>
<path d="M78.8789 55.7974L96.5941 66.0244L91.9875 68.6838L74.2722 58.4568L78.8789 55.7974Z" fill="#333333"/>
<path d="M81.8485 54.083L85.2953 52.0932C87.5202 50.8088 89.125 50.0002 90.1098 49.6675C91.1019 49.3306 92.0356 49.179 92.911 49.2127C93.7864 49.2464 94.5633 49.4001 95.2417 49.6738C95.9128 49.9434 97.0872 50.5624 98.765 51.531L104.969 55.1127C106.559 56.0307 107.548 56.6898 107.935 57.0898C108.321 57.4815 108.482 57.8731 108.416 58.2648C108.343 58.6522 108.095 59.0396 107.672 59.4271C107.242 59.8103 106.476 60.3199 105.374 60.9558L99.5638 64.31L81.8485 54.083ZM89.4861 53.1734L101.139 59.9008C101.803 59.5176 102.08 59.206 101.971 58.966C101.854 58.7217 101.205 58.2585 100.023 57.5762L93.1408 53.6029C92.3384 53.1397 91.7986 52.8575 91.5214 52.7565C91.2442 52.6554 90.9633 52.628 90.6788 52.6743C90.387 52.7165 89.9895 52.8828 89.4861 53.1734Z" fill="#333333"/>
</svg>
