<svg width="38" height="39" viewBox="0 0 38 39" fill="none" xmlns="http://www.w3.org/2000/svg">
<path d="M10.5625 14.8125C7.9375 14.8125 5.875 16.875 5.875 19.5C5.875 22.125 7.9375 24.1875 10.5625 24.1875C13.1875 24.1875 15.25 22.125 15.25 19.5C15.25 16.875 13.1875 14.8125 10.5625 14.8125ZM27.4375 14.8125C24.8125 14.8125 22.75 16.875 22.75 19.5C22.75 22.125 24.8125 24.1875 27.4375 24.1875C30.0625 24.1875 32.125 22.125 32.125 19.5C32.125 16.875 30.0625 14.8125 27.4375 14.8125ZM19 4.5C27.25 4.5 34 11.25 34 19.5C34 27.75 27.25 34.5 19 34.5C10.75 34.5 4 27.75 4 19.5C4 11.25 10.75 4.5 19 4.5ZM19 0.75C8.6875 0.75 0.25 9.1875 0.25 19.5C0.25 29.8125 8.6875 38.25 19 38.25C29.3125 38.25 37.75 29.8125 37.75 19.5C37.75 9.1875 29.3125 0.75 19 0.75ZM19 6.375C16.375 6.375 14.3125 8.4375 14.3125 11.0625C14.3125 13.6875 16.375 15.75 19 15.75C21.625 15.75 23.6875 13.6875 23.6875 11.0625C23.6875 8.4375 21.625 6.375 19 6.375ZM21.8125 11.0625C21.8125 11.4375 21.625 11.8125 21.4375 12.1875L20.3125 11.0625L21.4375 9.9375C21.625 10.3125 21.8125 10.6875 21.8125 11.0625ZM20.125 8.625L19 9.75L17.875 8.625C18.25 8.4375 18.625 8.25 19 8.25C19.375 8.25 19.75 8.4375 20.125 8.625ZM16.5625 12.1875C16.375 11.8125 16.1875 11.4375 16.1875 11.0625C16.1875 10.6875 16.375 10.3125 16.5625 9.9375L17.6875 11.0625L16.5625 12.1875ZM17.875 13.5L19 12.375L20.125 13.5C19.75 13.6875 19.375 13.875 19 13.875C18.625 13.875 18.25 13.6875 17.875 13.5ZM19 23.25C16.375 23.25 14.3125 25.3125 14.3125 27.9375C14.3125 30.5625 16.375 32.625 19 32.625C21.625 32.625 23.6875 30.5625 23.6875 27.9375C23.6875 25.3125 21.625 23.25 19 23.25ZM21.8125 27.9375C21.8125 28.3125 21.625 28.6875 21.4375 29.0625L20.3125 27.9375L21.4375 26.8125C21.625 27.1875 21.8125 27.5625 21.8125 27.9375ZM20.125 25.5L19 26.625L17.875 25.5C18.25 25.3125 18.625 25.125 19 25.125C19.375 25.125 19.75 25.3125 20.125 25.5ZM16.5625 29.0625C16.375 28.6875 16.1875 28.3125 16.1875 27.9375C16.1875 27.5625 16.375 27.1875 16.5625 26.8125L17.6875 27.9375L16.5625 29.0625ZM17.875 30.375L19 29.25L20.125 30.375C19.75 30.5625 19.375 30.75 19 30.75C18.625 30.75 18.25 30.5625 17.875 30.375Z" fill="#007AFF"/>
</svg>
