<svg width="38" height="43" viewBox="0 0 38 43" fill="none" xmlns="http://www.w3.org/2000/svg">
<path d="M10.5625 34.625C10.5625 36.125 9.25 37.4375 7.75 37.4375C6.25 37.4375 4.9375 36.125 4.9375 34.625C4.9375 33.125 6.25 31.8125 7.75 31.8125C9.25 31.8125 10.5625 33.125 10.5625 34.625ZM30.25 31.8125C28.75 31.8125 27.4375 33.125 27.4375 34.625C27.4375 36.125 28.75 37.4375 30.25 37.4375C31.75 37.4375 33.0625 36.125 33.0625 34.625C33.0625 33.125 31.75 31.8125 30.25 31.8125ZM30.25 27.125H29.6875C33.4375 24.125 35.875 19.25 35.875 14C35.875 8.75 33.4375 3.875 29.6875 0.875H8.3125C4.5625 3.875 2.125 8.75 2.125 14C2.125 19.25 4.5625 24.125 8.3125 27.125H7.75C3.625 27.125 0.25 30.5 0.25 34.625C0.25 38.75 3.625 42.125 7.75 42.125H30.25C34.375 42.125 37.75 38.75 37.75 34.625C37.75 30.5 34.375 27.125 30.25 27.125ZM5.875 14C5.875 10.4375 7.375 7.0625 9.8125 4.625H28.1875C30.625 7.0625 32.125 10.4375 32.125 14C32.125 21.3125 26.3125 27.125 19 27.125C11.6875 27.125 5.875 21.3125 5.875 14ZM30.25 38.375H7.75C5.6875 38.375 4 36.6875 4 34.625C4 32.5625 5.6875 30.875 7.75 30.875H30.25C32.3125 30.875 34 32.5625 34 34.625C34 36.6875 32.3125 38.375 30.25 38.375ZM20.6875 8.9375C20.6875 10.25 21.8125 11.375 23.125 11.375C24.4375 11.375 25.5625 10.25 25.5625 8.9375C25.5625 7.625 24.4375 6.5 22.9375 6.5C21.625 6.5 20.6875 7.625 20.6875 8.9375ZM12.625 8.9375C12.625 10.25 13.75 11.375 15.0625 11.375C16.375 11.375 17.5 10.25 17.5 8.9375C17.5 7.625 16.375 6.5 15.0625 6.5C13.5625 6.5 12.625 7.625 12.625 8.9375ZM10.9375 17.75C12.8125 17.75 14.125 16.25 14.125 14.5625C14.125 12.875 12.625 11.375 10.9375 11.375C9.25 11.375 7.75 12.6875 7.75 14.5625C7.75 16.25 9.25 17.75 10.9375 17.75ZM18.25 20.9375C18.25 19.25 16.75 17.75 15.0625 17.75C13.1875 17.75 11.875 19.25 11.875 20.9375C11.875 22.8125 13.375 24.125 15.0625 24.125C16.75 24.125 18.25 22.8125 18.25 20.9375ZM19 17.75C20.875 17.75 22.1875 16.25 22.1875 14.5625C22.1875 12.875 20.6875 11.375 19 11.375C17.3125 11.375 15.8125 12.875 15.8125 14.5625C15.8125 16.25 17.3125 17.75 19 17.75ZM26.3125 20.9375C26.3125 19.25 24.8125 17.75 23.125 17.75C21.25 17.75 19.9375 19.25 19.9375 20.9375C19.9375 22.8125 21.4375 24.125 23.125 24.125C24.8125 24.125 26.3125 22.8125 26.3125 20.9375ZM30.25 14.5625C30.25 12.875 28.75 11.375 27.0625 11.375C25.1875 11.375 23.875 12.875 23.875 14.5625C23.875 16.4375 25.375 17.75 27.0625 17.75C28.75 17.75 30.25 16.25 30.25 14.5625Z" fill="#2F80ED"/>
</svg>
