<svg width="38" height="35" viewBox="0 0 38 35" fill="none" xmlns="http://www.w3.org/2000/svg">
<path d="M28.9375 4.375C32.125 7.1875 34 11.125 34 15.625C34 23.875 27.25 30.625 19 30.625C10.75 30.625 4 23.875 4 15.625C4 11.125 6.0625 7.1875 9.0625 4.375H28.9375ZM30.25 0.625H7.75L6.625 1.5625C2.5 5.125 0.25 10.1875 0.25 15.625C0.25 25.9375 8.6875 34.375 19 34.375C29.3125 34.375 37.75 25.9375 37.75 15.625C37.75 10.1875 35.5 5.125 31.375 1.5625L30.25 0.625ZM20.875 9.0625C20.875 10.5625 22.1875 11.875 23.6875 11.875C25.1875 11.875 26.5 10.5625 26.5 9.0625C26.5 7.5625 25.1875 6.25 23.6875 6.25C22.1875 6.25 20.875 7.5625 20.875 9.0625ZM11.5 9.0625C11.5 10.5625 12.8125 11.875 14.3125 11.875C15.8125 11.875 17.125 10.5625 17.125 9.0625C17.125 7.5625 15.8125 6.25 14.3125 6.25C12.8125 6.25 11.5 7.5625 11.5 9.0625ZM9.625 19.375C11.6875 19.375 13.375 17.6875 13.375 15.625C13.375 13.5625 11.6875 11.875 9.625 11.875C7.5625 11.875 5.875 13.5625 5.875 15.625C5.875 17.6875 7.5625 19.375 9.625 19.375ZM18.0625 23.125C18.0625 21.0625 16.375 19.375 14.3125 19.375C12.25 19.375 10.5625 21.0625 10.5625 23.125C10.5625 25.1875 12.25 26.875 14.3125 26.875C16.375 26.875 18.0625 25.1875 18.0625 23.125ZM19 19.375C21.0625 19.375 22.75 17.6875 22.75 15.625C22.75 13.5625 21.0625 11.875 19 11.875C16.9375 11.875 15.25 13.5625 15.25 15.625C15.25 17.6875 16.9375 19.375 19 19.375ZM27.4375 23.125C27.4375 21.0625 25.75 19.375 23.6875 19.375C21.625 19.375 19.9375 21.0625 19.9375 23.125C19.9375 25.1875 21.625 26.875 23.6875 26.875C25.75 26.875 27.4375 25.1875 27.4375 23.125ZM32.125 15.625C32.125 13.5625 30.4375 11.875 28.375 11.875C26.3125 11.875 24.625 13.5625 24.625 15.625C24.625 17.6875 26.3125 19.375 28.375 19.375C30.4375 19.375 32.125 17.6875 32.125 15.625Z" fill="#007AFF"/>
</svg>
