<svg width="12" height="7" viewBox="0 0 12 7" fill="none" xmlns="http://www.w3.org/2000/svg">
<path opacity="0.355" d="M11.2327 1.84697L6.62904 6.45067C6.45651 6.62227 6.22306 6.71863 5.97972 6.71863C5.73638 6.71863 5.50293 6.62227 5.3304 6.45067L0.7267 1.84697C0.574762 1.67095 0.495029 1.44395 0.503548 1.21158C0.512068 0.979212 0.608175 0.758675 0.772595 0.594255C0.937014 0.429835 1.15758 0.333728 1.38995 0.325209C1.62232 0.316689 1.84926 0.396393 2.02528 0.548331L5.97685 4.49985L9.93791 0.548331C10.022 0.458137 10.1235 0.385812 10.2362 0.335658C10.3489 0.285504 10.4705 0.258566 10.5938 0.256425C10.7172 0.254284 10.8397 0.276977 10.954 0.323189C11.0684 0.369401 11.1723 0.438164 11.2595 0.525384C11.3467 0.612603 11.4155 0.716508 11.4617 0.830871C11.5079 0.945234 11.5306 1.06773 11.5285 1.19106C11.5263 1.31439 11.4994 1.43602 11.4492 1.54871C11.3991 1.6614 11.3267 1.76283 11.2365 1.84697H11.2327Z" fill="white"/>
</svg>
