<svg width="46" height="45" viewBox="0 0 46 45" fill="none" xmlns="http://www.w3.org/2000/svg">
<path d="M13.8305 26.0713C13.7994 25.9827 13.751 25.9012 13.6879 25.8316C13.6249 25.762 13.5486 25.7058 13.4635 25.6662C13.3783 25.6266 13.2861 25.6044 13.1923 25.601C13.0985 25.5976 13.0049 25.6131 12.9172 25.6464C12.8294 25.6798 12.7492 25.7303 12.6813 25.7952C12.6134 25.86 12.5592 25.9378 12.5218 26.0239C12.4845 26.11 12.4647 26.2028 12.4638 26.2967C12.4628 26.3905 12.4807 26.4837 12.5163 26.5705C13.262 28.5371 14.567 30.2425 16.2703 31.4762C16.345 31.5305 16.4297 31.5696 16.5195 31.5911C16.6093 31.6127 16.7024 31.6164 16.7936 31.602C16.8848 31.5875 16.9723 31.5553 17.0511 31.507C17.1298 31.4588 17.1983 31.3955 17.2526 31.3208C17.3069 31.2461 17.3459 31.1615 17.3675 31.0717C17.3891 30.9819 17.3928 30.8887 17.3783 30.7975C17.3639 30.7063 17.3316 30.6188 17.2834 30.5401C17.2352 30.4613 17.1719 30.3929 17.0972 30.3386C15.6152 29.2654 14.4797 27.782 13.8305 26.0713Z" fill="#1B1B1B"/>
<path d="M34.5341 27.8691C35.4661 27.8679 36.3597 27.4972 37.0188 26.8381C37.6778 26.1791 38.0486 25.2855 38.0497 24.3534V23.5863C38.0486 22.6543 37.6778 21.7607 37.0188 21.1016C36.3597 20.4426 35.4661 20.0718 34.5341 20.0707H34.051V18.9844C34.051 18.4249 33.8288 17.8884 33.4332 17.4928C33.0376 17.0972 32.5011 16.875 31.9417 16.875H10.7867C10.2273 16.875 9.69077 17.0972 9.29519 17.4928C8.8996 17.8884 8.67737 18.4249 8.67737 18.9844V23.9062C8.6809 27.0753 9.94138 30.1136 12.1823 32.3545C14.4231 34.5954 17.4614 35.8558 20.6305 35.8594H22.0979C24.571 35.855 26.982 35.0844 28.9992 33.6535C31.0163 32.2226 32.5405 30.2018 33.362 27.8691H34.5341ZM34.5341 21.477C35.0935 21.477 35.6301 21.6992 36.0256 22.0948C36.4212 22.4904 36.6435 23.0269 36.6435 23.5863V24.3534C36.6435 24.9129 36.4212 25.4494 36.0256 25.845C35.6301 26.2406 35.0935 26.4628 34.5341 26.4628H34.051V21.477H34.5341ZM22.0979 34.4531H20.6305C17.8343 34.45 15.1535 33.3378 13.1762 31.3605C11.199 29.3833 10.0868 26.7025 10.0836 23.9062V18.9844C10.0836 18.7979 10.1577 18.6191 10.2896 18.4872C10.4214 18.3553 10.6003 18.2812 10.7867 18.2812H31.9417C32.1281 18.2812 32.307 18.3553 32.4388 18.4872C32.5707 18.6191 32.6448 18.7979 32.6448 18.9844V23.9062C32.6418 26.7025 31.5297 29.3835 29.5524 31.3607C27.5751 33.338 24.8942 34.4501 22.0979 34.4531Z" fill="#1B1B1B"/>
<path d="M11.0585 37.2656C10.8721 37.2656 10.6932 37.3397 10.5613 37.4716C10.4295 37.6034 10.3554 37.7823 10.3554 37.9688C10.3554 38.1552 10.4295 38.3341 10.5613 38.4659C10.6932 38.5978 10.8721 38.6719 11.0585 38.6719H32.1523C32.3388 38.6719 32.5176 38.5978 32.6495 38.4659C32.7813 38.3341 32.8554 38.1552 32.8554 37.9688C32.8554 37.7823 32.7813 37.6034 32.6495 37.4716C32.5176 37.3397 32.3388 37.2656 32.1523 37.2656H11.0585Z" fill="#1B1B1B"/>
<path d="M15.7746 7.23712C15.6427 7.1053 15.4639 7.03125 15.2775 7.03125C15.091 7.03125 14.9122 7.1053 14.7804 7.23712C14.2762 7.74226 13.993 8.42679 13.993 9.14047C13.993 9.85416 14.2762 10.5387 14.7804 11.0438C15.0211 11.2852 15.1562 11.6121 15.1562 11.953C15.1562 12.2938 15.0211 12.6208 14.7804 12.8621L14.4288 13.2137C14.3616 13.2785 14.3081 13.3561 14.2712 13.4419C14.2344 13.5277 14.215 13.62 14.2142 13.7133C14.2134 13.8067 14.2311 13.8993 14.2665 13.9857C14.3019 14.0721 14.3541 14.1506 14.4201 14.2166C14.4861 14.2826 14.5646 14.3348 14.651 14.3702C14.7374 14.4055 14.83 14.4233 14.9234 14.4225C15.0167 14.4217 15.109 14.4023 15.1948 14.3655C15.2806 14.3286 15.3582 14.2751 15.423 14.2079L15.7746 13.8563C16.2787 13.3512 16.5619 12.6667 16.5619 11.953C16.5619 11.2393 16.2787 10.5548 15.7746 10.0496C15.5339 9.80828 15.3987 9.48133 15.3987 9.14047C15.3987 8.79962 15.5339 8.47267 15.7746 8.23133C15.9064 8.09948 15.9804 7.92067 15.9804 7.73422C15.9804 7.54778 15.9064 7.36897 15.7746 7.23712Z" fill="#1B1B1B"/>
<path d="M22.1024 8.23163C22.2305 8.09902 22.3013 7.92141 22.2997 7.73705C22.2981 7.5527 22.2242 7.37634 22.0938 7.24598C21.9635 7.11561 21.7871 7.04167 21.6028 7.04007C21.4184 7.03846 21.2408 7.10933 21.1082 7.23741C20.604 7.74256 20.3209 8.42709 20.3209 9.14077C20.3209 9.85446 20.604 10.539 21.1082 11.0441C21.3489 11.2855 21.4841 11.6124 21.4841 11.9533C21.4841 12.2941 21.3489 12.6211 21.1082 12.8624L20.7566 13.214C20.6895 13.2788 20.6359 13.3564 20.599 13.4422C20.5622 13.528 20.5428 13.6203 20.542 13.7136C20.5412 13.807 20.559 13.8996 20.5943 13.986C20.6297 14.0724 20.6819 14.1509 20.7479 14.2169C20.8139 14.2829 20.8924 14.3351 20.9788 14.3705C21.0652 14.4058 21.1578 14.4236 21.2512 14.4228C21.3446 14.422 21.4368 14.4026 21.5226 14.3658C21.6084 14.3289 21.686 14.2754 21.7508 14.2082L22.1024 13.8566C22.6066 13.3515 22.8897 12.667 22.8897 11.9533C22.8897 11.2396 22.6066 10.5551 22.1024 10.0499C21.8617 9.80857 21.7265 9.48163 21.7265 9.14077C21.7265 8.79992 21.8617 8.47297 22.1024 8.23163Z" fill="#1B1B1B"/>
<path d="M28.4306 7.23712C28.2987 7.1053 28.1199 7.03125 27.9335 7.03125C27.747 7.03125 27.5682 7.1053 27.4364 7.23712C26.9322 7.74226 26.649 8.42679 26.649 9.14047C26.649 9.85416 26.9322 10.5387 27.4364 11.0438C27.6771 11.2852 27.8122 11.6121 27.8122 11.953C27.8122 12.2938 27.6771 12.6208 27.4364 12.8621L27.0848 13.2137C27.0176 13.2785 26.9641 13.3561 26.9272 13.4419C26.8904 13.5277 26.871 13.62 26.8702 13.7133C26.8694 13.8067 26.8872 13.8993 26.9225 13.9857C26.9579 14.0721 27.0101 14.1506 27.0761 14.2166C27.1421 14.2826 27.2206 14.3348 27.307 14.3702C27.3934 14.4055 27.486 14.4233 27.5794 14.4225C27.6727 14.4217 27.765 14.4023 27.8508 14.3655C27.9366 14.3286 28.0142 14.2751 28.079 14.2079L28.4306 13.8563C28.9347 13.3512 29.2179 12.6667 29.2179 11.953C29.2179 11.2393 28.9347 10.5548 28.4306 10.0496C28.1899 9.80828 28.0547 9.48133 28.0547 9.14047C28.0547 8.79962 28.1899 8.47267 28.4306 8.23133C28.5624 8.09948 28.6364 7.92067 28.6364 7.73422C28.6364 7.54778 28.5624 7.36897 28.4306 7.23712Z" fill="#1B1B1B"/>
</svg>
