<svg width="46" height="45" viewBox="0 0 46 45" fill="none" xmlns="http://www.w3.org/2000/svg">
<path d="M37.0745 15H20.1995C19.6838 15 19.262 15.4219 19.262 15.9375V23.4375H8.01196V10.3125C8.01196 9.79688 7.59009 9.375 7.07446 9.375H4.26196C3.74634 9.375 3.32446 9.79688 3.32446 10.3125V34.6875C3.32446 35.2031 3.74634 35.625 4.26196 35.625H7.07446C7.59009 35.625 8.01196 35.2031 8.01196 34.6875V30H38.012V34.6875C38.012 35.2031 38.4338 35.625 38.9495 35.625H41.762C42.2776 35.625 42.6995 35.2031 42.6995 34.6875V20.625C42.6995 17.5219 40.1776 15 37.0745 15ZM19.262 28.125H7.07446C6.55884 28.125 6.13696 28.5469 6.13696 29.0625V33.75H5.19946V11.25H6.13696V24.375C6.13696 24.8906 6.55884 25.3125 7.07446 25.3125H19.262V28.125ZM40.8245 33.75H39.887V29.0625C39.887 28.5469 39.4651 28.125 38.9495 28.125H21.137V16.875H37.0745C39.1463 16.875 40.8245 18.5531 40.8245 20.625V33.75Z" fill="black"/>
<path d="M8.94946 17.8125C8.94946 20.4 11.0495 22.5 13.637 22.5C16.2245 22.5 18.3245 20.4 18.3245 17.8125C18.3245 15.225 16.2245 13.125 13.637 13.125C11.0495 13.125 8.94946 15.225 8.94946 17.8125ZM16.4495 17.8125C16.4495 19.3594 15.1838 20.625 13.637 20.625C12.0901 20.625 10.8245 19.3594 10.8245 17.8125C10.8245 16.2656 12.0901 15 13.637 15C15.1838 15 16.4495 16.2656 16.4495 17.8125Z" fill="black"/>
</svg>
