<svg width="46" height="45" viewBox="0 0 46 45" fill="none" xmlns="http://www.w3.org/2000/svg">
<path d="M20.9189 32.3091H14.01L11.5607 40.121C11.5607 40.121 11.5607 40.1211 11.5608 40.1211H34.4621C34.4621 40.1211 34.4621 40.121 34.4621 40.121L32.0129 32.3091H25.1253" stroke="#1B1B1B" stroke-width="1.2" stroke-miterlimit="10" stroke-linecap="round" stroke-linejoin="round"/>
<path d="M18.6262 14.8609C17.9491 14.8609 17.4001 15.4099 17.4001 16.0871V22.6509C17.4001 24.0562 18.5597 25.1953 19.9901 25.1953H26.0334C27.4638 25.1953 28.6233 24.0562 28.6233 22.6509V16.0871C28.6233 15.4099 28.0744 14.8609 27.3973 14.8609H18.6262Z" stroke="#1B1B1B" stroke-width="1.2" stroke-miterlimit="10" stroke-linecap="round" stroke-linejoin="round"/>
<path d="M20.4683 17.2222V13.3059C20.4683 11.9078 21.6067 10.7745 23.0111 10.7745C24.4153 10.7745 25.5537 11.9078 25.5537 13.3059V17.2222" stroke="#1B1B1B" stroke-width="1.2" stroke-miterlimit="10" stroke-linecap="round" stroke-linejoin="round"/>
<path d="M23.067 4.87923C15.7995 4.84936 9.85857 10.7399 9.85864 17.9751C9.85871 23.7417 13.6022 28.6376 18.8015 30.3856C19.5949 30.6522 20.2774 31.1727 20.7308 31.8736L23.0116 35.3999L25.292 31.8743C25.748 31.1692 26.4368 30.6503 27.2347 30.3812C32.4273 28.6295 36.1645 23.7368 36.1645 17.975C36.1645 10.7607 30.3057 4.90896 23.067 4.87923Z" stroke="#1B1B1B" stroke-width="1.2" stroke-miterlimit="10" stroke-linecap="round" stroke-linejoin="round"/>
</svg>
