<svg width="46" height="45" viewBox="0 0 46 45" fill="none" xmlns="http://www.w3.org/2000/svg">
<path d="M23.0107 12.1201C17.2874 12.1201 12.6311 16.7764 12.6311 22.4997C12.6311 28.2231 17.2874 32.8793 23.0107 32.8793C28.734 32.8793 33.3903 28.2231 33.3903 22.4997C33.3903 16.7764 28.734 12.1201 23.0107 12.1201ZM23.0107 31.4174C18.0935 31.4174 14.093 27.417 14.093 22.4997C14.093 17.5825 18.0935 13.582 23.0107 13.582C27.9279 13.582 31.9284 17.5825 31.9284 22.4997C31.9284 27.417 27.9279 31.4174 23.0107 31.4174Z" fill="black"/>
<path d="M41.3356 3.87297C41.0968 3.74623 40.8075 3.7615 40.5834 3.91281C36.995 6.33747 34.8527 10.3706 34.8527 14.7015V24.1858C34.8527 25.2031 35.2488 26.1595 35.9681 26.8788L37.3379 28.2486V39.0198C37.3379 40.2289 38.3216 41.2127 39.5308 41.2127C40.7399 41.2127 41.7237 40.2289 41.7237 39.0198V4.51856C41.7237 4.24817 41.5744 3.99987 41.3356 3.87297ZM40.2618 39.0198C40.2618 39.4228 39.9338 39.7507 39.5308 39.7507C39.1277 39.7507 38.7998 39.4228 38.7998 39.0198V27.9458C38.7998 27.7519 38.7228 27.566 38.5857 27.4289L37.0018 25.845C36.5586 25.4018 36.3146 24.8126 36.3146 24.1858V14.7015C36.3146 11.3405 37.7678 8.18175 40.2618 6.00218V39.0198Z" fill="black"/>
<path d="M21.3344 16.7029C21.1759 16.3317 20.7462 16.1592 20.3751 16.3176C17.8947 17.3765 16.292 19.8032 16.292 22.4999C16.292 22.9036 16.6192 23.2309 17.023 23.2309C17.4267 23.2309 17.7539 22.9036 17.7539 22.4999C17.7539 20.3897 19.0081 18.4908 20.9491 17.6622C21.3203 17.5038 21.4928 17.0742 21.3344 16.7029Z" fill="black"/>
<path d="M23.0107 15.7808L22.9738 15.7808C22.57 15.7835 22.245 16.113 22.2477 16.5167C22.2504 16.9187 22.5771 17.2428 22.9786 17.2428C22.9802 17.2428 22.9819 17.2428 22.9836 17.2428L23.0107 17.2427C23.4144 17.2427 23.7416 16.9154 23.7416 16.5117C23.7416 16.108 23.4144 15.7808 23.0107 15.7808Z" fill="black"/>
<path d="M33.144 12.8862C31.8526 11.5254 30.3303 10.4547 28.6195 9.70388C26.8479 8.92643 24.961 8.53223 23.0113 8.53223C20.7833 8.53223 18.6536 9.04141 16.6813 10.0457C16.3216 10.2289 16.1784 10.669 16.3616 11.0288C16.5448 11.3884 16.9849 11.5316 17.3447 11.3485C19.1096 10.4498 21.016 9.99414 23.0113 9.99414C26.4757 9.99414 29.6977 11.3786 32.0836 13.8926C32.2273 14.044 32.4204 14.1203 32.6139 14.1203C32.7946 14.1203 32.9756 14.0537 33.117 13.9195C33.4098 13.6416 33.4219 13.179 33.144 12.8862Z" fill="black"/>
<path d="M33.8532 30.1297C33.5365 29.8794 33.0769 29.9331 32.8265 30.2498C30.4368 33.2723 26.8591 35.0057 23.0108 35.0057C20.6023 35.0057 18.2642 34.3198 16.2493 33.022C15.9099 32.8034 15.4575 32.9014 15.2389 33.2407C15.0204 33.5802 15.1183 34.0325 15.4577 34.2511C17.7092 35.7011 20.3211 36.4675 23.0108 36.4675C27.3089 36.4675 31.3045 34.5317 33.9732 31.1564C34.2236 30.8398 34.1699 30.3801 33.8532 30.1297Z" fill="black"/>
<path d="M14.237 31.4118L14.2262 31.3995C14.2224 31.3947 14.2185 31.3899 14.2145 31.3852C13.9545 31.0763 13.4934 31.0369 13.1845 31.2968C12.8757 31.5569 12.8361 32.0179 13.0962 32.3268L13.1033 32.3352L13.1036 32.3349C13.1114 32.3447 13.1194 32.3545 13.1277 32.3641C13.2723 32.5325 13.4768 32.6189 13.6827 32.6189C13.8512 32.6189 14.0206 32.561 14.1585 32.4426C14.4647 32.1796 14.4999 31.7182 14.237 31.4118Z" fill="black"/>
<path d="M13.3631 3.7876C12.9594 3.7876 12.6321 4.11485 12.6321 4.51856V12.4129H11.3158C11.3159 12.4088 11.3164 12.4049 11.3164 12.4007V4.51856C11.3164 4.11485 10.9891 3.7876 10.5854 3.7876C10.1817 3.7876 9.85448 4.11485 9.85448 4.51856V12.4007C9.85448 12.4048 9.85506 12.4088 9.85506 12.4129H8.53817C8.53824 12.4088 8.53875 12.4049 8.53875 12.4007V4.51856C8.53875 4.11485 8.2115 3.7876 7.80779 3.7876C7.40409 3.7876 7.07684 4.11485 7.07684 4.51856V12.4007C7.07684 12.4048 7.07742 12.4088 7.07742 12.4129H5.76111V4.51856C5.76111 4.11485 5.43386 3.7876 5.03015 3.7876C4.62644 3.7876 4.29919 4.11485 4.29919 4.51856V13.4362C4.29919 15.2293 5.38715 16.8476 7.00374 17.5471V39.0198C7.00374 40.2289 7.98746 41.2127 9.19662 41.2127C10.4058 41.2127 11.3895 40.2289 11.3895 39.0198V17.5471C13.0061 16.8476 14.094 15.2293 14.094 13.4362V4.51856C14.094 4.11485 13.7668 3.7876 13.3631 3.7876ZM10.4556 16.3323C10.1429 16.4227 9.92757 16.709 9.92757 17.0345V39.0198C9.92757 39.4228 9.59967 39.7507 9.19662 39.7507C8.79356 39.7507 8.46566 39.4228 8.46566 39.0198V17.0345C8.46566 16.709 8.25039 16.4227 7.93761 16.3323C6.79856 16.0032 5.96541 15.0254 5.79415 13.8748H12.599C12.4278 15.0254 11.5947 16.0032 10.4556 16.3323Z" fill="black"/>
</svg>
