<svg width="20" height="20" viewBox="0 0 20 20" fill="none" xmlns="http://www.w3.org/2000/svg">
<path d="M0.625 19.0713V4.48796H4.79167V0.321289H15.2083V8.65462H19.375V19.0713H11.0417V14.9046H8.95833V19.0713H0.625ZM2.70833 16.988H4.79167V14.9046H2.70833V16.988ZM2.70833 12.8213H4.79167V10.738H2.70833V12.8213ZM2.70833 8.65462H4.79167V6.57129H2.70833V8.65462ZM6.875 12.8213H8.95833V10.738H6.875V12.8213ZM6.875 8.65462H8.95833V6.57129H6.875V8.65462ZM6.875 4.48796H8.95833V2.40462H6.875V4.48796ZM11.0417 12.8213H13.125V10.738H11.0417V12.8213ZM11.0417 8.65462H13.125V6.57129H11.0417V8.65462ZM11.0417 4.48796H13.125V2.40462H11.0417V4.48796ZM15.2083 16.988H17.2917V14.9046H15.2083V16.988ZM15.2083 12.8213H17.2917V10.738H15.2083V12.8213Z" fill="#13F2AD"/>
</svg>
