<svg width="24" height="22" viewBox="0 0 24 22" fill="none" xmlns="http://www.w3.org/2000/svg">
<path d="M3.66699 21.071V11.3054L1.79199 12.7377L0.541992 11.071L3.66699 8.67521V5.44605H5.75033V7.08667L12.0003 2.32105L23.4587 11.071L22.2087 12.7117L20.3337 11.3054V21.071H3.66699ZM5.75033 18.9877H10.9587V14.821H13.042V18.9877H18.2503V9.71688L12.0003 4.95125L5.75033 9.71688V18.9877ZM3.66699 4.40438C3.66699 3.53632 3.97081 2.79848 4.57845 2.19084C5.18609 1.5832 5.92394 1.27938 6.79199 1.27938C7.08713 1.27938 7.3347 1.17938 7.5347 0.97938C7.73401 0.780074 7.83366 0.532852 7.83366 0.237713H9.91699C9.91699 1.10577 9.61317 1.84362 9.00553 2.45125C8.39789 3.05889 7.66005 3.36271 6.79199 3.36271C6.49685 3.36271 6.24928 3.46237 6.04928 3.66167C5.84998 3.86167 5.75033 4.10924 5.75033 4.40438H3.66699Z" fill="#13F2AD"/>
</svg>
