<svg width="24" height="24" viewBox="0 0 24 24" fill="none" xmlns="http://www.w3.org/2000/svg">
<g clip-path="url(#clip0_782_22228)">
<path d="M8.06271 11.8107C10.7806 11.8107 12.9838 9.60749 12.9838 6.88956C12.9838 4.17163 10.7806 1.96844 8.06271 1.96844C5.34478 1.96844 3.1416 4.17163 3.1416 6.88956C3.1416 9.60749 5.34478 11.8107 8.06271 11.8107Z" stroke="#13F2AD" stroke-width="1.96844" stroke-linejoin="round"/>
<path d="M12.9835 7.48102C12.9904 7.48791 15.3077 10.4022 19.935 16.2229C20.0134 16.3172 20.0537 16.4375 20.0481 16.56C20.0424 16.6825 19.9912 16.7985 19.9045 16.8853L17.8947 18.895C17.808 18.9818 17.692 19.033 17.5695 19.0386C17.4469 19.0443 17.3267 19.0039 17.2324 18.9256L8.95898 11.8106M13.2148 12.0419L14.6069 13.4341" stroke="#13F2AD" stroke-width="1.96844" stroke-linecap="round" stroke-linejoin="round"/>
<path d="M8.55469 21.6952C9.49806 20.4659 10.6447 19.8512 11.9945 19.8512C14.0201 19.8512 16.4103 22.3955 18.4491 22.0456C20.4884 21.6952 21.072 19.6844 19.8171 18.5713" stroke="#13F2AD" stroke-width="1.96844" stroke-linecap="round" stroke-linejoin="round"/>
</g>
<defs>
<clipPath id="clip0_782_22228">
<rect width="23.6213" height="23.6213" fill="white" transform="translate(0.189453)"/>
</clipPath>
</defs>
</svg>
