<svg width="22" height="22" viewBox="0 0 22 22" fill="none" xmlns="http://www.w3.org/2000/svg">
<path d="M2.66634 21.113C2.09342 21.113 1.60315 20.9091 1.19551 20.5015C0.787175 20.0932 0.583008 19.6025 0.583008 19.0296V2.36296C0.583008 1.79004 0.787175 1.29941 1.19551 0.891081C1.60315 0.483442 2.09342 0.279623 2.66634 0.279623H19.333C19.9059 0.279623 20.3966 0.483442 20.8049 0.891081C21.2125 1.29941 21.4163 1.79004 21.4163 2.36296V19.0296C21.4163 19.6025 21.2125 20.0932 20.8049 20.5015C20.3966 20.9091 19.9059 21.113 19.333 21.113H2.66634ZM2.66634 19.0296H19.333V2.36296H2.66634V19.0296ZM7.87467 12.7796C7.57954 12.7796 7.33231 12.6796 7.13301 12.4796C6.93301 12.2803 6.83301 12.0331 6.83301 11.738C6.83301 11.4428 6.93301 11.1952 7.13301 10.9952C7.33231 10.7959 7.57954 10.6963 7.87467 10.6963C8.16981 10.6963 8.41738 10.7959 8.61738 10.9952C8.81669 11.1952 8.91634 11.4428 8.91634 11.738C8.91634 12.0331 8.81669 12.2803 8.61738 12.4796C8.41738 12.6796 8.16981 12.7796 7.87467 12.7796ZM14.1247 12.7796C13.8295 12.7796 13.5823 12.6796 13.383 12.4796C13.183 12.2803 13.083 12.0331 13.083 11.738C13.083 11.4428 13.183 11.1952 13.383 10.9952C13.5823 10.7959 13.8295 10.6963 14.1247 10.6963C14.4198 10.6963 14.6674 10.7959 14.8674 10.9952C15.0667 11.1952 15.1663 11.4428 15.1663 11.738C15.1663 12.0331 15.0667 12.2803 14.8674 12.4796C14.6674 12.6796 14.4198 12.7796 14.1247 12.7796ZM3.70801 9.75879V16.6338C3.70801 16.8768 3.78613 17.0765 3.94238 17.2327C4.09863 17.389 4.29829 17.4671 4.54134 17.4671H4.95801C5.20106 17.4671 5.40072 17.389 5.55697 17.2327C5.71322 17.0765 5.79134 16.8768 5.79134 16.6338V15.3838H16.208V16.6338C16.208 16.8768 16.2861 17.0765 16.4424 17.2327C16.5986 17.389 16.7983 17.4671 17.0413 17.4671H17.458C17.7011 17.4671 17.9007 17.389 18.057 17.2327C18.2132 17.0765 18.2913 16.8768 18.2913 16.6338V9.75879L16.5726 4.75879C16.4858 4.51573 16.3427 4.31608 16.1434 4.15983C15.9434 4.00358 15.7219 3.92546 15.4788 3.92546H6.52051C6.27745 3.92546 6.05592 4.00358 5.85592 4.15983C5.65662 4.31608 5.51356 4.51573 5.42676 4.75879L3.70801 9.75879ZM6.46842 8.09212L7.19759 6.00879H14.8018L15.5309 8.09212H6.46842ZM5.79134 13.3005V10.1755H16.208V13.3005H5.79134Z" fill="#13F2AD"/>
</svg>
