<svg width="22" height="20" viewBox="0 0 22 20" fill="none" xmlns="http://www.w3.org/2000/svg">
<path d="M20.401 8.70671V16.988C20.401 17.5609 20.1972 18.0515 19.7895 18.4598C19.3812 18.8675 18.8906 19.0713 18.3176 19.0713H3.73432C3.1614 19.0713 2.67112 18.8675 2.26348 18.4598C1.85515 18.0515 1.65098 17.5609 1.65098 16.988V8.70671C1.25168 8.34212 0.943692 7.87337 0.727025 7.30046C0.509664 6.72754 0.50515 6.10254 0.713483 5.42546L1.80723 1.88379C1.94612 1.4324 2.19369 1.05914 2.54994 0.763997C2.9055 0.468858 3.31765 0.321289 3.7864 0.321289H18.2656C18.7343 0.321289 19.1423 0.464345 19.4895 0.750456C19.8367 1.03726 20.0885 1.41504 20.2447 1.88379L21.3385 5.42546C21.5468 6.10254 21.5426 6.71886 21.326 7.27441C21.1086 7.82997 20.8003 8.3074 20.401 8.70671ZM13.3176 7.61296C13.7864 7.61296 14.1423 7.45219 14.3854 7.13066C14.6284 6.80983 14.7239 6.44976 14.6718 6.05046L14.0989 2.40462H12.0676V6.25879C12.0676 6.62337 12.1892 6.94039 12.4322 7.20983C12.6753 7.47858 12.9704 7.61296 13.3176 7.61296ZM8.63015 7.61296C9.02946 7.61296 9.35515 7.47858 9.60723 7.20983C9.85862 6.94039 9.98432 6.62337 9.98432 6.25879V2.40462H7.95307L7.38015 6.05046C7.31071 6.46712 7.40202 6.83171 7.65411 7.14421C7.9055 7.45671 8.23084 7.61296 8.63015 7.61296ZM3.99473 7.61296C4.30723 7.61296 4.5805 7.50011 4.81452 7.27441C5.04925 7.04872 5.19265 6.76226 5.24473 6.41504L5.81765 2.40462H3.7864L2.74473 5.89421C2.64057 6.24143 2.69682 6.61469 2.91348 7.014C3.13084 7.4133 3.49126 7.61296 3.99473 7.61296ZM18.0572 7.61296C18.5607 7.61296 18.9253 7.4133 19.151 7.014C19.3767 6.61469 19.4288 6.24143 19.3072 5.89421L18.2135 2.40462H16.2343L16.8072 6.41504C16.8593 6.76226 17.0027 7.04872 17.2374 7.27441C17.4715 7.50011 17.7447 7.61296 18.0572 7.61296ZM3.73432 16.988H18.3176V9.64421C18.2308 9.67893 18.1746 9.69629 18.1489 9.69629H18.0572C17.5885 9.69629 17.176 9.61816 16.8197 9.46191C16.4642 9.30566 16.1128 9.05393 15.7656 8.70671C15.4531 9.01921 15.0972 9.26226 14.6979 9.43587C14.2986 9.60948 13.8732 9.69629 13.4218 9.69629C12.9531 9.69629 12.5145 9.60948 12.1062 9.43587C11.6986 9.26226 11.3385 9.01921 11.026 8.70671C10.7308 9.01921 10.3881 9.26226 9.99786 9.43587C9.60689 9.60948 9.18571 9.69629 8.73432 9.69629C8.23084 9.69629 7.77494 9.60948 7.36661 9.43587C6.95897 9.26226 6.5989 9.01921 6.2864 8.70671C5.92182 9.07129 5.56175 9.32719 5.20619 9.47441C4.84994 9.62233 4.44612 9.69629 3.99473 9.69629H3.87807C3.83432 9.69629 3.7864 9.67893 3.73432 9.64421V16.988Z" fill="#13F2AD"/>
</svg>
