<svg width="20" height="20" viewBox="0 0 20 20" fill="none" xmlns="http://www.w3.org/2000/svg">
<path d="M1.725 4.65C1.55833 4.73333 1.39567 4.725 1.237 4.625C1.079 4.525 1 4.38333 1 4.2V1.8C1 1.61667 1.079 1.475 1.237 1.375C1.39567 1.275 1.55833 1.26667 1.725 1.35L4.1 2.55C4.18333 2.6 4.25 2.66667 4.3 2.75C4.35 2.83333 4.375 2.91667 4.375 3C4.375 3.08333 4.35 3.16667 4.3 3.25C4.25 3.33333 4.18333 3.4 4.1 3.45L1.725 4.65ZM16.725 4.65C16.5583 4.73333 16.396 4.725 16.238 4.625C16.0793 4.525 16 4.38333 16 4.2V1.8C16 1.61667 16.0793 1.475 16.238 1.375C16.396 1.275 16.5583 1.26667 16.725 1.35L19.1 2.55C19.1833 2.6 19.25 2.66667 19.3 2.75C19.35 2.83333 19.375 2.91667 19.375 3C19.375 3.08333 19.35 3.16667 19.3 3.25C19.25 3.33333 19.1833 3.4 19.1 3.45L16.725 4.65ZM9.725 3.65C9.55833 3.73333 9.396 3.725 9.238 3.625C9.07933 3.525 9 3.38333 9 3.2V0.800001C9 0.616667 9.07933 0.475001 9.238 0.375001C9.396 0.275001 9.55833 0.266667 9.725 0.350001L12.1 1.55C12.1833 1.6 12.25 1.66667 12.3 1.75C12.35 1.83333 12.375 1.91667 12.375 2C12.375 2.08333 12.35 2.16667 12.3 2.25C12.25 2.33333 12.1833 2.4 12.1 2.45L9.725 3.65ZM9 20C7.73333 19.9667 6.55433 19.8627 5.463 19.688C4.371 19.5127 3.421 19.2917 2.613 19.025C1.80433 18.7583 1.16667 18.45 0.7 18.1C0.233333 17.75 0 17.3833 0 17V8C0 7.58333 0.262667 7.19567 0.788 6.837C1.31267 6.479 2.025 6.16233 2.925 5.887C3.825 5.61233 4.88333 5.39567 6.1 5.237C7.31667 5.079 8.61667 5 10 5C11.3833 5 12.6833 5.079 13.9 5.237C15.1167 5.39567 16.175 5.61233 17.075 5.887C17.975 6.16233 18.6873 6.479 19.212 6.837C19.7373 7.19567 20 7.58333 20 8V17C20 17.3833 19.7667 17.75 19.3 18.1C18.8333 18.45 18.196 18.7583 17.388 19.025C16.5793 19.2917 15.6293 19.5127 14.538 19.688C13.446 19.8627 12.2667 19.9667 11 20V16H9V20ZM10 9C11.6167 9 13.0127 8.904 14.188 8.712C15.3627 8.52067 16.3 8.3 17 8.05C17 7.96667 16.3667 7.77067 15.1 7.462C13.8333 7.154 12.1333 7 10 7C7.86667 7 6.16667 7.154 4.9 7.462C3.63333 7.77067 3 7.96667 3 8.05C3.7 8.3 4.63767 8.52067 5.813 8.712C6.98767 8.904 8.38333 9 10 9ZM7 17.85V16C7 15.45 7.196 14.979 7.588 14.587C7.97933 14.1957 8.45 14 9 14H11C11.55 14 12.021 14.1957 12.413 14.587C12.8043 14.979 13 15.45 13 16V17.85C14.3333 17.7167 15.425 17.5207 16.275 17.262C17.125 17.004 17.7 16.775 18 16.575V9.8C17.0833 10.1667 15.9333 10.4583 14.55 10.675C13.1667 10.8917 11.65 11 10 11C8.35 11 6.83333 10.8917 5.45 10.675C4.06667 10.4583 2.91667 10.1667 2 9.8V16.575C2.3 16.775 2.875 17.004 3.725 17.262C4.575 17.5207 5.66667 17.7167 7 17.85Z" fill="#13F2AD"/>
</svg>
