<svg width="18" height="21" viewBox="0 0 18 21" fill="none" xmlns="http://www.w3.org/2000/svg">
<path d="M13 4.19604V10.196C13 11.296 13.9 12.196 15 12.196H16V19.196C16 19.746 16.45 20.196 17 20.196C17.55 20.196 18 19.746 18 19.196V1.32605C18 0.676045 17.39 0.196045 16.76 0.346045C14.6 0.876045 13 2.70604 13 4.19604ZM8 7.19604H6V1.19604C6 0.646045 5.55 0.196045 5 0.196045C4.45 0.196045 4 0.646045 4 1.19604V7.19604H2V1.19604C2 0.646045 1.55 0.196045 1 0.196045C0.45 0.196045 0 0.646045 0 1.19604V7.19604C0 9.40604 1.79 11.196 4 11.196V19.196C4 19.746 4.45 20.196 5 20.196C5.55 20.196 6 19.746 6 19.196V11.196C8.21 11.196 10 9.40604 10 7.19604V1.19604C10 0.646045 9.55 0.196045 9 0.196045C8.45 0.196045 8 0.646045 8 1.19604V7.19604Z" fill="#13F2AD"/>
</svg>
