<svg width="27" height="18" viewBox="0 0 27 18" fill="none" xmlns="http://www.w3.org/2000/svg">
<path d="M1.13812 9.65162C0.891093 10.1968 0.767578 10.7633 0.767578 11.351V12.271C0.767578 12.5947 0.810169 12.9056 0.895352 13.2037C0.980535 13.5019 1.10831 13.7787 1.27867 14.0343C1.44904 14.2898 1.65348 14.5198 1.89199 14.7242C2.1305 14.9287 2.39457 15.0991 2.68419 15.2353C2.81196 15.5335 2.97807 15.8018 3.1825 16.0403C3.38694 16.2788 3.62119 16.479 3.88526 16.6409C4.14933 16.8027 4.43043 16.9347 4.72857 17.037C5.02671 17.1392 5.34188 17.186 5.6741 17.1775C6.26186 17.1775 6.80702 17.0327 7.3096 16.7431C7.81218 16.4535 8.21254 16.0531 8.51068 15.542H17.5571C17.8552 16.0531 18.2556 16.4535 18.7581 16.7431C19.2607 17.0327 19.8059 17.1775 20.3936 17.1775C20.9814 17.1775 21.5266 17.0327 22.0292 16.7431C22.5317 16.4535 22.9321 16.0531 23.2302 15.542H25.3002C25.5302 15.542 25.7431 15.4994 25.939 15.4142C26.135 15.329 26.3053 15.214 26.4501 15.0692C26.5949 14.9244 26.7142 14.7498 26.8079 14.5454C26.9016 14.3409 26.9442 14.128 26.9357 13.9065V10.6355C26.9357 9.96254 26.8079 9.32793 26.5523 8.73165C26.2968 8.13537 25.9476 7.61576 25.5046 7.17281C25.0617 6.72986 24.542 6.37635 23.9458 6.11229C23.3495 5.84822 22.7106 5.72045 22.0292 5.72897H21.5564L17.3654 1.53798C17.1354 1.30799 16.8713 1.13337 16.5732 1.01411C16.2751 0.894854 15.9599 0.830967 15.6277 0.822449H4.03859V2.45795H4.40913L1.13812 9.65162ZM20.3936 15.542C20.1637 15.542 19.9507 15.4994 19.7548 15.4142C19.5589 15.329 19.3885 15.214 19.2437 15.0692C19.0989 14.9244 18.9796 14.7498 18.8859 14.5454C18.7922 14.3409 18.7496 14.128 18.7581 13.9065C18.7581 13.6765 18.8007 13.4635 18.8859 13.2676C18.9711 13.0717 19.0861 12.9013 19.2309 12.7565C19.3757 12.6117 19.5503 12.4925 19.7548 12.3988C19.9592 12.3051 20.1722 12.2625 20.3936 12.271C20.6236 12.271 20.8366 12.3136 21.0325 12.3988C21.2284 12.4839 21.3988 12.5989 21.5436 12.7438C21.6884 12.8886 21.8077 13.0632 21.9014 13.2676C21.9951 13.4721 22.0377 13.685 22.0292 13.9065C22.0292 14.1365 21.9866 14.3494 21.9014 14.5454C21.8162 14.7413 21.7012 14.9116 21.5564 15.0565C21.4116 15.2013 21.237 15.3205 21.0325 15.4142C20.8281 15.5079 20.6151 15.5505 20.3936 15.542ZM12.2161 2.45795H15.6277C15.8492 2.45795 16.0408 2.53888 16.2027 2.70072L19.2309 5.72897H12.2161V2.45795ZM10.5806 5.72897H4.71579L5.98075 2.93072C6.0489 2.78591 6.15112 2.67091 6.28741 2.58573C6.4237 2.50055 6.57277 2.45795 6.73462 2.45795H10.5806V5.72897ZM5.6741 15.542C5.4441 15.542 5.23115 15.4994 5.03523 15.4142C4.83931 15.329 4.66894 15.214 4.52413 15.0692C4.37932 14.9244 4.26006 14.7498 4.16636 14.5454C4.07266 14.3409 4.03007 14.128 4.03859 13.9065C4.03859 13.6765 4.08118 13.4635 4.16636 13.2676C4.25155 13.0717 4.36654 12.9013 4.51135 12.7565C4.65616 12.6117 4.83079 12.4925 5.03523 12.3988C5.23966 12.3051 5.45262 12.2625 5.6741 12.271C5.90409 12.271 6.11704 12.3136 6.31296 12.3988C6.50888 12.4839 6.67925 12.5989 6.82406 12.7438C6.96887 12.8886 7.08813 13.0632 7.18183 13.2676C7.27553 13.4721 7.31812 13.685 7.3096 13.9065C7.3096 14.1365 7.26701 14.3494 7.18183 14.5454C7.09664 14.7413 6.98165 14.9116 6.83684 15.0565C6.69203 15.2013 6.5174 15.3205 6.31296 15.4142C6.10853 15.5079 5.89557 15.5505 5.6741 15.542Z" fill="#13F2AD"/>
</svg>
