<svg width="104" height="206" viewBox="0 0 104 206" fill="none" xmlns="http://www.w3.org/2000/svg">
<path d="M61.536 206H58.536V209H61.536V206ZM103.584 206V209H106.584V206H103.584ZM103.584 0.431984H106.584V-2.56802H103.584V0.431984ZM71.464 0.431984V-2.56802H69L68.5212 -0.151024L71.464 0.431984ZM0.508 36.64V33.64H-2.492V36.64H0.508ZM0.508 65.84H-2.492V68.84H0.508V65.84ZM61.536 65.84H64.536V62.84H61.536V65.84ZM61.536 209H103.584V203H61.536V209ZM106.584 206V0.431984H100.584V206H106.584ZM103.584 -2.56802H71.464V3.43198H103.584V-2.56802ZM68.5212 -0.151024C65.6836 14.1723 56.7762 22.5335 46.0251 27.411C35.1558 32.3421 22.5028 33.64 12.772 33.64V39.64C22.8972 39.64 36.5242 38.3099 48.5039 32.875C60.6018 27.3865 71.1124 17.6437 74.4068 1.01499L68.5212 -0.151024ZM12.772 33.64H0.508V39.64H12.772V33.64ZM-2.492 36.64V65.84H3.508V36.64H-2.492ZM0.508 68.84H61.536V62.84H0.508V68.84ZM58.536 65.84V206H64.536V65.84H58.536Z" fill="url(#paint0_linear_1_22985)"/>
<defs>
<linearGradient id="paint0_linear_1_22985" x1="66.5" y1="-12.7222" x2="66.5" y2="205.778" gradientUnits="userSpaceOnUse">
<stop stop-color="white"/>
<stop offset="1" stop-color="white" stop-opacity="0"/>
</linearGradient>
</defs>
</svg>
