<svg width="51" height="51" viewBox="0 0 51 51" fill="none" xmlns="http://www.w3.org/2000/svg">
<path d="M34.4922 42.957H32.1484V34.6867L38.1695 28.6656C38.2952 28.5212 38.4504 28.4054 38.6247 28.326C38.799 28.2466 38.9882 28.2056 39.1797 28.2056C39.3712 28.2056 39.5604 28.2466 39.7347 28.326C39.9089 28.4054 40.0641 28.5212 40.1898 28.6656L40.9711 29.4469C41.436 29.8896 42.0533 30.1366 42.6953 30.1366C43.3373 30.1366 43.9547 29.8896 44.4195 29.4469C44.6459 29.2205 44.8256 28.9518 44.9481 28.656C45.0706 28.3602 45.1337 28.0432 45.1337 27.723C45.1337 27.4029 45.0706 27.0859 44.9481 26.7901C44.8256 26.4943 44.6459 26.2256 44.4195 25.9992L40.675 22.2539L41.2945 21.6344C41.441 21.4879 41.5233 21.2892 41.5233 21.082C41.5233 20.8749 41.441 20.6762 41.2945 20.5297L35.8258 15.0609C35.6793 14.9144 35.4806 14.8321 35.2734 14.832H32.1484V5.45703C32.1484 4.62823 31.8192 3.83337 31.2331 3.24732C30.6471 2.66127 29.8522 2.33203 29.0234 2.33203H13.3984C12.5696 2.33203 11.7748 2.66127 11.1887 3.24732C10.6027 3.83337 10.2734 4.62823 10.2734 5.45703V42.957H7.92969V49.207H34.4922V42.957ZM32.1484 16.3945H34.95L39.6375 21.082L38.3984 22.3211L36.607 20.5297C36.4605 20.3832 36.2618 20.3009 36.0547 20.3009C35.8475 20.3009 35.6488 20.3832 35.5023 20.5297L33.3875 22.6445H32.1484V16.3945ZM32.1484 24.207H33.7109C33.9181 24.207 34.1168 24.1246 34.2633 23.9781L36.0547 22.1867L37.8461 23.9781C37.9926 24.1246 38.1913 24.2069 38.3984 24.2069C38.6056 24.2069 38.8043 24.1246 38.9508 23.9781L39.5703 23.3586L43.3148 27.1031C43.3963 27.1844 43.461 27.281 43.5051 27.3873C43.5492 27.4936 43.5719 27.6076 43.5719 27.7227C43.5719 27.8378 43.5492 27.9517 43.5051 28.058C43.461 28.1643 43.3963 28.2609 43.3148 28.3422C43.1481 28.5013 42.9265 28.5901 42.6961 28.5901C42.4656 28.5901 42.244 28.5013 42.0773 28.3422L41.2961 27.5609C41.0256 27.2706 40.6982 27.0391 40.3344 26.8809C39.9706 26.7226 39.578 26.6409 39.1812 26.6409C38.7845 26.6409 38.3919 26.7226 38.0281 26.8809C37.6643 27.0391 37.3369 27.2706 37.0664 27.5609L32.1484 32.4773V24.207ZM11.8359 5.45703C11.8359 5.04263 12.0006 4.6452 12.2936 4.35218C12.5866 4.05915 12.984 3.89453 13.3984 3.89453H29.0234C29.4378 3.89453 29.8353 4.05915 30.1283 4.35218C30.4213 4.6452 30.5859 5.04263 30.5859 5.45703V7.01953H11.8359V5.45703ZM11.8359 8.58203H30.5859V42.957H11.8359V8.58203ZM32.9297 47.6445H9.49219V44.5195H32.9297V47.6445Z" fill="#13F2AD"/>
<path d="M26.5818 24.6094C26.5142 24.4874 26.4151 24.3857 26.2949 24.315C26.1747 24.2442 26.0377 24.207 25.8982 24.207H20.4295C20.2795 24.2071 20.1328 24.2503 20.0067 24.3314C19.8806 24.4126 19.7806 24.5284 19.7185 24.6648L15.8123 33.2586C15.7582 33.3776 15.7348 33.5082 15.7442 33.6386C15.7537 33.769 15.7957 33.8949 15.8665 34.0048C15.9372 34.1147 16.0344 34.2052 16.1491 34.2678C16.2639 34.3304 16.3925 34.3632 16.5232 34.3633H19.5443L18.8732 39.7352C18.8517 39.907 18.8879 40.0812 18.9761 40.2302C19.0644 40.3793 19.1997 40.4948 19.3607 40.5586C19.4522 40.595 19.5498 40.6136 19.6482 40.6133C19.7715 40.6133 19.893 40.5841 20.0029 40.5282C20.1127 40.4723 20.2078 40.3911 20.2803 40.2914L26.5303 31.6977C26.615 31.5811 26.6658 31.4434 26.6772 31.2997C26.6885 31.156 26.6599 31.012 26.5945 30.8836C26.529 30.7552 26.4294 30.6474 26.3065 30.5721C26.1836 30.4968 26.0423 30.457 25.8982 30.457H23.3982L26.5576 25.4023C26.6321 25.2844 26.6736 25.1486 26.6779 25.0092C26.6821 24.8697 26.6489 24.7317 26.5818 24.6094ZM21.3295 30.8242C21.2556 30.9425 21.2146 31.0784 21.211 31.2178C21.2073 31.3572 21.2411 31.495 21.3087 31.617C21.3763 31.739 21.4753 31.8406 21.5954 31.9114C21.7156 31.9822 21.8525 32.0195 21.992 32.0195H24.3638L20.7998 36.9203L21.2045 33.6789C21.2182 33.569 21.2084 33.4574 21.1757 33.3516C21.1431 33.2458 21.0883 33.1481 21.015 33.0651C20.9417 32.982 20.8516 32.9155 20.7507 32.87C20.6497 32.8244 20.5402 32.8008 20.4295 32.8008H17.7365L20.9326 25.7695H24.492L21.3295 30.8242Z" fill="#13F2AD"/>
<path d="M28.2422 13.2695H14.1797C13.9725 13.2695 13.7738 13.3518 13.6273 13.4984C13.4807 13.6449 13.3984 13.8436 13.3984 14.0508V21.8633C13.3984 22.0705 13.4807 22.2692 13.6273 22.4157C13.7738 22.5622 13.9725 22.6445 14.1797 22.6445H28.2422C28.4494 22.6445 28.6481 22.5622 28.7946 22.4157C28.9411 22.2692 29.0234 22.0705 29.0234 21.8633V14.0508C29.0234 13.8436 28.9411 13.6449 28.7946 13.4984C28.6481 13.3518 28.4494 13.2695 28.2422 13.2695ZM27.4609 21.082H14.9609V14.832H27.4609V21.082Z" fill="#13F2AD"/>
<path d="M13.3984 10.1445H14.9609V11.707H13.3984V10.1445Z" fill="#13F2AD"/>
<path d="M16.5234 10.1445H18.0859V11.707H16.5234V10.1445Z" fill="#13F2AD"/>
</svg>
