<svg width="51" height="51" viewBox="0 0 51 51" fill="none" xmlns="http://www.w3.org/2000/svg">
<g clip-path="url(#clip0_861_68336)">
<path d="M39.704 7.32045H35.1806V5.29683C35.1806 4.64211 34.4664 4.34455 33.8117 4.34455H30.3001C29.4668 1.96377 27.3836 0.773385 25.0029 0.773385C22.6483 0.684866 20.5066 2.12862 19.7057 4.34455H16.2535C15.5988 4.34455 14.9441 4.64211 14.9441 5.29683V7.32045H10.4205C7.73993 7.34905 5.5469 9.4637 5.4209 12.1415V46.2459C5.4209 48.8648 7.80167 50.7694 10.4205 50.7694H39.704C42.3229 50.7694 44.7037 48.8648 44.7037 46.2459V12.1416C44.5777 9.4637 42.3846 7.34905 39.704 7.32045ZM17.3248 6.72532H20.5984C21.1698 6.6556 21.6288 6.22087 21.7293 5.65398C22.0818 4.11898 23.4284 3.01711 25.0029 2.97564C26.5627 3.02292 27.8891 4.1282 28.2169 5.65398C28.3236 6.24046 28.8129 6.68077 29.4073 6.72532H32.7999V11.4869H17.3248V6.72532ZM42.3229 46.2461C42.3229 47.5555 41.0135 48.3887 39.704 48.3887H10.4205C9.11111 48.3887 7.80167 47.5555 7.80167 46.2461V12.1416C7.92311 10.7786 9.05232 9.72629 10.4205 9.70134H14.944V12.7368C15.0069 13.4037 15.5845 13.9026 16.2534 13.8678H33.8115C34.4928 13.905 35.0885 13.413 35.1805 12.7368V9.70123H39.7039C41.072 9.72629 42.2013 10.7785 42.3228 12.1415V46.2461H42.3229Z" fill="#13F2AD"/>
<path d="M20.479 27.3789C20.0325 26.9083 19.2914 26.8818 18.8124 27.3195L15.0032 30.9501L13.3962 29.2835C12.9497 28.8129 12.2085 28.7865 11.7296 29.224C11.2685 29.7071 11.2685 30.467 11.7296 30.9501L14.1698 33.4499C14.381 33.6864 14.6861 33.8172 15.0031 33.8071C15.317 33.8026 15.6165 33.6742 15.8363 33.4499L20.4788 29.0455C20.939 28.6233 20.9698 27.9079 20.5475 27.4477C20.5258 27.4237 20.5029 27.4008 20.479 27.3789Z" fill="#13F2AD"/>
<path d="M37.5614 29.9375H23.872C23.2146 29.9375 22.6816 30.4704 22.6816 31.1279C22.6816 31.7853 23.2146 32.3183 23.872 32.3183H37.5614C38.2189 32.3183 38.7518 31.7853 38.7518 31.1279C38.7518 30.4704 38.2189 29.9375 37.5614 29.9375Z" fill="#13F2AD"/>
<path d="M20.479 17.8555C20.0325 17.3849 19.2914 17.3583 18.8124 17.796L15.0032 21.4266L13.3962 19.7601C12.9497 19.2894 12.2085 19.2629 11.7296 19.7006C11.2685 20.1836 11.2685 20.9436 11.7296 21.4266L14.1698 23.9265C14.381 24.163 14.6861 24.2938 15.0031 24.2836C15.317 24.2792 15.6165 24.1508 15.8363 23.9265L20.4788 19.5221C20.939 19.0999 20.9698 18.3844 20.5475 17.9243C20.5258 17.9003 20.5029 17.8774 20.479 17.8555Z" fill="#13F2AD"/>
<path d="M37.5614 20.4141H23.872C23.2146 20.4141 22.6816 20.947 22.6816 21.6044C22.6816 22.2619 23.2146 22.7948 23.872 22.7948H37.5614C38.2189 22.7948 38.7518 22.2619 38.7518 21.6044C38.7518 20.947 38.2189 20.4141 37.5614 20.4141Z" fill="#13F2AD"/>
<path d="M20.479 36.9023C20.0325 36.4317 19.2914 36.4053 18.8124 36.8429L15.0032 40.4735L13.3962 38.8069C12.9497 38.3363 12.2085 38.3098 11.7296 38.7474C11.2685 39.2305 11.2685 39.9904 11.7296 40.4735L14.1698 42.9733C14.381 43.2098 14.6861 43.3406 15.0031 43.3305C15.317 43.326 15.6165 43.1976 15.8363 42.9733L20.4788 38.5689C20.939 38.1467 20.9698 37.4313 20.5475 36.9711C20.5258 36.9472 20.5029 36.9243 20.479 36.9023Z" fill="#13F2AD"/>
<path d="M37.5614 39.4609H23.872C23.2146 39.4609 22.6816 39.9939 22.6816 40.6513C22.6816 41.3088 23.2146 41.8417 23.872 41.8417H37.5614C38.2189 41.8417 38.7518 41.3088 38.7518 40.6513C38.7518 39.9939 38.2189 39.4609 37.5614 39.4609Z" fill="#13F2AD"/>
</g>
<defs>
<clipPath id="clip0_861_68336">
<rect width="50" height="50" fill="white" transform="translate(0.0625 0.769531)"/>
</clipPath>
</defs>
</svg>
