<svg width="51" height="51" viewBox="0 0 51 51" fill="none" xmlns="http://www.w3.org/2000/svg">
<g clip-path="url(#clip0_861_68316)">
<path d="M0.891651 5.35701L4.22625 11.1922C4.33873 11.3894 4.527 11.5321 4.74715 11.5873L7.85817 12.365L18.5283 23.0351L19.7072 21.8565L8.87014 11.0197C8.76349 10.9127 8.62975 10.8369 8.48332 10.8003L5.49404 10.0503L2.65497 5.07924L5.08905 2.64516L10.0621 5.48698L10.8125 8.47626C10.8488 8.62303 10.9249 8.75711 11.0316 8.86376L21.8687 19.7009L23.0473 18.5219L12.3772 7.85179L11.5995 4.74249C11.5443 4.52199 11.4016 4.33338 11.2044 4.22056L5.36888 0.886302C5.04344 0.701123 4.63399 0.755991 4.36857 1.02039L1.03431 4.35499C0.76614 4.6187 0.707843 5.02883 0.891651 5.35701Z" fill="#13F2AD"/>
<path d="M35.5495 17.1982L17.2102 35.5378L16.0312 34.3588L34.3709 16.0195L35.5495 17.1982Z" fill="#13F2AD"/>
<path d="M13.9998 36.1856C13.8489 35.9345 13.578 35.7812 13.2851 35.7812H8.28356C7.99105 35.7812 7.71979 35.9345 7.56925 36.1856L5.0683 40.3535C4.90953 40.6175 4.90953 40.9478 5.0683 41.2122L7.56925 45.3801C7.71979 45.6307 7.99105 45.7844 8.28356 45.7844H13.2851C13.578 45.7844 13.8489 45.6307 13.9998 45.3801L16.5004 41.2122C16.6592 40.9478 16.6592 40.6175 16.5004 40.3535L13.9998 36.1856ZM12.8136 44.1171H8.75543L6.7548 40.7828L8.75543 37.4482H12.8136L14.8142 40.7828L12.8136 44.1171Z" fill="#13F2AD"/>
<path d="M40.7944 20.7778C46.3001 20.7963 50.7787 16.3479 50.7972 10.8422C50.7999 10.0041 50.697 9.16945 50.4909 8.35707C50.3798 7.91023 49.9275 7.63829 49.4807 7.7494C49.3339 7.7861 49.2002 7.86188 49.0932 7.96853L43.904 13.1542L39.7869 11.7822L38.4138 7.66607L43.603 2.47591C43.9284 2.15013 43.928 1.62237 43.6023 1.29693C43.4949 1.18959 43.3598 1.11347 43.212 1.07712C37.8727 -0.275037 32.4486 2.95703 31.0965 8.29602C30.8911 9.10601 30.7885 9.93863 30.7913 10.7743C30.7933 11.4307 30.8609 12.085 30.994 12.7276L12.7377 30.9836C12.095 30.8509 11.4407 30.7833 10.7847 30.7809C5.25985 30.7809 0.78125 35.2595 0.78125 40.7844C0.78125 46.3089 5.25985 50.7875 10.7847 50.7875C16.3092 50.7875 20.7878 46.3089 20.7878 40.7844C20.7858 40.128 20.7179 39.4737 20.5852 38.8311L24.9557 34.4605L26.8672 36.372C27.193 36.6974 27.7204 36.6974 28.0462 36.372L28.4628 35.955C28.8284 35.5918 29.4192 35.5918 29.7848 35.955C30.15 36.3191 30.1507 36.9104 29.7865 37.2756C29.7862 37.2759 29.7855 37.2766 29.7848 37.2773L29.3681 37.6939C29.0427 38.0194 29.0427 38.5471 29.3681 38.8726L39.3123 48.8167C41.9278 51.4562 46.1876 51.4754 48.8271 48.8599C51.4662 46.2444 51.4854 41.9843 48.8699 39.3451C48.8559 39.3307 48.8415 39.3163 48.8271 39.3019L38.8829 29.3581C38.5575 29.0327 38.0297 29.0327 37.7043 29.3581L37.2877 29.7748C36.9217 30.1383 36.3312 30.1383 35.9653 29.7748C35.6005 29.4106 35.5994 28.8194 35.9636 28.4545C35.9643 28.4538 35.965 28.4535 35.9653 28.4528L36.3823 28.0358C36.7078 27.7104 36.7078 27.1826 36.3823 26.8572L34.4709 24.9457L38.8414 20.5751C39.4841 20.7078 40.1384 20.7757 40.7944 20.7778ZM44.0697 49.1205C43.4641 49.1195 42.8636 49.0101 42.2968 48.7971L48.8072 42.2864C49.7897 44.8998 48.4677 47.8147 45.8543 48.7971C45.284 49.0115 44.6794 49.1212 44.0697 49.1205ZM34.6259 27.4549C33.7027 28.556 33.8474 30.1973 34.9486 31.1201C35.9163 31.9311 37.3267 31.9304 38.2934 31.1177L47.6484 40.4809C47.7499 40.5827 47.8449 40.6901 47.9368 40.7991L40.8095 47.9265C40.7001 47.8349 40.5928 47.7399 40.4909 47.6381L31.1287 38.2752C32.0519 37.1741 31.9072 35.5328 30.806 34.61C29.8383 33.7987 28.4275 33.7997 27.4608 34.6121L26.1272 33.2784L33.2919 26.1243L34.6259 27.4549ZM37.992 19.0707L19.0814 37.9775C18.874 38.1847 18.7906 38.4854 18.8613 38.7697C20.0049 43.261 17.291 47.8291 12.7994 48.9724C8.30811 50.116 3.74001 47.4021 2.59635 42.9105C1.45304 38.4192 4.16695 33.8511 8.65858 32.7075C10.0172 32.3618 11.4407 32.3618 12.7994 32.7075C13.0837 32.7771 13.3837 32.6938 13.5915 32.4877L32.4977 13.5805C32.7048 13.3734 32.7881 13.0726 32.7168 12.7887C31.581 8.34986 34.2586 3.8308 38.6974 2.69469C39.5362 2.48036 40.4038 2.39806 41.268 2.4519L36.8707 6.85094C36.6474 7.07384 36.5692 7.40408 36.669 7.70345L38.336 12.7054C38.4193 12.954 38.6148 13.1494 38.8637 13.2321L43.8656 14.8994C44.1647 14.9992 44.4949 14.9213 44.7181 14.6984L49.1155 10.3011C49.1254 10.4602 49.1306 10.6176 49.1306 10.7743C49.1539 15.3548 45.4599 19.0868 40.8794 19.1105C40.1713 19.1139 39.4656 19.0268 38.7797 18.8512C38.4954 18.7803 38.1947 18.8633 37.9876 19.0704H37.992V19.0707Z" fill="#13F2AD"/>
<path d="M43.8859 42.6952L42.7069 43.8742L34.3711 35.5384L35.5497 34.3594L43.8859 42.6952Z" fill="#13F2AD"/>
</g>
<defs>
<clipPath id="clip0_861_68316">
<rect width="50" height="50" fill="white" transform="translate(0.733398 0.769531)"/>
</clipPath>
</defs>
</svg>
