<svg width="51" height="51" viewBox="0 0 51 51" fill="none" xmlns="http://www.w3.org/2000/svg">
<path fill-rule="evenodd" clip-rule="evenodd" d="M25.0625 12.4883C23.3366 12.4883 21.9375 13.8874 21.9375 15.6133C21.9375 17.3391 23.3366 18.7383 25.0625 18.7383C26.7884 18.7383 28.1875 17.3391 28.1875 15.6133C28.1875 13.8874 26.7884 12.4883 25.0625 12.4883ZM23.5 15.6133C23.5 14.7503 24.1995 14.0508 25.0625 14.0508C25.9255 14.0508 26.625 14.7503 26.625 15.6133C26.625 16.4762 25.9255 17.1758 25.0625 17.1758C24.1995 17.1758 23.5 16.4762 23.5 15.6133Z" fill="#13F2AD"/>
<path fill-rule="evenodd" clip-rule="evenodd" d="M22.7188 4.67578C22.7188 3.38137 23.768 2.33203 25.0625 2.33203C26.357 2.33203 27.4062 3.38137 27.4062 4.67578V7.34302C31.0133 8.36322 33.6562 11.6796 33.6562 15.6133C33.6562 16.2157 33.5943 16.8037 33.4763 17.3711L39.8798 27.332H46.1562C47.4507 27.332 48.5 28.3813 48.5 29.6758C48.5 30.9702 47.4507 32.0195 46.1562 32.0195H42.8932L47.8892 39.791C47.9666 39.9113 48.0067 40.0448 48.0127 40.178L48.528 48.1902C48.5509 48.5455 48.3307 48.8713 47.9925 48.9825C47.6544 49.0938 47.2837 48.9623 47.0913 48.6628L36.392 32.0195H13.9236L3.22427 48.6628C3.03176 48.9623 2.66115 49.0938 2.32298 48.9825C1.9848 48.8713 1.7646 48.5455 1.78745 48.1902L2.30288 40.1781C2.30879 40.0448 2.34895 39.9113 2.42627 39.791L7.42226 32.0195H3.96875C2.67434 32.0195 1.625 30.9702 1.625 29.6758C1.625 28.3813 2.67434 27.332 3.96875 27.332H10.4357L16.6975 17.5914C16.5479 16.9563 16.4688 16.2941 16.4688 15.6133C16.4688 11.6796 19.1117 8.36322 22.7188 7.34302V4.67578ZM9.43117 28.8945H3.96875C3.53728 28.8945 3.1875 29.2443 3.1875 29.6758C3.1875 30.1073 3.53728 30.457 3.96875 30.457H8.42672L9.43117 28.8945ZM14.928 30.457H35.3875L34.383 28.8945H15.9325L14.928 30.457ZM16.937 27.332H33.3785L30.2499 22.4654C28.8084 23.5584 27.0112 24.207 25.0625 24.207C23.1715 24.207 21.4231 23.5963 20.0039 22.5613L16.937 27.332ZM41.8888 30.457H46.1562C46.5877 30.457 46.9375 30.1073 46.9375 29.6758C46.9375 29.2443 46.5877 28.8945 46.1562 28.8945H40.8843L41.8888 30.457ZM25.8438 7.01953H24.2812V4.67578C24.2812 4.24431 24.631 3.89453 25.0625 3.89453C25.494 3.89453 25.8438 4.24431 25.8438 4.67578V7.01953ZM18.0312 15.6133C18.0312 11.73 21.1792 8.58203 25.0625 8.58203C28.9458 8.58203 32.0938 11.73 32.0938 15.6133C32.0938 19.4966 28.9458 22.6445 25.0625 22.6445C21.1792 22.6445 18.0312 19.4966 18.0312 15.6133ZM31.4198 21.3958C31.9929 20.7662 32.4737 20.0511 32.8408 19.272L46.1524 39.9788L44.1809 41.2462L31.4198 21.3958ZM17.3661 19.4409C17.7466 20.2045 18.2374 20.9035 18.8177 21.5171L6.13459 41.2462L4.16309 39.9788L17.3661 19.4409ZM46.5377 41.5887L45.0259 42.5605L46.7752 45.2818L46.5377 41.5887ZM5.28967 42.5605L3.77786 41.5887L3.54028 45.2818L5.28967 42.5605Z" fill="#13F2AD"/>
</svg>
