<svg width="51" height="51" viewBox="0 0 51 51" fill="none" xmlns="http://www.w3.org/2000/svg">
<g clip-path="url(#clip0_861_68329)">
<path d="M50.2266 45.5645C50.2266 45.1599 49.8987 44.832 49.4941 44.832H48.9127L48.1186 38.7428L48.448 38.5774C48.6982 38.4519 48.855 38.1947 48.852 37.9148C48.8488 37.635 48.6865 37.3812 48.4337 37.2612L47.8918 37.004L47.207 31.7533L47.7767 31.4829C48.0259 31.3646 48.1875 31.1162 48.1946 30.8403C48.2019 30.5646 48.0535 30.3081 47.8106 30.1769L46.94 29.7063L46.2701 24.5695L47.1486 24.0948C47.3786 23.9705 47.525 23.7331 47.5326 23.4718C47.5402 23.2104 47.408 22.9649 47.1855 22.8273L45.9428 22.0592L45.3104 17.2104L46.1318 16.7026C46.3306 16.5798 46.4588 16.3695 46.477 16.1365C46.4951 15.9036 46.4011 15.676 46.2237 15.5238L44.9476 14.4285L44.2972 9.4415H46.4568V11.004H46.2603C45.8558 11.004 45.5279 11.3318 45.5279 11.7364C45.5279 12.141 45.8558 12.4688 46.2603 12.4688H48.1182C48.5228 12.4688 48.8506 12.141 48.8506 11.7364C48.8506 11.3318 48.5228 11.004 48.1182 11.004H47.9216V8.70898C47.9216 8.30439 47.5938 7.97656 47.1892 7.97656H44.1061L43.8326 5.87988C43.7851 5.51514 43.4742 5.24219 43.1063 5.24219H37.5162C37.1482 5.24219 36.8375 5.51514 36.7898 5.87988L36.5164 7.97656H33.4336C33.029 7.97656 32.7012 8.30439 32.7012 8.70898V11.0039H32.5047C32.1001 11.0039 31.7723 11.3317 31.7723 11.7363C31.7723 12.1409 32.1001 12.4688 32.5047 12.4688H34.3624C34.767 12.4688 35.0948 12.1409 35.0948 11.7363C35.0948 11.3317 34.767 11.0039 34.3624 11.0039H34.1659V9.44141H36.3256L35.6752 14.4284L34.399 15.5237C34.2218 15.676 34.1277 15.9036 34.1458 16.1364C34.1641 16.3694 34.2922 16.5797 34.4909 16.7025L35.3123 17.2103L35.1538 18.4257H31.3012C28.4767 18.4257 26.1788 20.7236 26.1788 23.5481V28.1914H25.3748V23.9434C25.3748 23.5388 25.047 23.2109 24.6424 23.2109H20.7635V19.5325H20.8929C21.2974 19.5325 21.6253 19.2047 21.6253 18.8001C21.6253 18.3955 21.2974 18.0677 20.8929 18.0677H20.7635V15.3984H20.8929C21.2974 15.3984 21.6253 15.0706 21.6253 14.666C21.6253 14.2614 21.2974 13.9336 20.8929 13.9336H20.7635V11.2644H20.8929C21.2974 11.2644 21.6253 10.9365 21.6253 10.5319C21.6253 10.1273 21.2974 9.79951 20.8929 9.79951H20.7635V6.70703H20.8929C21.2974 6.70703 21.6253 6.3792 21.6253 5.97461C21.6253 5.57002 21.2974 5.24219 20.8929 5.24219H14.5964C14.1919 5.24219 13.864 5.57002 13.864 5.97461C13.864 6.3792 14.1919 6.70703 14.5964 6.70703H14.7258V9.79951H14.5964C14.1919 9.79951 13.864 10.1273 13.864 10.5319C13.864 10.9365 14.1919 11.2644 14.5964 11.2644H14.7258V13.9336H14.5964C14.1919 13.9336 13.864 14.2614 13.864 14.666C13.864 15.0706 14.1919 15.3984 14.5964 15.3984H14.7258V18.0677H14.5964C14.1919 18.0677 13.864 18.3955 13.864 18.8001C13.864 19.2047 14.1919 19.5325 14.5964 19.5325H14.7258V23.2109H12.1853C11.7808 23.2109 11.4528 23.5388 11.4528 23.9434C11.4528 24.3479 11.7808 24.6758 12.1853 24.6758H23.9099V44.832H20.6325V40.6377C20.6325 39.2673 19.5176 38.1523 18.1472 38.1523H13.4499C12.0795 38.1523 10.9646 39.2673 10.9646 40.6377V44.832H7.68721V24.6758H9.25557C9.66006 24.6758 9.98799 24.3479 9.98799 23.9434C9.98799 23.5388 9.66006 23.2109 9.25557 23.2109H6.95479C6.55029 23.2109 6.22236 23.5388 6.22236 23.9434V34.1484H2.18359C1.7791 34.1484 1.45117 34.4763 1.45117 34.8809V40.7598C1.45117 41.1644 1.7791 41.4922 2.18359 41.4922C2.58809 41.4922 2.91602 41.1644 2.91602 40.7598V35.6133H6.22266V44.832H2.91602V43.6895C2.91602 43.2849 2.58809 42.957 2.18359 42.957C1.7791 42.957 1.45117 43.2849 1.45117 43.6895V44.832H0.958984C0.554492 44.832 0.226562 45.1599 0.226562 45.5645C0.226562 45.969 0.554492 46.2969 0.958984 46.2969H49.4941C49.8986 46.2969 50.2266 45.969 50.2266 45.5645ZM16.1908 6.70703H19.2987V9.79951H16.1908V6.70703ZM16.1908 11.2644H19.2987V13.9336H16.1908V11.2644ZM16.1908 15.3984H19.2987V18.0677H16.1908V15.3984ZM16.1908 23.2109V19.5325H19.2987V23.2109H16.1908ZM44.6873 23.7598L40.3114 26.1243L35.9355 23.7598L36.0426 22.9392L40.3114 20.3004L44.5803 22.9392L44.6873 23.7598ZM38.7708 26.9568L35.2721 28.8475L35.7327 25.3151L38.7708 26.9568ZM45.6167 30.8866L40.3114 33.4052L35.0062 30.8866L35.0385 30.6388L40.3114 27.7894L45.5844 30.6388L45.6167 30.8866ZM38.6036 34.216L34.3059 36.2563L34.807 32.4137L38.6036 34.216ZM40.3114 35.0268L46.4502 37.9411L40.3114 41.0222L34.1727 37.9411L40.3114 35.0268ZM38.6787 41.8416L33.2202 44.5812L33.8909 39.4386L38.6787 41.8416ZM40.3114 42.6611L44.6367 44.832H35.986L40.3114 42.6611ZM47.4027 44.5812L41.9442 41.8416L46.732 39.4386L47.4027 44.5812ZM46.317 36.2563L42.0192 34.2159L45.8158 32.4136L46.317 36.2563ZM45.3508 28.8475L41.8521 26.9568L44.8901 25.3151L45.3508 28.8475ZM44.336 21.0659L41.7045 19.4393L43.9434 18.0553L44.336 21.0659ZM37.0553 15.1743L40.3115 12.3794L43.5678 15.1743L43.7356 16.4616L40.3115 18.5782L36.8874 16.4616L37.0553 15.1743ZM41.436 11.4142L42.9121 10.1472L43.2842 13.0005L41.436 11.4142ZM40.3114 10.4489L39.1376 9.44141H41.4853L40.3114 10.4489ZM38.1595 6.70703H42.4634L42.6289 7.97656H37.9938L38.1595 6.70703ZM37.7108 10.1472L39.1869 11.4142L37.3388 13.0005L37.7108 10.1472ZM38.9185 19.4393L36.2869 21.0659L36.6795 18.0553L38.9185 19.4393ZM12.4296 44.832V40.6377C12.4296 40.0749 12.8874 39.6172 13.4501 39.6172H18.1474C18.7101 39.6172 19.1679 40.075 19.1679 40.6377V44.832H12.4296ZM25.375 44.832V29.6562H28.9075V32.5566C28.9075 32.9612 29.2354 33.2891 29.6399 33.2891C30.0445 33.2891 30.3724 32.9612 30.3724 32.5566V28.9238C30.3724 28.5192 30.0445 28.1914 29.6399 28.1914H27.6438V23.5482C27.6438 21.5314 29.2847 19.8906 31.3014 19.8906H34.9629L34.6801 22.0592L33.4373 22.8273C33.2149 22.9648 33.0826 23.2104 33.0902 23.4718C33.0979 23.7331 33.2441 23.9704 33.4742 24.0948L34.3527 24.5695L33.6828 29.7063L32.8122 30.1769C32.5694 30.3081 32.421 30.5646 32.4282 30.8403C32.4354 31.1162 32.5971 31.3646 32.8462 31.4829L33.4158 31.7533L32.7311 37.004L32.1892 37.2612C31.9363 37.3812 31.774 37.635 31.7709 37.9148C31.7679 38.1947 31.9246 38.4519 32.1748 38.5774L32.5043 38.7428L31.7102 44.832H30.3723V35.4863C30.3723 35.0817 30.0444 34.7539 29.6398 34.7539C29.2353 34.7539 28.9074 35.0817 28.9074 35.4863V44.832H25.375Z" fill="#13F2AD"/>
<path d="M14.2915 32.1383C14.6005 32.4007 15.0625 32.3619 15.3239 32.0544L17.3893 29.6232C17.5742 29.4055 17.6157 29.1005 17.4959 28.8415C17.3759 28.5824 17.1166 28.4165 16.8311 28.4165H16.3978L17.3892 27.2496C17.6511 26.9413 17.6135 26.479 17.3052 26.2172C16.997 25.9554 16.5347 25.9929 16.2728 26.3011L14.2562 28.6747C14.0714 28.8924 14.0298 29.1974 14.1497 29.4564C14.2696 29.7155 14.529 29.8814 14.8144 29.8814H15.2477L14.2074 31.1058C13.9456 31.4141 13.9832 31.8763 14.2915 32.1383Z" fill="#13F2AD"/>
</g>
<defs>
<clipPath id="clip0_861_68329">
<rect width="50" height="50" fill="white" transform="translate(0.226562 0.769531)"/>
</clipPath>
</defs>
</svg>
