<svg width="51" height="51" viewBox="0 0 51 51" fill="none" xmlns="http://www.w3.org/2000/svg">
<g clip-path="url(#clip0_861_68283)">
<path d="M21.1458 42.7904C20.9287 41.7035 20.4811 40.6758 19.8332 39.7766C19.1852 38.8774 18.3519 38.1277 17.3895 37.5779C16.4643 37.0524 15.4744 36.65 14.445 36.3811C15.3626 35.692 16.0403 34.7318 16.382 33.6363C16.7238 32.5408 16.7122 31.3656 16.349 30.2771C15.9859 29.1885 15.2894 28.2418 14.3584 27.5709C13.4274 26.9 12.3089 26.5391 11.1614 26.5391C10.0138 26.5391 8.89536 26.9 7.96434 27.5709C7.03331 28.2418 6.33691 29.1885 5.97373 30.2771C5.61055 31.3656 5.59901 32.5408 5.94073 33.6363C6.28245 34.7318 6.96012 35.692 7.87778 36.3811C6.84912 36.6502 5.86003 37.0526 4.9356 37.5779C3.97333 38.1276 3.14011 38.8773 2.49214 39.7763C1.84417 40.6754 1.39651 41.7029 1.17935 42.7896L0.241847 47.4873C0.205563 47.668 0.234358 47.8558 0.323142 48.0173C0.411926 48.1789 0.554979 48.3039 0.727003 48.3701C7.44425 50.9576 14.8832 50.9576 21.6004 48.3701C21.7725 48.3039 21.9155 48.1789 22.0043 48.0173C22.0931 47.8558 22.1219 47.668 22.0856 47.4873L21.1458 42.7904ZM7.25747 32.0186C7.25747 31.246 7.48657 30.4907 7.91579 29.8484C8.34502 29.206 8.95509 28.7053 9.66887 28.4096C10.3826 28.114 11.1681 28.0366 11.9258 28.1874C12.6835 28.3381 13.3796 28.7101 13.9259 29.2564C14.4722 29.8027 14.8442 30.4987 14.9949 31.2565C15.1456 32.0142 15.0683 32.7996 14.7726 33.5134C14.477 34.2272 13.9763 34.8373 13.3339 35.2665C12.6915 35.6957 11.9363 35.9248 11.1637 35.9248C10.1281 35.9236 9.13525 35.5116 8.40296 34.7793C7.67066 34.047 7.25871 33.0542 7.25747 32.0186ZM1.90357 47.1428L2.71372 43.0959C2.88702 42.2282 3.24442 41.4078 3.76181 40.69C4.2792 39.9722 4.94454 39.3737 5.71294 38.935C7.37877 38.0039 9.25534 37.515 11.1637 37.515C13.0721 37.515 14.9487 38.0039 16.6145 38.935C17.383 39.3737 18.0484 39.9723 18.5658 40.6903C19.0832 41.4082 19.4406 42.2288 19.6137 43.0967L20.4239 47.1428C14.4367 49.2873 7.89076 49.2873 1.90357 47.1428Z" fill="#13F2AD"/>
<path d="M50.2106 47.4873L49.2731 42.7873C49.0561 41.7004 48.6085 40.6727 47.9605 39.7735C47.3125 38.8743 46.4792 38.1246 45.5168 37.5748C44.5908 37.0501 43.6001 36.6488 42.57 36.3811C43.4876 35.692 44.1653 34.7318 44.507 33.6363C44.8487 32.5408 44.8372 31.3656 44.474 30.2771C44.1108 29.1885 43.4144 28.2418 42.4834 27.5709C41.5524 26.9 40.4339 26.5391 39.2864 26.5391C38.1388 26.5391 37.0204 26.9 36.0893 27.5709C35.1583 28.2418 34.4619 29.1885 34.0987 30.2771C33.7356 31.3656 33.724 32.5408 34.0657 33.6363C34.4074 34.7318 35.0851 35.692 36.0028 36.3811C34.9741 36.6502 33.985 37.0526 33.0606 37.5779C32.0983 38.1276 31.2651 38.8773 30.6171 39.7763C29.9692 40.6754 29.5215 41.7029 29.3043 42.7896L28.3668 47.4873C28.3306 47.668 28.3594 47.8558 28.4481 48.0173C28.5369 48.1789 28.68 48.3039 28.852 48.3701C35.5692 50.9576 43.0082 50.9576 49.7254 48.3701C49.8975 48.3039 50.0405 48.1789 50.1293 48.0173C50.2181 47.8558 50.2469 47.668 50.2106 47.4873ZM35.3825 32.0186C35.3825 31.246 35.6116 30.4907 36.0408 29.8484C36.47 29.206 37.0801 28.7053 37.7939 28.4096C38.5076 28.114 39.2931 28.0366 40.0508 28.1874C40.8085 28.3381 41.5046 28.7101 42.0509 29.2564C42.5972 29.8027 42.9692 30.4987 43.1199 31.2565C43.2706 32.0142 43.1933 32.7996 42.8976 33.5134C42.602 34.2272 42.1013 34.8373 41.4589 35.2665C40.8165 35.6957 40.0613 35.9248 39.2887 35.9248C38.2531 35.9236 37.2603 35.5116 36.528 34.7793C35.7957 34.047 35.3837 33.0542 35.3825 32.0186ZM30.0286 47.1428L30.8387 43.0959C31.012 42.2282 31.3694 41.4078 31.8868 40.69C32.4042 39.9722 33.0695 39.3737 33.8379 38.935C35.5038 38.0039 37.3803 37.515 39.2887 37.515C41.1971 37.515 43.0737 38.0039 44.7395 38.935C45.508 39.3737 46.1734 39.9723 46.6908 40.6903C47.2082 41.4082 47.5656 42.2288 47.7387 43.0967L48.5489 47.1428C42.5617 49.2873 36.0158 49.2873 30.0286 47.1428Z" fill="#13F2AD"/>
<path d="M30.6469 19.4758L33.943 24.632C34.0265 24.763 34.1471 24.8661 34.2894 24.9281C34.4318 24.9902 34.5894 25.0084 34.7422 24.9805C34.8949 24.9526 35.0359 24.8798 35.1471 24.7714C35.2583 24.663 35.3346 24.5239 35.3664 24.3719L36.4906 19.0352C42.393 17.757 46.3203 14.2281 46.3203 10.1445C46.3203 4.975 39.8359 0.769531 31.8672 0.769531C23.8984 0.769531 17.4141 4.975 17.4141 10.1445C17.4141 15.0258 23.1953 19.0742 30.6469 19.4758ZM31.8672 2.33203C38.9766 2.33203 44.7578 5.83672 44.7578 10.1445C44.7578 13.518 41.0273 16.5844 35.6867 17.6008C35.5353 17.6295 35.3957 17.7024 35.2856 17.8103C35.1755 17.9182 35.0998 18.0562 35.068 18.207L34.2305 22.1758L31.7453 18.2898C31.6771 18.1833 31.584 18.0949 31.474 18.0323C31.364 17.9697 31.2405 17.9348 31.1141 17.9305C24.3078 17.6906 18.9766 14.2695 18.9766 10.1445C18.9766 5.83672 24.7578 2.33203 31.8672 2.33203Z" fill="#13F2AD"/>
<path d="M29.8906 21.0608C29.8656 20.9612 29.8212 20.8676 29.76 20.7852C29.6988 20.7029 29.622 20.6333 29.5339 20.5807C29.4458 20.528 29.3482 20.4932 29.2467 20.4783C29.1452 20.4633 29.0417 20.4685 28.9422 20.4936C26.4095 21.1187 23.7804 21.2513 21.1977 20.8842C21.0138 20.8574 20.8264 20.8982 20.6703 20.999L17.0234 23.3162L17.5984 20.7272C17.6389 20.5453 17.613 20.355 17.5255 20.1905C17.4379 20.0261 17.2945 19.8983 17.1211 19.8303C13.3914 18.3678 11.1641 15.9147 11.1641 13.2693C11.1641 10.6717 13.3188 8.24357 16.9273 6.77482C17.0224 6.73614 17.1089 6.67912 17.1819 6.60701C17.2549 6.5349 17.313 6.44911 17.3529 6.35455C17.3928 6.25998 17.4136 6.1585 17.4143 6.05587C17.4149 5.95325 17.3953 5.85151 17.3566 5.75646C17.318 5.6614 17.2609 5.5749 17.1888 5.50188C17.1167 5.42886 17.0309 5.37076 16.9364 5.3309C16.8418 5.29104 16.7403 5.27019 16.6377 5.26955C16.5351 5.2689 16.4333 5.28848 16.3383 5.32716C12.1203 7.04435 9.60156 10.0139 9.60156 13.2693C9.60156 16.4217 11.9539 19.285 15.9297 21.0279L15.0867 24.8186C15.053 24.9695 15.0648 25.1271 15.1207 25.2714C15.1766 25.4156 15.2741 25.54 15.4008 25.6287C15.5275 25.7175 15.6777 25.7667 15.8323 25.77C15.987 25.7734 16.1391 25.7307 16.2695 25.6475L21.2695 22.4662C23.9593 22.8145 26.6904 22.6593 29.3234 22.0084C29.5243 21.9579 29.6968 21.8297 29.8032 21.652C29.9095 21.4743 29.941 21.2616 29.8906 21.0608Z" fill="#13F2AD"/>
<path d="M26.7891 6.23828H30.6953V7.80078H26.7891V6.23828Z" fill="#13F2AD"/>
<path d="M32.2578 6.23828H33.8203V7.80078H32.2578V6.23828Z" fill="#13F2AD"/>
<path d="M35.3828 6.23828H39.2891V7.80078H35.3828V6.23828Z" fill="#13F2AD"/>
<path d="M24.4453 9.36328H33.8203V10.9258H24.4453V9.36328Z" fill="#13F2AD"/>
<path d="M35.3828 9.36328H39.2891V10.9258H35.3828V9.36328Z" fill="#13F2AD"/>
<path d="M24.4453 12.4883H27.5703V14.0508H24.4453V12.4883Z" fill="#13F2AD"/>
<path d="M29.1328 12.4883H37.7266V14.0508H29.1328V12.4883Z" fill="#13F2AD"/>
</g>
<defs>
<clipPath id="clip0_861_68283">
<rect width="50" height="50" fill="white" transform="translate(0.226562 0.769531)"/>
</clipPath>
</defs>
</svg>
