<svg width="51" height="51" viewBox="0 0 51 51" fill="none" xmlns="http://www.w3.org/2000/svg">
<g clip-path="url(#clip0_861_68356)">
<path d="M36.4756 39.4414C35.9365 39.4414 35.499 39.8789 35.499 40.418C35.499 40.957 35.9365 41.3945 36.4756 41.3945C37.0146 41.3945 37.4521 40.957 37.4521 40.418C37.4521 39.8789 37.0146 39.4414 36.4756 39.4414Z" fill="#13F2AD"/>
<path d="M38.8801 36.2835L34.2385 34.7366L32.5722 31.4039C34.0733 29.876 35.1156 27.8543 35.4671 25.7456L35.6749 24.5H37.4521C39.0676 24.5 40.3818 23.1857 40.3818 21.5703V15.418C40.3818 7.34082 33.8105 0.769531 25.7334 0.769531C17.6355 0.769531 11.085 7.32197 11.085 15.418V21.5703C11.085 22.8434 11.9015 23.9289 13.0381 24.332V25.4766C13.0381 27.092 14.3523 28.4062 15.9678 28.4062H16.8254C17.2487 29.3259 17.7967 30.1776 18.4635 30.9428C18.6018 31.1018 18.746 31.2559 18.8938 31.4058L17.2283 34.7366L12.5866 36.2836C7.18965 38.0832 3.27246 43.7647 3.27246 49.793C3.27246 50.3323 3.70967 50.7695 4.24902 50.7695H47.2178C47.757 50.7695 48.1943 50.3323 48.1943 49.793C48.1943 43.7647 44.2772 38.0832 38.8801 36.2835ZM38.4287 21.5703C38.4287 22.1088 37.9906 22.5469 37.4521 22.5469H35.9617C36.21 20.624 36.3754 18.5778 36.4419 16.5625C36.4438 16.5057 36.4454 16.4504 36.4472 16.3945H38.4287V21.5703ZM14.0146 22.5469C13.4762 22.5469 13.0381 22.1088 13.0381 21.5703V16.3945H15.0203C15.0235 16.4964 15.027 16.5987 15.0308 16.7018C15.0309 16.7053 15.0311 16.7087 15.0312 16.7122C15.0312 16.7125 15.0312 16.7128 15.0312 16.7131C15.0995 18.6732 15.2628 20.6663 15.5054 22.5468H14.0146V22.5469ZM15.9678 26.4531C15.4293 26.4531 14.9912 26.015 14.9912 25.4766V24.5H15.7918L15.9996 25.746C16.0393 25.9828 16.088 26.2188 16.1443 26.4531H15.9678ZM14.9929 14.4414H13.0752C13.5698 7.89639 19.0319 2.72266 25.7334 2.72266C32.4051 2.72266 37.8912 7.8957 38.3915 14.4414H36.474C36.4037 9.04814 32.0118 4.67578 26.6075 4.67578H24.8595C19.4553 4.67578 15.0631 9.04814 14.9929 14.4414ZM24.8594 6.62891H26.6074C30.9833 6.62891 34.525 10.2081 34.5225 14.5791C34.5225 14.8864 34.52 15.154 34.5148 15.3975C34.5148 15.4006 34.5147 15.4038 34.5147 15.407L33.2933 15.2325C29.9749 14.7587 26.8417 13.1921 24.4708 10.8212C24.2876 10.6381 24.0393 10.5352 23.7803 10.5352C21.1576 10.5352 18.6471 11.7301 16.9875 13.7488C17.3965 9.77236 20.7581 6.62891 24.8594 6.62891ZM18.1689 26.4531C17.6801 24.8269 17.1207 20.0417 16.9971 16.9753L18.3114 15.2228C19.5186 13.6138 21.3966 12.6141 23.3943 12.4993C26.0229 15.0009 29.4235 16.6528 33.0171 17.1659L34.4548 17.3714C34.3587 19.4109 34.1623 21.4576 33.881 23.3399C33.8809 23.3405 33.8808 23.3412 33.8807 23.3419C33.7912 23.9471 33.7207 24.3365 33.5406 25.4243C33.0234 28.5264 30.7088 31.3315 27.6532 32.0955C26.3957 32.4095 25.0709 32.4094 23.8141 32.0955C21.9062 31.6186 20.1567 30.2984 19.0277 28.4062H21.0186C21.4217 29.5429 22.5071 30.3594 23.7803 30.3594H25.7334C27.3521 30.3594 28.6631 29.0484 28.6631 27.4297C28.6631 25.8143 27.3488 24.5 25.7334 24.5H23.7803C22.4788 24.5 21.4094 25.3406 21.0169 26.4531H18.1689ZM23.6981 34.0719C24.368 34.213 25.0509 34.2852 25.7334 34.2852C26.2677 34.2852 26.802 34.2404 27.3304 34.1537L25.6048 35.9786L23.6981 34.0719ZM24.2622 37.3983L21.1647 40.6739C20.312 39.0417 19.5793 37.343 18.9783 35.6039L20.1415 33.2775L24.2622 37.3983ZM31.1598 32.9467L32.4883 35.6038C31.8863 37.3458 31.1534 39.0451 30.3016 40.6754L26.9863 37.3602L31.1598 32.9467ZM22.8037 27.4297C22.8037 26.8905 23.241 26.4531 23.7803 26.4531H25.7334C26.2719 26.4531 26.71 26.8912 26.71 27.4297C26.71 27.9689 26.2726 28.4062 25.7334 28.4062H23.7803C23.2418 28.4062 22.8037 27.9682 22.8037 27.4297ZM5.26465 48.8164C5.65166 43.9786 8.87129 39.5813 13.2043 38.1364L17.315 36.7665C18.0682 38.849 19.0012 40.8731 20.0946 42.7958C20.0965 42.7991 20.0982 42.8024 20.1001 42.8057L20.1002 42.8059C20.8991 44.211 21.7983 45.5842 22.7732 46.8878L23.9746 48.8164H5.26465ZM25.7334 47.9459L24.409 45.8196C24.3941 45.7958 24.3783 45.7727 24.3615 45.7502C23.5707 44.6953 22.833 43.5921 22.1611 42.4629L25.6438 38.7799L29.3136 42.4496C28.6372 43.587 27.897 44.6948 27.1055 45.75C27.0576 45.8138 27.1255 45.7133 25.7334 47.9459ZM27.4922 48.8164L28.6935 46.8879C29.6727 45.5793 30.5783 44.1951 31.3853 42.7734C31.3901 42.7648 31.3947 42.7561 31.3996 42.7475C31.4002 42.7464 31.4008 42.7454 31.4014 42.7443C32.481 40.84 33.4042 38.8335 34.1518 36.7665L38.2624 38.1364C42.5955 39.5813 45.8151 43.9786 46.2021 48.8164H27.4922Z" fill="#13F2AD"/>
<path d="M43.2673 44.8635C42.6146 43.5572 41.6587 42.3966 40.5027 41.5074C40.0752 41.1784 39.4621 41.2584 39.1333 41.6859C38.8044 42.1134 38.8844 42.7265 39.3118 43.0554C40.235 43.7657 40.9985 44.6927 41.5199 45.7364C41.7614 46.2197 42.3483 46.4142 42.83 46.1736C43.3124 45.9326 43.5082 45.346 43.2673 44.8635Z" fill="#13F2AD"/>
</g>
<defs>
<clipPath id="clip0_861_68356">
<rect width="50" height="50" fill="white" transform="translate(0.733398 0.769531)"/>
</clipPath>
</defs>
</svg>
