<svg width="48" height="48" viewBox="0 0 48 48" fill="none" xmlns="http://www.w3.org/2000/svg">
<path d="M12.9725 35.2305C12.937 35.0981 12.8673 34.9773 12.7703 34.8803C12.6734 34.7834 12.5526 34.7137 12.4202 34.6782L8.06316 33.511C7.93067 33.4755 7.79118 33.4755 7.6587 33.511C7.52622 33.5465 7.40543 33.6163 7.30847 33.7133L4.11941 36.9032C4.02253 37.0001 3.95284 37.1207 3.91733 37.253C3.88181 37.3854 3.88172 37.5247 3.91706 37.6571L5.08425 42.0141C5.11975 42.1465 5.18948 42.2673 5.28644 42.3643C5.38339 42.4612 5.50415 42.5309 5.63659 42.5664L9.99363 43.7336C10.0593 43.7513 10.1271 43.7603 10.1952 43.7602C10.4024 43.7602 10.6011 43.6778 10.7475 43.5313L13.9374 40.3422C14.0344 40.2453 14.1042 40.1245 14.1397 39.992C14.1752 39.8595 14.1752 39.72 14.1397 39.5875L12.9725 35.2305ZM9.96238 42.1055L6.47644 41.168L5.54284 37.6914L8.09441 35.1399L11.5796 36.0774L12.5171 39.5625L9.96238 42.1055Z" fill="#13F2AD"/>
<path d="M47.1465 35.8647L42.7246 31.4429C42.6519 31.3701 42.5653 31.3126 42.4701 31.2737C42.3749 31.2348 42.2728 31.2153 42.1699 31.2163C42.0682 31.2153 41.9673 31.2348 41.8734 31.2738C41.7794 31.3127 41.6943 31.3702 41.623 31.4429L41.0918 31.9741C40.1558 30.8954 39.5699 29.5576 39.4121 28.1382L38.8496 23.1225C38.6741 21.535 37.9665 20.0536 36.8418 18.9194L36.6543 18.7319L37.6621 17.7163C37.7333 17.6415 37.8195 17.5826 37.9152 17.5435C38.0108 17.5045 38.1136 17.4861 38.2168 17.4897C39.6569 17.5791 41.0962 17.3038 42.4016 16.6893C43.7071 16.0749 44.8365 15.1411 45.6854 13.9745C46.5343 12.8078 47.0753 11.4459 47.2583 10.0147C47.4413 8.58355 47.2604 7.12934 46.7324 5.7866C46.6858 5.66507 46.6096 5.5571 46.5107 5.47251C46.4118 5.38792 46.2933 5.32938 46.166 5.30221C46.0387 5.27504 45.9066 5.28011 45.7818 5.31695C45.657 5.3538 45.5433 5.42124 45.4512 5.51317L40.6699 10.3022L37.7637 9.88817L37.3496 6.98192L42.1387 2.20067C42.2305 2.10928 42.2979 1.9963 42.3348 1.8721C42.3716 1.74789 42.3767 1.61642 42.3496 1.48973C42.322 1.36214 42.2634 1.24334 42.1789 1.14385C42.0944 1.04436 41.9867 0.96727 41.8652 0.919417C40.5225 0.391388 39.0683 0.21051 37.6371 0.393516C36.2059 0.576521 34.844 1.1175 33.6774 1.96641C32.5107 2.81532 31.577 3.94474 30.9625 5.25019C30.3481 6.55565 30.0728 7.99498 30.1621 9.43504C30.1638 9.53802 30.1447 9.64028 30.1057 9.73562C30.0668 9.83097 30.0089 9.91742 29.9355 9.98973L26.709 13.2163L24.498 11.0054C24.0785 10.5812 23.5457 10.2866 22.9634 10.1569C22.381 10.0271 21.7737 10.0675 21.2137 10.2734C20.6537 10.4793 20.1647 10.8419 19.8051 11.318C19.4455 11.7941 19.2304 12.3635 19.1855 12.9585C18.6087 12.8072 18.0004 12.8256 17.4337 13.0115C16.867 13.1973 16.366 13.5427 15.9908 14.0062C15.6155 14.4697 15.3819 15.0317 15.3181 15.6246C15.2543 16.2176 15.3629 16.8163 15.6309 17.3491C15.0136 17.4534 14.4435 17.7453 13.998 18.185C13.6138 18.5713 13.3379 19.0518 13.198 19.5784C13.0581 20.1049 13.0592 20.659 13.2012 21.185C12.6067 21.2255 12.0366 21.4367 11.5594 21.7934C11.0821 22.1501 10.7181 22.637 10.5109 23.1957C10.3038 23.7543 10.2625 24.3609 10.3918 24.9425C10.5212 25.5241 10.8158 26.0559 11.2402 26.4741L12.3418 27.5757L10.0996 29.8179C10.0271 29.8931 9.93949 29.9522 9.84256 29.9912C9.74562 30.0302 9.64154 30.0484 9.53711 30.0444C9.36524 30.0366 9.20117 30.0366 9.02149 30.0288C7.89294 30.0283 6.77534 30.2501 5.7325 30.6815C4.68966 31.1129 3.74201 31.7454 2.94364 32.5431C1.33127 34.154 0.424865 36.3394 0.423829 38.6186C0.422793 40.8978 1.32721 43.0841 2.93812 44.6965C4.54903 46.3089 6.73447 47.2153 9.01367 47.2163H9.03711C10.1652 47.2159 11.2821 46.9933 12.3241 46.5611C13.3661 46.129 14.3128 45.4959 15.1101 44.6979C15.9074 43.8998 16.5397 42.9526 16.9709 41.9102C17.4021 40.8677 17.6237 39.7506 17.623 38.6225C17.623 38.4507 17.6152 38.2788 17.6074 38.1147C17.6024 38.0102 17.62 37.9058 17.6591 37.8087C17.6982 37.7116 17.7579 37.6241 17.834 37.5522L20.0762 35.31L28.9199 44.146L28.3652 44.7007C28.2914 44.773 28.2327 44.8593 28.1925 44.9545C28.1522 45.0497 28.1313 45.152 28.1309 45.2554C28.1313 45.3576 28.1522 45.4586 28.1925 45.5526C28.2328 45.6465 28.2915 45.7314 28.3652 45.8022L29.4668 46.9116C29.6154 47.0561 29.8142 47.1374 30.0215 47.1382C30.2285 47.1359 30.4268 47.0549 30.5762 46.9116C30.7225 46.7641 30.8047 46.5647 30.8047 46.3569C30.8047 46.1491 30.7225 45.9497 30.5762 45.8022L30.0215 45.2554L42.1699 33.0991L46.0371 36.9663C46.1846 37.1127 46.384 37.1948 46.5918 37.1948C46.7996 37.1948 46.999 37.1127 47.1465 36.9663C47.292 36.8199 47.3737 36.6219 47.3737 36.4155C47.3737 36.2091 47.292 36.0111 47.1465 35.8647ZM31.0371 11.0913C31.2683 10.8647 31.4485 10.5914 31.5657 10.2896C31.6829 9.98784 31.7344 9.66454 31.7168 9.34129C31.6525 8.2689 31.835 7.19604 32.2501 6.20519C32.6653 5.21434 33.3022 4.33189 34.1118 3.62568C34.9214 2.91947 35.8821 2.40829 36.9201 2.13146C37.9582 1.85463 39.0459 1.8195 40.0996 2.02879L35.9746 6.15379C35.8881 6.23944 35.8226 6.34397 35.7833 6.4592C35.744 6.57442 35.7319 6.69719 35.748 6.81785L36.3027 10.685C36.3265 10.8528 36.4041 11.0082 36.5238 11.128C36.6436 11.2478 36.7991 11.3254 36.9668 11.3491L40.834 11.9038C40.9547 11.9199 41.0774 11.9079 41.1926 11.8686C41.3079 11.8292 41.4124 11.7638 41.498 11.6772L45.623 7.55223C45.8323 8.60597 45.7972 9.69366 45.5204 10.7317C45.2435 11.7697 44.7324 12.7305 44.0262 13.5401C43.3199 14.3496 42.4375 14.9865 41.4466 15.4017C40.4558 15.8169 39.3829 15.9993 38.3105 15.935C37.9874 15.918 37.6643 15.9698 37.3626 16.087C37.0609 16.2042 36.7875 16.3841 36.5605 16.6147L35.5449 17.6304L33.334 15.4194C32.7382 14.8511 31.9464 14.534 31.123 14.534C30.2997 14.534 29.5079 14.8511 28.9121 15.4194L27.8105 14.3179L31.0371 11.0913ZM21.1777 12.1069C21.4766 11.8247 21.8721 11.6675 22.2832 11.6675C22.6943 11.6675 23.0898 11.8247 23.3887 12.1069L27.8105 16.5288L25.5996 18.7397L21.1777 14.3179C20.8868 14.0235 20.7236 13.6263 20.7236 13.2124C20.7236 12.7985 20.8868 12.4013 21.1777 12.1069ZM17.3105 14.8725C17.6076 14.5868 18.0038 14.4271 18.416 14.4271C18.8282 14.4271 19.2244 14.5868 19.5215 14.8725L24.498 19.8413L24.5918 19.9585C24.4452 20.2673 24.3692 20.6049 24.3692 20.9468C24.3692 21.2886 24.4452 21.6262 24.5918 21.935L24.498 22.0522C24.1992 22.3345 23.8037 22.4917 23.3926 22.4917C22.9815 22.4917 22.586 22.3345 22.2871 22.0522L20.3496 20.1147L17.3105 17.0757C17.1657 16.9311 17.0508 16.7594 16.9724 16.5704C16.894 16.3814 16.8536 16.1787 16.8536 15.9741C16.8536 15.7695 16.894 15.5668 16.9724 15.3778C17.0508 15.1888 17.1657 15.0171 17.3105 14.8725ZM15.1074 19.2866C15.4002 18.9956 15.7962 18.8322 16.209 18.8322C16.6218 18.8322 17.0178 18.9956 17.3105 19.2866L19.248 21.2241L21.1777 23.1538H21.1855L22.2871 24.2632C22.5803 24.5564 22.745 24.954 22.745 25.3686C22.745 25.7833 22.5803 26.1809 22.2871 26.4741C21.9939 26.7673 21.5963 26.932 21.1816 26.932C20.767 26.932 20.3694 26.7673 20.0762 26.4741L15.6543 22.0522L15.1074 21.4975C14.9621 21.3524 14.8469 21.1801 14.7683 20.9904C14.6896 20.8007 14.6492 20.5974 14.6492 20.3921C14.6492 20.1867 14.6896 19.9834 14.7683 19.7937C14.8469 19.604 14.9621 19.4317 15.1074 19.2866ZM11.8809 24.2632C11.8802 24.0569 11.9207 23.8526 11.9998 23.6621C12.0789 23.4717 12.1952 23.2989 12.3418 23.1538C12.6355 22.8644 13.031 22.7017 13.4434 22.7007C13.6491 22.6986 13.8532 22.7376 14.0437 22.8154C14.2342 22.8932 14.4073 23.0083 14.5527 23.1538L18.9746 27.5757L19.5215 28.1304C19.8147 28.4235 19.9794 28.8212 19.9794 29.2358C19.9794 29.6505 19.8147 30.0481 19.5215 30.3413C19.2283 30.6345 18.8306 30.7992 18.416 30.7992C18.0014 30.7992 17.6037 30.6345 17.3105 30.3413L12.3418 25.3647C12.1959 25.2207 12.0801 25.0492 12.0009 24.8601C11.9218 24.6711 11.881 24.4681 11.8809 24.2632ZM30.0215 43.0444L21.1777 34.2085L29.4668 25.9194C29.6132 25.7719 29.6953 25.5725 29.6953 25.3647C29.6953 25.1569 29.6132 24.9575 29.4668 24.81C29.3204 24.6645 29.1224 24.5829 28.916 24.5829C28.7096 24.5829 28.5116 24.6645 28.3652 24.81L16.7246 36.4507C16.4943 36.6779 16.3147 36.9513 16.1975 37.2529C16.0804 37.5546 16.0284 37.8775 16.0449 38.2007C16.0527 38.3413 16.0605 38.4819 16.0605 38.6225C16.0605 40.486 15.3208 42.2732 14.0039 43.5916C12.687 44.91 10.9006 45.6517 9.03711 45.6538H9.01367C7.14887 45.6528 5.36086 44.911 4.04297 43.5916C2.72509 42.2723 1.98529 40.4834 1.98633 38.6186C1.98737 36.7538 2.72915 34.9658 4.0485 33.6479C5.36784 32.3301 7.15668 31.5903 9.02149 31.5913C9.13867 31.5913 9.31055 31.5991 9.45117 31.6069C9.77411 31.6216 10.0966 31.5688 10.3979 31.4518C10.6992 31.3347 10.9728 31.1561 11.2012 30.9272L13.4434 28.6772L16.209 31.4429C16.6914 31.9284 17.3203 32.2417 17.9984 32.3341C18.6766 32.4266 19.3664 32.2932 19.9612 31.9544C20.556 31.6157 21.0227 31.0905 21.2891 30.4601C21.5556 29.8296 21.6071 29.1289 21.4355 28.4663C21.9408 28.4291 22.4292 28.2684 22.8578 27.9983C23.2863 27.7282 23.642 27.357 23.8935 26.9172C24.1451 26.4775 24.2847 25.9826 24.3002 25.4763C24.3157 24.9699 24.2066 24.4675 23.9824 24.0132C24.5965 23.8984 25.1608 23.5985 25.5996 23.1538C25.623 23.1382 25.6309 23.1147 25.6543 23.0991C26.4064 23.5949 27.3063 23.8167 28.2026 23.727C29.099 23.6374 29.9371 23.2418 30.5762 22.6069C30.7239 22.464 30.9214 22.3841 31.127 22.3841C31.3325 22.3841 31.53 22.464 31.6777 22.6069C31.7504 22.6781 31.8079 22.7633 31.8468 22.8572C31.8857 22.9512 31.9053 23.0521 31.9043 23.1538C31.9053 23.2567 31.8858 23.3587 31.8469 23.454C31.808 23.5492 31.7505 23.6357 31.6777 23.7085L31.123 24.2632C30.0987 25.2895 29.5234 26.6803 29.5234 28.1304C29.5234 29.5804 30.0987 30.9712 31.123 31.9975L31.6777 32.5444C31.749 32.6186 31.8346 32.6776 31.9292 32.7179C32.0238 32.7582 32.1257 32.7789 32.2285 32.7789C32.3314 32.7789 32.4332 32.7582 32.5278 32.7179C32.6225 32.6776 32.708 32.6186 32.7793 32.5444C32.9248 32.398 33.0065 32.2 33.0065 31.9936C33.0065 31.7872 32.9248 31.5892 32.7793 31.4429L32.2324 30.8882C31.5001 30.1556 31.0887 29.1622 31.0887 28.1264C31.0887 27.0907 31.5001 26.0973 32.2324 25.3647L32.7793 24.81C32.9972 24.5928 33.1701 24.3346 33.288 24.0504C33.406 23.7662 33.4667 23.4615 33.4667 23.1538C33.4667 22.8461 33.406 22.5414 33.288 22.2572C33.1701 21.973 32.9972 21.7148 32.7793 21.4975C32.3327 21.0724 31.7397 20.8353 31.123 20.8353C30.5064 20.8353 29.9134 21.0724 29.4668 21.4975C29.0273 21.9365 28.4316 22.183 27.8105 22.183C27.1895 22.183 26.5938 21.9365 26.1543 21.4975C26.0088 21.3512 25.9271 21.1532 25.9271 20.9468C25.9271 20.7404 26.0088 20.5424 26.1543 20.396L30.0215 16.5288C30.3185 16.243 30.7147 16.0834 31.127 16.0834C31.5392 16.0834 31.9354 16.243 32.2324 16.5288L35.7324 20.021C36.6067 20.9062 37.1595 22.0585 37.3027 23.2944L37.8652 28.31C38.0622 30.079 38.8017 31.7437 39.9824 33.0757L30.0215 43.0444Z" fill="#13F2AD"/>
</svg>
