<svg width="189" height="208" viewBox="0 0 189 208" fill="none" xmlns="http://www.w3.org/2000/svg">
<path d="M7.94 111.604L4.98448 111.089L4.38557 114.529L7.87573 114.603L7.94 111.604ZM48.82 112.48L48.7557 115.479L49.9359 115.505L50.8168 114.719L48.82 112.48ZM44.148 145.768L47.0664 145.073L46.5176 142.768H44.148V145.768ZM0.348001 145.768V142.768H-2.92626L-2.64056 146.03L0.348001 145.768ZM48.236 79.776L45.2887 79.2164L44.0878 85.5407L49.703 82.3928L48.236 79.776ZM56.996 33.64V30.64H54.512L54.0487 33.0804L56.996 33.64ZM174.38 33.64V36.64H177.38V33.64H174.38ZM174.38 0.935989H177.38V-2.06401H174.38V0.935989ZM27.212 0.935989V-2.06401H24.6893L24.2565 0.42131L27.212 0.935989ZM7.87573 114.603L48.7557 115.479L48.8843 109.481L8.00427 108.605L7.87573 114.603ZM50.8168 114.719C56.0419 110.059 61.4311 106.278 68.2939 103.636C75.1709 100.989 83.6952 99.42 95.248 99.42V93.42C83.1489 93.42 73.8611 95.0635 66.1381 98.0368C58.4009 101.016 52.4021 105.265 46.8232 110.241L50.8168 114.719ZM95.248 99.42C107.813 99.42 119.46 102.463 127.885 108.688C136.192 114.827 141.596 124.217 141.596 137.592H147.596C147.596 122.351 141.32 111.155 131.45 103.862C121.698 96.6553 108.671 93.42 95.248 93.42V99.42ZM141.596 137.592C141.596 151.416 135.588 160.249 126.697 165.777C117.615 171.424 105.327 173.72 92.912 173.72V179.72C105.901 179.72 119.456 177.344 129.865 170.873C140.464 164.283 147.596 153.552 147.596 137.592H141.596ZM92.912 173.72C82.6502 173.72 72.4688 172.143 64.2387 167.79C56.1301 163.501 49.7764 156.455 47.0664 145.073L41.2296 146.463C44.3596 159.609 51.876 168.039 61.4333 173.094C70.8692 178.085 82.1498 179.72 92.912 179.72V173.72ZM44.148 142.768H0.348001V148.768H44.148V142.768ZM-2.64056 146.03C-0.805537 166.98 9.49755 183.275 26.3812 194.238C43.1601 205.133 66.2772 210.672 93.788 210.672V204.672C66.9868 204.672 45.1359 199.262 29.6488 189.205C14.2665 179.217 5.00554 164.56 3.33656 145.506L-2.64056 146.03ZM93.788 210.672C126.202 210.672 150.631 202.904 167.004 189.126C183.445 175.291 191.396 155.704 191.396 132.92H185.396C185.396 154.228 178.017 172.017 163.141 184.535C148.197 197.11 125.322 204.672 93.788 204.672V210.672ZM191.396 132.92C191.396 109.705 181.099 92.3749 164.628 80.9602C148.279 69.6299 126.011 64.22 101.964 64.22V70.22C125.221 70.22 146.169 75.4681 161.21 85.8917C176.129 96.2311 185.396 111.751 185.396 132.92H191.396ZM101.964 64.22C87.7357 64.22 66.6939 65.9891 46.769 77.1591L49.703 82.3928C68.3221 71.9549 88.1603 70.22 101.964 70.22V64.22ZM51.1833 80.3356L59.9433 34.1996L54.0487 33.0804L45.2887 79.2164L51.1833 80.3356ZM56.996 36.64H174.38V30.64H56.996V36.64ZM177.38 33.64V0.935989H171.38V33.64H177.38ZM174.38 -2.06401H27.212V3.93599H174.38V-2.06401ZM24.2565 0.42131L4.98448 111.089L10.8955 112.119L30.1675 1.45068L24.2565 0.42131Z" fill="url(#paint0_linear_1_23023)"/>
<defs>
<linearGradient id="paint0_linear_1_23023" x1="96" y1="-15.7222" x2="96" y2="202.778" gradientUnits="userSpaceOnUse">
<stop stop-color="white"/>
<stop offset="1" stop-color="white" stop-opacity="0"/>
</linearGradient>
</defs>
</svg>
