<svg width="182" height="203" viewBox="0 0 182 203" fill="none" xmlns="http://www.w3.org/2000/svg">
<path d="M0.172 35.392H-2.828V38.392H0.172V35.392ZM137.996 35.392L140.067 37.5628L145.488 32.392H137.996V35.392ZM36.088 203L33.1027 202.703L32.7748 206H36.088V203ZM86.896 203V206H89.4707L89.8613 203.455L86.896 203ZM181.796 36.268L184.02 38.2815L184.796 37.4243V36.268H181.796ZM181.796 0.935989H184.796V-2.06401H181.796V0.935989ZM0.172 0.935989V-2.06401H-2.828V0.935989H0.172ZM0.172 38.392H137.996V32.392H0.172V38.392ZM135.925 33.2212C116.781 51.4819 92.5455 79.6154 72.3826 110.209C52.2728 140.721 35.9508 174.073 33.1027 202.703L39.0733 203.297C41.7732 176.155 57.4252 143.807 77.3924 113.51C97.3065 83.2946 121.251 55.5101 140.067 37.5628L135.925 33.2212ZM36.088 206H86.896V200H36.088V206ZM89.8613 203.455C94.3025 174.516 108.027 144.027 125.626 115.288C143.207 86.5784 164.545 59.7907 184.02 38.2815L179.572 34.2545C159.919 55.9613 138.333 83.0476 120.509 112.154C102.703 141.231 88.5415 172.5 83.9307 202.545L89.8613 203.455ZM184.796 36.268V0.935989H178.796V36.268H184.796ZM181.796 -2.06401H0.172V3.93599H181.796V-2.06401ZM-2.828 0.935989V35.392H3.172V0.935989H-2.828Z" fill="url(#paint0_linear_1_23043)"/>
<defs>
<linearGradient id="paint0_linear_1_23043" x1="93" y1="-15.7222" x2="93" y2="202.778" gradientUnits="userSpaceOnUse">
<stop stop-color="white"/>
<stop offset="1" stop-color="white" stop-opacity="0"/>
</linearGradient>
</defs>
</svg>
