<svg width="189" height="212" viewBox="0 0 189 212" fill="none" xmlns="http://www.w3.org/2000/svg">
<path d="M183.724 55.744V58.744H187.154L186.697 55.3442L183.724 55.744ZM42.396 95.748L39.3991 95.6107L39.0451 103.342L44.5173 97.8693L42.396 95.748ZM140.8 55.744L137.886 56.4576L138.446 58.744H140.8V55.744ZM186.697 55.3442C184.253 37.1685 175.561 22.4995 160.218 12.4629C144.986 2.4996 123.457 -2.736 95.54 -2.736V3.264C122.811 3.264 143.038 8.3944 156.933 17.4841C170.717 26.5005 178.523 39.5715 180.751 56.1438L186.697 55.3442ZM95.54 -2.736C54.5198 -2.736 29.7648 14.6428 15.4125 37.1205C1.18915 59.3962 -2.652 86.3932 -2.652 105.676H3.348C3.348 86.9988 7.09885 61.2898 20.4695 40.3495C33.7112 19.6112 56.5522 3.264 95.54 3.264V-2.736ZM-2.652 105.676C-2.652 136.173 2.92953 163.466 18.1973 183.178C33.5829 203.041 58.3768 214.672 95.54 214.672V208.672C59.7032 208.672 36.9011 197.527 22.9407 179.503C8.86247 161.328 3.348 135.623 3.348 105.676H-2.652ZM95.54 214.672C129.086 214.672 153.22 205.387 169.006 191.279C184.796 177.167 191.98 158.447 191.98 140.132H185.98C185.98 156.857 179.44 173.907 165.008 186.805C150.572 199.707 127.986 208.672 95.54 208.672V214.672ZM191.98 140.132C191.98 122.403 186.211 104.76 172.282 91.5628C158.359 78.3701 136.655 69.972 105.468 69.972V75.972C135.601 75.972 155.653 84.0719 168.156 95.9182C180.653 107.76 185.98 123.697 185.98 140.132H191.98ZM105.468 69.972C91.4272 69.972 79.668 71.2988 69.1171 74.9554C58.5216 78.6275 49.3105 84.5908 40.2747 93.6267L44.5173 97.8693C53.0015 89.3852 61.4564 83.9605 71.0819 80.6246C80.752 77.2732 91.7688 75.972 105.468 75.972V69.972ZM45.3929 95.8853C46.2483 77.2089 51.5108 61.7902 60.6957 51.0917C69.8165 40.4679 83.0411 34.216 100.504 34.216V28.216C81.4669 28.216 66.5135 35.1041 56.1433 47.1833C45.8372 59.1878 40.2957 76.0351 39.3991 95.6107L45.3929 95.8853ZM100.504 34.216C112.68 34.216 121.236 36.6963 127.088 40.6085C132.882 44.4823 136.289 49.9341 137.886 56.4576L143.714 55.0304C141.807 47.2459 137.622 40.4336 130.422 35.6205C123.28 30.8456 113.44 28.216 100.504 28.216V34.216ZM140.8 58.744H183.724V52.744H140.8V58.744ZM50.36 142.468C50.36 133.036 53.3523 124.277 60.341 117.848C67.3541 111.398 78.7941 106.924 96.416 106.924V100.924C77.8299 100.924 64.7419 105.648 56.2791 113.432C47.7917 121.239 44.36 131.752 44.36 142.468H50.36ZM96.416 106.924C113.886 106.924 125.252 111.395 132.23 117.844C139.187 124.273 142.18 133.035 142.18 142.468H148.18C148.18 131.753 144.749 121.243 136.303 113.437C127.878 105.651 114.862 100.924 96.416 100.924V106.924ZM142.18 142.468C142.18 151.744 139.194 160.434 132.236 166.832C125.256 173.25 113.885 177.72 96.416 177.72V183.72C114.863 183.72 127.874 178.992 136.297 171.248C144.742 163.484 148.18 153.048 148.18 142.468H142.18ZM96.416 177.72C78.7946 177.72 67.3505 173.246 60.3353 166.827C53.3453 160.43 50.36 151.743 50.36 142.468H44.36C44.36 153.049 47.7987 163.488 56.2847 171.253C64.7455 178.996 77.8294 183.72 96.416 183.72V177.72Z" fill="url(#paint0_linear_1_23033)"/>
<defs>
<linearGradient id="paint0_linear_1_23033" x1="96" y1="-11.7222" x2="96" y2="206.778" gradientUnits="userSpaceOnUse">
<stop stop-color="white"/>
<stop offset="1" stop-color="white" stop-opacity="0"/>
</linearGradient>
</defs>
</svg>
