<svg width="189" height="212" viewBox="0 0 189 212" fill="none" xmlns="http://www.w3.org/2000/svg">
<path d="M5.356 156.192V153.192H1.92564L2.38276 156.592L5.356 156.192ZM146.684 116.188L149.681 116.325L150.035 108.594L144.563 114.067L146.684 116.188ZM48.28 156.192L51.1939 155.478L50.634 153.192H48.28V156.192ZM2.38276 156.592C4.82655 174.767 13.519 189.437 28.8622 199.473C44.0935 209.436 65.6226 214.672 93.54 214.672V208.672C66.2695 208.672 46.0425 203.542 32.1468 194.452C18.363 185.435 10.5575 172.365 8.32925 155.792L2.38276 156.592ZM93.54 214.672C134.56 214.672 159.315 197.293 173.668 174.815C187.891 152.54 191.732 125.543 191.732 106.26H185.732C185.732 124.937 181.981 150.646 168.61 171.587C155.369 192.325 132.528 208.672 93.54 208.672V214.672ZM191.732 106.26C191.732 75.763 186.15 48.4697 170.883 28.7584C155.497 8.89481 130.703 -2.736 93.54 -2.736V3.264C129.377 3.264 152.179 14.4092 166.139 32.4326C180.218 50.6082 185.732 76.313 185.732 106.26H191.732ZM93.54 -2.736C59.9939 -2.736 35.8601 6.54866 20.0739 20.6572C4.28354 34.7693 -2.9 53.4886 -2.9 71.804H3.1C3.1 55.0794 9.64046 38.0287 24.0721 25.1309C38.5079 12.2293 61.0941 3.264 93.54 3.264V-2.736ZM-2.9 71.804C-2.9 89.5328 2.86937 107.176 16.7976 120.373C30.7211 133.566 52.4252 141.964 83.612 141.964V135.964C53.4788 135.964 33.4269 127.864 20.9244 116.018C8.42663 104.176 3.1 88.2392 3.1 71.804H-2.9ZM83.612 141.964C97.6528 141.964 109.412 140.637 119.963 136.981C130.558 133.309 139.769 127.345 148.805 118.309L144.563 114.067C136.079 122.551 127.624 127.975 117.998 131.311C108.328 134.663 97.3112 135.964 83.612 135.964V141.964ZM143.687 116.051C142.832 134.727 137.569 150.146 128.384 160.844C119.264 171.468 106.039 177.72 88.576 177.72V183.72C107.613 183.72 122.566 176.832 132.937 164.753C143.243 152.748 148.784 135.901 149.681 116.325L143.687 116.051ZM88.576 177.72C76.4002 177.72 67.8441 175.24 61.9923 171.328C56.1978 167.454 52.7915 162.002 51.1939 155.478L45.3661 156.906C47.2725 164.69 51.4582 171.502 58.6577 176.315C65.7999 181.09 75.6398 183.72 88.576 183.72V177.72ZM48.28 153.192H5.356V159.192H48.28V153.192ZM138.72 69.468C138.72 78.9004 135.728 87.6593 128.739 94.0875C121.726 100.538 110.286 105.012 92.664 105.012V111.012C111.25 111.012 124.338 106.288 132.801 98.5035C141.288 90.6967 144.72 80.1836 144.72 69.468H138.72ZM92.664 105.012C75.1942 105.012 63.828 100.541 56.8496 94.0923C49.8931 87.6633 46.9 78.9013 46.9 69.468H40.9C40.9 80.1827 44.3309 90.6927 52.7774 98.4987C61.202 106.285 74.2178 111.012 92.664 111.012V105.012ZM46.9 69.468C46.9 60.1918 49.8861 51.5017 56.844 45.1044C63.8244 38.6864 75.1946 34.216 92.664 34.216V28.216C74.2174 28.216 61.2056 32.9435 52.783 40.6876C44.3379 48.4523 40.9 58.8882 40.9 69.468H46.9ZM92.664 34.216C110.285 34.216 121.729 38.6896 128.745 45.1092C135.735 51.5057 138.72 60.1927 138.72 69.468H144.72C144.72 58.8873 141.281 48.4483 132.795 40.6828C124.335 32.9404 111.251 28.216 92.664 28.216V34.216Z" fill="url(#paint0_linear_1_23065)"/>
<defs>
<linearGradient id="paint0_linear_1_23065" x1="94" y1="-11.7222" x2="94" y2="206.778" gradientUnits="userSpaceOnUse">
<stop stop-color="white"/>
<stop offset="1" stop-color="white" stop-opacity="0"/>
</linearGradient>
</defs>
</svg>
