<svg width="191" height="212" viewBox="0 0 191 212" fill="none" xmlns="http://www.w3.org/2000/svg">
<path d="M0.932001 142.176V139.176H-2.08375L-2.06796 142.192L0.932001 142.176ZM149.852 97.792H146.852V100.168L149.165 100.712L149.852 97.792ZM149.852 97.208L149.009 94.3288L146.852 94.9602V97.208H149.852ZM6.48 66.256L3.49161 65.9923L3.20364 69.256H6.48V66.256ZM48.528 66.256V69.256H51.3315L51.5211 66.4589L48.528 66.256ZM72.764 85.528V82.528H69.764V85.528H72.764ZM72.764 114.728H69.764V117.728H72.764V114.728ZM42.98 142.176L45.9727 141.967L45.7773 139.176H42.98V142.176ZM-2.06796 142.192C-1.91634 171.151 10.9233 189.494 29.5246 200.425C47.8984 211.222 71.6666 214.672 93.788 214.672V208.672C72.1094 208.672 49.5956 205.26 32.5644 195.252C15.7607 185.378 4.07234 168.973 3.93196 142.16L-2.06796 142.192ZM93.788 214.672C137.21 214.672 162.22 203.292 176.335 188.444C190.425 173.624 193.148 155.881 193.148 144.22H187.148C187.148 155.043 184.615 171.026 171.987 184.311C159.384 197.568 136.214 208.672 93.788 208.672V214.672ZM193.148 144.22C193.148 120.434 176.507 100.982 150.539 94.8717L149.165 100.712C172.837 106.282 187.148 123.622 187.148 144.22H193.148ZM152.852 97.792V97.208H146.852V97.792H152.852ZM150.695 100.087C176.006 92.679 184.388 74.5015 184.388 59.832H178.388C178.388 72.0265 171.586 87.721 149.009 94.3288L150.695 100.087ZM184.388 59.832C184.388 43.9735 179.18 28.1666 165.418 16.3813C151.721 4.65239 129.965 -2.736 97.584 -2.736V3.264C129.151 3.264 149.297 10.4756 161.515 20.9387C173.668 31.3454 178.388 45.3225 178.388 59.832H184.388ZM97.584 -2.736C74.6594 -2.736 52.3488 1.39441 35.1191 12.0966C17.7376 22.8931 5.76367 40.2423 3.49161 65.9923L9.46839 66.5197C11.5763 42.6297 22.5244 26.983 38.2849 17.1934C54.1972 7.30959 75.2486 3.264 97.584 3.264V-2.736ZM6.48 69.256H48.528V63.256H6.48V69.256ZM51.5211 66.4589C52.0653 58.4331 55.0426 50.4388 61.3591 44.453C67.6526 38.489 77.5816 34.216 92.62 34.216V28.216C76.4144 28.216 64.8814 32.849 57.232 40.0979C49.6054 47.3252 46.1588 56.8509 45.5349 66.0531L51.5211 66.4589ZM92.62 34.216C108.873 34.216 119.373 37.786 125.744 42.7449C132.032 47.6389 134.588 54.1044 134.588 60.708H140.588C140.588 52.4195 137.304 44.1391 129.43 38.0101C121.639 31.9459 109.655 28.216 92.62 28.216V34.216ZM134.588 60.708C134.588 68.1891 131.576 73.4212 126.049 76.938C120.319 80.5847 111.64 82.528 100.212 82.528V88.528C112.144 88.528 122.153 86.5293 129.271 82C136.592 77.3408 140.588 70.1629 140.588 60.708H134.588ZM100.212 82.528H72.764V88.528H100.212V82.528ZM69.764 85.528V114.728H75.764V85.528H69.764ZM72.764 117.728H97.292V111.728H72.764V117.728ZM97.292 117.728C117.174 117.728 128.121 122.381 134.103 128.04C140.05 133.665 141.596 140.767 141.596 146.848H147.596C147.596 139.789 145.784 130.831 138.226 123.681C130.703 116.565 117.998 111.728 97.292 111.728V117.728ZM141.596 146.848C141.596 156.763 136.713 164.337 128.399 169.567C119.974 174.866 108.028 177.72 94.372 177.72V183.72C108.748 183.72 121.914 180.734 131.593 174.645C141.383 168.487 147.596 159.125 147.596 146.848H141.596ZM94.372 177.72C81.0614 177.72 69.3974 175.417 60.8954 169.884C52.563 164.461 46.9357 155.724 45.9727 141.967L39.9873 142.385C41.0683 157.828 47.559 168.363 57.6226 174.912C67.5166 181.351 80.5266 183.72 94.372 183.72V177.72ZM42.98 139.176H0.932001V145.176H42.98V139.176Z" fill="url(#paint0_linear_1_23004)"/>
<defs>
<linearGradient id="paint0_linear_1_23004" x1="96" y1="-11.7222" x2="96" y2="206.778" gradientUnits="userSpaceOnUse">
<stop stop-color="white"/>
<stop offset="1" stop-color="white" stop-opacity="0"/>
</linearGradient>
</defs>
</svg>
