<svg width="191" height="212" viewBox="0 0 191 212" fill="none" xmlns="http://www.w3.org/2000/svg">
<path d="M148.1 96.916H145.1V99.2583L147.372 99.8264L148.1 96.916ZM148.1 96.332L147.249 93.4552L145.1 94.0909V96.332H148.1ZM42.688 96.332H45.688V94.0909L43.5389 93.4552L42.688 96.332ZM42.688 96.916L43.4156 99.8264L45.688 99.2583V96.916H42.688ZM-2.652 149.184C-2.652 161.22 1.44051 177.714 16.0152 191.173C30.5807 204.624 55.2106 214.672 95.54 214.672V208.672C56.1534 208.672 33.1873 198.864 20.0858 186.765C6.99349 174.674 3.348 159.924 3.348 149.184H-2.652ZM95.54 214.672C135.727 214.672 160.353 204.622 174.952 191.176C189.559 177.722 193.732 161.232 193.732 149.184H187.732C187.732 159.912 184.021 174.666 170.888 186.762C157.747 198.866 134.777 208.672 95.54 208.672V214.672ZM193.732 149.184C193.732 136.421 190.537 124.572 183.195 114.887C175.843 105.189 164.54 97.9337 148.828 94.0056L147.372 99.8264C162.028 103.49 172.041 110.105 178.413 118.511C184.795 126.93 187.732 137.419 187.732 149.184H193.732ZM151.1 96.916V96.332H145.1V96.916H151.1ZM148.951 99.2088C159.726 96.0219 168.683 90.7939 174.955 83.3773C181.258 75.9251 184.68 66.4609 184.68 55.16H178.68C178.68 65.175 175.678 73.2309 170.374 79.5027C165.039 85.8101 157.206 90.5101 147.249 93.4552L148.951 99.2088ZM184.68 55.16C184.68 39.4656 178.939 24.7836 164.598 14.1344C150.399 3.59109 128.121 -2.736 95.54 -2.736V3.264C127.491 3.264 148.283 9.4929 161.021 18.9516C173.617 28.3044 178.68 41.0704 178.68 55.16H184.68ZM95.54 -2.736C62.8153 -2.736 40.4651 3.59013 26.2296 14.1321C11.8495 24.7812 6.108 39.4646 6.108 55.16H12.108C12.108 41.0713 17.1705 28.3068 29.8004 18.9539C42.5749 9.49387 63.4407 3.264 95.54 3.264V-2.736ZM6.108 55.16C6.108 66.4609 9.53022 75.9251 15.8329 83.3773C22.1055 90.7939 31.0625 96.0219 41.8371 99.2088L43.5389 93.4552C33.5816 90.5101 25.7485 85.8101 20.4141 79.5027C15.1098 73.2309 12.108 65.175 12.108 55.16H6.108ZM39.688 96.332V96.916H45.688V96.332H39.688ZM41.9604 94.0056C26.2441 97.9346 15.0094 105.193 7.73 114.899C0.463017 124.588 -2.652 136.436 -2.652 149.184H3.348C3.348 137.404 6.21898 126.914 12.53 118.499C18.8286 110.101 28.7639 103.489 43.4156 99.8264L41.9604 94.0056ZM95.54 80.484C81.777 80.484 71.7579 78.1765 65.2785 74.2094C58.9892 70.3588 55.908 64.8898 55.908 57.788H49.908C49.908 67.0382 54.1268 74.4171 62.1455 79.3266C69.9741 84.1195 81.271 86.484 95.54 86.484V80.484ZM55.908 57.788C55.908 50.1876 59.0429 44.5134 65.3067 40.5826C71.772 36.5252 81.7727 34.216 95.54 34.216V28.216C81.2753 28.216 69.96 30.5788 62.1173 35.5004C54.0731 40.5486 49.908 48.1604 49.908 57.788H55.908ZM95.54 34.216C109.157 34.216 119.083 36.5237 125.512 40.5789C131.743 44.5092 134.88 50.1856 134.88 57.788H140.88C140.88 48.1624 136.717 40.5528 128.713 35.5041C120.907 30.5802 109.663 28.216 95.54 28.216V34.216ZM134.88 57.788C134.88 64.892 131.797 70.363 125.54 74.213C119.097 78.1779 109.152 80.484 95.54 80.484V86.484C109.668 86.484 120.893 84.1181 128.685 79.323C136.664 74.413 140.88 67.036 140.88 57.788H134.88ZM48.9 147.14C48.9 137.625 52.4675 129.952 59.7972 124.553C67.2596 119.056 78.9442 115.684 95.54 115.684V109.684C78.2638 109.684 65.1284 113.174 56.2388 119.722C47.2165 126.368 42.9 135.923 42.9 147.14H48.9ZM95.54 115.684C112.136 115.684 123.82 119.056 131.283 124.553C138.613 129.952 142.18 137.625 142.18 147.14H148.18C148.18 135.923 143.863 126.368 134.841 119.722C125.952 113.174 112.816 109.684 95.54 109.684V115.684ZM142.18 147.14C142.18 156.174 138.646 163.635 131.304 168.945C123.832 174.349 112.133 177.72 95.54 177.72V183.72C112.819 183.72 125.94 180.229 134.82 173.807C143.83 167.291 148.18 157.962 148.18 147.14H142.18ZM95.54 177.72C78.9469 177.72 67.248 174.349 59.7761 168.945C52.4337 163.635 48.9 156.174 48.9 147.14H42.9C42.9 157.962 47.2503 167.291 56.2599 173.807C65.14 180.229 78.2611 183.72 95.54 183.72V177.72Z" fill="url(#paint0_linear_1_23054)"/>
<defs>
<linearGradient id="paint0_linear_1_23054" x1="96" y1="-11.7222" x2="96" y2="206.778" gradientUnits="userSpaceOnUse">
<stop stop-color="white"/>
<stop offset="1" stop-color="white" stop-opacity="0"/>
</linearGradient>
</defs>
</svg>
