<svg width="185" height="207" viewBox="0 0 185 207" fill="none" xmlns="http://www.w3.org/2000/svg">
<path d="M184.6 207V210H187.6V207H184.6ZM184.6 174.296H187.6V171.296H184.6V174.296ZM49.404 174.296L46.7281 172.94L44.5201 177.296H49.404V174.296ZM125.324 131.956L126.443 134.74H126.443L125.324 131.956ZM5.02 74.724H2.02V77.724H5.02V74.724ZM48.82 74.724V77.724H51.5678L51.8085 74.9867L48.82 74.724ZM81.524 112.684L82.6966 115.445L82.7058 115.441L81.524 112.684ZM0.348001 207H-2.652V210H0.348001V207ZM187.6 207V174.296H181.6V207H187.6ZM184.6 171.296H49.404V177.296H184.6V171.296ZM52.0799 175.652C56.9978 165.949 67.3494 158.862 80.9589 152.564C94.6319 146.236 110.502 141.146 126.443 134.74L124.205 129.172C108.902 135.322 92.2141 140.744 78.4391 147.118C64.6006 153.522 52.6142 161.327 46.7281 172.94L52.0799 175.652ZM126.443 134.74C142.146 128.429 157.451 120.895 168.848 110.482C180.348 99.9754 187.892 86.507 187.892 68.592H181.892C181.892 84.549 175.274 96.4846 164.801 106.053C154.225 115.715 139.747 122.927 124.205 129.172L126.443 134.74ZM187.892 68.592C187.892 42.4288 176.324 24.4079 158.624 13.068C141.098 1.83878 117.753 -2.736 94.08 -2.736V3.264C117.127 3.264 139.188 7.74121 155.388 18.12C171.414 28.3881 181.892 44.5311 181.892 68.592H187.892ZM94.08 -2.736C68.5261 -2.736 45.545 3.49871 28.8798 16.3971C12.1143 29.3732 2.02 48.8874 2.02 74.724H8.02C8.02 50.6286 17.3437 32.9128 32.5522 21.1419C47.861 9.29329 69.4099 3.264 94.08 3.264V-2.736ZM5.02 77.724H48.82V71.724H5.02V77.724ZM51.8085 74.9867C52.928 62.2525 57.3677 52.1574 65.0302 45.231C72.6955 38.3022 83.949 34.216 99.336 34.216V28.216C82.895 28.216 70.0586 32.5978 61.0068 40.78C51.9523 48.9646 47.048 60.6235 45.8315 74.4613L51.8085 74.9867ZM99.336 34.216C107.087 34.216 116.941 36.2403 124.754 41.1317C132.441 45.9445 138.092 53.4575 138.092 64.796H144.092C144.092 51.0225 137.041 41.7454 127.938 36.0462C118.961 30.4257 107.937 28.216 99.336 28.216V34.216ZM138.092 64.796C138.092 70.1094 137.126 74.2838 135.183 77.8716C133.231 81.4756 130.176 84.7064 125.657 87.9438C116.466 94.5288 101.969 100.658 80.3422 109.927L82.7058 115.441C104.003 106.314 119.29 99.8872 129.152 92.8212C134.16 89.2331 137.948 85.3647 140.459 80.7287C142.978 76.0767 144.092 70.8706 144.092 64.796H138.092ZM80.3514 109.923C58.9368 119.017 38.2127 129.928 22.8329 145.232C7.35357 160.636 -2.652 180.436 -2.652 207H3.348C3.348 182.172 12.6144 163.866 27.0651 149.486C41.6153 135.006 61.4792 124.455 82.6966 115.445L80.3514 109.923ZM0.348001 210H184.6V204H0.348001V210Z" fill="url(#paint0_linear_1_22995)"/>
<defs>
<linearGradient id="paint0_linear_1_22995" x1="96" y1="-11.7222" x2="96" y2="206.778" gradientUnits="userSpaceOnUse">
<stop stop-color="white"/>
<stop offset="1" stop-color="white" stop-opacity="0"/>
</linearGradient>
</defs>
</svg>
