<svg width="195" height="206" viewBox="0 0 195 206" fill="none" xmlns="http://www.w3.org/2000/svg">
<path d="M118.856 130.664V133.664H121.856V130.664H118.856ZM41.184 130.664L38.8699 128.755L34.8198 133.664H41.184V130.664ZM118.272 37.224V34.224H116.858L115.958 35.3148L118.272 37.224ZM118.856 37.224H121.856V34.224H118.856V37.224ZM0.888 161.616H-2.112V164.616H0.888V161.616ZM118.856 161.616H121.856V158.616H118.856V161.616ZM118.856 206H115.856V209H118.856V206ZM157.4 206V209H160.4V206H157.4ZM157.4 161.616V158.616H154.4V161.616H157.4ZM194.192 161.616V164.616H197.192V161.616H194.192ZM194.192 130.664H197.192V127.664H194.192V130.664ZM157.4 130.664H154.4V133.664H157.4V130.664ZM157.4 0.431984H160.4V-2.56802H157.4V0.431984ZM111.848 0.431984V-2.56802H110.487L109.591 -1.54427L111.848 0.431984ZM0.888 127.16L-1.36909 125.184L-2.112 126.032V127.16H0.888ZM118.856 127.664H41.184V133.664H118.856V127.664ZM43.4981 132.573L120.586 39.1331L115.958 35.3148L38.8699 128.755L43.4981 132.573ZM118.272 40.224H118.856V34.224H118.272V40.224ZM115.856 37.224V130.664H121.856V37.224H115.856ZM0.888 164.616H118.856V158.616H0.888V164.616ZM115.856 161.616V206H121.856V161.616H115.856ZM118.856 209H157.4V203H118.856V209ZM160.4 206V161.616H154.4V206H160.4ZM157.4 164.616H194.192V158.616H157.4V164.616ZM197.192 161.616V130.664H191.192V161.616H197.192ZM194.192 127.664H157.4V133.664H194.192V127.664ZM160.4 130.664V0.431984H154.4V130.664H160.4ZM157.4 -2.56802H111.848V3.43198H157.4V-2.56802ZM109.591 -1.54427L-1.36909 125.184L3.14509 129.136L114.105 2.40823L109.591 -1.54427ZM-2.112 127.16V161.616H3.888V127.16H-2.112Z" fill="url(#paint0_linear_1_23013)"/>
<defs>
<linearGradient id="paint0_linear_1_23013" x1="98" y1="-12.7222" x2="98" y2="205.778" gradientUnits="userSpaceOnUse">
<stop stop-color="white"/>
<stop offset="1" stop-color="white" stop-opacity="0"/>
</linearGradient>
</defs>
</svg>
