<svg width="46" height="45" viewBox="0 0 46 45" fill="none" xmlns="http://www.w3.org/2000/svg">
<path d="M13.8296 26.0703C13.7986 25.9817 13.7501 25.9002 13.6871 25.8306C13.6241 25.7611 13.5477 25.7048 13.4626 25.6652C13.3775 25.6256 13.2853 25.6035 13.1915 25.6001C13.0976 25.5967 13.0041 25.6121 12.9163 25.6454C12.8286 25.6788 12.7484 25.7294 12.6805 25.7942C12.6126 25.859 12.5583 25.9368 12.521 26.0229C12.4836 26.1091 12.4639 26.2018 12.4629 26.2957C12.462 26.3896 12.4799 26.4827 12.5155 26.5695C13.2612 28.5361 14.5661 30.2415 16.2695 31.4752C16.3442 31.5295 16.4288 31.5686 16.5186 31.5902C16.6084 31.6117 16.7016 31.6154 16.7928 31.601C16.884 31.5866 16.9715 31.5543 17.0502 31.5061C17.129 31.4578 17.1974 31.3946 17.2517 31.3199C17.306 31.2452 17.3451 31.1605 17.3666 31.0707C17.3882 30.9809 17.3919 30.8878 17.3775 30.7965C17.363 30.7053 17.3308 30.6179 17.2825 30.5391C17.2343 30.4604 17.171 30.3919 17.0963 30.3376C15.6144 29.2644 14.4788 27.781 13.8296 26.0703Z" fill="#1B1B1B"/>
<path d="M34.5345 27.8691C35.4665 27.8679 36.3601 27.4972 37.0191 26.8381C37.6782 26.1791 38.049 25.2855 38.0501 24.3534V23.5863C38.049 22.6543 37.6782 21.7607 37.0191 21.1016C36.3601 20.4426 35.4665 20.0718 34.5345 20.0707H34.0514V18.9844C34.0514 18.4249 33.8292 17.8884 33.4336 17.4928C33.038 17.0972 32.5015 16.875 31.942 16.875H10.7871C10.2277 16.875 9.69114 17.0972 9.29556 17.4928C8.89997 17.8884 8.67773 18.4249 8.67773 18.9844V23.9062C8.68127 27.0753 9.94175 30.1136 12.1826 32.3545C14.4235 34.5954 17.4618 35.8558 20.6309 35.8594H22.0983C24.5714 35.855 26.9824 35.0844 28.9996 33.6535C31.0167 32.2226 32.5409 30.2018 33.3623 27.8691H34.5345ZM34.5345 21.477C35.0939 21.477 35.6304 21.6992 36.026 22.0948C36.4216 22.4904 36.6438 23.0269 36.6438 23.5863V24.3534C36.6438 24.9129 36.4216 25.4494 36.026 25.845C35.6304 26.2406 35.0939 26.4628 34.5345 26.4628H34.0514V21.477H34.5345ZM22.0983 34.4531H20.6309C17.8346 34.45 15.1538 33.3378 13.1766 31.3605C11.1993 29.3833 10.0871 26.7025 10.084 23.9062V18.9844C10.084 18.7979 10.1581 18.6191 10.2899 18.4872C10.4218 18.3553 10.6006 18.2812 10.7871 18.2812H31.942C32.1285 18.2812 32.3074 18.3553 32.4392 18.4872C32.5711 18.6191 32.6452 18.7979 32.6452 18.9844V23.9062C32.6422 26.7025 31.53 29.3835 29.5528 31.3607C27.5755 33.338 24.8946 34.4501 22.0983 34.4531Z" fill="#1B1B1B"/>
<path d="M11.0586 37.2656C10.8721 37.2656 10.6933 37.3397 10.5614 37.4716C10.4295 37.6034 10.3555 37.7823 10.3555 37.9688C10.3555 38.1552 10.4295 38.3341 10.5614 38.4659C10.6933 38.5978 10.8721 38.6719 11.0586 38.6719H32.1523C32.3388 38.6719 32.5177 38.5978 32.6495 38.4659C32.7814 38.3341 32.8555 38.1552 32.8555 37.9688C32.8555 37.7823 32.7814 37.6034 32.6495 37.4716C32.5177 37.3397 32.3388 37.2656 32.1523 37.2656H11.0586Z" fill="#1B1B1B"/>
<path d="M15.7737 7.23712C15.6419 7.1053 15.4631 7.03125 15.2766 7.03125C15.0902 7.03125 14.9114 7.1053 14.7795 7.23712C14.2753 7.74226 13.9922 8.42679 13.9922 9.14047C13.9922 9.85416 14.2753 10.5387 14.7795 11.0438C15.0202 11.2852 15.1554 11.6121 15.1554 11.953C15.1554 12.2938 15.0202 12.6208 14.7795 12.8621L14.4279 13.2137C14.3608 13.2785 14.3072 13.3561 14.2704 13.4419C14.2335 13.5277 14.2141 13.62 14.2133 13.7133C14.2125 13.8067 14.2303 13.8993 14.2656 13.9857C14.301 14.0721 14.3532 14.1506 14.4192 14.2166C14.4852 14.2826 14.5637 14.3348 14.6502 14.3702C14.7366 14.4055 14.8292 14.4233 14.9225 14.4225C15.0159 14.4217 15.1081 14.4023 15.1939 14.3655C15.2797 14.3286 15.3573 14.2751 15.4222 14.2079L15.7737 13.8563C16.2779 13.3512 16.561 12.6667 16.561 11.953C16.561 11.2393 16.2779 10.5548 15.7737 10.0496C15.533 9.80828 15.3978 9.48133 15.3978 9.14047C15.3978 8.79962 15.533 8.47267 15.7737 8.23133C15.9055 8.09948 15.9796 7.92067 15.9796 7.73422C15.9796 7.54778 15.9055 7.36897 15.7737 7.23712Z" fill="#1B1B1B"/>
<path d="M22.1018 8.23066C22.2299 8.09805 22.3008 7.92043 22.2992 7.73608C22.2976 7.55172 22.2236 7.37537 22.0933 7.245C21.9629 7.11464 21.7866 7.04069 21.6022 7.03909C21.4178 7.03749 21.2402 7.10836 21.1076 7.23644C20.6035 7.74158 20.3203 8.42611 20.3203 9.1398C20.3203 9.85348 20.6035 10.538 21.1076 11.0432C21.3483 11.2845 21.4835 11.6114 21.4835 11.9523C21.4835 12.2932 21.3483 12.6201 21.1076 12.8614L20.7561 13.213C20.6889 13.2779 20.6353 13.3554 20.5985 13.4412C20.5616 13.527 20.5422 13.6193 20.5414 13.7126C20.5406 13.806 20.5584 13.8986 20.5938 13.985C20.6291 14.0714 20.6813 14.1499 20.7473 14.2159C20.8134 14.282 20.8919 14.3342 20.9783 14.3695C21.0647 14.4049 21.1573 14.4227 21.2506 14.4218C21.344 14.421 21.4363 14.4016 21.5221 14.3648C21.6078 14.3279 21.6854 14.2744 21.7503 14.2072L22.1018 13.8557C22.606 13.3505 22.8892 12.666 22.8892 11.9523C22.8892 11.2386 22.606 10.5541 22.1018 10.0489C21.8611 9.8076 21.726 9.48065 21.726 9.1398C21.726 8.79894 21.8611 8.472 22.1018 8.23066Z" fill="#1B1B1B"/>
<path d="M28.43 7.23712C28.2981 7.1053 28.1193 7.03125 27.9329 7.03125C27.7464 7.03125 27.5676 7.1053 27.4358 7.23712C26.9316 7.74226 26.6484 8.42679 26.6484 9.14047C26.6484 9.85416 26.9316 10.5387 27.4358 11.0438C27.6765 11.2852 27.8116 11.6121 27.8116 11.953C27.8116 12.2938 27.6765 12.6208 27.4358 12.8621L27.0842 13.2137C27.017 13.2785 26.9635 13.3561 26.9266 13.4419C26.8898 13.5277 26.8704 13.62 26.8696 13.7133C26.8688 13.8067 26.8865 13.8993 26.9219 13.9857C26.9572 14.0721 27.0095 14.1506 27.0755 14.2166C27.1415 14.2826 27.22 14.3348 27.3064 14.3702C27.3928 14.4055 27.4854 14.4233 27.5788 14.4225C27.6721 14.4217 27.7644 14.4023 27.8502 14.3655C27.936 14.3286 28.0135 14.2751 28.0784 14.2079L28.43 13.8563C28.9341 13.3512 29.2173 12.6667 29.2173 11.953C29.2173 11.2393 28.9341 10.5548 28.43 10.0496C28.1893 9.80828 28.0541 9.48133 28.0541 9.14047C28.0541 8.79962 28.1893 8.47267 28.43 8.23133C28.5618 8.09948 28.6358 7.92067 28.6358 7.73422C28.6358 7.54778 28.5618 7.36897 28.43 7.23712Z" fill="#1B1B1B"/>
</svg>
