<svg width="46" height="45" viewBox="0 0 46 45" fill="none" xmlns="http://www.w3.org/2000/svg">
<path d="M37.0742 15H20.1992C19.6836 15 19.2617 15.4219 19.2617 15.9375V23.4375H8.01172V10.3125C8.01172 9.79688 7.58984 9.375 7.07422 9.375H4.26172C3.74609 9.375 3.32422 9.79688 3.32422 10.3125V34.6875C3.32422 35.2031 3.74609 35.625 4.26172 35.625H7.07422C7.58984 35.625 8.01172 35.2031 8.01172 34.6875V30H38.0117V34.6875C38.0117 35.2031 38.4336 35.625 38.9492 35.625H41.7617C42.2773 35.625 42.6992 35.2031 42.6992 34.6875V20.625C42.6992 17.5219 40.1773 15 37.0742 15ZM19.2617 28.125H7.07422C6.55859 28.125 6.13672 28.5469 6.13672 29.0625V33.75H5.19922V11.25H6.13672V24.375C6.13672 24.8906 6.55859 25.3125 7.07422 25.3125H19.2617V28.125ZM40.8242 33.75H39.8867V29.0625C39.8867 28.5469 39.4648 28.125 38.9492 28.125H21.1367V16.875H37.0742C39.1461 16.875 40.8242 18.5531 40.8242 20.625V33.75Z" fill="black"/>
<path d="M8.94922 17.8125C8.94922 20.4 11.0492 22.5 13.6367 22.5C16.2242 22.5 18.3242 20.4 18.3242 17.8125C18.3242 15.225 16.2242 13.125 13.6367 13.125C11.0492 13.125 8.94922 15.225 8.94922 17.8125ZM16.4492 17.8125C16.4492 19.3594 15.1836 20.625 13.6367 20.625C12.0898 20.625 10.8242 19.3594 10.8242 17.8125C10.8242 16.2656 12.0898 15 13.6367 15C15.1836 15 16.4492 16.2656 16.4492 17.8125Z" fill="black"/>
</svg>
