<svg width="46" height="45" viewBox="0 0 46 45" fill="none" xmlns="http://www.w3.org/2000/svg">
<path d="M20.9188 32.3091H14.0099L11.5605 40.121C11.5605 40.121 11.5606 40.1211 11.5607 40.1211H34.462C34.462 40.1211 34.462 40.121 34.462 40.121L32.0128 32.3091H25.1252" stroke="#1B1B1B" stroke-width="1.2" stroke-miterlimit="10" stroke-linecap="round" stroke-linejoin="round"/>
<path d="M18.6264 14.8609C17.9493 14.8609 17.4004 15.4099 17.4004 16.0871V22.6509C17.4004 24.0562 18.5599 25.1953 19.9903 25.1953H26.0337C27.464 25.1953 28.6235 24.0562 28.6235 22.6509V16.0871C28.6235 15.4099 28.0746 14.8609 27.3975 14.8609H18.6264Z" stroke="#1B1B1B" stroke-width="1.2" stroke-miterlimit="10" stroke-linecap="round" stroke-linejoin="round"/>
<path d="M20.4688 17.2227V13.3064C20.4688 11.9083 21.6072 10.775 23.0115 10.775C24.4157 10.775 25.5542 11.9083 25.5542 13.3064V17.2227" stroke="#1B1B1B" stroke-width="1.2" stroke-miterlimit="10" stroke-linecap="round" stroke-linejoin="round"/>
<path d="M23.0677 4.87972C15.8002 4.84985 9.8593 10.7404 9.85938 17.9756C9.85945 23.7422 13.6029 28.6381 18.8022 30.386C19.5957 30.6527 20.2781 31.1732 20.7315 31.8741L23.0123 35.4004L25.2927 31.8748C25.7487 31.1697 26.4375 30.6508 27.2354 30.3817C32.428 28.63 36.1652 23.7373 36.1652 17.9755C36.1652 10.7612 30.3064 4.90945 23.0677 4.87972Z" stroke="#1B1B1B" stroke-width="1.2" stroke-miterlimit="10" stroke-linecap="round" stroke-linejoin="round"/>
</svg>
