<svg width="46" height="45" viewBox="0 0 46 45" fill="none" xmlns="http://www.w3.org/2000/svg">
<path d="M23.0105 12.1191C17.2871 12.1191 12.6309 16.7754 12.6309 22.4987C12.6309 28.2221 17.2871 32.8784 23.0105 32.8784C28.7338 32.8784 33.3901 28.2221 33.3901 22.4987C33.3901 16.7754 28.7338 12.1191 23.0105 12.1191ZM23.0105 31.4164C18.0932 31.4164 14.0928 27.416 14.0928 22.4987C14.0928 17.5815 18.0932 13.5811 23.0105 13.5811C27.9277 13.5811 31.9282 17.5815 31.9282 22.4987C31.9282 27.416 27.9277 31.4164 23.0105 31.4164Z" fill="black"/>
<path d="M41.3345 3.87249C41.0957 3.74574 40.8064 3.76101 40.5823 3.91232C36.9939 6.33698 34.8516 10.3701 34.8516 14.701V24.1853C34.8516 25.2026 35.2477 26.159 35.967 26.8783L37.3368 28.2481V39.0193C37.3368 40.2285 38.3205 41.2122 39.5297 41.2122C40.7388 41.2122 41.7226 40.2285 41.7226 39.0193V4.51807C41.7226 4.24769 41.5733 3.99938 41.3345 3.87249ZM40.2607 39.0193C40.2607 39.4224 39.9327 39.7503 39.5297 39.7503C39.1266 39.7503 38.7987 39.4224 38.7987 39.0193V27.9453C38.7987 27.7514 38.7217 27.5655 38.5846 27.4284L37.0007 25.8445C36.5575 25.4013 36.3135 24.8121 36.3135 24.1853V14.701C36.3135 11.34 37.7667 8.18127 40.2607 6.00169V39.0193Z" fill="black"/>
<path d="M21.3334 16.7019C21.1749 16.3307 20.7453 16.1582 20.3741 16.3166C17.8937 17.3755 16.291 19.8022 16.291 22.4989C16.291 22.9026 16.6183 23.2299 17.022 23.2299C17.4257 23.2299 17.7529 22.9026 17.7529 22.4989C17.7529 20.3887 19.0071 18.4898 20.9481 17.6612C21.3194 17.5028 21.4919 17.0733 21.3334 16.7019Z" fill="black"/>
<path d="M23.011 15.7793L22.9741 15.7794C22.5704 15.7821 22.2454 16.1115 22.2481 16.5152C22.2508 16.9173 22.5775 17.2413 22.9789 17.2413C22.9806 17.2413 22.9823 17.2413 22.9839 17.2413L23.011 17.2412C23.4147 17.2412 23.742 16.914 23.742 16.5103C23.742 16.1065 23.4147 15.7793 23.011 15.7793Z" fill="black"/>
<path d="M33.1434 12.8852C31.852 11.5245 30.3297 10.4537 28.6189 9.7029C26.8473 8.92546 24.9604 8.53125 23.0106 8.53125C20.7827 8.53125 18.653 9.04044 16.6807 10.0448C16.321 10.228 16.1778 10.6681 16.361 11.0278C16.5442 11.3875 16.9843 11.5306 17.3441 11.3475C19.1089 10.4488 21.0154 9.99317 23.0106 9.99317C26.4751 9.99317 29.6971 11.3776 32.083 13.8916C32.2267 14.043 32.4198 14.1194 32.6133 14.1194C32.794 14.1194 32.975 14.0528 33.1164 13.9186C33.4092 13.6406 33.4212 13.178 33.1434 12.8852Z" fill="black"/>
<path d="M33.8538 30.1282C33.5371 29.878 33.0775 29.9317 32.8271 30.2483C30.4374 33.2708 26.8597 35.0042 23.0114 35.0042C20.6029 35.0042 18.2648 34.3183 16.2499 33.0206C15.9106 32.8019 15.4581 32.9 15.2395 33.2393C15.021 33.5787 15.1189 34.031 15.4583 34.2496C17.7098 35.6997 20.3217 36.4661 23.0114 36.4661C27.3095 36.4661 31.3051 34.5303 33.9738 31.1549C34.2242 30.8384 34.1705 30.3787 33.8538 30.1282Z" fill="black"/>
<path d="M14.2365 31.4118L14.2257 31.3995C14.2219 31.3947 14.218 31.3899 14.214 31.3852C13.954 31.0763 13.4929 31.0369 13.184 31.2968C12.8752 31.5569 12.8356 32.0179 13.0957 32.3268L13.1028 32.3352L13.1031 32.3349C13.1109 32.3447 13.1189 32.3545 13.1273 32.3641C13.2718 32.5325 13.4764 32.6189 13.6822 32.6189C13.8508 32.6189 14.0201 32.561 14.158 32.4426C14.4642 32.1796 14.4994 31.7182 14.2365 31.4118Z" fill="black"/>
<path d="M13.3627 3.78711C12.959 3.78711 12.6318 4.11436 12.6318 4.51807V12.4124H11.3154C11.3155 12.4083 11.316 12.4044 11.316 12.4002V4.51807C11.316 4.11436 10.9888 3.78711 10.5851 3.78711C10.1814 3.78711 9.85411 4.11436 9.85411 4.51807V12.4002C9.85411 12.4043 9.8547 12.4083 9.8547 12.4124H8.5378C8.53788 12.4083 8.53839 12.4044 8.53839 12.4002V4.51807C8.53839 4.11436 8.21114 3.78711 7.80743 3.78711C7.40372 3.78711 7.07647 4.11436 7.07647 4.51807V12.4002C7.07647 12.4043 7.07705 12.4083 7.07705 12.4124H5.76074V4.51807C5.76074 4.11436 5.43349 3.78711 5.02979 3.78711C4.62608 3.78711 4.29883 4.11436 4.29883 4.51807V13.4358C4.29883 15.2288 5.38679 16.8471 7.00337 17.5466V39.0193C7.00337 40.2285 7.9871 41.2122 9.19625 41.2122C10.4054 41.2122 11.3891 40.2285 11.3891 39.0193V17.5466C13.0057 16.8471 14.0937 15.2288 14.0937 13.4358V4.51807C14.0937 4.11436 13.7664 3.78711 13.3627 3.78711ZM10.4553 16.3318C10.1425 16.4222 9.92721 16.7085 9.92721 17.034V39.0193C9.92721 39.4224 9.5993 39.7503 9.19625 39.7503C8.7932 39.7503 8.46529 39.4224 8.46529 39.0193V17.034C8.46529 16.7085 8.25002 16.4222 7.93725 16.3318C6.79819 16.0027 5.96505 15.0249 5.79378 13.8743H12.5986C12.4275 15.0249 11.5943 16.0027 10.4553 16.3318Z" fill="black"/>
</svg>
