<svg width="36" height="32" viewBox="0 0 36 32" fill="none" xmlns="http://www.w3.org/2000/svg">
<path d="M12.1292 11.8315L16.7169 8.59506H26.1026V11.8315H17.7785L13.1568 15.068H1.82919V11.8315H12.1292ZM13.6115 20.0198L18.3448 18.2964L19.4517 21.3386L14.7184 23.0604C14.9412 24.8368 14.5019 26.633 13.4842 28.1059C12.4666 29.5789 10.942 30.6254 9.20174 31.0455C7.46143 31.4656 5.62736 31.2299 4.04984 30.3834C2.47231 29.5369 1.2619 28.1389 0.64979 26.4565C0.0376824 24.7741 0.0667825 22.9252 0.731532 21.2629C1.39628 19.6006 2.65009 18.2414 4.25347 17.445C5.85686 16.6485 7.69744 16.4707 9.42366 16.9453C11.1499 17.42 12.6408 18.5139 13.6115 20.0182V20.0198ZM7.49299 28.0138C8.56595 28.0138 9.59496 27.5876 10.3536 26.8289C11.1123 26.0702 11.5386 25.0412 11.5386 23.9683C11.5386 22.8953 11.1123 21.8663 10.3536 21.1076C9.59496 20.3489 8.56595 19.9227 7.49299 19.9227C6.42004 19.9227 5.39103 20.3489 4.63234 21.1076C3.87365 21.8663 3.44742 22.8953 3.44742 23.9683C3.44742 25.0412 3.87365 26.0702 4.63234 26.8289C5.39103 27.5876 6.42004 28.0138 7.49299 28.0138ZM28.53 31.2503C27.5737 31.2503 26.6268 31.0619 25.7433 30.696C24.8598 30.33 24.057 29.7936 23.3808 29.1174C22.7046 28.4412 22.1682 27.6385 21.8023 26.755C21.4363 25.8715 21.248 24.9245 21.248 23.9683C21.248 23.012 21.4363 22.065 21.8023 21.1815C22.1682 20.298 22.7046 19.4953 23.3808 18.8191C24.057 18.1429 24.8598 17.6065 25.7433 17.2405C26.6268 16.8746 27.5737 16.6862 28.53 16.6862C30.4613 16.6862 32.3135 17.4534 33.6792 18.8191C35.0448 20.1847 35.812 22.0369 35.812 23.9683C35.812 25.8996 35.0448 27.7518 33.6792 29.1174C32.3135 30.4831 30.4613 31.2503 28.53 31.2503ZM28.53 28.0138C29.6029 28.0138 30.632 27.5876 31.3906 26.8289C32.1493 26.0702 32.5756 25.0412 32.5756 23.9683C32.5756 22.8953 32.1493 21.8663 31.3906 21.1076C30.632 20.3489 29.6029 19.9227 28.53 19.9227C27.457 19.9227 26.428 20.3489 25.6693 21.1076C24.9106 21.8663 24.4844 22.8953 24.4844 23.9683C24.4844 25.0412 24.9106 26.0702 25.6693 26.8289C26.428 27.5876 27.457 28.0138 28.53 28.0138ZM5.06565 13.4498H14.775L18.9824 10.6454L19.4355 8.95269L22.562 9.79093L19.4517 21.3305L16.5033 19.8935L16.6943 19.1815L13.1568 21.5409L11.5386 18.3044H5.06565V13.4498ZM24.6333 5.3586H30.9573V10.2133H26.4004L29.5074 18.7511L26.4651 19.8579L22.9568 10.2133H22.8662V9.96732L20.6007 3.74037H16.3933V0.503906H22.8662L24.6333 5.3586Z" fill="#F2C94C"/>
</svg>
