<svg width="36" height="29" viewBox="0 0 36 29" fill="none" xmlns="http://www.w3.org/2000/svg">
<path d="M2.69727 24.666C2.69727 26.9107 4.51695 28.7304 6.76162 28.7304C9.0063 28.7304 10.826 26.9107 10.826 24.666H2.69727Z" fill="#EB5757"/>
<path d="M25.1875 24.666C25.1875 26.9107 27.0072 28.7304 29.2519 28.7304C31.4965 28.7304 33.3162 26.9107 33.3162 24.666H25.1875Z" fill="#EB5757"/>
<path d="M29.1856 12.4735H23.1554C23.1554 12.7299 23.1554 17.7096 23.1554 20.6022H18.9556V16.5378H19.9717C20.5333 16.5378 20.9878 16.0834 20.9878 15.5218C20.9878 14.9601 20.5333 14.5057 19.9717 14.5057H15.9073C15.3467 14.5057 14.8913 14.0502 14.8913 13.4896V6.37695H12.8591V13.4896C12.8591 15.1705 14.2265 16.5378 15.9073 16.5378H16.9234V20.6022H12.4858C11.6459 18.2397 9.41319 16.5378 6.76255 16.5378C3.3955 16.5378 0.666016 19.2673 0.666016 22.6344C1.06066 22.6344 25.1482 22.6344 26.2037 22.6344C26.5695 22.6344 26.9149 22.4514 27.0979 22.106C27.1658 21.9026 29.252 18.23 29.252 13.4896C29.252 13.1383 29.2072 12.8133 29.1856 12.4735Z" fill="#EB5757"/>
<path d="M33.3163 0.28125H7.77864C3.85044 0.28125 0.666016 3.46567 0.666016 7.39387V17.3158C2.15716 15.6088 4.32326 14.5065 6.76255 14.5065V7.39387C6.76255 5.71035 8.12729 4.34561 9.81081 4.34561H33.3163C34.4387 4.34561 35.3485 3.4358 35.3485 2.31343C35.3485 1.19106 34.4387 0.28125 33.3163 0.28125Z" fill="#EB5757"/>
<path d="M32.3074 18.5703H30.6152C30.1145 20.49 29.4712 21.9229 29.1152 22.6347H34.3396C34.9007 22.6347 35.3556 22.1797 35.3556 21.6186C35.3556 19.9351 33.9909 18.5703 32.3074 18.5703Z" fill="#EB5757"/>
<path d="M27.7877 6.37695H23.1543V10.4413H28.9459C28.6473 8.78894 28.1871 7.35606 27.7877 6.37695Z" fill="#EB5757"/>
</svg>
