<svg width="34" height="31" viewBox="0 0 34 31" fill="none" xmlns="http://www.w3.org/2000/svg">
<path d="M29.6764 2.26875C29.3103 1.1625 28.2853 0.375 27.0773 0.375H6.94336C5.73532 0.375 4.72863 1.1625 4.34425 2.26875L0.537109 13.5V28.5C0.537109 29.5312 1.36077 30.375 2.36747 30.375H4.19782C5.20452 30.375 6.02818 29.5312 6.02818 28.5V26.625H27.9925V28.5C27.9925 29.5312 28.8161 30.375 29.8228 30.375H31.6532C32.6599 30.375 33.4835 29.5312 33.4835 28.5V13.5L29.6764 2.26875ZM8.77372 21C7.25452 21 6.02818 19.7437 6.02818 18.1875C6.02818 16.6313 7.25452 15.375 8.77372 15.375C10.2929 15.375 11.5193 16.6313 11.5193 18.1875C11.5193 19.7437 10.2929 21 8.77372 21ZM25.2469 21C23.7277 21 22.5014 19.7437 22.5014 18.1875C22.5014 16.6313 23.7277 15.375 25.2469 15.375C26.7661 15.375 27.9925 16.6313 27.9925 18.1875C27.9925 19.7437 26.7661 21 25.2469 21ZM5.68041 9.75L7.58398 4.125H26.4184L28.3219 9.75H5.68041Z" fill="#F2994A"/>
</svg>
