<svg width="46" height="31" viewBox="0 0 46 31" fill="none" xmlns="http://www.w3.org/2000/svg">
<path fill-rule="evenodd" clip-rule="evenodd" d="M16.0427 25.3625C16.0024 25.6079 15.9841 25.8606 15.9841 26.1169C15.9841 28.7426 18.1118 30.8667 20.7339 30.8667C23.356 30.8667 25.4836 28.739 25.4836 26.1169C25.4836 25.8606 25.4617 25.6079 25.425 25.3625H33.1411C33.1082 25.5859 33.0935 25.8166 33.0935 26.051C33.0935 28.7133 35.2505 30.8703 37.9128 30.8703C40.5752 30.8703 42.7322 28.7133 42.7322 26.051C42.7322 25.758 42.7065 25.4724 42.6553 25.194C44.2483 25.0878 45.5154 23.8977 45.5154 22.2753V12.8234L39.5242 6.37813H33.5073C33.1411 6.37813 32.8848 6.71138 32.8445 7.07393L31.3137 20.6897H23.7917V19.4995H29.0908C29.2739 19.4995 29.4314 19.4226 29.5522 19.3017C29.6731 19.1809 29.7537 19.0087 29.7756 18.8293L31.2185 6.11812C31.592 2.82955 31.8411 2.82954 34.6755 2.85152C34.9612 2.85518 35.2578 2.85518 35.4519 2.85518H35.635L35.6313 2.67207L35.5581 0.328323L35.5544 0.156204H35.3823C34.8916 0.156204 34.4888 0.14888 34.1042 0.145218C30.5117 0.0939484 28.6514 0.0683139 28.3364 4.25777L2.12671 4.26143C1.93994 4.26143 1.77515 4.33833 1.6543 4.45918C1.53345 4.58003 1.45288 4.75215 1.44189 4.93892L0.511719 18.8V18.8073V18.8366V18.844C0.511719 19.0197 0.588623 19.1809 0.709473 19.3017C0.82666 19.4152 0.987793 19.4921 1.15625 19.5031H1.16357H1.19653H1.20386H7.48804V20.6933H2.29517C1.625 20.6933 1.06836 21.2207 1.06836 21.8615V24.198C1.06836 24.8388 1.62134 25.3662 2.29517 25.3662H3.63184C3.59155 25.6115 3.57324 25.8642 3.57324 26.1206C3.57324 28.7463 5.70093 30.8703 8.323 30.8703C10.9487 30.8703 13.0728 28.7426 13.0728 26.1206C13.0728 25.8642 13.0508 25.6115 13.0142 25.3662H16.0427V25.3625ZM9.9856 25.3625L9.97095 25.3332L9.96729 25.3259L9.9563 25.3039L9.94897 25.2856L9.94165 25.2746L9.927 25.2453L9.91235 25.216L9.90869 25.205L9.89771 25.1867L9.88672 25.1684L9.88306 25.1611L9.86475 25.1318L9.84644 25.1062L9.82812 25.0805L9.81348 25.0585L9.80981 25.0549L9.7915 25.0293L9.78784 25.0256L9.76953 25.0036L9.75854 24.989L9.74756 24.978L9.72925 24.956L9.72559 24.9523L9.69995 24.9231L9.6853 24.9047L9.67065 24.8901L9.66699 24.8791L9.64502 24.8571L9.62305 24.8352L9.61572 24.8278L9.60107 24.8132L9.58643 24.7985L9.5791 24.7912L9.55713 24.7692L9.53516 24.7509L9.52417 24.7399L9.50952 24.729L9.48389 24.707L9.48022 24.7033L9.45459 24.6814L9.45093 24.6777L9.42896 24.6594L9.41431 24.6484L9.40332 24.6411L9.38135 24.6228L9.37769 24.6191L9.35205 24.6008L9.34473 24.5971L9.32642 24.5825L9.30811 24.5715L9.27515 24.5532L9.27148 24.5495L9.24219 24.5312L9.2312 24.5239L9.21289 24.5129L9.19092 24.5019L9.18359 24.4982L9.1543 24.4873L9.12866 24.4726L9.11401 24.4653H9.11035L9.07373 24.447L9.06641 24.4433L9.03711 24.4287L9.03345 24.425L9.9856 25.3625ZM8.94922 24.3994L8.91626 24.3884L8.90894 24.3847L8.88696 24.3774L8.86865 24.3701L8.85767 24.3664L8.82471 24.3554L8.79175 24.3481L8.78076 24.3444L8.75879 24.3408L8.73682 24.3335L8.72949 24.3298L8.69653 24.3225H8.69287L8.66357 24.3151L8.64893 24.3115L8.63062 24.3078L8.60498 24.3042H8.59766H8.56104H8.55371L8.52441 24.3005L8.5061 24.2968H8.49146L8.46216 24.2932H8.4585L8.42554 24.2895H8.41455H8.37427H8.36694H8.35596H8.323H8.29004H8.27905H8.27173H8.23145H8.22046L8.1875 24.2932H8.18384L8.15454 24.2968H8.13989L8.12158 24.3005L8.08862 24.3042H8.0813L8.04834 24.3078H8.04102L8.01538 24.3115L7.99707 24.3151L7.98242 24.3188L7.95312 24.3261H7.94946L7.9165 24.3335L7.90552 24.3371L7.88354 24.3444L7.86157 24.3481L7.85059 24.3518L7.81763 24.3591L7.78467 24.3701L7.77368 24.3737L7.75537 24.3811L7.7334 24.3884L7.72607 24.392L7.69678 24.403H7.69312L7.66382 24.414L7.64917 24.4213L7.60889 24.436L7.60523 24.4397L7.57593 24.4543L7.5686 24.458L7.54297 24.469L7.52466 24.4763L7.51367 24.4836L7.48804 24.4982H7.48438L7.45508 24.5129L7.44775 24.5166L7.42944 24.5275L7.41113 24.5385L7.40015 24.5459L7.37085 24.5642L7.34521 24.5825L7.33423 24.5898L7.31592 24.6008L7.29761 24.6154L7.29028 24.6191L7.26465 24.6374L7.26099 24.6411L7.23901 24.6594L7.22803 24.6667L7.21338 24.6777L7.19141 24.696L7.18774 24.6997L7.16211 24.7216L7.15845 24.7253L7.14014 24.7399L7.12549 24.7509L7.1145 24.7619L7.09253 24.7802L7.07056 24.8022L7.05225 24.8205L7.04858 24.8242L7.03394 24.8388L7.02661 24.8461L7.00464 24.8681L6.98267 24.8901L6.96069 24.9157L6.94604 24.934L6.94238 24.9414L6.92041 24.967L6.91675 24.9707L6.89844 24.9926L6.88745 25.0036L6.87646 25.0183L6.85815 25.0402L6.85449 25.0439L6.83618 25.0695L6.83252 25.0732L6.81787 25.0952L6.79956 25.1208L6.78125 25.1464L6.76294 25.1757L6.75928 25.1831L6.74829 25.2014L6.7373 25.2197L6.72998 25.2307L6.72632 25.238L6.70435 25.2819L6.70068 25.2856L6.69336 25.2966L6.68604 25.3149L6.67505 25.3369L6.67139 25.3442L6.65674 25.3735C6.55054 25.6042 6.49194 25.8606 6.49194 26.1279C6.49194 27.1386 7.30859 27.9553 8.31934 27.9553C9.33008 27.9553 10.1467 27.1386 10.1467 26.1279C10.1467 25.8569 10.0881 25.6042 9.98193 25.3735L8.94922 24.3994ZM39.5535 25.2014L39.5388 25.1721L39.5242 25.1428L39.5168 25.1245L39.5095 25.1135L39.4949 25.0878L39.4802 25.0622L39.4729 25.0512L39.4583 25.0366C39.4399 25.0109 39.4216 24.9853 39.4033 24.9597L39.3887 24.9414L39.385 24.934L39.3667 24.9084L39.3521 24.8901L39.3447 24.8828L39.3337 24.8681L39.3301 24.8645L39.3264 24.8608C39.3081 24.8388 39.2898 24.8169 39.2678 24.7949L39.2495 24.7766L39.2458 24.7729L39.2239 24.7509L39.2166 24.7436L39.2019 24.729L39.1873 24.7143L39.1799 24.707L39.158 24.685L39.1543 24.6814L39.136 24.663L39.1213 24.6521L39.1104 24.6447L39.0847 24.6264L39.0627 24.6081L39.0518 24.6008L39.0371 24.5898L39.0151 24.5715L39.0115 24.5678L38.9858 24.5495L38.9785 24.5422L38.9639 24.5275L38.9456 24.5129L38.9382 24.5092L38.9126 24.4909L38.9089 24.4873L38.887 24.4726L38.8723 24.4616L38.8613 24.4543L38.8357 24.4397L38.8101 24.425L38.7991 24.4177L38.7844 24.4104L38.7588 24.3994L38.7551 24.3957L38.7258 24.3811L38.7185 24.3774L38.7002 24.3664L38.6782 24.3554L38.6709 24.3518L38.6416 24.3408L38.6379 24.3371L38.6123 24.3261L38.594 24.3188L38.583 24.3151L38.5537 24.3042L38.5244 24.2932L38.5098 24.2895L38.4915 24.2822L38.4658 24.2749H38.4622L38.4329 24.2639L38.4255 24.2602L38.4036 24.2529L38.3816 24.2456L38.3743 24.2419L38.3413 24.2346H38.3376L38.312 24.2273L38.2937 24.2236L38.2791 24.2199L38.2461 24.2126L38.2131 24.2089L38.1985 24.2053L38.1802 24.2016L38.1509 24.198H38.1472L38.1143 24.1943H38.1033L38.0813 24.1906L38.0593 24.187L38.0154 24.1833H38.0117H37.9824H37.9641H37.9165H37.8689H37.8506H37.8213H37.8176L37.7737 24.187L37.7517 24.1906L37.7297 24.1943H37.7188L37.6858 24.198H37.6821L37.6528 24.2016L37.6345 24.2053L37.6199 24.2089L37.5869 24.2126L37.543 24.2199L37.5247 24.2236L37.499 24.2309H37.4954L37.4624 24.2382L37.4551 24.2419H37.4514L37.4148 24.2529H37.4111L37.4038 24.2565L37.3745 24.2675H37.3708L37.3452 24.2749L37.3269 24.2822L37.3123 24.2858L37.283 24.2968L37.2537 24.3078L37.2427 24.3115L37.2244 24.3188L37.1987 24.3298L37.1951 24.3335L37.1658 24.3444L37.1584 24.3481L37.1365 24.3591L37.1182 24.3701L37.1108 24.3737L37.0815 24.3884L37.0779 24.392L37.0522 24.403L37.0376 24.4104H37.0339L36.9973 24.4323L36.9717 24.447L36.9607 24.4543L36.946 24.4653L36.9241 24.4799L36.9204 24.4836L36.8948 24.5019L36.8875 24.5056L36.8691 24.5202L36.8508 24.5312L36.8435 24.5385L36.8179 24.5568L36.8142 24.5605L36.7922 24.5788L36.7666 24.5935L36.7556 24.6008L36.7336 24.6191L36.708 24.6374L36.697 24.6447L36.6824 24.6557L36.6641 24.674L36.6604 24.6777L36.6384 24.6997L36.6311 24.707L36.6128 24.7216L36.5981 24.7363L36.5908 24.7436L36.5688 24.7656L36.5652 24.7692L36.5469 24.7876L36.5359 24.7985L36.5249 24.8095L36.5066 24.8315L36.4883 24.8535L36.481 24.8645L36.47 24.8791L36.4553 24.8974L36.4517 24.9011L36.4333 24.9267L36.4297 24.934L36.415 24.9523L36.4041 24.9707L36.3967 24.978L36.3784 25.0036L36.3564 25.0366L36.3455 25.0512L36.3381 25.0622L36.3235 25.0878L36.3088 25.1135L36.3015 25.1245L36.2905 25.1428L36.2869 25.1464L36.2759 25.1684L36.2612 25.1977C36.1294 25.4504 36.0562 25.7397 36.0562 26.0473C36.0562 27.069 36.8838 27.9003 37.9092 27.9003C38.9309 27.9003 39.7622 27.0727 39.7622 26.0473C39.7622 25.7434 39.6853 25.4541 39.5535 25.2014ZM39.4949 9.16133L42.5161 12.7612V14.0722H35.8291V9.16133H39.4949ZM13.0178 12.1862H17.1523L16.5701 15.852H12.4355L13.0178 12.1862ZM6.30518 6.52461H10.4397L9.85742 10.1904H5.72656L6.30518 6.52461ZM5.4043 12.1862H9.53882L8.95654 15.852H4.82202L5.4043 12.1862ZM21.6897 6.52461H25.8242L25.2419 10.1904H21.1074L21.6897 6.52461ZM20.7852 12.1862H24.9197L24.3374 15.852H20.0491L20.7852 12.1862ZM13.9187 6.52461H18.0532L17.4709 10.1904H13.3401L13.9187 6.52461ZM20.7339 24.2895H20.7009H20.6899H20.6826H20.6423H20.6313L20.5984 24.2932H20.5947L20.5654 24.2968H20.5508L20.5325 24.3005L20.5032 24.3042H20.4958L20.4629 24.3078H20.4556L20.4299 24.3115L20.4116 24.3151L20.397 24.3188L20.3677 24.3261H20.364L20.3311 24.3335L20.3201 24.3371L20.2981 24.3444L20.2761 24.3481L20.2651 24.3518L20.2322 24.3591L20.1992 24.3701L20.1882 24.3737L20.1699 24.3811L20.1479 24.3884L20.1406 24.392L20.1113 24.403H20.1077L20.0784 24.414L20.0637 24.4213L20.0234 24.436L20.0198 24.4397L19.9905 24.4543L19.9832 24.458L19.9575 24.469L19.9429 24.4763L19.9282 24.4836L19.9026 24.4982H19.8989L19.8696 24.5129L19.8623 24.5166L19.844 24.5275L19.8257 24.5385L19.8147 24.5459L19.7854 24.5642L19.7598 24.5825L19.7488 24.5898L19.7305 24.6008L19.7122 24.6154L19.7048 24.6191L19.6792 24.6374L19.6755 24.6411L19.6536 24.6594L19.6426 24.6667L19.6279 24.6777L19.606 24.696L19.6023 24.6997L19.5767 24.7216L19.573 24.7253L19.5547 24.7399L19.54 24.7509L19.5291 24.7619L19.5071 24.7802L19.4851 24.8022L19.4668 24.8205L19.4631 24.8242L19.4485 24.8388L19.4412 24.8461L19.4192 24.8681L19.3972 24.8901L19.3752 24.9157L19.3606 24.934L19.3569 24.9414L19.335 24.967L19.3313 24.9707L19.313 24.9926L19.302 25.0036L19.291 25.0183L19.2727 25.0402L19.269 25.0439L19.2507 25.0695L19.2471 25.0732L19.2324 25.0952L19.2141 25.1208L19.1958 25.1464L19.1775 25.1757L19.1738 25.1831L19.1628 25.2014L19.1519 25.2197L19.1482 25.2307L19.1445 25.238L19.1226 25.2819L19.1189 25.2856L19.1116 25.2966L19.1042 25.3149L19.0933 25.3369L19.0896 25.3442L19.075 25.3735C18.9688 25.6042 18.9102 25.8606 18.9102 26.1279C18.9102 27.1386 19.7268 27.9553 20.7375 27.9553C21.7483 27.9553 22.5649 27.1386 22.5649 26.1279C22.5649 25.8569 22.5063 25.6042 22.4001 25.3735L22.3855 25.3442L22.3818 25.3369L22.3708 25.3149L22.3635 25.2966L22.3562 25.2856L22.3416 25.2563L22.3269 25.227L22.3232 25.216L22.3123 25.1977L22.3013 25.1794L22.2976 25.1721L22.2793 25.1428L22.261 25.1171L22.2427 25.0915L22.228 25.0695L22.2244 25.0659L22.2061 25.0402L22.2024 25.0366L22.1841 25.0146L22.1731 25L22.1621 24.989L22.1438 24.967L22.1401 24.9633L22.1182 24.9194L22.1035 24.9011L22.0889 24.8864L22.0815 24.8791L22.0596 24.8571L22.0376 24.8352L22.0303 24.8278L22.0156 24.8132L21.9973 24.7985L21.99 24.7912L21.968 24.7692L21.946 24.7509L21.9351 24.7399L21.9204 24.729L21.8984 24.707L21.8948 24.7033L21.8691 24.6814L21.8655 24.6777L21.8435 24.6594L21.8289 24.6484L21.8179 24.6411L21.7959 24.6228L21.7922 24.6191L21.7666 24.6008L21.7593 24.5971L21.741 24.5825L21.7227 24.5715L21.6897 24.5532L21.686 24.5495L21.6567 24.5312L21.6458 24.5239L21.6274 24.5129L21.6055 24.5019L21.5981 24.4982L21.5652 24.4836L21.5396 24.469L21.5249 24.4616H21.5212L21.4846 24.4433L21.4773 24.4397L21.448 24.425L21.4443 24.4213C21.4187 24.4104 21.3894 24.3994 21.3638 24.3884H21.3601L21.3308 24.3774L21.3235 24.3737L21.3015 24.3664L21.2832 24.3591L21.2722 24.3554L21.2393 24.3444L21.2063 24.3371L21.1953 24.3335L21.1733 24.3298L21.1514 24.3225L21.144 24.3188L21.1111 24.3115H21.1074L21.0781 24.3042L21.0635 24.3005L21.0452 24.2968L21.0195 24.2932H21.0122L20.9719 24.3042H20.9646L20.9353 24.3005L20.917 24.2968H20.9023L20.873 24.2932H20.8694L20.8364 24.2895H20.8254H20.7852H20.7778H20.7668H20.7339Z" fill="#007AFF"/>
</svg>
